%FSLAX45Y45*%
G04 Gerber Fmt 4.5, Leading zero omitted, Abs format (unit mm)*
G04 Created by KiCad (PCBNEW 5.1.5+dfsg1-2build2) date 2021-07-11 13:57:16*
%MOMM*%
%LPD*%
G04 APERTURE LIST*
%TA.AperFunction,Profile*%
%ADD10C,0.200000*%
%TD*%
%ADD11C,0.200000*%
%ADD12C,0.300000*%
G04 APERTURE END LIST*
D10*
X5058377Y-3692948D02*
X1369750Y-3692948D01*
X1985742Y-9365270D02*
X1978884Y-9387368D01*
X1978884Y-9387368D02*
X1978884Y-9387368D01*
X1978884Y-9387368D02*
X1978630Y-9387876D01*
X1978630Y-9387876D02*
X1978630Y-9388384D01*
X1978630Y-9388384D02*
X1967708Y-9408704D01*
X1967708Y-9408704D02*
X1967708Y-9408704D01*
X1967708Y-9408704D02*
X1967454Y-9409212D01*
X6682451Y-9474744D02*
X6682451Y-9474744D01*
X6682451Y-9474744D02*
X6682451Y-9474998D01*
X6682451Y-9474998D02*
X6682959Y-9474998D01*
X6682959Y-9474998D02*
X6683213Y-9475506D01*
X6683213Y-9475506D02*
X6701247Y-9489984D01*
X6701247Y-9489984D02*
X6701247Y-9489984D01*
X6701247Y-9489984D02*
X6701501Y-9490492D01*
X6701501Y-9490492D02*
X6701755Y-9490746D01*
X6701755Y-9490746D02*
X6716741Y-9508526D01*
X6716741Y-9508526D02*
X6716741Y-9508526D01*
X6716741Y-9508526D02*
X6716995Y-9509034D01*
X6716995Y-9509034D02*
X6717249Y-9509288D01*
X6717249Y-9509288D02*
X6728171Y-9529862D01*
X6728171Y-9529862D02*
X6728171Y-9529862D01*
X6728171Y-9529862D02*
X6728171Y-9529862D01*
X6728171Y-9529862D02*
X6728171Y-9529862D01*
X6728171Y-9529862D02*
X6728425Y-9530116D01*
X6728425Y-9530116D02*
X6728679Y-9530624D01*
X6728679Y-9530624D02*
X6735537Y-9552722D01*
X6735537Y-9552722D02*
X6735537Y-9552976D01*
X6735537Y-9552976D02*
X6735537Y-9553230D01*
X6735537Y-9553230D02*
X6735537Y-9553738D01*
X6735537Y-9553738D02*
X6738077Y-9576852D01*
X6738077Y-9576852D02*
X6738077Y-9576852D01*
X6738077Y-9576852D02*
X6738077Y-9577106D01*
X6738077Y-9577106D02*
X6738077Y-9577360D01*
X6738077Y-9577360D02*
X6738077Y-9577868D01*
X6738077Y-9577868D02*
X6738077Y-9577868D01*
X6738077Y-9577868D02*
X6738077Y-12295665D01*
X6738077Y-12295665D02*
X6738077Y-12296173D01*
X6738077Y-12296173D02*
X6740363Y-12318525D01*
X6740363Y-12318525D02*
X6746967Y-12339607D01*
X6746967Y-12339607D02*
X6757635Y-12359165D01*
X6757635Y-12359165D02*
X6771605Y-12376183D01*
X6771605Y-12376183D02*
X6788877Y-12390407D01*
X6808435Y-12400821D02*
X6829771Y-12407171D01*
X6829771Y-12407171D02*
X6852123Y-12409457D01*
X6852123Y-12409457D02*
X23368711Y-12408441D01*
X23368711Y-12408441D02*
X23369473Y-12408441D01*
X23369473Y-12408441D02*
X23391571Y-12406155D01*
X23391571Y-12406155D02*
X23412907Y-12399551D01*
X23412907Y-12399551D02*
X23432465Y-12388883D01*
X23432465Y-12388883D02*
X23449483Y-12374913D01*
X23449483Y-12374913D02*
X23463707Y-12357641D01*
X23463707Y-12357641D02*
X23473867Y-12338083D01*
X23473867Y-12338083D02*
X23480471Y-12316747D01*
X23480471Y-12316747D02*
X23482503Y-12294395D01*
X23482503Y-12294395D02*
X23482503Y-9577106D01*
X23482503Y-9577106D02*
X23482503Y-9576852D01*
X23482503Y-9576852D02*
X23482503Y-9576852D01*
X23482503Y-9576852D02*
X23484789Y-9553738D01*
X23484789Y-9553738D02*
X23484789Y-9553738D01*
X23484789Y-9553738D02*
X23484789Y-9553738D01*
X23484789Y-9553738D02*
X23484789Y-9553484D01*
X23484789Y-9553484D02*
X23485043Y-9553230D01*
X23485043Y-9553230D02*
X23485043Y-9552722D01*
X23485043Y-9552722D02*
X23491901Y-9530624D01*
X23491901Y-9530624D02*
X23491901Y-9530624D01*
X23491901Y-9530624D02*
X23491901Y-9530116D01*
X23491901Y-9530116D02*
X23492155Y-9529608D01*
X23492155Y-9529608D02*
X23503077Y-9509288D01*
X23503077Y-9509288D02*
X23503077Y-9509288D01*
X23503077Y-9509288D02*
X23503077Y-9509288D01*
X23503077Y-9509288D02*
X23503077Y-9509034D01*
X23503077Y-9509034D02*
X23503331Y-9508780D01*
X23503331Y-9508780D02*
X23503585Y-9508526D01*
X23503585Y-9508526D02*
X23518062Y-9490492D01*
X23518062Y-9490492D02*
X23518316Y-9490492D01*
X23518316Y-9490492D02*
X23518570Y-9489984D01*
X23518570Y-9489984D02*
X23518824Y-9489730D01*
X23518824Y-9489730D02*
X23536858Y-9474998D01*
X23536858Y-9474998D02*
X23536858Y-9474998D01*
X23536858Y-9474998D02*
X23537112Y-9474744D01*
X23537112Y-9474744D02*
X23537620Y-9474490D01*
X23537620Y-9474490D02*
X23557940Y-9463314D01*
X23557940Y-9463314D02*
X23557940Y-9463314D01*
X23557940Y-9463314D02*
X23557940Y-9463314D01*
X23557940Y-9463314D02*
X23557940Y-9463314D01*
X23557940Y-9463314D02*
X23558448Y-9463314D01*
X23558448Y-9463314D02*
X23558956Y-9463060D01*
X23558956Y-9463060D02*
X23581054Y-9456202D01*
X23581054Y-9456202D02*
X23581054Y-9456202D01*
X23581054Y-9456202D02*
X23581054Y-9456202D01*
X23581054Y-9456202D02*
X23581562Y-9455948D01*
X23581562Y-9455948D02*
X23581816Y-9455948D01*
X23581816Y-9455948D02*
X23604930Y-9453408D01*
X23604930Y-9453408D02*
X23605184Y-9453408D01*
X23605184Y-9453408D02*
X23605184Y-9453408D01*
X23605184Y-9453408D02*
X23605438Y-9453408D01*
X23605438Y-9453408D02*
X23606200Y-9453408D01*
X23606200Y-9453408D02*
X23606200Y-9453408D01*
X23606200Y-9453408D02*
X23725072Y-9453408D01*
X23725072Y-9453408D02*
X23725580Y-9453408D01*
X23725580Y-9453408D02*
X23747932Y-9451122D01*
X23747932Y-9451122D02*
X23769268Y-9444518D01*
X23769268Y-9444518D02*
X23788572Y-9434104D01*
X23788572Y-9434104D02*
X23805844Y-9419880D01*
X23805844Y-9419880D02*
X23819814Y-9402608D01*
X23819814Y-9402608D02*
X23830228Y-9383050D01*
X23830228Y-9383050D02*
X23836578Y-9361714D01*
X23836578Y-9361714D02*
X23838864Y-9339616D01*
X23838864Y-9339616D02*
X23839626Y-9318788D01*
X20039536Y-3218476D02*
X20038774Y-2927392D01*
X20038774Y-2927392D02*
X20038774Y-2926630D01*
X20038774Y-2926630D02*
X20036488Y-2904278D01*
X20036488Y-2904278D02*
X20029884Y-2883197D01*
X20029884Y-2883197D02*
X20019470Y-2863639D01*
X20019470Y-2863639D02*
X20005246Y-2846621D01*
X19968416Y-2822237D02*
X19947080Y-2815633D01*
X19947080Y-2815633D02*
X19924982Y-2813601D01*
X19924982Y-2813601D02*
X10176980Y-2814363D01*
X10176980Y-2814363D02*
X10176218Y-2814363D01*
X10176218Y-2814363D02*
X10154120Y-2816649D01*
X10154120Y-2816649D02*
X10132784Y-2823253D01*
X10132784Y-2823253D02*
X10113226Y-2833921D01*
X10113226Y-2833921D02*
X10096208Y-2848145D01*
X10096208Y-2848145D02*
X10081984Y-2865163D01*
X10081984Y-2865163D02*
X10071570Y-2884721D01*
X10071570Y-2884721D02*
X10065220Y-2906056D01*
X10065220Y-2906056D02*
X10063188Y-2928408D01*
X10063188Y-2928408D02*
X10063696Y-3217968D01*
X24324512Y-9318534D02*
X24324004Y-9339616D01*
X24324004Y-9339616D02*
X24324004Y-9340378D01*
X24324004Y-9340378D02*
X24326290Y-9362730D01*
X24326290Y-9362730D02*
X24332894Y-9383812D01*
X24332894Y-9383812D02*
X24343308Y-9403370D01*
X24343308Y-9403370D02*
X24357532Y-9420388D01*
X24357532Y-9420388D02*
X24374804Y-9434612D01*
X24374804Y-9434612D02*
X24394362Y-9445026D01*
X24394362Y-9445026D02*
X24415444Y-9451376D01*
X24415444Y-9451376D02*
X24437796Y-9453408D01*
X24437796Y-9453408D02*
X27525163Y-9453408D01*
X27525163Y-9453408D02*
X27525671Y-9453408D01*
X27525671Y-9453408D02*
X27548023Y-9451122D01*
X27548023Y-9451122D02*
X27569104Y-9444518D01*
X27569104Y-9444518D02*
X27588662Y-9434104D01*
X27588662Y-9434104D02*
X27605680Y-9419880D01*
X27605680Y-9419880D02*
X27619904Y-9402608D01*
X27619904Y-9402608D02*
X27630064Y-9383050D01*
X27630064Y-9383050D02*
X27636668Y-9361714D01*
X27636668Y-9361714D02*
X27638700Y-9339616D01*
X27638700Y-9339616D02*
X27639462Y-9318534D01*
X2465547Y-9363492D02*
X2471897Y-9384828D01*
X2471897Y-9384828D02*
X2482565Y-9404132D01*
X2482565Y-9404132D02*
X2496789Y-9421404D01*
X2496789Y-9421404D02*
X2513807Y-9435374D01*
X2513807Y-9435374D02*
X2533619Y-9445788D01*
X2533619Y-9445788D02*
X2554701Y-9452138D01*
X2554701Y-9452138D02*
X2577053Y-9454424D01*
X2577053Y-9454424D02*
X5664420Y-9454424D01*
X5664420Y-9454424D02*
X5664928Y-9454424D01*
X5664928Y-9454424D02*
X5687280Y-9452138D01*
X5687280Y-9452138D02*
X5708362Y-9445534D01*
X5708362Y-9445534D02*
X5727920Y-9434866D01*
X5727920Y-9434866D02*
X5744938Y-9420896D01*
X5744938Y-9420896D02*
X5759162Y-9403624D01*
X5759162Y-9403624D02*
X5769576Y-9384066D01*
X5769576Y-9384066D02*
X5775926Y-9362730D01*
X5775926Y-9362730D02*
X5778212Y-9340378D01*
X5778212Y-9340378D02*
X5778720Y-9318534D01*
X23838610Y-3218476D02*
X23838864Y-2927392D01*
X23838864Y-2927392D02*
X23838864Y-2926630D01*
X23838864Y-2926630D02*
X23836578Y-2904278D01*
X23836578Y-2904278D02*
X23829974Y-2883197D01*
X23829974Y-2883197D02*
X23819306Y-2863639D01*
X23819306Y-2863639D02*
X23805082Y-2846621D01*
X23805082Y-2846621D02*
X23788064Y-2832651D01*
X23788064Y-2832651D02*
X23768506Y-2822237D01*
X23768506Y-2822237D02*
X23747170Y-2815633D01*
X23747170Y-2815633D02*
X23724818Y-2813601D01*
X23724818Y-2813601D02*
X20637705Y-2813601D01*
X20637705Y-2813601D02*
X20636943Y-2813601D01*
X20636943Y-2813601D02*
X20614591Y-2815887D01*
X20614591Y-2815887D02*
X20593509Y-2822491D01*
X20593509Y-2822491D02*
X20573952Y-2832905D01*
X20573952Y-2832905D02*
X20556934Y-2847129D01*
X20556934Y-2847129D02*
X20542964Y-2864401D01*
X20542964Y-2864401D02*
X20532550Y-2883959D01*
X20532550Y-2883959D02*
X20525946Y-2905294D01*
X20525946Y-2905294D02*
X20523914Y-2927392D01*
X20523914Y-2927392D02*
X20523660Y-3218730D01*
X9578556Y-3217968D02*
X9578048Y-2928154D01*
X9578048Y-2928154D02*
X9578048Y-2927646D01*
X9578048Y-2927646D02*
X9575762Y-2905294D01*
X9575762Y-2905294D02*
X9569158Y-2884213D01*
X9569158Y-2884213D02*
X9558744Y-2864655D01*
X9558744Y-2864655D02*
X9544520Y-2847383D01*
X9544520Y-2847383D02*
X9527248Y-2833413D01*
X9527248Y-2833413D02*
X9507690Y-2822999D01*
X9507690Y-2822999D02*
X9486354Y-2816649D01*
X9486354Y-2816649D02*
X9464002Y-2814363D01*
X9464002Y-2814363D02*
X6376889Y-2814363D01*
X6376889Y-2814363D02*
X6376381Y-2814363D01*
X6376381Y-2814363D02*
X6354029Y-2816649D01*
X6354029Y-2816649D02*
X6332693Y-2823253D01*
X6332693Y-2823253D02*
X6313135Y-2833921D01*
X6313135Y-2833921D02*
X6296118Y-2848145D01*
X6296118Y-2848145D02*
X6282148Y-2865163D01*
X6282148Y-2865163D02*
X6271734Y-2884721D01*
X6271734Y-2884721D02*
X6265384Y-2906056D01*
X6265384Y-2906056D02*
X6263098Y-2928408D01*
X6263098Y-2928408D02*
X6263606Y-3217968D01*
X28237124Y-9463568D02*
X28214010Y-9461282D01*
X28793383Y-12744991D02*
X28807353Y-12727719D01*
X19987974Y-2832651D02*
X19968416Y-2822237D01*
X20005246Y-2846621D02*
X19987974Y-2832651D01*
X6788877Y-12390407D02*
X6808435Y-12400821D01*
X28826403Y-9576598D02*
X28826403Y-12664473D01*
X1275559Y-9578376D02*
X1275559Y-12665489D01*
X1987520Y-9318026D02*
X1988028Y-9340886D01*
X1988028Y-9340886D02*
X1988028Y-9341140D01*
X1988028Y-9341140D02*
X1988028Y-9341140D01*
X1988028Y-9341140D02*
X1985742Y-9364254D01*
X1985742Y-9364254D02*
X1985742Y-9364254D01*
X1985742Y-9364254D02*
X1985742Y-9364254D01*
X1985742Y-9364254D02*
X1985742Y-9364254D01*
X1985742Y-9364254D02*
X1985742Y-9364762D01*
X1985742Y-9364762D02*
X1985742Y-9365270D01*
X2463515Y-9318534D02*
X2463007Y-9340632D01*
X2463007Y-9340632D02*
X2463007Y-9341140D01*
X2463007Y-9341140D02*
X2465547Y-9363492D01*
X11666434Y-11272046D02*
X11650432Y-11270014D01*
X11683706Y-11274840D02*
X11666434Y-11272046D01*
X11700216Y-11278650D02*
X11683706Y-11274840D01*
X11715964Y-11282968D02*
X11700216Y-11278650D01*
X14683443Y-9699026D02*
X14683443Y-9690644D01*
X14681665Y-9717568D02*
X14683443Y-9699026D01*
X14678363Y-9734332D02*
X14681665Y-9717568D01*
X14673537Y-9750080D02*
X14678363Y-9734332D01*
X14667695Y-9764304D02*
X14673537Y-9750080D01*
X14660837Y-9777766D02*
X14667695Y-9764304D01*
X10708601Y-3418120D02*
X10708601Y-3268006D01*
X12558481Y-3467904D02*
X10758385Y-3467904D01*
X14650169Y-3695996D02*
X14633405Y-3692948D01*
X14663377Y-3702854D02*
X14650169Y-3695996D01*
X14673283Y-3713014D02*
X14663377Y-3702854D01*
X14680395Y-3725968D02*
X14673283Y-3713014D01*
X14683443Y-3742986D02*
X14680395Y-3725968D01*
X14683443Y-3742986D02*
X14683443Y-9690644D01*
X1987520Y-9318026D02*
X1358616Y-9318026D01*
X1308579Y-3742986D02*
X1308579Y-9267988D01*
X8758391Y-2992924D02*
X7058371Y-2992924D01*
X8808429Y-3167930D02*
X8808429Y-3042962D01*
X9578556Y-3217968D02*
X8858467Y-3217968D01*
X11715964Y-11282968D02*
X13145475Y-12109229D01*
X12608519Y-3517942D02*
X12608519Y-3642910D01*
X12575245Y-3470952D02*
X12558481Y-3467904D01*
X12588453Y-3478064D02*
X12575245Y-3470952D01*
X12598359Y-3487970D02*
X12588453Y-3478064D01*
X12605471Y-3500924D02*
X12598359Y-3487970D01*
X12608519Y-3517942D02*
X12605471Y-3500924D01*
X5108415Y-3268006D02*
X5108415Y-3642910D01*
X5788626Y-3217968D02*
X5158453Y-3217968D01*
X7008587Y-3042962D02*
X7008333Y-3167930D01*
X14633405Y-3692948D02*
X12658557Y-3692948D01*
X6867363Y-9318788D02*
X6858473Y-9316000D01*
X6882095Y-9324122D02*
X6867363Y-9318788D01*
X6893779Y-9332758D02*
X6882095Y-9324122D01*
X1341598Y-9314978D02*
X1358616Y-9318026D01*
X1328645Y-9308120D02*
X1341598Y-9314978D01*
X1318485Y-9297960D02*
X1328645Y-9308120D01*
X1311373Y-9285006D02*
X1318485Y-9297960D01*
X1308579Y-9267988D02*
X1311373Y-9285006D01*
X1358616Y-9318026D02*
X1358616Y-9318026D01*
X1311373Y-3726222D02*
X1308579Y-3742986D01*
X1318485Y-3713268D02*
X1311373Y-3726222D01*
X1328391Y-3703108D02*
X1318485Y-3713268D01*
X1341344Y-3695996D02*
X1328391Y-3703108D01*
X1369750Y-3692948D02*
X1341344Y-3695996D01*
X1308579Y-3742986D02*
X1308579Y-3742986D01*
X5105621Y-3659928D02*
X5108415Y-3643164D01*
X5098509Y-3672882D02*
X5105621Y-3659928D01*
X5088603Y-3683042D02*
X5098509Y-3672882D01*
X5075649Y-3690154D02*
X5088603Y-3683042D01*
X5058377Y-3692948D02*
X5075649Y-3690154D01*
X5108415Y-3643164D02*
X5108415Y-3642910D01*
X5111463Y-3251242D02*
X5108415Y-3268006D01*
X5118321Y-3238288D02*
X5111463Y-3251242D01*
X5128481Y-3228128D02*
X5118321Y-3238288D01*
X5141435Y-3221016D02*
X5128481Y-3228128D01*
X5158453Y-3217968D02*
X5141435Y-3221016D01*
X7005539Y-3184948D02*
X7008587Y-3167930D01*
X6998681Y-3197902D02*
X7005539Y-3184948D01*
X6988521Y-3208062D02*
X6998681Y-3197902D01*
X6975567Y-3215174D02*
X6988521Y-3208062D01*
X6958549Y-3217968D02*
X6975567Y-3215174D01*
X7008587Y-3167930D02*
X7008587Y-3167930D01*
X7011381Y-3026198D02*
X7008587Y-3042962D01*
X7018493Y-3013244D02*
X7011381Y-3026198D01*
X7028399Y-3003084D02*
X7018493Y-3013244D01*
X7041353Y-2995972D02*
X7028399Y-3003084D01*
X7058371Y-2992924D02*
X7041353Y-2995972D01*
X7008587Y-3042962D02*
X7008587Y-3042962D01*
X8775409Y-2995972D02*
X8758391Y-2992924D01*
X8788363Y-3002830D02*
X8775409Y-2995972D01*
X8798523Y-3012990D02*
X8788363Y-3002830D01*
X8805635Y-3025944D02*
X8798523Y-3012990D01*
X8808429Y-3042962D02*
X8805635Y-3025944D01*
X8758391Y-2992924D02*
X8758391Y-2992924D01*
X8841703Y-3215174D02*
X8858467Y-3217968D01*
X8828495Y-3208062D02*
X8841703Y-3215174D01*
X8818589Y-3198156D02*
X8828495Y-3208062D01*
X8811477Y-3185202D02*
X8818589Y-3198156D01*
X8808429Y-3167930D02*
X8811477Y-3185202D01*
X8858467Y-3217968D02*
X8858467Y-3217968D01*
X10675327Y-3221016D02*
X10658563Y-3217968D01*
X10688281Y-3227874D02*
X10675327Y-3221016D01*
X10698441Y-3238034D02*
X10688281Y-3227874D01*
X10705553Y-3250988D02*
X10698441Y-3238034D01*
X10708601Y-3268006D02*
X10705553Y-3250988D01*
X10741621Y-3465110D02*
X10758385Y-3467904D01*
X10728667Y-3457998D02*
X10741621Y-3465110D01*
X10718507Y-3448092D02*
X10728667Y-3457998D01*
X10711395Y-3435138D02*
X10718507Y-3448092D01*
X10708601Y-3418120D02*
X10711395Y-3435138D01*
X13338261Y-12071129D02*
X14660837Y-9777766D01*
X13338007Y-12071637D02*
X13338261Y-12071129D01*
X13332419Y-12079257D02*
X13338007Y-12071637D01*
X13323021Y-12090179D02*
X13332419Y-12079257D01*
X13312607Y-12099831D02*
X13323021Y-12090179D01*
X13300415Y-12109229D02*
X13312607Y-12099831D01*
X13287969Y-12116595D02*
X13300415Y-12109229D01*
X13273491Y-12123199D02*
X13287969Y-12116595D01*
X13258251Y-12128279D02*
X13273491Y-12123199D01*
X13241487Y-12131581D02*
X13258251Y-12128279D01*
X13222691Y-12132851D02*
X13241487Y-12131581D01*
X13203895Y-12131581D02*
X13222691Y-12132851D01*
X13187131Y-12128025D02*
X13203895Y-12131581D01*
X13171891Y-12122945D02*
X13187131Y-12128025D01*
X13157921Y-12116595D02*
X13171891Y-12122945D01*
X13145475Y-12109229D02*
X13157921Y-12116595D01*
X7983438Y-10793003D02*
X11650432Y-11270014D01*
X7974548Y-10792241D02*
X7983438Y-10793003D01*
X7959562Y-10786907D02*
X7974548Y-10792241D01*
X7948132Y-10778271D02*
X7959562Y-10786907D01*
X6893779Y-9332758D02*
X7948132Y-10778271D01*
X12641539Y-3690154D02*
X12658557Y-3692948D01*
X12628585Y-3683042D02*
X12641539Y-3690154D01*
X12618425Y-3673136D02*
X12628585Y-3683042D01*
X12611567Y-3660182D02*
X12618425Y-3673136D01*
X12608519Y-3642910D02*
X12611567Y-3660182D01*
X12658557Y-3692948D02*
X12658557Y-3692948D01*
X18419272Y-11272808D02*
X18435274Y-11270776D01*
X18402000Y-11275602D02*
X18419272Y-11272808D01*
X18385490Y-11279412D02*
X18402000Y-11275602D01*
X18369742Y-11283730D02*
X18385490Y-11279412D01*
X15402517Y-9700550D02*
X15402263Y-9691152D01*
X15404295Y-9718838D02*
X15402517Y-9700550D01*
X15407597Y-9735348D02*
X15404295Y-9718838D01*
X15412168Y-9750842D02*
X15407597Y-9735348D01*
X15418264Y-9765320D02*
X15412168Y-9750842D01*
X15425122Y-9778528D02*
X15418264Y-9765320D01*
X19377359Y-3418374D02*
X19377359Y-3268514D01*
X17527225Y-3468412D02*
X19327321Y-3468412D01*
X15435536Y-3696504D02*
X15452300Y-3693710D01*
X15422582Y-3703616D02*
X15435536Y-3696504D01*
X15412422Y-3713776D02*
X15422582Y-3703616D01*
X15405311Y-3726730D02*
X15412422Y-3713776D01*
X15402263Y-3743748D02*
X15405311Y-3726730D01*
X15402263Y-3743494D02*
X15402263Y-9690898D01*
X24324512Y-9318534D02*
X27639462Y-9318534D01*
X28777381Y-3743748D02*
X28777381Y-9268496D01*
X25027329Y-3693456D02*
X28727343Y-3693710D01*
X21327315Y-2993432D02*
X23027335Y-2993432D01*
X21277277Y-3168438D02*
X21277277Y-3043470D01*
X19427397Y-3218476D02*
X20039536Y-3218476D01*
X18369742Y-11283730D02*
X16940485Y-12109737D01*
X17477187Y-3518704D02*
X17477187Y-3643672D01*
X17510461Y-3471714D02*
X17527225Y-3468666D01*
X17497507Y-3478572D02*
X17510461Y-3471714D01*
X17487347Y-3488732D02*
X17497507Y-3478572D01*
X17480235Y-3501686D02*
X17487347Y-3488732D01*
X17477187Y-3518704D02*
X17480235Y-3501686D01*
X24977291Y-3268514D02*
X24977291Y-3643418D01*
X23127411Y-3218476D02*
X23838610Y-3218476D01*
X23077373Y-3043470D02*
X23077373Y-3168438D01*
X15452300Y-3693456D02*
X17427403Y-3693710D01*
X23218089Y-9319550D02*
X23227233Y-9318788D01*
X23203357Y-9324884D02*
X23218089Y-9319550D01*
X23191927Y-9333266D02*
X23203357Y-9324884D01*
X28744107Y-9315740D02*
X28727343Y-9318788D01*
X28757061Y-9308882D02*
X28744107Y-9315740D01*
X28767221Y-9298722D02*
X28757061Y-9308882D01*
X28774333Y-9285768D02*
X28767221Y-9298722D01*
X28777381Y-9268750D02*
X28774333Y-9285768D01*
X28727343Y-9318788D02*
X28727343Y-9318788D01*
X28774333Y-3726984D02*
X28777381Y-3743748D01*
X28767475Y-3713776D02*
X28774333Y-3726984D01*
X28757315Y-3703870D02*
X28767475Y-3713776D01*
X28744361Y-3696758D02*
X28757315Y-3703870D01*
X28727343Y-3693710D02*
X28744361Y-3696758D01*
X28777381Y-3743748D02*
X28777381Y-3743748D01*
X24980085Y-3660436D02*
X24977291Y-3643672D01*
X24987197Y-3673644D02*
X24980085Y-3660436D01*
X24997103Y-3683550D02*
X24987197Y-3673644D01*
X25010311Y-3690662D02*
X24997103Y-3683550D01*
X25027329Y-3693710D02*
X25010311Y-3690662D01*
X24977291Y-3643672D02*
X24977291Y-3643672D01*
X24974497Y-3252004D02*
X24977291Y-3268768D01*
X24967385Y-3238796D02*
X24974497Y-3252004D01*
X24957225Y-3228890D02*
X24967385Y-3238796D01*
X24944271Y-3221778D02*
X24957225Y-3228890D01*
X24927253Y-3218730D02*
X24944271Y-3221778D01*
X23080167Y-3185456D02*
X23077373Y-3168692D01*
X23087279Y-3198664D02*
X23080167Y-3185456D01*
X23097185Y-3208570D02*
X23087279Y-3198664D01*
X23110393Y-3215682D02*
X23097185Y-3208570D01*
X23127411Y-3218730D02*
X23110393Y-3215682D01*
X23077373Y-3168692D02*
X23077373Y-3168692D01*
X23074325Y-3026706D02*
X23077373Y-3043724D01*
X23067213Y-3013752D02*
X23074325Y-3026706D01*
X23057307Y-3003846D02*
X23067213Y-3013752D01*
X23044353Y-2996734D02*
X23057307Y-3003846D01*
X23027335Y-2993686D02*
X23044353Y-2996734D01*
X23077373Y-3043724D02*
X23077373Y-3043724D01*
X21310297Y-2996734D02*
X21327315Y-2993686D01*
X21297343Y-3003592D02*
X21310297Y-2996734D01*
X21287437Y-3013752D02*
X21297343Y-3003592D01*
X21280325Y-3026706D02*
X21287437Y-3013752D01*
X21277277Y-3043724D02*
X21280325Y-3026706D01*
X21327315Y-2993686D02*
X21327315Y-2993686D01*
X21244257Y-3215936D02*
X21227239Y-3218730D01*
X21257211Y-3208824D02*
X21244257Y-3215936D01*
X21267371Y-3198918D02*
X21257211Y-3208824D01*
X21274229Y-3185710D02*
X21267371Y-3198918D01*
X21277277Y-3168692D02*
X21274229Y-3185710D01*
X21227239Y-3218730D02*
X21227239Y-3218730D01*
X19410633Y-3221524D02*
X19427397Y-3218730D01*
X19397425Y-3228636D02*
X19410633Y-3221524D01*
X19387265Y-3238796D02*
X19397425Y-3228636D01*
X19380407Y-3251750D02*
X19387265Y-3238796D01*
X19377359Y-3268768D02*
X19380407Y-3251750D01*
X19344085Y-3465872D02*
X19327321Y-3468666D01*
X19357039Y-3458760D02*
X19344085Y-3465872D01*
X19367199Y-3448854D02*
X19357039Y-3458760D01*
X19374311Y-3435900D02*
X19367199Y-3448854D01*
X19377359Y-3418628D02*
X19374311Y-3435900D01*
X16747445Y-12071891D02*
X15424868Y-9778528D01*
X16747953Y-12072399D02*
X16747445Y-12071891D01*
X16754049Y-12080781D02*
X16747953Y-12072399D01*
X16763701Y-12091703D02*
X16754049Y-12080781D01*
X16774115Y-12101609D02*
X16763701Y-12091703D01*
X16785799Y-12110245D02*
X16774115Y-12101609D01*
X16798499Y-12117611D02*
X16785799Y-12110245D01*
X16812215Y-12123961D02*
X16798499Y-12117611D01*
X16827709Y-12129041D02*
X16812215Y-12123961D01*
X1967454Y-9409212D02*
X1967200Y-9409466D01*
X1967200Y-9409466D02*
X1952468Y-9427500D01*
X1952468Y-9427500D02*
X1952468Y-9427500D01*
X1952468Y-9427500D02*
X1952468Y-9427500D01*
X1952468Y-9427500D02*
X1952468Y-9427500D01*
X1952468Y-9427500D02*
X1952214Y-9428008D01*
X1952214Y-9428008D02*
X1951706Y-9428262D01*
X1951706Y-9428262D02*
X1933926Y-9442994D01*
X1933926Y-9442994D02*
X1933926Y-9442994D01*
X1933926Y-9442994D02*
X1933418Y-9443248D01*
X1933418Y-9443248D02*
X1933164Y-9443502D01*
X1933164Y-9443502D02*
X1912844Y-9454424D01*
X1912844Y-9454424D02*
X1912844Y-9454424D01*
X1912844Y-9454424D02*
X1912844Y-9454424D01*
X1912844Y-9454424D02*
X1912590Y-9454678D01*
X1912590Y-9454678D02*
X1912336Y-9454678D01*
X1912336Y-9454678D02*
X1911828Y-9454932D01*
X1911828Y-9454932D02*
X1889730Y-9461790D01*
X1889730Y-9461790D02*
X1889730Y-9461790D01*
X1889730Y-9461790D02*
X1889222Y-9461790D01*
X1889222Y-9461790D02*
X1888714Y-9461790D01*
X1888714Y-9461790D02*
X1865600Y-9464330D01*
X1865600Y-9464330D02*
X1865600Y-9464330D01*
X1865600Y-9464330D02*
X1865346Y-9464330D01*
X1865346Y-9464330D02*
X1865092Y-9464330D01*
X1865092Y-9464330D02*
X1864584Y-9464330D01*
X1864584Y-9464330D02*
X1864584Y-9464330D01*
X1864584Y-9464330D02*
X1389350Y-9464330D01*
X1389350Y-9464330D02*
X1388842Y-9464330D01*
X1388842Y-9464330D02*
X1366490Y-9466616D01*
X1366490Y-9466616D02*
X1345408Y-9473220D01*
X1345408Y-9473220D02*
X1325851Y-9483888D01*
X1325851Y-9483888D02*
X1308579Y-9498112D01*
X1308579Y-9498112D02*
X1294609Y-9515130D01*
X1294609Y-9515130D02*
X1284195Y-9534688D01*
X1284195Y-9534688D02*
X1277845Y-9556024D01*
X1277845Y-9556024D02*
X1275559Y-9578376D01*
X1275559Y-12665489D02*
X1275559Y-12666251D01*
X1275559Y-12666251D02*
X1277845Y-12688603D01*
X1277845Y-12688603D02*
X1284449Y-12709685D01*
X1284449Y-12709685D02*
X1295117Y-12729243D01*
X1295117Y-12729243D02*
X1309341Y-12746261D01*
X1309341Y-12746261D02*
X1326359Y-12760485D01*
X1326359Y-12760485D02*
X1345916Y-12770899D01*
X1345916Y-12770899D02*
X1367252Y-12777249D01*
X1367252Y-12777249D02*
X1389604Y-12779281D01*
X1389604Y-12779281D02*
X28712611Y-12778519D01*
X28712611Y-12778519D02*
X28713119Y-12778519D01*
X28713119Y-12778519D02*
X28735471Y-12776233D01*
X28735471Y-12776233D02*
X28756553Y-12769629D01*
X28756553Y-12769629D02*
X28776111Y-12758961D01*
X28776111Y-12758961D02*
X28793383Y-12744991D01*
X28807353Y-12727719D02*
X28817767Y-12708161D01*
X28817767Y-12708161D02*
X28824117Y-12686825D01*
X28824117Y-12686825D02*
X28826403Y-12664473D01*
X28826403Y-9576598D02*
X28823863Y-9554500D01*
X28823863Y-9554500D02*
X28817259Y-9533164D01*
X28817259Y-9533164D02*
X28806845Y-9513606D01*
X28806845Y-9513606D02*
X28792621Y-9496588D01*
X28792621Y-9496588D02*
X28775603Y-9482618D01*
X28775603Y-9482618D02*
X28755791Y-9472204D01*
X28755791Y-9472204D02*
X28734709Y-9465600D01*
X28734709Y-9465600D02*
X28712357Y-9463568D01*
X28712357Y-9463568D02*
X28237378Y-9463568D01*
X28237378Y-9463568D02*
X28237124Y-9463568D01*
X28237124Y-9463568D02*
X28237124Y-9463568D01*
X28214010Y-9461282D02*
X28214010Y-9461282D01*
X28214010Y-9461282D02*
X28214010Y-9461282D01*
X28214010Y-9461282D02*
X28214010Y-9461282D01*
X28214010Y-9461282D02*
X28213502Y-9461028D01*
X28213502Y-9461028D02*
X28212994Y-9461028D01*
X28212994Y-9461028D02*
X28190896Y-9454424D01*
X28190896Y-9454424D02*
X28190896Y-9454424D01*
X28190896Y-9454424D02*
X28190388Y-9454170D01*
X28190388Y-9454170D02*
X28189880Y-9453916D01*
X28189880Y-9453916D02*
X28169560Y-9442994D01*
X28169560Y-9442994D02*
X28169560Y-9442994D01*
X28169560Y-9442994D02*
X28169560Y-9442994D01*
X28169560Y-9442994D02*
X28169052Y-9442740D01*
X28169052Y-9442740D02*
X28168798Y-9442486D01*
X28168798Y-9442486D02*
X28150764Y-9428008D01*
X28150764Y-9428008D02*
X28150764Y-9428008D01*
X28150764Y-9428008D02*
X28150764Y-9428008D01*
X28150764Y-9428008D02*
X28150764Y-9427754D01*
X28150764Y-9427754D02*
X28150256Y-9427500D01*
X28150256Y-9427500D02*
X28150002Y-9427246D01*
X28150002Y-9427246D02*
X28135270Y-9409212D01*
X28135270Y-9409212D02*
X28135270Y-9409212D01*
X28135270Y-9409212D02*
X28135016Y-9408958D01*
X28135016Y-9408958D02*
X28134762Y-9408450D01*
X28134762Y-9408450D02*
X28123586Y-9388130D01*
X28123586Y-9388130D02*
X28123586Y-9388130D01*
X28123586Y-9388130D02*
X28123586Y-9388130D01*
X28123586Y-9388130D02*
X28123586Y-9388130D01*
X28123586Y-9388130D02*
X28123586Y-9387622D01*
X28123586Y-9387622D02*
X28123332Y-9387114D01*
X28123332Y-9387114D02*
X28116474Y-9365016D01*
X28116474Y-9365016D02*
X28116474Y-9365016D01*
X28116474Y-9365016D02*
X28116474Y-9364508D01*
X28116474Y-9364508D02*
X28116220Y-9364254D01*
X28116220Y-9364254D02*
X28113934Y-9341140D01*
X28113934Y-9341140D02*
X28113934Y-9340886D01*
X28113934Y-9340886D02*
X28113934Y-9340886D01*
X28113934Y-9340886D02*
X28113934Y-9340632D01*
X28113934Y-9340632D02*
X28113934Y-9340124D01*
X28113934Y-9340124D02*
X28113680Y-9340124D01*
X28113680Y-9340124D02*
X28114696Y-9318788D01*
X24314606Y-3218730D02*
X24313844Y-2927138D01*
X24313844Y-2927138D02*
X24313844Y-2926884D01*
X24313844Y-2926884D02*
X24316130Y-2903770D01*
X24316130Y-2903770D02*
X24316130Y-2903770D01*
X24316130Y-2903770D02*
X24316130Y-2903770D01*
X24316130Y-2903770D02*
X24316130Y-2903770D01*
X24316130Y-2903770D02*
X24316130Y-2903262D01*
X24316130Y-2903262D02*
X24316384Y-2902754D01*
X24316384Y-2902754D02*
X24322988Y-2880657D01*
X24322988Y-2880657D02*
X24322988Y-2880403D01*
X24322988Y-2880403D02*
X24323242Y-2880149D01*
X24323242Y-2880149D02*
X24323496Y-2879641D01*
X24323496Y-2879641D02*
X24334164Y-2859321D01*
X24334164Y-2859321D02*
X24334164Y-2859321D01*
X24334164Y-2859321D02*
X24334164Y-2859321D01*
X24334164Y-2859321D02*
X24334164Y-2859067D01*
X24334164Y-2859067D02*
X24334672Y-2858813D01*
X24334672Y-2858813D02*
X24334672Y-2858305D01*
X24334672Y-2858305D02*
X24349404Y-2840525D01*
X24349404Y-2840525D02*
X24349404Y-2840271D01*
X24349404Y-2840271D02*
X24349658Y-2840017D01*
X24349658Y-2840017D02*
X24350166Y-2839763D01*
X24350166Y-2839763D02*
X24367946Y-2825031D01*
X24367946Y-2825031D02*
X24368200Y-2825031D01*
X24368200Y-2825031D02*
X24368454Y-2824777D01*
X24368454Y-2824777D02*
X24368708Y-2824523D01*
X24368708Y-2824523D02*
X24389282Y-2813347D01*
X24389282Y-2813347D02*
X24389282Y-2813347D01*
X24389282Y-2813347D02*
X24389282Y-2813347D01*
X24389282Y-2813347D02*
X24389282Y-2813347D01*
X24389282Y-2813347D02*
X24389790Y-2813093D01*
X24389790Y-2813093D02*
X24390044Y-2813093D01*
X24390044Y-2813093D02*
X24412142Y-2806235D01*
X24412142Y-2806235D02*
X24412142Y-2806235D01*
X24412142Y-2806235D02*
X24412396Y-2806235D01*
X24412396Y-2806235D02*
X24412904Y-2805981D01*
X24412904Y-2805981D02*
X24413158Y-2805981D01*
X24413158Y-2805981D02*
X24436272Y-2803441D01*
X24436272Y-2803441D02*
X24436272Y-2803441D01*
X24436272Y-2803441D02*
X24436526Y-2803441D01*
X24436526Y-2803441D02*
X24436780Y-2803441D01*
X24436780Y-2803441D02*
X24437288Y-2803441D01*
X24437288Y-2803441D02*
X24437288Y-2803441D01*
X24437288Y-2803441D02*
X28712611Y-2803441D01*
X28712611Y-2803441D02*
X28713119Y-2803441D01*
X28713119Y-2803441D02*
X28735471Y-2801155D01*
X28735471Y-2801155D02*
X28756553Y-2794551D01*
X28756553Y-2794551D02*
X28776111Y-2784137D01*
X28776111Y-2784137D02*
X28793383Y-2769913D01*
X28793383Y-2769913D02*
X28807353Y-2752641D01*
X28807353Y-2752641D02*
X28817767Y-2733083D01*
X28817767Y-2733083D02*
X28824117Y-2711747D01*
X28824117Y-2711747D02*
X28826403Y-2689649D01*
X28826403Y-2689649D02*
X28826403Y-2333541D01*
X28826403Y-2333541D02*
X28826403Y-2333033D01*
X28826403Y-2333033D02*
X28823863Y-2310681D01*
X28823863Y-2310681D02*
X28817259Y-2289345D01*
X28817259Y-2289345D02*
X28806845Y-2270041D01*
X28806845Y-2270041D02*
X28792621Y-2252769D01*
X28792621Y-2252769D02*
X28775603Y-2238799D01*
X28775603Y-2238799D02*
X28755791Y-2228385D01*
X28755791Y-2228385D02*
X28734709Y-2222035D01*
X28734709Y-2222035D02*
X28712357Y-2219749D01*
X28712357Y-2219749D02*
X1389350Y-2220765D01*
X1389350Y-2220765D02*
X1388842Y-2220765D01*
X1388842Y-2220765D02*
X1366490Y-2223051D01*
X1366490Y-2223051D02*
X1345408Y-2229655D01*
X1345408Y-2229655D02*
X1325851Y-2240069D01*
X1325851Y-2240069D02*
X1308579Y-2254293D01*
X1308579Y-2254293D02*
X1294609Y-2271565D01*
X1294609Y-2271565D02*
X1284195Y-2291123D01*
X1284195Y-2291123D02*
X1277845Y-2312205D01*
X1277845Y-2312205D02*
X1275559Y-2334557D01*
X1275559Y-2334557D02*
X1275559Y-2690665D01*
X1275559Y-2690665D02*
X1275559Y-2691173D01*
X1275559Y-2691173D02*
X1277845Y-2713525D01*
X1277845Y-2713525D02*
X1284449Y-2734861D01*
X1284449Y-2734861D02*
X1295117Y-2754165D01*
X1295117Y-2754165D02*
X1309341Y-2771437D01*
X1309341Y-2771437D02*
X1326359Y-2785407D01*
X1326359Y-2785407D02*
X1345916Y-2795821D01*
X1345916Y-2795821D02*
X1367252Y-2802171D01*
X1367252Y-2802171D02*
X1389604Y-2804457D01*
X1389604Y-2804457D02*
X5664674Y-2804457D01*
X5664674Y-2804457D02*
X5664928Y-2804457D01*
X5664928Y-2804457D02*
X5664928Y-2804457D01*
X5664928Y-2804457D02*
X5687788Y-2806743D01*
X5687788Y-2806743D02*
X5687788Y-2806743D01*
X5687788Y-2806743D02*
X5687788Y-2806743D01*
X5687788Y-2806743D02*
X5688042Y-2806743D01*
X5688042Y-2806743D02*
X5688296Y-2806743D01*
X5688296Y-2806743D02*
X5688804Y-2806997D01*
X5688804Y-2806997D02*
X5711156Y-2813601D01*
X5711156Y-2813601D02*
X5711156Y-2813601D01*
X5711156Y-2813601D02*
X5711410Y-2813855D01*
X5711410Y-2813855D02*
X5711918Y-2813855D01*
X5711918Y-2813855D02*
X5732492Y-2824777D01*
X5732492Y-2824777D02*
X5732492Y-2824777D01*
X5732492Y-2824777D02*
X5732492Y-2824777D01*
X5732492Y-2824777D02*
X5732492Y-2824777D01*
X5732492Y-2824777D02*
X5732746Y-2825031D01*
X5732746Y-2825031D02*
X5733254Y-2825285D01*
X5733254Y-2825285D02*
X5751288Y-2840017D01*
X5751288Y-2840017D02*
X5751288Y-2840017D01*
X5751288Y-2840017D02*
X5751542Y-2840271D01*
X5751542Y-2840271D02*
X5751796Y-2840779D01*
X5751796Y-2840779D02*
X5766528Y-2858559D01*
X5766528Y-2858559D02*
X5766782Y-2858559D01*
X5766782Y-2858559D02*
X5767036Y-2859067D01*
X5767036Y-2859067D02*
X5767290Y-2859321D01*
X5767290Y-2859321D02*
X5778212Y-2879895D01*
X5778212Y-2879895D02*
X5778212Y-2879895D01*
X5778212Y-2879895D02*
X5778212Y-2879895D01*
X5778212Y-2879895D02*
X5778212Y-2879895D01*
X5778212Y-2879895D02*
X5778466Y-2880149D01*
X5778466Y-2880149D02*
X5778720Y-2880657D01*
X5778720Y-2880657D02*
X5785324Y-2902754D01*
X5785324Y-2902754D02*
X5785578Y-2902754D01*
X5785578Y-2902754D02*
X5785578Y-2903262D01*
X5785578Y-2903262D02*
X5785578Y-2903770D01*
X5785578Y-2903770D02*
X5788118Y-2926884D01*
X5788118Y-2926884D02*
X5788118Y-2926884D01*
X5788118Y-2926884D02*
X5788118Y-2927138D01*
X5788118Y-2927138D02*
X5788118Y-2927392D01*
X5788118Y-2927392D02*
X5788118Y-2927900D01*
X5788118Y-2927900D02*
X5788118Y-2927900D01*
X5788118Y-2927900D02*
X5788626Y-3217968D01*
X6262590Y-9316000D02*
X6263098Y-9340632D01*
X6263098Y-9340632D02*
X6263098Y-9341140D01*
X6263098Y-9341140D02*
X6265384Y-9363492D01*
X6265384Y-9363492D02*
X6271988Y-9384828D01*
X6271988Y-9384828D02*
X6282656Y-9404132D01*
X6282656Y-9404132D02*
X6296626Y-9421404D01*
X6296626Y-9421404D02*
X6313897Y-9435374D01*
X6313897Y-9435374D02*
X6333455Y-9445788D01*
X6333455Y-9445788D02*
X6354791Y-9452138D01*
X6354791Y-9452138D02*
X6377143Y-9454424D01*
X6377143Y-9454424D02*
X6614633Y-9454424D01*
X6614633Y-9454424D02*
X6614887Y-9454424D01*
X6614887Y-9454424D02*
X6614887Y-9454424D01*
X6614887Y-9454424D02*
X6638001Y-9456710D01*
X6638001Y-9456710D02*
X6638001Y-9456710D01*
X6638001Y-9456710D02*
X6638001Y-9456710D01*
X6638001Y-9456710D02*
X6638001Y-9456710D01*
X6638001Y-9456710D02*
X6638509Y-9456710D01*
X6638509Y-9456710D02*
X6638763Y-9456964D01*
X6638763Y-9456964D02*
X6661115Y-9463568D01*
X6661115Y-9463568D02*
X6661115Y-9463568D01*
X6661115Y-9463568D02*
X6661623Y-9463822D01*
X6661623Y-9463822D02*
X6661877Y-9463822D01*
X6661877Y-9463822D02*
X6682451Y-9474744D01*
X6682451Y-9474744D02*
X6682451Y-9474744D01*
X23227233Y-9318788D02*
X23839626Y-9318788D01*
X10658563Y-3217968D02*
X10063696Y-3217968D01*
X28727343Y-9318788D02*
X28114696Y-9318788D01*
X17467281Y-3673898D02*
X17457121Y-3683804D01*
X17474393Y-3660944D02*
X17467281Y-3673898D01*
X16927785Y-12117357D02*
X16914069Y-12123707D01*
X16940485Y-12109737D02*
X16927785Y-12117357D01*
X22102268Y-10793765D02*
X18435274Y-11270776D01*
X22111412Y-10793003D02*
X22102268Y-10793765D01*
X22126144Y-10787669D02*
X22111412Y-10793003D01*
X22137574Y-10779033D02*
X22126144Y-10787669D01*
X23191927Y-9333266D02*
X22137574Y-10779033D01*
X17444167Y-3690916D02*
X17427403Y-3693710D01*
X17457121Y-3683804D02*
X17444167Y-3690916D01*
X2463515Y-9318534D02*
X5778720Y-9318534D01*
X16844473Y-12132343D02*
X16827709Y-12129041D01*
X16863269Y-12133613D02*
X16844473Y-12132343D01*
X16882065Y-12132089D02*
X16863269Y-12133613D01*
X16898829Y-12128787D02*
X16882065Y-12132089D01*
X16914069Y-12123707D02*
X16898829Y-12128787D01*
X17477187Y-3643672D02*
X17474393Y-3660944D01*
X17427403Y-3693710D02*
X17427403Y-3693710D01*
X24927253Y-3218730D02*
X24314606Y-3218730D01*
X21227239Y-3218730D02*
X20523660Y-3218730D01*
X6958549Y-3217968D02*
X6263606Y-3217968D01*
X6858473Y-9316000D02*
X6262590Y-9316000D01*
D11*
X20025250Y-3183000D02*
X20055250Y-3213000D01*
X20055250Y-3183000D02*
X20025250Y-3213000D01*
X20084625Y-3183000D02*
X20114625Y-3213000D01*
X20114625Y-3183000D02*
X20084625Y-3213000D01*
X20144000Y-3183000D02*
X20174000Y-3213000D01*
X20174000Y-3183000D02*
X20144000Y-3213000D01*
X20203375Y-3183000D02*
X20233375Y-3213000D01*
X20233375Y-3183000D02*
X20203375Y-3213000D01*
X20262750Y-3183000D02*
X20292750Y-3213000D01*
X20292750Y-3183000D02*
X20262750Y-3213000D01*
X20322125Y-3183000D02*
X20352125Y-3213000D01*
X20352125Y-3183000D02*
X20322125Y-3213000D01*
X20381500Y-3183000D02*
X20411500Y-3213000D01*
X20411500Y-3183000D02*
X20381500Y-3213000D01*
X20440875Y-3183000D02*
X20470875Y-3213000D01*
X20470875Y-3183000D02*
X20440875Y-3213000D01*
X20500250Y-3183000D02*
X20530250Y-3213000D01*
X20530250Y-3183000D02*
X20500250Y-3213000D01*
X27630250Y-9324000D02*
X27660250Y-9354000D01*
X27660250Y-9324000D02*
X27630250Y-9354000D01*
X27689625Y-9324000D02*
X27719625Y-9354000D01*
X27719625Y-9324000D02*
X27689625Y-9354000D01*
X27749000Y-9324000D02*
X27779000Y-9354000D01*
X27779000Y-9324000D02*
X27749000Y-9354000D01*
X27808375Y-9324000D02*
X27838375Y-9354000D01*
X27838375Y-9324000D02*
X27808375Y-9354000D01*
X27867750Y-9324000D02*
X27897750Y-9354000D01*
X27897750Y-9324000D02*
X27867750Y-9354000D01*
X27927125Y-9324000D02*
X27957125Y-9354000D01*
X27957125Y-9324000D02*
X27927125Y-9354000D01*
X27986500Y-9324000D02*
X28016500Y-9354000D01*
X28016500Y-9324000D02*
X27986500Y-9354000D01*
X28045875Y-9324000D02*
X28075875Y-9354000D01*
X28075875Y-9324000D02*
X28045875Y-9354000D01*
X28105250Y-9324000D02*
X28135250Y-9354000D01*
X28135250Y-9324000D02*
X28105250Y-9354000D01*
X9573250Y-3182000D02*
X9603250Y-3212000D01*
X9603250Y-3182000D02*
X9573250Y-3212000D01*
X9632625Y-3182000D02*
X9662625Y-3212000D01*
X9662625Y-3182000D02*
X9632625Y-3212000D01*
X9692000Y-3182000D02*
X9722000Y-3212000D01*
X9722000Y-3182000D02*
X9692000Y-3212000D01*
X9751375Y-3182000D02*
X9781375Y-3212000D01*
X9781375Y-3182000D02*
X9751375Y-3212000D01*
X9810750Y-3182000D02*
X9840750Y-3212000D01*
X9840750Y-3182000D02*
X9810750Y-3212000D01*
X9870125Y-3182000D02*
X9900125Y-3212000D01*
X9900125Y-3182000D02*
X9870125Y-3212000D01*
X9929500Y-3182000D02*
X9959500Y-3212000D01*
X9959500Y-3182000D02*
X9929500Y-3212000D01*
X9988875Y-3182000D02*
X10018875Y-3212000D01*
X10018875Y-3182000D02*
X9988875Y-3212000D01*
X10048250Y-3182000D02*
X10078250Y-3212000D01*
X10078250Y-3182000D02*
X10048250Y-3212000D01*
X23830250Y-9324000D02*
X23860250Y-9354000D01*
X23860250Y-9324000D02*
X23830250Y-9354000D01*
X23889625Y-9324000D02*
X23919625Y-9354000D01*
X23919625Y-9324000D02*
X23889625Y-9354000D01*
X23949000Y-9324000D02*
X23979000Y-9354000D01*
X23979000Y-9324000D02*
X23949000Y-9354000D01*
X24008375Y-9324000D02*
X24038375Y-9354000D01*
X24038375Y-9324000D02*
X24008375Y-9354000D01*
X24067750Y-9324000D02*
X24097750Y-9354000D01*
X24097750Y-9324000D02*
X24067750Y-9354000D01*
X24127125Y-9324000D02*
X24157125Y-9354000D01*
X24157125Y-9324000D02*
X24127125Y-9354000D01*
X24186500Y-9324000D02*
X24216500Y-9354000D01*
X24216500Y-9324000D02*
X24186500Y-9354000D01*
X24245875Y-9324000D02*
X24275875Y-9354000D01*
X24275875Y-9324000D02*
X24245875Y-9354000D01*
X24305250Y-9324000D02*
X24335250Y-9354000D01*
X24335250Y-9324000D02*
X24305250Y-9354000D01*
X23827250Y-3182000D02*
X23857250Y-3212000D01*
X23857250Y-3182000D02*
X23827250Y-3212000D01*
X23886625Y-3182000D02*
X23916625Y-3212000D01*
X23916625Y-3182000D02*
X23886625Y-3212000D01*
X23946000Y-3182000D02*
X23976000Y-3212000D01*
X23976000Y-3182000D02*
X23946000Y-3212000D01*
X24005375Y-3182000D02*
X24035375Y-3212000D01*
X24035375Y-3182000D02*
X24005375Y-3212000D01*
X24064750Y-3182000D02*
X24094750Y-3212000D01*
X24094750Y-3182000D02*
X24064750Y-3212000D01*
X24124125Y-3182000D02*
X24154125Y-3212000D01*
X24154125Y-3182000D02*
X24124125Y-3212000D01*
X24183500Y-3182000D02*
X24213500Y-3212000D01*
X24213500Y-3182000D02*
X24183500Y-3212000D01*
X24242875Y-3182000D02*
X24272875Y-3212000D01*
X24272875Y-3182000D02*
X24242875Y-3212000D01*
X24302250Y-3182000D02*
X24332250Y-3212000D01*
X24332250Y-3182000D02*
X24302250Y-3212000D01*
X5776250Y-3182000D02*
X5806250Y-3212000D01*
X5806250Y-3182000D02*
X5776250Y-3212000D01*
X5835625Y-3182000D02*
X5865625Y-3212000D01*
X5865625Y-3182000D02*
X5835625Y-3212000D01*
X5895000Y-3182000D02*
X5925000Y-3212000D01*
X5925000Y-3182000D02*
X5895000Y-3212000D01*
X5954375Y-3182000D02*
X5984375Y-3212000D01*
X5984375Y-3182000D02*
X5954375Y-3212000D01*
X6013750Y-3182000D02*
X6043750Y-3212000D01*
X6043750Y-3182000D02*
X6013750Y-3212000D01*
X6073125Y-3182000D02*
X6103125Y-3212000D01*
X6103125Y-3182000D02*
X6073125Y-3212000D01*
X6132500Y-3182000D02*
X6162500Y-3212000D01*
X6162500Y-3182000D02*
X6132500Y-3212000D01*
X6191875Y-3182000D02*
X6221875Y-3212000D01*
X6221875Y-3182000D02*
X6191875Y-3212000D01*
X6251250Y-3182000D02*
X6281250Y-3212000D01*
X6281250Y-3182000D02*
X6251250Y-3212000D01*
X5765950Y-9323000D02*
X5795950Y-9353000D01*
X5795950Y-9323000D02*
X5765950Y-9353000D01*
X5825325Y-9323000D02*
X5855325Y-9353000D01*
X5855325Y-9323000D02*
X5825325Y-9353000D01*
X5884700Y-9323000D02*
X5914700Y-9353000D01*
X5914700Y-9323000D02*
X5884700Y-9353000D01*
X5944075Y-9323000D02*
X5974075Y-9353000D01*
X5974075Y-9323000D02*
X5944075Y-9353000D01*
X6003450Y-9323000D02*
X6033450Y-9353000D01*
X6033450Y-9323000D02*
X6003450Y-9353000D01*
X6062825Y-9323000D02*
X6092825Y-9353000D01*
X6092825Y-9323000D02*
X6062825Y-9353000D01*
X6122200Y-9323000D02*
X6152200Y-9353000D01*
X6152200Y-9323000D02*
X6122200Y-9353000D01*
X6181575Y-9323000D02*
X6211575Y-9353000D01*
X6211575Y-9323000D02*
X6181575Y-9353000D01*
X6240950Y-9323000D02*
X6270950Y-9353000D01*
X6270950Y-9323000D02*
X6240950Y-9353000D01*
X1967125Y-9323000D02*
X1997125Y-9353000D01*
X1997125Y-9323000D02*
X1967125Y-9353000D01*
X2026500Y-9323000D02*
X2056500Y-9353000D01*
X2056500Y-9323000D02*
X2026500Y-9353000D01*
X2085875Y-9323000D02*
X2115875Y-9353000D01*
X2115875Y-9323000D02*
X2085875Y-9353000D01*
X2145250Y-9323000D02*
X2175250Y-9353000D01*
X2175250Y-9323000D02*
X2145250Y-9353000D01*
X2204625Y-9323000D02*
X2234625Y-9353000D01*
X2234625Y-9323000D02*
X2204625Y-9353000D01*
X2264000Y-9323000D02*
X2294000Y-9353000D01*
X2294000Y-9323000D02*
X2264000Y-9353000D01*
X2323375Y-9323000D02*
X2353375Y-9353000D01*
X2353375Y-9323000D02*
X2323375Y-9353000D01*
X2382750Y-9323000D02*
X2412750Y-9353000D01*
X2412750Y-9323000D02*
X2382750Y-9353000D01*
X2442125Y-9323000D02*
X2472125Y-9353000D01*
X2472125Y-9323000D02*
X2442125Y-9353000D01*
X15670785Y-8456543D02*
G75*
G03X15670785Y-8456543I-60000J0D01*
G01*
X16370785Y-8456543D02*
G75*
G03X16370785Y-8456543I-60000J0D01*
G01*
X13831450Y-8443200D02*
G75*
G03X13831450Y-8443200I-60000J0D01*
G01*
X14531450Y-8443200D02*
G75*
G03X14531450Y-8443200I-60000J0D01*
G01*
X7410750Y-7594500D02*
X7410750Y-7764500D01*
X7325750Y-7679500D02*
X7495750Y-7679500D01*
X8426750Y-7594500D02*
X8426750Y-7764500D01*
X8341750Y-7679500D02*
X8511750Y-7679500D01*
X25460485Y-8307043D02*
X25460485Y-8477043D01*
X25375485Y-8392043D02*
X25545485Y-8392043D01*
X26476485Y-8307043D02*
X26476485Y-8477043D01*
X26391485Y-8392043D02*
X26561485Y-8392043D01*
X17860485Y-4269543D02*
X17860485Y-4439543D01*
X17775485Y-4354543D02*
X17945485Y-4354543D01*
X18876485Y-4269543D02*
X18876485Y-4439543D01*
X18791485Y-4354543D02*
X18961485Y-4354543D01*
X3610750Y-4507000D02*
X3610750Y-4677000D01*
X3525750Y-4592000D02*
X3695750Y-4592000D01*
X4626750Y-4507000D02*
X4626750Y-4677000D01*
X4541750Y-4592000D02*
X4711750Y-4592000D01*
X16639485Y-10004602D02*
X16639485Y-10174602D01*
X16554485Y-10089602D02*
X16724485Y-10089602D01*
X17147485Y-10884484D02*
X17147485Y-11054484D01*
X17062485Y-10969484D02*
X17232485Y-10969484D01*
X21660485Y-3794543D02*
X21660485Y-3964543D01*
X21575485Y-3879543D02*
X21745485Y-3879543D01*
X22676485Y-3794543D02*
X22676485Y-3964543D01*
X22591485Y-3879543D02*
X22761485Y-3879543D01*
X7410750Y-5694500D02*
X7410750Y-5864500D01*
X7325750Y-5779500D02*
X7495750Y-5779500D01*
X8426750Y-5694500D02*
X8426750Y-5864500D01*
X8341750Y-5779500D02*
X8511750Y-5779500D01*
X1710750Y-4507000D02*
X1710750Y-4677000D01*
X1625750Y-4592000D02*
X1795750Y-4592000D01*
X2726750Y-4507000D02*
X2726750Y-4677000D01*
X2641750Y-4592000D02*
X2811750Y-4592000D01*
X25460485Y-6407043D02*
X25460485Y-6577043D01*
X25375485Y-6492043D02*
X25545485Y-6492043D01*
X26476485Y-6407043D02*
X26476485Y-6577043D01*
X26391485Y-6492043D02*
X26561485Y-6492043D01*
X11210750Y-8069500D02*
X11210750Y-8239500D01*
X11125750Y-8154500D02*
X11295750Y-8154500D01*
X12226750Y-8069500D02*
X12226750Y-8239500D01*
X12141750Y-8154500D02*
X12311750Y-8154500D01*
X20710485Y-9794543D02*
X20710485Y-9964543D01*
X20625485Y-9879543D02*
X20795485Y-9879543D01*
X21726485Y-9794543D02*
X21726485Y-9964543D01*
X21641485Y-9879543D02*
X21811485Y-9879543D01*
X17860485Y-6169543D02*
X17860485Y-6339543D01*
X17775485Y-6254543D02*
X17945485Y-6254543D01*
X18876485Y-6169543D02*
X18876485Y-6339543D01*
X18791485Y-6254543D02*
X18961485Y-6254543D01*
X19760485Y-7832043D02*
X19760485Y-8002043D01*
X19675485Y-7917043D02*
X19845485Y-7917043D01*
X20776485Y-7832043D02*
X20776485Y-8002043D01*
X20691485Y-7917043D02*
X20861485Y-7917043D01*
X1710750Y-8307000D02*
X1710750Y-8477000D01*
X1625750Y-8392000D02*
X1795750Y-8392000D01*
X2726750Y-8307000D02*
X2726750Y-8477000D01*
X2641750Y-8392000D02*
X2811750Y-8392000D01*
X9310750Y-7832000D02*
X9310750Y-8002000D01*
X9225750Y-7917000D02*
X9395750Y-7917000D01*
X10326750Y-7832000D02*
X10326750Y-8002000D01*
X10241750Y-7917000D02*
X10411750Y-7917000D01*
X9310750Y-4032000D02*
X9310750Y-4202000D01*
X9225750Y-4117000D02*
X9395750Y-4117000D01*
X10326750Y-4032000D02*
X10326750Y-4202000D01*
X10241750Y-4117000D02*
X10411750Y-4117000D01*
X1710750Y-6407000D02*
X1710750Y-6577000D01*
X1625750Y-6492000D02*
X1795750Y-6492000D01*
X2726750Y-6407000D02*
X2726750Y-6577000D01*
X2641750Y-6492000D02*
X2811750Y-6492000D01*
X10478060Y-9938020D02*
X10478060Y-10108020D01*
X10393060Y-10023020D02*
X10563060Y-10023020D01*
X11459440Y-10200980D02*
X11459440Y-10370980D01*
X11374440Y-10285980D02*
X11544440Y-10285980D01*
X27360485Y-8307043D02*
X27360485Y-8477043D01*
X27275485Y-8392043D02*
X27445485Y-8392043D01*
X28376485Y-8307043D02*
X28376485Y-8477043D01*
X28291485Y-8392043D02*
X28461485Y-8392043D01*
X3610750Y-8307000D02*
X3610750Y-8477000D01*
X3525750Y-8392000D02*
X3695750Y-8392000D01*
X4626750Y-8307000D02*
X4626750Y-8477000D01*
X4541750Y-8392000D02*
X4711750Y-8392000D01*
X12939750Y-10884441D02*
X12939750Y-11054441D01*
X12854750Y-10969441D02*
X13024750Y-10969441D01*
X13447750Y-10004559D02*
X13447750Y-10174559D01*
X13362750Y-10089559D02*
X13532750Y-10089559D01*
X21660485Y-7594543D02*
X21660485Y-7764543D01*
X21575485Y-7679543D02*
X21745485Y-7679543D01*
X22676485Y-7594543D02*
X22676485Y-7764543D01*
X22591485Y-7679543D02*
X22761485Y-7679543D01*
X9310750Y-5932000D02*
X9310750Y-6102000D01*
X9225750Y-6017000D02*
X9395750Y-6017000D01*
X10326750Y-5932000D02*
X10326750Y-6102000D01*
X10241750Y-6017000D02*
X10411750Y-6017000D01*
X17860485Y-8069543D02*
X17860485Y-8239543D01*
X17775485Y-8154543D02*
X17945485Y-8154543D01*
X18876485Y-8069543D02*
X18876485Y-8239543D01*
X18791485Y-8154543D02*
X18961485Y-8154543D01*
X23560485Y-4032043D02*
X23560485Y-4202043D01*
X23475485Y-4117043D02*
X23645485Y-4117043D01*
X24576485Y-4032043D02*
X24576485Y-4202043D01*
X24491485Y-4117043D02*
X24661485Y-4117043D01*
X3610750Y-6407000D02*
X3610750Y-6577000D01*
X3525750Y-6492000D02*
X3695750Y-6492000D01*
X4626750Y-6407000D02*
X4626750Y-6577000D01*
X4541750Y-6492000D02*
X4711750Y-6492000D01*
X21660485Y-5694543D02*
X21660485Y-5864543D01*
X21575485Y-5779543D02*
X21745485Y-5779543D01*
X22676485Y-5694543D02*
X22676485Y-5864543D01*
X22591485Y-5779543D02*
X22761485Y-5779543D01*
X18627794Y-10201023D02*
X18627794Y-10371023D01*
X18542794Y-10286023D02*
X18712794Y-10286023D01*
X19609175Y-9938063D02*
X19609175Y-10108063D01*
X19524175Y-10023063D02*
X19694175Y-10023063D01*
X27360485Y-6407043D02*
X27360485Y-6577043D01*
X27275485Y-6492043D02*
X27445485Y-6492043D01*
X28376485Y-6407043D02*
X28376485Y-6577043D01*
X28291485Y-6492043D02*
X28461485Y-6492043D01*
X19760485Y-5932043D02*
X19760485Y-6102043D01*
X19675485Y-6017043D02*
X19845485Y-6017043D01*
X20776485Y-5932043D02*
X20776485Y-6102043D01*
X20691485Y-6017043D02*
X20861485Y-6017043D01*
X27360485Y-4507043D02*
X27360485Y-4677043D01*
X27275485Y-4592043D02*
X27445485Y-4592043D01*
X28376485Y-4507043D02*
X28376485Y-4677043D01*
X28291485Y-4592043D02*
X28461485Y-4592043D01*
X11210750Y-4269500D02*
X11210750Y-4439500D01*
X11125750Y-4354500D02*
X11295750Y-4354500D01*
X12226750Y-4269500D02*
X12226750Y-4439500D01*
X12141750Y-4354500D02*
X12311750Y-4354500D01*
X5510750Y-7832000D02*
X5510750Y-8002000D01*
X5425750Y-7917000D02*
X5595750Y-7917000D01*
X6526750Y-7832000D02*
X6526750Y-8002000D01*
X6441750Y-7917000D02*
X6611750Y-7917000D01*
X19760485Y-4032043D02*
X19760485Y-4202043D01*
X19675485Y-4117043D02*
X19845485Y-4117043D01*
X20776485Y-4032043D02*
X20776485Y-4202043D01*
X20691485Y-4117043D02*
X20861485Y-4117043D01*
X23560485Y-7832043D02*
X23560485Y-8002043D01*
X23475485Y-7917043D02*
X23645485Y-7917043D01*
X24576485Y-7832043D02*
X24576485Y-8002043D01*
X24491485Y-7917043D02*
X24661485Y-7917043D01*
X23560485Y-5932043D02*
X23560485Y-6102043D01*
X23475485Y-6017043D02*
X23645485Y-6017043D01*
X24576485Y-5932043D02*
X24576485Y-6102043D01*
X24491485Y-6017043D02*
X24661485Y-6017043D01*
X25460485Y-4507043D02*
X25460485Y-4677043D01*
X25375485Y-4592043D02*
X25545485Y-4592043D01*
X26476485Y-4507043D02*
X26476485Y-4677043D01*
X26391485Y-4592043D02*
X26561485Y-4592043D01*
X11210750Y-6169500D02*
X11210750Y-6339500D01*
X11125750Y-6254500D02*
X11295750Y-6254500D01*
X12226750Y-6169500D02*
X12226750Y-6339500D01*
X12141750Y-6254500D02*
X12311750Y-6254500D01*
X7410750Y-3794500D02*
X7410750Y-3964500D01*
X7325750Y-3879500D02*
X7495750Y-3879500D01*
X8426750Y-3794500D02*
X8426750Y-3964500D01*
X8341750Y-3879500D02*
X8511750Y-3879500D01*
X5510750Y-4032000D02*
X5510750Y-4202000D01*
X5425750Y-4117000D02*
X5595750Y-4117000D01*
X6526750Y-4032000D02*
X6526750Y-4202000D01*
X6441750Y-4117000D02*
X6611750Y-4117000D01*
X5510750Y-5932000D02*
X5510750Y-6102000D01*
X5425750Y-6017000D02*
X5595750Y-6017000D01*
X6526750Y-5932000D02*
X6526750Y-6102000D01*
X6441750Y-6017000D02*
X6611750Y-6017000D01*
X8360750Y-9794500D02*
X8360750Y-9964500D01*
X8275750Y-9879500D02*
X8445750Y-9879500D01*
X9376750Y-9794500D02*
X9376750Y-9964500D01*
X9291750Y-9879500D02*
X9461750Y-9879500D01*
X25482125Y-8455683D02*
X25482125Y-8328403D01*
X25354844Y-8328403D01*
X25354844Y-8455683D01*
X25482125Y-8455683D01*
X26582125Y-8455683D02*
X26582125Y-8328403D01*
X26454844Y-8328403D01*
X26454844Y-8455683D01*
X26582125Y-8455683D01*
X17882125Y-4418183D02*
X17882125Y-4290903D01*
X17754845Y-4290903D01*
X17754845Y-4418183D01*
X17882125Y-4418183D01*
X18982125Y-4418183D02*
X18982125Y-4290903D01*
X18854845Y-4290903D01*
X18854845Y-4418183D01*
X18982125Y-4418183D01*
X3632390Y-4655640D02*
X3632390Y-4528360D01*
X3505110Y-4528360D01*
X3505110Y-4655640D01*
X3632390Y-4655640D01*
X4732390Y-4655640D02*
X4732390Y-4528360D01*
X4605110Y-4528360D01*
X4605110Y-4655640D01*
X4732390Y-4655640D01*
X16682125Y-10116869D02*
X16682125Y-9989589D01*
X16554844Y-9989589D01*
X16554844Y-10116869D01*
X16682125Y-10116869D01*
X17232125Y-11069497D02*
X17232125Y-10942217D01*
X17104845Y-10942217D01*
X17104845Y-11069497D01*
X17232125Y-11069497D01*
X21682125Y-3943183D02*
X21682125Y-3815903D01*
X21554845Y-3815903D01*
X21554845Y-3943183D01*
X21682125Y-3943183D01*
X22782125Y-3943183D02*
X22782125Y-3815903D01*
X22654844Y-3815903D01*
X22654844Y-3943183D01*
X22782125Y-3943183D01*
X7432390Y-5843140D02*
X7432390Y-5715860D01*
X7305110Y-5715860D01*
X7305110Y-5843140D01*
X7432390Y-5843140D01*
X8532390Y-5843140D02*
X8532390Y-5715860D01*
X8405110Y-5715860D01*
X8405110Y-5843140D01*
X8532390Y-5843140D01*
X1732390Y-4655640D02*
X1732390Y-4528360D01*
X1605110Y-4528360D01*
X1605110Y-4655640D01*
X1732390Y-4655640D01*
X2832390Y-4655640D02*
X2832390Y-4528360D01*
X2705110Y-4528360D01*
X2705110Y-4655640D01*
X2832390Y-4655640D01*
X25482125Y-6555683D02*
X25482125Y-6428403D01*
X25354844Y-6428403D01*
X25354844Y-6555683D01*
X25482125Y-6555683D01*
X26582125Y-6555683D02*
X26582125Y-6428403D01*
X26454844Y-6428403D01*
X26454844Y-6555683D01*
X26582125Y-6555683D01*
X11232390Y-8218140D02*
X11232390Y-8090860D01*
X11105110Y-8090860D01*
X11105110Y-8218140D01*
X11232390Y-8218140D01*
X12332390Y-8218140D02*
X12332390Y-8090860D01*
X12205110Y-8090860D01*
X12205110Y-8218140D01*
X12332390Y-8218140D01*
X20732125Y-9943183D02*
X20732125Y-9815903D01*
X20604845Y-9815903D01*
X20604845Y-9943183D01*
X20732125Y-9943183D01*
X21832125Y-9943183D02*
X21832125Y-9815903D01*
X21704845Y-9815903D01*
X21704845Y-9943183D01*
X21832125Y-9943183D01*
X17882125Y-6318183D02*
X17882125Y-6190903D01*
X17754845Y-6190903D01*
X17754845Y-6318183D01*
X17882125Y-6318183D01*
X18982125Y-6318183D02*
X18982125Y-6190903D01*
X18854845Y-6190903D01*
X18854845Y-6318183D01*
X18982125Y-6318183D01*
X19782125Y-7980683D02*
X19782125Y-7853403D01*
X19654845Y-7853403D01*
X19654845Y-7980683D01*
X19782125Y-7980683D01*
X20882125Y-7980683D02*
X20882125Y-7853403D01*
X20754845Y-7853403D01*
X20754845Y-7980683D01*
X20882125Y-7980683D01*
X1732390Y-8455640D02*
X1732390Y-8328360D01*
X1605110Y-8328360D01*
X1605110Y-8455640D01*
X1732390Y-8455640D01*
X2832390Y-8455640D02*
X2832390Y-8328360D01*
X2705110Y-8328360D01*
X2705110Y-8455640D01*
X2832390Y-8455640D01*
X9332390Y-7980640D02*
X9332390Y-7853360D01*
X9205110Y-7853360D01*
X9205110Y-7980640D01*
X9332390Y-7980640D01*
X10432390Y-7980640D02*
X10432390Y-7853360D01*
X10305110Y-7853360D01*
X10305110Y-7980640D01*
X10432390Y-7980640D01*
X9332390Y-4180640D02*
X9332390Y-4053360D01*
X9205110Y-4053360D01*
X9205110Y-4180640D01*
X9332390Y-4180640D01*
X10432390Y-4180640D02*
X10432390Y-4053360D01*
X10305110Y-4053360D01*
X10305110Y-4180640D01*
X10432390Y-4180640D01*
X1732390Y-6555640D02*
X1732390Y-6428360D01*
X1605110Y-6428360D01*
X1605110Y-6555640D01*
X1732390Y-6555640D01*
X2832390Y-6555640D02*
X2832390Y-6428360D01*
X2705110Y-6428360D01*
X2705110Y-6555640D01*
X2832390Y-6555640D01*
X10501131Y-10075790D02*
X10501131Y-9948509D01*
X10373851Y-9948509D01*
X10373851Y-10075790D01*
X10501131Y-10075790D01*
X11563649Y-10360491D02*
X11563649Y-10233210D01*
X11436369Y-10233210D01*
X11436369Y-10360491D01*
X11563649Y-10360491D01*
X27382125Y-8455683D02*
X27382125Y-8328403D01*
X27254844Y-8328403D01*
X27254844Y-8455683D01*
X27382125Y-8455683D01*
X28482125Y-8455683D02*
X28482125Y-8328403D01*
X28354844Y-8328403D01*
X28354844Y-8455683D01*
X28482125Y-8455683D01*
X3632390Y-8455640D02*
X3632390Y-8328360D01*
X3505110Y-8328360D01*
X3505110Y-8455640D01*
X3632390Y-8455640D01*
X4732390Y-8455640D02*
X4732390Y-8328360D01*
X4605110Y-8328360D01*
X4605110Y-8455640D01*
X4732390Y-8455640D01*
X12982390Y-11069454D02*
X12982390Y-10942174D01*
X12855110Y-10942174D01*
X12855110Y-11069454D01*
X12982390Y-11069454D01*
X13532390Y-10116826D02*
X13532390Y-9989546D01*
X13405110Y-9989546D01*
X13405110Y-10116826D01*
X13532390Y-10116826D01*
X21682125Y-7743183D02*
X21682125Y-7615903D01*
X21554845Y-7615903D01*
X21554845Y-7743183D01*
X21682125Y-7743183D01*
X22782125Y-7743183D02*
X22782125Y-7615903D01*
X22654844Y-7615903D01*
X22654844Y-7743183D01*
X22782125Y-7743183D01*
X9332390Y-6080640D02*
X9332390Y-5953360D01*
X9205110Y-5953360D01*
X9205110Y-6080640D01*
X9332390Y-6080640D01*
X10432390Y-6080640D02*
X10432390Y-5953360D01*
X10305110Y-5953360D01*
X10305110Y-6080640D01*
X10432390Y-6080640D01*
X17882125Y-8218183D02*
X17882125Y-8090903D01*
X17754845Y-8090903D01*
X17754845Y-8218183D01*
X17882125Y-8218183D01*
X18982125Y-8218183D02*
X18982125Y-8090903D01*
X18854845Y-8090903D01*
X18854845Y-8218183D01*
X18982125Y-8218183D01*
X23582125Y-4180683D02*
X23582125Y-4053403D01*
X23454844Y-4053403D01*
X23454844Y-4180683D01*
X23582125Y-4180683D01*
X24682125Y-4180683D02*
X24682125Y-4053403D01*
X24554844Y-4053403D01*
X24554844Y-4180683D01*
X24682125Y-4180683D01*
X3632390Y-6555640D02*
X3632390Y-6428360D01*
X3505110Y-6428360D01*
X3505110Y-6555640D01*
X3632390Y-6555640D01*
X4732390Y-6555640D02*
X4732390Y-6428360D01*
X4605110Y-6428360D01*
X4605110Y-6555640D01*
X4732390Y-6555640D01*
X21682125Y-5843183D02*
X21682125Y-5715903D01*
X21554845Y-5715903D01*
X21554845Y-5843183D01*
X21682125Y-5843183D01*
X22782125Y-5843183D02*
X22782125Y-5715903D01*
X22654844Y-5715903D01*
X22654844Y-5843183D01*
X22782125Y-5843183D01*
X18650866Y-10360534D02*
X18650866Y-10233254D01*
X18523585Y-10233254D01*
X18523585Y-10360534D01*
X18650866Y-10360534D01*
X19713384Y-10075833D02*
X19713384Y-9948553D01*
X19586104Y-9948553D01*
X19586104Y-10075833D01*
X19713384Y-10075833D01*
X27382125Y-6555683D02*
X27382125Y-6428403D01*
X27254844Y-6428403D01*
X27254844Y-6555683D01*
X27382125Y-6555683D01*
X28482125Y-6555683D02*
X28482125Y-6428403D01*
X28354844Y-6428403D01*
X28354844Y-6555683D01*
X28482125Y-6555683D01*
X19782125Y-6080683D02*
X19782125Y-5953403D01*
X19654845Y-5953403D01*
X19654845Y-6080683D01*
X19782125Y-6080683D01*
X20882125Y-6080683D02*
X20882125Y-5953403D01*
X20754845Y-5953403D01*
X20754845Y-6080683D01*
X20882125Y-6080683D01*
X27382125Y-4655683D02*
X27382125Y-4528403D01*
X27254844Y-4528403D01*
X27254844Y-4655683D01*
X27382125Y-4655683D01*
X28482125Y-4655683D02*
X28482125Y-4528403D01*
X28354844Y-4528403D01*
X28354844Y-4655683D01*
X28482125Y-4655683D01*
X11232390Y-4418140D02*
X11232390Y-4290860D01*
X11105110Y-4290860D01*
X11105110Y-4418140D01*
X11232390Y-4418140D01*
X12332390Y-4418140D02*
X12332390Y-4290860D01*
X12205110Y-4290860D01*
X12205110Y-4418140D01*
X12332390Y-4418140D01*
X5532390Y-7980640D02*
X5532390Y-7853360D01*
X5405110Y-7853360D01*
X5405110Y-7980640D01*
X5532390Y-7980640D01*
X6632390Y-7980640D02*
X6632390Y-7853360D01*
X6505110Y-7853360D01*
X6505110Y-7980640D01*
X6632390Y-7980640D01*
X19782125Y-4180683D02*
X19782125Y-4053403D01*
X19654845Y-4053403D01*
X19654845Y-4180683D01*
X19782125Y-4180683D01*
X20882125Y-4180683D02*
X20882125Y-4053403D01*
X20754845Y-4053403D01*
X20754845Y-4180683D01*
X20882125Y-4180683D01*
X23582125Y-7980683D02*
X23582125Y-7853403D01*
X23454844Y-7853403D01*
X23454844Y-7980683D01*
X23582125Y-7980683D01*
X24682125Y-7980683D02*
X24682125Y-7853403D01*
X24554844Y-7853403D01*
X24554844Y-7980683D01*
X24682125Y-7980683D01*
X23582125Y-6080683D02*
X23582125Y-5953403D01*
X23454844Y-5953403D01*
X23454844Y-6080683D01*
X23582125Y-6080683D01*
X24682125Y-6080683D02*
X24682125Y-5953403D01*
X24554844Y-5953403D01*
X24554844Y-6080683D01*
X24682125Y-6080683D01*
X25482125Y-4655683D02*
X25482125Y-4528403D01*
X25354844Y-4528403D01*
X25354844Y-4655683D01*
X25482125Y-4655683D01*
X26582125Y-4655683D02*
X26582125Y-4528403D01*
X26454844Y-4528403D01*
X26454844Y-4655683D01*
X26582125Y-4655683D01*
X11232390Y-6318140D02*
X11232390Y-6190860D01*
X11105110Y-6190860D01*
X11105110Y-6318140D01*
X11232390Y-6318140D01*
X12332390Y-6318140D02*
X12332390Y-6190860D01*
X12205110Y-6190860D01*
X12205110Y-6318140D01*
X12332390Y-6318140D01*
X7432390Y-3943140D02*
X7432390Y-3815860D01*
X7305110Y-3815860D01*
X7305110Y-3943140D01*
X7432390Y-3943140D01*
X8532390Y-3943140D02*
X8532390Y-3815860D01*
X8405110Y-3815860D01*
X8405110Y-3943140D01*
X8532390Y-3943140D01*
X5532390Y-4180640D02*
X5532390Y-4053360D01*
X5405110Y-4053360D01*
X5405110Y-4180640D01*
X5532390Y-4180640D01*
X6632390Y-4180640D02*
X6632390Y-4053360D01*
X6505110Y-4053360D01*
X6505110Y-4180640D01*
X6632390Y-4180640D01*
X5532390Y-6080640D02*
X5532390Y-5953360D01*
X5405110Y-5953360D01*
X5405110Y-6080640D01*
X5532390Y-6080640D01*
X6632390Y-6080640D02*
X6632390Y-5953360D01*
X6505110Y-5953360D01*
X6505110Y-6080640D01*
X6632390Y-6080640D01*
X8382390Y-9943140D02*
X8382390Y-9815860D01*
X8255110Y-9815860D01*
X8255110Y-9943140D01*
X8382390Y-9943140D01*
X9482390Y-9943140D02*
X9482390Y-9815860D01*
X9355110Y-9815860D01*
X9355110Y-9943140D01*
X9482390Y-9943140D01*
X7432390Y-7743140D02*
X7432390Y-7615860D01*
X7305110Y-7615860D01*
X7305110Y-7743140D01*
X7432390Y-7743140D01*
X8532390Y-7743140D02*
X8532390Y-7615860D01*
X8405110Y-7615860D01*
X8405110Y-7743140D01*
X8532390Y-7743140D01*
X12994450Y-8556900D02*
X13109450Y-8441900D01*
X12994450Y-8326900D01*
X12879450Y-8441900D01*
X12994450Y-8556900D01*
X15633085Y-9423543D02*
X15748085Y-9308543D01*
X15633085Y-9193543D01*
X15518085Y-9308543D01*
X15633085Y-9423543D01*
X14437650Y-9409000D02*
X14552650Y-9294000D01*
X14437650Y-9179000D01*
X14322650Y-9294000D01*
X14437650Y-9409000D01*
X17088985Y-8569243D02*
X17203985Y-8454243D01*
X17088985Y-8339243D01*
X16973985Y-8454243D01*
X17088985Y-8569243D01*
X11925550Y-9715000D02*
X12355550Y-10145000D01*
X12355550Y-9715000D02*
X11925550Y-10145000D01*
X12355550Y-9930000D02*
G75*
G03X12355550Y-9930000I-215000J0D01*
G01*
X4856250Y-5329500D02*
X5286250Y-5759500D01*
X5286250Y-5329500D02*
X4856250Y-5759500D01*
X5286250Y-5544500D02*
G75*
G03X5286250Y-5544500I-215000J0D01*
G01*
X19108585Y-4978693D02*
X19538585Y-5408693D01*
X19538585Y-4978693D02*
X19108585Y-5408693D01*
X19538585Y-5193693D02*
G75*
G03X19538585Y-5193693I-215000J0D01*
G01*
X2954550Y-7227050D02*
X3384550Y-7657050D01*
X3384550Y-7227050D02*
X2954550Y-7657050D01*
X3384550Y-7442050D02*
G75*
G03X3384550Y-7442050I-215000J0D01*
G01*
X24806250Y-5327693D02*
X25236250Y-5757693D01*
X25236250Y-5327693D02*
X24806250Y-5757693D01*
X25236250Y-5542693D02*
G75*
G03X25236250Y-5542693I-215000J0D01*
G01*
X4856250Y-7229500D02*
X5286250Y-7659500D01*
X5286250Y-7229500D02*
X4856250Y-7659500D01*
X5286250Y-7444500D02*
G75*
G03X5286250Y-7444500I-215000J0D01*
G01*
X24806250Y-7227693D02*
X25236250Y-7657693D01*
X25236250Y-7227693D02*
X24806250Y-7657693D01*
X25236250Y-7442693D02*
G75*
G03X25236250Y-7442693I-215000J0D01*
G01*
X7268950Y-8953550D02*
X7698950Y-9383550D01*
X7698950Y-8953550D02*
X7268950Y-9383550D01*
X7698950Y-9168550D02*
G75*
G03X7698950Y-9168550I-215000J0D01*
G01*
X17733585Y-9729693D02*
X18163585Y-10159693D01*
X18163585Y-9729693D02*
X17733585Y-10159693D01*
X18163585Y-9944693D02*
G75*
G03X18163585Y-9944693I-215000J0D01*
G01*
X26704585Y-5327693D02*
X27134585Y-5757693D01*
X27134585Y-5327693D02*
X26704585Y-5757693D01*
X27134585Y-5542693D02*
G75*
G03X27134585Y-5542693I-215000J0D01*
G01*
X10550050Y-4978050D02*
X10980050Y-5408050D01*
X10980050Y-4978050D02*
X10550050Y-5408050D01*
X10980050Y-5193050D02*
G75*
G03X10980050Y-5193050I-215000J0D01*
G01*
X26704585Y-7227693D02*
X27134585Y-7657693D01*
X27134585Y-7227693D02*
X26704585Y-7657693D01*
X27134585Y-7442693D02*
G75*
G03X27134585Y-7442693I-215000J0D01*
G01*
X2954550Y-5327050D02*
X3384550Y-5757050D01*
X3384550Y-5327050D02*
X2954550Y-5757050D01*
X3384550Y-5542050D02*
G75*
G03X3384550Y-5542050I-215000J0D01*
G01*
X22390585Y-8954693D02*
X22820585Y-9384693D01*
X22820585Y-8954693D02*
X22390585Y-9384693D01*
X22820585Y-9169693D02*
G75*
G03X22820585Y-9169693I-215000J0D01*
G01*
X7673750Y-3634500D02*
X8163750Y-4124500D01*
X8163750Y-3634500D02*
X7673750Y-4124500D01*
X7918750Y-3634500D02*
X7918750Y-4124500D01*
X7673750Y-3879500D02*
X8163750Y-3879500D01*
X5773750Y-3872000D02*
X6263750Y-4362000D01*
X6263750Y-3872000D02*
X5773750Y-4362000D01*
X6018750Y-3872000D02*
X6018750Y-4362000D01*
X5773750Y-4117000D02*
X6263750Y-4117000D01*
X5773750Y-5772000D02*
X6263750Y-6262000D01*
X6263750Y-5772000D02*
X5773750Y-6262000D01*
X6018750Y-5772000D02*
X6018750Y-6262000D01*
X5773750Y-6017000D02*
X6263750Y-6017000D01*
X8623750Y-9634500D02*
X9113750Y-10124500D01*
X9113750Y-9634500D02*
X8623750Y-10124500D01*
X8868750Y-9634500D02*
X8868750Y-10124500D01*
X8623750Y-9879500D02*
X9113750Y-9879500D01*
X7673750Y-7434500D02*
X8163750Y-7924500D01*
X8163750Y-7434500D02*
X7673750Y-7924500D01*
X7918750Y-7434500D02*
X7918750Y-7924500D01*
X7673750Y-7679500D02*
X8163750Y-7679500D01*
X25723485Y-8147043D02*
X26213485Y-8637043D01*
X26213485Y-8147043D02*
X25723485Y-8637043D01*
X25968485Y-8147043D02*
X25968485Y-8637043D01*
X25723485Y-8392043D02*
X26213485Y-8392043D01*
X18123485Y-4109543D02*
X18613485Y-4599543D01*
X18613485Y-4109543D02*
X18123485Y-4599543D01*
X18368485Y-4109543D02*
X18368485Y-4599543D01*
X18123485Y-4354543D02*
X18613485Y-4354543D01*
X3873750Y-4347000D02*
X4363750Y-4837000D01*
X4363750Y-4347000D02*
X3873750Y-4837000D01*
X4118750Y-4347000D02*
X4118750Y-4837000D01*
X3873750Y-4592000D02*
X4363750Y-4592000D01*
X16648485Y-10284543D02*
X17138485Y-10774543D01*
X17138485Y-10284543D02*
X16648485Y-10774543D01*
X16893485Y-10284543D02*
X16893485Y-10774543D01*
X16648485Y-10529543D02*
X17138485Y-10529543D01*
X21923485Y-3634543D02*
X22413485Y-4124543D01*
X22413485Y-3634543D02*
X21923485Y-4124543D01*
X22168485Y-3634543D02*
X22168485Y-4124543D01*
X21923485Y-3879543D02*
X22413485Y-3879543D01*
X7673750Y-5534500D02*
X8163750Y-6024500D01*
X8163750Y-5534500D02*
X7673750Y-6024500D01*
X7918750Y-5534500D02*
X7918750Y-6024500D01*
X7673750Y-5779500D02*
X8163750Y-5779500D01*
X1973750Y-4347000D02*
X2463750Y-4837000D01*
X2463750Y-4347000D02*
X1973750Y-4837000D01*
X2218750Y-4347000D02*
X2218750Y-4837000D01*
X1973750Y-4592000D02*
X2463750Y-4592000D01*
X25723485Y-6247043D02*
X26213485Y-6737043D01*
X26213485Y-6247043D02*
X25723485Y-6737043D01*
X25968485Y-6247043D02*
X25968485Y-6737043D01*
X25723485Y-6492043D02*
X26213485Y-6492043D01*
X11473750Y-7909500D02*
X11963750Y-8399500D01*
X11963750Y-7909500D02*
X11473750Y-8399500D01*
X11718750Y-7909500D02*
X11718750Y-8399500D01*
X11473750Y-8154500D02*
X11963750Y-8154500D01*
X20973485Y-9634543D02*
X21463485Y-10124543D01*
X21463485Y-9634543D02*
X20973485Y-10124543D01*
X21218485Y-9634543D02*
X21218485Y-10124543D01*
X20973485Y-9879543D02*
X21463485Y-9879543D01*
X18123485Y-6009543D02*
X18613485Y-6499543D01*
X18613485Y-6009543D02*
X18123485Y-6499543D01*
X18368485Y-6009543D02*
X18368485Y-6499543D01*
X18123485Y-6254543D02*
X18613485Y-6254543D01*
X20023485Y-7672043D02*
X20513485Y-8162043D01*
X20513485Y-7672043D02*
X20023485Y-8162043D01*
X20268485Y-7672043D02*
X20268485Y-8162043D01*
X20023485Y-7917043D02*
X20513485Y-7917043D01*
X1973750Y-8147000D02*
X2463750Y-8637000D01*
X2463750Y-8147000D02*
X1973750Y-8637000D01*
X2218750Y-8147000D02*
X2218750Y-8637000D01*
X1973750Y-8392000D02*
X2463750Y-8392000D01*
X9573750Y-7672000D02*
X10063750Y-8162000D01*
X10063750Y-7672000D02*
X9573750Y-8162000D01*
X9818750Y-7672000D02*
X9818750Y-8162000D01*
X9573750Y-7917000D02*
X10063750Y-7917000D01*
X9573750Y-3872000D02*
X10063750Y-4362000D01*
X10063750Y-3872000D02*
X9573750Y-4362000D01*
X9818750Y-3872000D02*
X9818750Y-4362000D01*
X9573750Y-4117000D02*
X10063750Y-4117000D01*
X1973750Y-6247000D02*
X2463750Y-6737000D01*
X2463750Y-6247000D02*
X1973750Y-6737000D01*
X2218750Y-6247000D02*
X2218750Y-6737000D01*
X1973750Y-6492000D02*
X2463750Y-6492000D01*
X10723750Y-9909500D02*
X11213750Y-10399500D01*
X11213750Y-9909500D02*
X10723750Y-10399500D01*
X10968750Y-9909500D02*
X10968750Y-10399500D01*
X10723750Y-10154500D02*
X11213750Y-10154500D01*
X27623485Y-8147043D02*
X28113485Y-8637043D01*
X28113485Y-8147043D02*
X27623485Y-8637043D01*
X27868485Y-8147043D02*
X27868485Y-8637043D01*
X27623485Y-8392043D02*
X28113485Y-8392043D01*
X3873750Y-8147000D02*
X4363750Y-8637000D01*
X4363750Y-8147000D02*
X3873750Y-8637000D01*
X4118750Y-8147000D02*
X4118750Y-8637000D01*
X3873750Y-8392000D02*
X4363750Y-8392000D01*
X12948750Y-10284500D02*
X13438750Y-10774500D01*
X13438750Y-10284500D02*
X12948750Y-10774500D01*
X13193750Y-10284500D02*
X13193750Y-10774500D01*
X12948750Y-10529500D02*
X13438750Y-10529500D01*
X21923485Y-7434543D02*
X22413485Y-7924543D01*
X22413485Y-7434543D02*
X21923485Y-7924543D01*
X22168485Y-7434543D02*
X22168485Y-7924543D01*
X21923485Y-7679543D02*
X22413485Y-7679543D01*
X9573750Y-5772000D02*
X10063750Y-6262000D01*
X10063750Y-5772000D02*
X9573750Y-6262000D01*
X9818750Y-5772000D02*
X9818750Y-6262000D01*
X9573750Y-6017000D02*
X10063750Y-6017000D01*
X18123485Y-7909543D02*
X18613485Y-8399543D01*
X18613485Y-7909543D02*
X18123485Y-8399543D01*
X18368485Y-7909543D02*
X18368485Y-8399543D01*
X18123485Y-8154543D02*
X18613485Y-8154543D01*
X23823485Y-3872043D02*
X24313485Y-4362043D01*
X24313485Y-3872043D02*
X23823485Y-4362043D01*
X24068485Y-3872043D02*
X24068485Y-4362043D01*
X23823485Y-4117043D02*
X24313485Y-4117043D01*
X3873750Y-6247000D02*
X4363750Y-6737000D01*
X4363750Y-6247000D02*
X3873750Y-6737000D01*
X4118750Y-6247000D02*
X4118750Y-6737000D01*
X3873750Y-6492000D02*
X4363750Y-6492000D01*
X21923485Y-5534543D02*
X22413485Y-6024543D01*
X22413485Y-5534543D02*
X21923485Y-6024543D01*
X22168485Y-5534543D02*
X22168485Y-6024543D01*
X21923485Y-5779543D02*
X22413485Y-5779543D01*
X18873485Y-9909543D02*
X19363485Y-10399543D01*
X19363485Y-9909543D02*
X18873485Y-10399543D01*
X19118485Y-9909543D02*
X19118485Y-10399543D01*
X18873485Y-10154543D02*
X19363485Y-10154543D01*
X27623485Y-6247043D02*
X28113485Y-6737043D01*
X28113485Y-6247043D02*
X27623485Y-6737043D01*
X27868485Y-6247043D02*
X27868485Y-6737043D01*
X27623485Y-6492043D02*
X28113485Y-6492043D01*
X20023485Y-5772043D02*
X20513485Y-6262043D01*
X20513485Y-5772043D02*
X20023485Y-6262043D01*
X20268485Y-5772043D02*
X20268485Y-6262043D01*
X20023485Y-6017043D02*
X20513485Y-6017043D01*
X27623485Y-4347043D02*
X28113485Y-4837043D01*
X28113485Y-4347043D02*
X27623485Y-4837043D01*
X27868485Y-4347043D02*
X27868485Y-4837043D01*
X27623485Y-4592043D02*
X28113485Y-4592043D01*
X11473750Y-4109500D02*
X11963750Y-4599500D01*
X11963750Y-4109500D02*
X11473750Y-4599500D01*
X11718750Y-4109500D02*
X11718750Y-4599500D01*
X11473750Y-4354500D02*
X11963750Y-4354500D01*
X5773750Y-7672000D02*
X6263750Y-8162000D01*
X6263750Y-7672000D02*
X5773750Y-8162000D01*
X6018750Y-7672000D02*
X6018750Y-8162000D01*
X5773750Y-7917000D02*
X6263750Y-7917000D01*
X20023485Y-3872043D02*
X20513485Y-4362043D01*
X20513485Y-3872043D02*
X20023485Y-4362043D01*
X20268485Y-3872043D02*
X20268485Y-4362043D01*
X20023485Y-4117043D02*
X20513485Y-4117043D01*
X23823485Y-7672043D02*
X24313485Y-8162043D01*
X24313485Y-7672043D02*
X23823485Y-8162043D01*
X24068485Y-7672043D02*
X24068485Y-8162043D01*
X23823485Y-7917043D02*
X24313485Y-7917043D01*
X23823485Y-5772043D02*
X24313485Y-6262043D01*
X24313485Y-5772043D02*
X23823485Y-6262043D01*
X24068485Y-5772043D02*
X24068485Y-6262043D01*
X23823485Y-6017043D02*
X24313485Y-6017043D01*
X25723485Y-4347043D02*
X26213485Y-4837043D01*
X26213485Y-4347043D02*
X25723485Y-4837043D01*
X25968485Y-4347043D02*
X25968485Y-4837043D01*
X25723485Y-4592043D02*
X26213485Y-4592043D01*
X11473750Y-6009500D02*
X11963750Y-6499500D01*
X11963750Y-6009500D02*
X11473750Y-6499500D01*
X11718750Y-6009500D02*
X11718750Y-6499500D01*
X11473750Y-6254500D02*
X11963750Y-6254500D01*
D12*
X1551987Y-13254995D02*
X1551987Y-12954995D01*
X1623415Y-12954995D01*
X1666273Y-12969281D01*
X1694844Y-12997852D01*
X1709130Y-13026424D01*
X1723415Y-13083567D01*
X1723415Y-13126424D01*
X1709130Y-13183567D01*
X1694844Y-13212138D01*
X1666273Y-13240709D01*
X1623415Y-13254995D01*
X1551987Y-13254995D01*
X1851987Y-13254995D02*
X1851987Y-13054995D01*
X1851987Y-13112138D02*
X1866273Y-13083567D01*
X1880558Y-13069281D01*
X1909130Y-13054995D01*
X1937701Y-13054995D01*
X2037701Y-13254995D02*
X2037701Y-13054995D01*
X2037701Y-12954995D02*
X2023415Y-12969281D01*
X2037701Y-12983567D01*
X2051987Y-12969281D01*
X2037701Y-12954995D01*
X2037701Y-12983567D01*
X2223416Y-13254995D02*
X2194844Y-13240709D01*
X2180558Y-13212138D01*
X2180558Y-12954995D01*
X2380558Y-13254995D02*
X2351987Y-13240709D01*
X2337701Y-13212138D01*
X2337701Y-12954995D01*
X2723416Y-13254995D02*
X2723416Y-12954995D01*
X2823415Y-13169281D01*
X2923415Y-12954995D01*
X2923415Y-13254995D01*
X3194844Y-13254995D02*
X3194844Y-13097852D01*
X3180558Y-13069281D01*
X3151987Y-13054995D01*
X3094844Y-13054995D01*
X3066273Y-13069281D01*
X3194844Y-13240709D02*
X3166273Y-13254995D01*
X3094844Y-13254995D01*
X3066273Y-13240709D01*
X3051987Y-13212138D01*
X3051987Y-13183567D01*
X3066273Y-13154995D01*
X3094844Y-13140709D01*
X3166273Y-13140709D01*
X3194844Y-13126424D01*
X3337701Y-13054995D02*
X3337701Y-13354995D01*
X3337701Y-13069281D02*
X3366273Y-13054995D01*
X3423415Y-13054995D01*
X3451987Y-13069281D01*
X3466273Y-13083567D01*
X3480558Y-13112138D01*
X3480558Y-13197852D01*
X3466273Y-13226424D01*
X3451987Y-13240709D01*
X3423415Y-13254995D01*
X3366273Y-13254995D01*
X3337701Y-13240709D01*
X3609130Y-13226424D02*
X3623415Y-13240709D01*
X3609130Y-13254995D01*
X3594844Y-13240709D01*
X3609130Y-13226424D01*
X3609130Y-13254995D01*
X3609130Y-13069281D02*
X3623415Y-13083567D01*
X3609130Y-13097852D01*
X3594844Y-13083567D01*
X3609130Y-13069281D01*
X3609130Y-13097852D01*
X1235558Y-13734281D02*
X1265558Y-13764281D01*
X1265558Y-13734281D02*
X1235558Y-13764281D01*
X1609130Y-13584995D02*
X1637701Y-13584995D01*
X1666273Y-13599281D01*
X1680558Y-13613567D01*
X1694844Y-13642138D01*
X1709130Y-13699281D01*
X1709130Y-13770709D01*
X1694844Y-13827852D01*
X1680558Y-13856424D01*
X1666273Y-13870709D01*
X1637701Y-13884995D01*
X1609130Y-13884995D01*
X1580558Y-13870709D01*
X1566273Y-13856424D01*
X1551987Y-13827852D01*
X1537701Y-13770709D01*
X1537701Y-13699281D01*
X1551987Y-13642138D01*
X1566273Y-13613567D01*
X1580558Y-13599281D01*
X1609130Y-13584995D01*
X1837701Y-13856424D02*
X1851987Y-13870709D01*
X1837701Y-13884995D01*
X1823415Y-13870709D01*
X1837701Y-13856424D01*
X1837701Y-13884995D01*
X1951987Y-13584995D02*
X2137701Y-13584995D01*
X2037701Y-13699281D01*
X2080558Y-13699281D01*
X2109130Y-13713567D01*
X2123416Y-13727852D01*
X2137701Y-13756424D01*
X2137701Y-13827852D01*
X2123416Y-13856424D01*
X2109130Y-13870709D01*
X2080558Y-13884995D01*
X1994844Y-13884995D01*
X1966273Y-13870709D01*
X1951987Y-13856424D01*
X2323416Y-13584995D02*
X2351987Y-13584995D01*
X2380558Y-13599281D01*
X2394844Y-13613567D01*
X2409130Y-13642138D01*
X2423416Y-13699281D01*
X2423416Y-13770709D01*
X2409130Y-13827852D01*
X2394844Y-13856424D01*
X2380558Y-13870709D01*
X2351987Y-13884995D01*
X2323416Y-13884995D01*
X2294844Y-13870709D01*
X2280558Y-13856424D01*
X2266273Y-13827852D01*
X2251987Y-13770709D01*
X2251987Y-13699281D01*
X2266273Y-13642138D01*
X2280558Y-13613567D01*
X2294844Y-13599281D01*
X2323416Y-13584995D01*
X2551987Y-13884995D02*
X2551987Y-13684995D01*
X2551987Y-13713567D02*
X2566273Y-13699281D01*
X2594844Y-13684995D01*
X2637701Y-13684995D01*
X2666273Y-13699281D01*
X2680558Y-13727852D01*
X2680558Y-13884995D01*
X2680558Y-13727852D02*
X2694844Y-13699281D01*
X2723416Y-13684995D01*
X2766273Y-13684995D01*
X2794844Y-13699281D01*
X2809130Y-13727852D01*
X2809130Y-13884995D01*
X2951987Y-13884995D02*
X2951987Y-13684995D01*
X2951987Y-13713567D02*
X2966273Y-13699281D01*
X2994844Y-13684995D01*
X3037701Y-13684995D01*
X3066273Y-13699281D01*
X3080558Y-13727852D01*
X3080558Y-13884995D01*
X3080558Y-13727852D02*
X3094844Y-13699281D01*
X3123415Y-13684995D01*
X3166273Y-13684995D01*
X3194844Y-13699281D01*
X3209130Y-13727852D01*
X3209130Y-13884995D01*
X3794844Y-13570709D02*
X3537701Y-13956424D01*
X4180558Y-13584995D02*
X4209130Y-13584995D01*
X4237701Y-13599281D01*
X4251987Y-13613567D01*
X4266273Y-13642138D01*
X4280558Y-13699281D01*
X4280558Y-13770709D01*
X4266273Y-13827852D01*
X4251987Y-13856424D01*
X4237701Y-13870709D01*
X4209130Y-13884995D01*
X4180558Y-13884995D01*
X4151987Y-13870709D01*
X4137701Y-13856424D01*
X4123415Y-13827852D01*
X4109130Y-13770709D01*
X4109130Y-13699281D01*
X4123415Y-13642138D01*
X4137701Y-13613567D01*
X4151987Y-13599281D01*
X4180558Y-13584995D01*
X4409130Y-13856424D02*
X4423416Y-13870709D01*
X4409130Y-13884995D01*
X4394844Y-13870709D01*
X4409130Y-13856424D01*
X4409130Y-13884995D01*
X4609130Y-13584995D02*
X4637701Y-13584995D01*
X4666273Y-13599281D01*
X4680558Y-13613567D01*
X4694844Y-13642138D01*
X4709130Y-13699281D01*
X4709130Y-13770709D01*
X4694844Y-13827852D01*
X4680558Y-13856424D01*
X4666273Y-13870709D01*
X4637701Y-13884995D01*
X4609130Y-13884995D01*
X4580558Y-13870709D01*
X4566273Y-13856424D01*
X4551987Y-13827852D01*
X4537701Y-13770709D01*
X4537701Y-13699281D01*
X4551987Y-13642138D01*
X4566273Y-13613567D01*
X4580558Y-13599281D01*
X4609130Y-13584995D01*
X4994844Y-13884995D02*
X4823416Y-13884995D01*
X4909130Y-13884995D02*
X4909130Y-13584995D01*
X4880558Y-13627852D01*
X4851987Y-13656424D01*
X4823416Y-13670709D01*
X5109130Y-13613567D02*
X5123416Y-13599281D01*
X5151987Y-13584995D01*
X5223416Y-13584995D01*
X5251987Y-13599281D01*
X5266273Y-13613567D01*
X5280558Y-13642138D01*
X5280558Y-13670709D01*
X5266273Y-13713567D01*
X5094844Y-13884995D01*
X5280558Y-13884995D01*
X5394844Y-13584995D02*
X5394844Y-13642138D01*
X5509130Y-13584995D02*
X5509130Y-13642138D01*
X5951987Y-13999281D02*
X5937701Y-13984995D01*
X5909130Y-13942138D01*
X5894844Y-13913567D01*
X5880558Y-13870709D01*
X5866273Y-13799281D01*
X5866273Y-13742138D01*
X5880558Y-13670709D01*
X5894844Y-13627852D01*
X5909130Y-13599281D01*
X5937701Y-13556424D01*
X5951987Y-13542138D01*
X6037701Y-13584995D02*
X6237701Y-13584995D01*
X6109130Y-13884995D01*
X6337701Y-13613567D02*
X6351987Y-13599281D01*
X6380558Y-13584995D01*
X6451987Y-13584995D01*
X6480558Y-13599281D01*
X6494844Y-13613567D01*
X6509130Y-13642138D01*
X6509130Y-13670709D01*
X6494844Y-13713567D01*
X6323415Y-13884995D01*
X6509130Y-13884995D01*
X6866273Y-13884995D02*
X6866273Y-13584995D01*
X6994844Y-13884995D02*
X6994844Y-13727852D01*
X6980558Y-13699281D01*
X6951987Y-13684995D01*
X6909130Y-13684995D01*
X6880558Y-13699281D01*
X6866273Y-13713567D01*
X7180558Y-13884995D02*
X7151987Y-13870709D01*
X7137701Y-13856424D01*
X7123415Y-13827852D01*
X7123415Y-13742138D01*
X7137701Y-13713567D01*
X7151987Y-13699281D01*
X7180558Y-13684995D01*
X7223415Y-13684995D01*
X7251987Y-13699281D01*
X7266273Y-13713567D01*
X7280558Y-13742138D01*
X7280558Y-13827852D01*
X7266273Y-13856424D01*
X7251987Y-13870709D01*
X7223415Y-13884995D01*
X7180558Y-13884995D01*
X7451987Y-13884995D02*
X7423415Y-13870709D01*
X7409130Y-13842138D01*
X7409130Y-13584995D01*
X7680558Y-13870709D02*
X7651987Y-13884995D01*
X7594844Y-13884995D01*
X7566273Y-13870709D01*
X7551987Y-13842138D01*
X7551987Y-13727852D01*
X7566273Y-13699281D01*
X7594844Y-13684995D01*
X7651987Y-13684995D01*
X7680558Y-13699281D01*
X7694844Y-13727852D01*
X7694844Y-13756424D01*
X7551987Y-13784995D01*
X7809130Y-13870709D02*
X7837701Y-13884995D01*
X7894844Y-13884995D01*
X7923415Y-13870709D01*
X7937701Y-13842138D01*
X7937701Y-13827852D01*
X7923415Y-13799281D01*
X7894844Y-13784995D01*
X7851987Y-13784995D01*
X7823415Y-13770709D01*
X7809130Y-13742138D01*
X7809130Y-13727852D01*
X7823415Y-13699281D01*
X7851987Y-13684995D01*
X7894844Y-13684995D01*
X7923415Y-13699281D01*
X8037701Y-13999281D02*
X8051987Y-13984995D01*
X8080558Y-13942138D01*
X8094844Y-13913567D01*
X8109130Y-13870709D01*
X8123415Y-13799281D01*
X8123415Y-13742138D01*
X8109130Y-13670709D01*
X8094844Y-13627852D01*
X8080558Y-13599281D01*
X8051987Y-13556424D01*
X8037701Y-13542138D01*
X8580558Y-13999281D02*
X8566273Y-13984995D01*
X8537701Y-13942138D01*
X8523416Y-13913567D01*
X8509130Y-13870709D01*
X8494844Y-13799281D01*
X8494844Y-13742138D01*
X8509130Y-13670709D01*
X8523416Y-13627852D01*
X8537701Y-13599281D01*
X8566273Y-13556424D01*
X8580558Y-13542138D01*
X8694844Y-13684995D02*
X8694844Y-13884995D01*
X8694844Y-13713567D02*
X8709130Y-13699281D01*
X8737701Y-13684995D01*
X8780558Y-13684995D01*
X8809130Y-13699281D01*
X8823416Y-13727852D01*
X8823416Y-13884995D01*
X9009130Y-13884995D02*
X8980558Y-13870709D01*
X8966273Y-13856424D01*
X8951987Y-13827852D01*
X8951987Y-13742138D01*
X8966273Y-13713567D01*
X8980558Y-13699281D01*
X9009130Y-13684995D01*
X9051987Y-13684995D01*
X9080558Y-13699281D01*
X9094844Y-13713567D01*
X9109130Y-13742138D01*
X9109130Y-13827852D01*
X9094844Y-13856424D01*
X9080558Y-13870709D01*
X9051987Y-13884995D01*
X9009130Y-13884995D01*
X9194844Y-13684995D02*
X9309130Y-13684995D01*
X9237701Y-13584995D02*
X9237701Y-13842138D01*
X9251987Y-13870709D01*
X9280558Y-13884995D01*
X9309130Y-13884995D01*
X9637701Y-13684995D02*
X9637701Y-13984995D01*
X9637701Y-13699281D02*
X9666273Y-13684995D01*
X9723416Y-13684995D01*
X9751987Y-13699281D01*
X9766273Y-13713567D01*
X9780558Y-13742138D01*
X9780558Y-13827852D01*
X9766273Y-13856424D01*
X9751987Y-13870709D01*
X9723416Y-13884995D01*
X9666273Y-13884995D01*
X9637701Y-13870709D01*
X9951987Y-13884995D02*
X9923416Y-13870709D01*
X9909130Y-13842138D01*
X9909130Y-13584995D01*
X10194844Y-13884995D02*
X10194844Y-13727852D01*
X10180558Y-13699281D01*
X10151987Y-13684995D01*
X10094844Y-13684995D01*
X10066273Y-13699281D01*
X10194844Y-13870709D02*
X10166273Y-13884995D01*
X10094844Y-13884995D01*
X10066273Y-13870709D01*
X10051987Y-13842138D01*
X10051987Y-13813567D01*
X10066273Y-13784995D01*
X10094844Y-13770709D01*
X10166273Y-13770709D01*
X10194844Y-13756424D01*
X10294844Y-13684995D02*
X10409130Y-13684995D01*
X10337701Y-13584995D02*
X10337701Y-13842138D01*
X10351987Y-13870709D01*
X10380558Y-13884995D01*
X10409130Y-13884995D01*
X10623416Y-13870709D02*
X10594844Y-13884995D01*
X10537701Y-13884995D01*
X10509130Y-13870709D01*
X10494844Y-13842138D01*
X10494844Y-13727852D01*
X10509130Y-13699281D01*
X10537701Y-13684995D01*
X10594844Y-13684995D01*
X10623416Y-13699281D01*
X10637701Y-13727852D01*
X10637701Y-13756424D01*
X10494844Y-13784995D01*
X10894844Y-13884995D02*
X10894844Y-13584995D01*
X10894844Y-13870709D02*
X10866273Y-13884995D01*
X10809130Y-13884995D01*
X10780558Y-13870709D01*
X10766273Y-13856424D01*
X10751987Y-13827852D01*
X10751987Y-13742138D01*
X10766273Y-13713567D01*
X10780558Y-13699281D01*
X10809130Y-13684995D01*
X10866273Y-13684995D01*
X10894844Y-13699281D01*
X11009130Y-13999281D02*
X11023416Y-13984995D01*
X11051987Y-13942138D01*
X11066273Y-13913567D01*
X11080558Y-13870709D01*
X11094844Y-13799281D01*
X11094844Y-13742138D01*
X11080558Y-13670709D01*
X11066273Y-13627852D01*
X11051987Y-13599281D01*
X11023416Y-13556424D01*
X11009130Y-13542138D01*
X1265558Y-14145281D02*
G75*
G03X1265558Y-14145281I-60000J0D01*
G01*
X1709130Y-14280995D02*
X1537701Y-14280995D01*
X1623415Y-14280995D02*
X1623415Y-13980995D01*
X1594844Y-14023852D01*
X1566273Y-14052424D01*
X1537701Y-14066709D01*
X1837701Y-14252424D02*
X1851987Y-14266709D01*
X1837701Y-14280995D01*
X1823415Y-14266709D01*
X1837701Y-14252424D01*
X1837701Y-14280995D01*
X1966273Y-14009567D02*
X1980558Y-13995281D01*
X2009130Y-13980995D01*
X2080558Y-13980995D01*
X2109130Y-13995281D01*
X2123416Y-14009567D01*
X2137701Y-14038138D01*
X2137701Y-14066709D01*
X2123416Y-14109567D01*
X1951987Y-14280995D01*
X2137701Y-14280995D01*
X2323416Y-13980995D02*
X2351987Y-13980995D01*
X2380558Y-13995281D01*
X2394844Y-14009567D01*
X2409130Y-14038138D01*
X2423416Y-14095281D01*
X2423416Y-14166709D01*
X2409130Y-14223852D01*
X2394844Y-14252424D01*
X2380558Y-14266709D01*
X2351987Y-14280995D01*
X2323416Y-14280995D01*
X2294844Y-14266709D01*
X2280558Y-14252424D01*
X2266273Y-14223852D01*
X2251987Y-14166709D01*
X2251987Y-14095281D01*
X2266273Y-14038138D01*
X2280558Y-14009567D01*
X2294844Y-13995281D01*
X2323416Y-13980995D01*
X2551987Y-14280995D02*
X2551987Y-14080995D01*
X2551987Y-14109567D02*
X2566273Y-14095281D01*
X2594844Y-14080995D01*
X2637701Y-14080995D01*
X2666273Y-14095281D01*
X2680558Y-14123852D01*
X2680558Y-14280995D01*
X2680558Y-14123852D02*
X2694844Y-14095281D01*
X2723416Y-14080995D01*
X2766273Y-14080995D01*
X2794844Y-14095281D01*
X2809130Y-14123852D01*
X2809130Y-14280995D01*
X2951987Y-14280995D02*
X2951987Y-14080995D01*
X2951987Y-14109567D02*
X2966273Y-14095281D01*
X2994844Y-14080995D01*
X3037701Y-14080995D01*
X3066273Y-14095281D01*
X3080558Y-14123852D01*
X3080558Y-14280995D01*
X3080558Y-14123852D02*
X3094844Y-14095281D01*
X3123415Y-14080995D01*
X3166273Y-14080995D01*
X3194844Y-14095281D01*
X3209130Y-14123852D01*
X3209130Y-14280995D01*
X3794844Y-13966709D02*
X3537701Y-14352424D01*
X4180558Y-13980995D02*
X4209130Y-13980995D01*
X4237701Y-13995281D01*
X4251987Y-14009567D01*
X4266273Y-14038138D01*
X4280558Y-14095281D01*
X4280558Y-14166709D01*
X4266273Y-14223852D01*
X4251987Y-14252424D01*
X4237701Y-14266709D01*
X4209130Y-14280995D01*
X4180558Y-14280995D01*
X4151987Y-14266709D01*
X4137701Y-14252424D01*
X4123415Y-14223852D01*
X4109130Y-14166709D01*
X4109130Y-14095281D01*
X4123415Y-14038138D01*
X4137701Y-14009567D01*
X4151987Y-13995281D01*
X4180558Y-13980995D01*
X4409130Y-14252424D02*
X4423416Y-14266709D01*
X4409130Y-14280995D01*
X4394844Y-14266709D01*
X4409130Y-14252424D01*
X4409130Y-14280995D01*
X4609130Y-13980995D02*
X4637701Y-13980995D01*
X4666273Y-13995281D01*
X4680558Y-14009567D01*
X4694844Y-14038138D01*
X4709130Y-14095281D01*
X4709130Y-14166709D01*
X4694844Y-14223852D01*
X4680558Y-14252424D01*
X4666273Y-14266709D01*
X4637701Y-14280995D01*
X4609130Y-14280995D01*
X4580558Y-14266709D01*
X4566273Y-14252424D01*
X4551987Y-14223852D01*
X4537701Y-14166709D01*
X4537701Y-14095281D01*
X4551987Y-14038138D01*
X4566273Y-14009567D01*
X4580558Y-13995281D01*
X4609130Y-13980995D01*
X4966273Y-14080995D02*
X4966273Y-14280995D01*
X4894844Y-13966709D02*
X4823416Y-14180995D01*
X5009130Y-14180995D01*
X5094844Y-13980995D02*
X5294844Y-13980995D01*
X5166273Y-14280995D01*
X5394844Y-13980995D02*
X5394844Y-14038138D01*
X5509130Y-13980995D02*
X5509130Y-14038138D01*
X5951987Y-14395281D02*
X5937701Y-14380995D01*
X5909130Y-14338138D01*
X5894844Y-14309567D01*
X5880558Y-14266709D01*
X5866273Y-14195281D01*
X5866273Y-14138138D01*
X5880558Y-14066709D01*
X5894844Y-14023852D01*
X5909130Y-13995281D01*
X5937701Y-13952424D01*
X5951987Y-13938138D01*
X6194844Y-14080995D02*
X6194844Y-14280995D01*
X6123415Y-13966709D02*
X6051987Y-14180995D01*
X6237701Y-14180995D01*
X6580558Y-14280995D02*
X6580558Y-13980995D01*
X6709130Y-14280995D02*
X6709130Y-14123852D01*
X6694844Y-14095281D01*
X6666273Y-14080995D01*
X6623415Y-14080995D01*
X6594844Y-14095281D01*
X6580558Y-14109567D01*
X6894844Y-14280995D02*
X6866273Y-14266709D01*
X6851987Y-14252424D01*
X6837701Y-14223852D01*
X6837701Y-14138138D01*
X6851987Y-14109567D01*
X6866273Y-14095281D01*
X6894844Y-14080995D01*
X6937701Y-14080995D01*
X6966273Y-14095281D01*
X6980558Y-14109567D01*
X6994844Y-14138138D01*
X6994844Y-14223852D01*
X6980558Y-14252424D01*
X6966273Y-14266709D01*
X6937701Y-14280995D01*
X6894844Y-14280995D01*
X7166273Y-14280995D02*
X7137701Y-14266709D01*
X7123415Y-14238138D01*
X7123415Y-13980995D01*
X7394844Y-14266709D02*
X7366273Y-14280995D01*
X7309130Y-14280995D01*
X7280558Y-14266709D01*
X7266273Y-14238138D01*
X7266273Y-14123852D01*
X7280558Y-14095281D01*
X7309130Y-14080995D01*
X7366273Y-14080995D01*
X7394844Y-14095281D01*
X7409130Y-14123852D01*
X7409130Y-14152424D01*
X7266273Y-14180995D01*
X7523415Y-14266709D02*
X7551987Y-14280995D01*
X7609130Y-14280995D01*
X7637701Y-14266709D01*
X7651987Y-14238138D01*
X7651987Y-14223852D01*
X7637701Y-14195281D01*
X7609130Y-14180995D01*
X7566273Y-14180995D01*
X7537701Y-14166709D01*
X7523415Y-14138138D01*
X7523415Y-14123852D01*
X7537701Y-14095281D01*
X7566273Y-14080995D01*
X7609130Y-14080995D01*
X7637701Y-14095281D01*
X7751987Y-14395281D02*
X7766273Y-14380995D01*
X7794844Y-14338138D01*
X7809130Y-14309567D01*
X7823415Y-14266709D01*
X7837701Y-14195281D01*
X7837701Y-14138138D01*
X7823415Y-14066709D01*
X7809130Y-14023852D01*
X7794844Y-13995281D01*
X7766273Y-13952424D01*
X7751987Y-13938138D01*
X8294844Y-14395281D02*
X8280558Y-14380995D01*
X8251987Y-14338138D01*
X8237701Y-14309567D01*
X8223415Y-14266709D01*
X8209130Y-14195281D01*
X8209130Y-14138138D01*
X8223415Y-14066709D01*
X8237701Y-14023852D01*
X8251987Y-13995281D01*
X8280558Y-13952424D01*
X8294844Y-13938138D01*
X8409130Y-14080995D02*
X8409130Y-14280995D01*
X8409130Y-14109567D02*
X8423416Y-14095281D01*
X8451987Y-14080995D01*
X8494844Y-14080995D01*
X8523416Y-14095281D01*
X8537701Y-14123852D01*
X8537701Y-14280995D01*
X8723416Y-14280995D02*
X8694844Y-14266709D01*
X8680558Y-14252424D01*
X8666273Y-14223852D01*
X8666273Y-14138138D01*
X8680558Y-14109567D01*
X8694844Y-14095281D01*
X8723416Y-14080995D01*
X8766273Y-14080995D01*
X8794844Y-14095281D01*
X8809130Y-14109567D01*
X8823416Y-14138138D01*
X8823416Y-14223852D01*
X8809130Y-14252424D01*
X8794844Y-14266709D01*
X8766273Y-14280995D01*
X8723416Y-14280995D01*
X8909130Y-14080995D02*
X9023416Y-14080995D01*
X8951987Y-13980995D02*
X8951987Y-14238138D01*
X8966273Y-14266709D01*
X8994844Y-14280995D01*
X9023416Y-14280995D01*
X9351987Y-14080995D02*
X9351987Y-14380995D01*
X9351987Y-14095281D02*
X9380558Y-14080995D01*
X9437701Y-14080995D01*
X9466273Y-14095281D01*
X9480558Y-14109567D01*
X9494844Y-14138138D01*
X9494844Y-14223852D01*
X9480558Y-14252424D01*
X9466273Y-14266709D01*
X9437701Y-14280995D01*
X9380558Y-14280995D01*
X9351987Y-14266709D01*
X9666273Y-14280995D02*
X9637701Y-14266709D01*
X9623416Y-14238138D01*
X9623416Y-13980995D01*
X9909130Y-14280995D02*
X9909130Y-14123852D01*
X9894844Y-14095281D01*
X9866273Y-14080995D01*
X9809130Y-14080995D01*
X9780558Y-14095281D01*
X9909130Y-14266709D02*
X9880558Y-14280995D01*
X9809130Y-14280995D01*
X9780558Y-14266709D01*
X9766273Y-14238138D01*
X9766273Y-14209567D01*
X9780558Y-14180995D01*
X9809130Y-14166709D01*
X9880558Y-14166709D01*
X9909130Y-14152424D01*
X10009130Y-14080995D02*
X10123416Y-14080995D01*
X10051987Y-13980995D02*
X10051987Y-14238138D01*
X10066273Y-14266709D01*
X10094844Y-14280995D01*
X10123416Y-14280995D01*
X10337701Y-14266709D02*
X10309130Y-14280995D01*
X10251987Y-14280995D01*
X10223416Y-14266709D01*
X10209130Y-14238138D01*
X10209130Y-14123852D01*
X10223416Y-14095281D01*
X10251987Y-14080995D01*
X10309130Y-14080995D01*
X10337701Y-14095281D01*
X10351987Y-14123852D01*
X10351987Y-14152424D01*
X10209130Y-14180995D01*
X10609130Y-14280995D02*
X10609130Y-13980995D01*
X10609130Y-14266709D02*
X10580558Y-14280995D01*
X10523416Y-14280995D01*
X10494844Y-14266709D01*
X10480558Y-14252424D01*
X10466273Y-14223852D01*
X10466273Y-14138138D01*
X10480558Y-14109567D01*
X10494844Y-14095281D01*
X10523416Y-14080995D01*
X10580558Y-14080995D01*
X10609130Y-14095281D01*
X10723416Y-14395281D02*
X10737701Y-14380995D01*
X10766273Y-14338138D01*
X10780558Y-14309567D01*
X10794844Y-14266709D01*
X10809130Y-14195281D01*
X10809130Y-14138138D01*
X10794844Y-14066709D01*
X10780558Y-14023852D01*
X10766273Y-13995281D01*
X10737701Y-13952424D01*
X10723416Y-13938138D01*
X1180558Y-14456281D02*
X1180558Y-14626281D01*
X1095558Y-14541281D02*
X1265558Y-14541281D01*
X1709130Y-14676995D02*
X1537701Y-14676995D01*
X1623415Y-14676995D02*
X1623415Y-14376995D01*
X1594844Y-14419852D01*
X1566273Y-14448424D01*
X1537701Y-14462709D01*
X1837701Y-14648424D02*
X1851987Y-14662709D01*
X1837701Y-14676995D01*
X1823415Y-14662709D01*
X1837701Y-14648424D01*
X1837701Y-14676995D01*
X1951987Y-14376995D02*
X2151987Y-14376995D01*
X2023415Y-14676995D01*
X2323416Y-14376995D02*
X2351987Y-14376995D01*
X2380558Y-14391281D01*
X2394844Y-14405567D01*
X2409130Y-14434138D01*
X2423416Y-14491281D01*
X2423416Y-14562709D01*
X2409130Y-14619852D01*
X2394844Y-14648424D01*
X2380558Y-14662709D01*
X2351987Y-14676995D01*
X2323416Y-14676995D01*
X2294844Y-14662709D01*
X2280558Y-14648424D01*
X2266273Y-14619852D01*
X2251987Y-14562709D01*
X2251987Y-14491281D01*
X2266273Y-14434138D01*
X2280558Y-14405567D01*
X2294844Y-14391281D01*
X2323416Y-14376995D01*
X2551987Y-14676995D02*
X2551987Y-14476995D01*
X2551987Y-14505567D02*
X2566273Y-14491281D01*
X2594844Y-14476995D01*
X2637701Y-14476995D01*
X2666273Y-14491281D01*
X2680558Y-14519852D01*
X2680558Y-14676995D01*
X2680558Y-14519852D02*
X2694844Y-14491281D01*
X2723416Y-14476995D01*
X2766273Y-14476995D01*
X2794844Y-14491281D01*
X2809130Y-14519852D01*
X2809130Y-14676995D01*
X2951987Y-14676995D02*
X2951987Y-14476995D01*
X2951987Y-14505567D02*
X2966273Y-14491281D01*
X2994844Y-14476995D01*
X3037701Y-14476995D01*
X3066273Y-14491281D01*
X3080558Y-14519852D01*
X3080558Y-14676995D01*
X3080558Y-14519852D02*
X3094844Y-14491281D01*
X3123415Y-14476995D01*
X3166273Y-14476995D01*
X3194844Y-14491281D01*
X3209130Y-14519852D01*
X3209130Y-14676995D01*
X3794844Y-14362709D02*
X3537701Y-14748424D01*
X4180558Y-14376995D02*
X4209130Y-14376995D01*
X4237701Y-14391281D01*
X4251987Y-14405567D01*
X4266273Y-14434138D01*
X4280558Y-14491281D01*
X4280558Y-14562709D01*
X4266273Y-14619852D01*
X4251987Y-14648424D01*
X4237701Y-14662709D01*
X4209130Y-14676995D01*
X4180558Y-14676995D01*
X4151987Y-14662709D01*
X4137701Y-14648424D01*
X4123415Y-14619852D01*
X4109130Y-14562709D01*
X4109130Y-14491281D01*
X4123415Y-14434138D01*
X4137701Y-14405567D01*
X4151987Y-14391281D01*
X4180558Y-14376995D01*
X4409130Y-14648424D02*
X4423416Y-14662709D01*
X4409130Y-14676995D01*
X4394844Y-14662709D01*
X4409130Y-14648424D01*
X4409130Y-14676995D01*
X4609130Y-14376995D02*
X4637701Y-14376995D01*
X4666273Y-14391281D01*
X4680558Y-14405567D01*
X4694844Y-14434138D01*
X4709130Y-14491281D01*
X4709130Y-14562709D01*
X4694844Y-14619852D01*
X4680558Y-14648424D01*
X4666273Y-14662709D01*
X4637701Y-14676995D01*
X4609130Y-14676995D01*
X4580558Y-14662709D01*
X4566273Y-14648424D01*
X4551987Y-14619852D01*
X4537701Y-14562709D01*
X4537701Y-14491281D01*
X4551987Y-14434138D01*
X4566273Y-14405567D01*
X4580558Y-14391281D01*
X4609130Y-14376995D01*
X4966273Y-14376995D02*
X4909130Y-14376995D01*
X4880558Y-14391281D01*
X4866273Y-14405567D01*
X4837701Y-14448424D01*
X4823416Y-14505567D01*
X4823416Y-14619852D01*
X4837701Y-14648424D01*
X4851987Y-14662709D01*
X4880558Y-14676995D01*
X4937701Y-14676995D01*
X4966273Y-14662709D01*
X4980558Y-14648424D01*
X4994844Y-14619852D01*
X4994844Y-14548424D01*
X4980558Y-14519852D01*
X4966273Y-14505567D01*
X4937701Y-14491281D01*
X4880558Y-14491281D01*
X4851987Y-14505567D01*
X4837701Y-14519852D01*
X4823416Y-14548424D01*
X5094844Y-14376995D02*
X5294844Y-14376995D01*
X5166273Y-14676995D01*
X5394844Y-14376995D02*
X5394844Y-14434138D01*
X5509130Y-14376995D02*
X5509130Y-14434138D01*
X5951987Y-14791281D02*
X5937701Y-14776995D01*
X5909130Y-14734138D01*
X5894844Y-14705567D01*
X5880558Y-14662709D01*
X5866273Y-14591281D01*
X5866273Y-14534138D01*
X5880558Y-14462709D01*
X5894844Y-14419852D01*
X5909130Y-14391281D01*
X5937701Y-14348424D01*
X5951987Y-14334138D01*
X6109130Y-14505567D02*
X6080558Y-14491281D01*
X6066273Y-14476995D01*
X6051987Y-14448424D01*
X6051987Y-14434138D01*
X6066273Y-14405567D01*
X6080558Y-14391281D01*
X6109130Y-14376995D01*
X6166273Y-14376995D01*
X6194844Y-14391281D01*
X6209130Y-14405567D01*
X6223415Y-14434138D01*
X6223415Y-14448424D01*
X6209130Y-14476995D01*
X6194844Y-14491281D01*
X6166273Y-14505567D01*
X6109130Y-14505567D01*
X6080558Y-14519852D01*
X6066273Y-14534138D01*
X6051987Y-14562709D01*
X6051987Y-14619852D01*
X6066273Y-14648424D01*
X6080558Y-14662709D01*
X6109130Y-14676995D01*
X6166273Y-14676995D01*
X6194844Y-14662709D01*
X6209130Y-14648424D01*
X6223415Y-14619852D01*
X6223415Y-14562709D01*
X6209130Y-14534138D01*
X6194844Y-14519852D01*
X6166273Y-14505567D01*
X6480558Y-14476995D02*
X6480558Y-14676995D01*
X6409130Y-14362709D02*
X6337701Y-14576995D01*
X6523415Y-14576995D01*
X6866273Y-14676995D02*
X6866273Y-14376995D01*
X6994844Y-14676995D02*
X6994844Y-14519852D01*
X6980558Y-14491281D01*
X6951987Y-14476995D01*
X6909130Y-14476995D01*
X6880558Y-14491281D01*
X6866273Y-14505567D01*
X7180558Y-14676995D02*
X7151987Y-14662709D01*
X7137701Y-14648424D01*
X7123415Y-14619852D01*
X7123415Y-14534138D01*
X7137701Y-14505567D01*
X7151987Y-14491281D01*
X7180558Y-14476995D01*
X7223415Y-14476995D01*
X7251987Y-14491281D01*
X7266273Y-14505567D01*
X7280558Y-14534138D01*
X7280558Y-14619852D01*
X7266273Y-14648424D01*
X7251987Y-14662709D01*
X7223415Y-14676995D01*
X7180558Y-14676995D01*
X7451987Y-14676995D02*
X7423415Y-14662709D01*
X7409130Y-14634138D01*
X7409130Y-14376995D01*
X7680558Y-14662709D02*
X7651987Y-14676995D01*
X7594844Y-14676995D01*
X7566273Y-14662709D01*
X7551987Y-14634138D01*
X7551987Y-14519852D01*
X7566273Y-14491281D01*
X7594844Y-14476995D01*
X7651987Y-14476995D01*
X7680558Y-14491281D01*
X7694844Y-14519852D01*
X7694844Y-14548424D01*
X7551987Y-14576995D01*
X7809130Y-14662709D02*
X7837701Y-14676995D01*
X7894844Y-14676995D01*
X7923415Y-14662709D01*
X7937701Y-14634138D01*
X7937701Y-14619852D01*
X7923415Y-14591281D01*
X7894844Y-14576995D01*
X7851987Y-14576995D01*
X7823415Y-14562709D01*
X7809130Y-14534138D01*
X7809130Y-14519852D01*
X7823415Y-14491281D01*
X7851987Y-14476995D01*
X7894844Y-14476995D01*
X7923415Y-14491281D01*
X8037701Y-14791281D02*
X8051987Y-14776995D01*
X8080558Y-14734138D01*
X8094844Y-14705567D01*
X8109130Y-14662709D01*
X8123415Y-14591281D01*
X8123415Y-14534138D01*
X8109130Y-14462709D01*
X8094844Y-14419852D01*
X8080558Y-14391281D01*
X8051987Y-14348424D01*
X8037701Y-14334138D01*
X8580558Y-14791281D02*
X8566273Y-14776995D01*
X8537701Y-14734138D01*
X8523416Y-14705567D01*
X8509130Y-14662709D01*
X8494844Y-14591281D01*
X8494844Y-14534138D01*
X8509130Y-14462709D01*
X8523416Y-14419852D01*
X8537701Y-14391281D01*
X8566273Y-14348424D01*
X8580558Y-14334138D01*
X8694844Y-14476995D02*
X8694844Y-14676995D01*
X8694844Y-14505567D02*
X8709130Y-14491281D01*
X8737701Y-14476995D01*
X8780558Y-14476995D01*
X8809130Y-14491281D01*
X8823416Y-14519852D01*
X8823416Y-14676995D01*
X9009130Y-14676995D02*
X8980558Y-14662709D01*
X8966273Y-14648424D01*
X8951987Y-14619852D01*
X8951987Y-14534138D01*
X8966273Y-14505567D01*
X8980558Y-14491281D01*
X9009130Y-14476995D01*
X9051987Y-14476995D01*
X9080558Y-14491281D01*
X9094844Y-14505567D01*
X9109130Y-14534138D01*
X9109130Y-14619852D01*
X9094844Y-14648424D01*
X9080558Y-14662709D01*
X9051987Y-14676995D01*
X9009130Y-14676995D01*
X9194844Y-14476995D02*
X9309130Y-14476995D01*
X9237701Y-14376995D02*
X9237701Y-14634138D01*
X9251987Y-14662709D01*
X9280558Y-14676995D01*
X9309130Y-14676995D01*
X9637701Y-14476995D02*
X9637701Y-14776995D01*
X9637701Y-14491281D02*
X9666273Y-14476995D01*
X9723416Y-14476995D01*
X9751987Y-14491281D01*
X9766273Y-14505567D01*
X9780558Y-14534138D01*
X9780558Y-14619852D01*
X9766273Y-14648424D01*
X9751987Y-14662709D01*
X9723416Y-14676995D01*
X9666273Y-14676995D01*
X9637701Y-14662709D01*
X9951987Y-14676995D02*
X9923416Y-14662709D01*
X9909130Y-14634138D01*
X9909130Y-14376995D01*
X10194844Y-14676995D02*
X10194844Y-14519852D01*
X10180558Y-14491281D01*
X10151987Y-14476995D01*
X10094844Y-14476995D01*
X10066273Y-14491281D01*
X10194844Y-14662709D02*
X10166273Y-14676995D01*
X10094844Y-14676995D01*
X10066273Y-14662709D01*
X10051987Y-14634138D01*
X10051987Y-14605567D01*
X10066273Y-14576995D01*
X10094844Y-14562709D01*
X10166273Y-14562709D01*
X10194844Y-14548424D01*
X10294844Y-14476995D02*
X10409130Y-14476995D01*
X10337701Y-14376995D02*
X10337701Y-14634138D01*
X10351987Y-14662709D01*
X10380558Y-14676995D01*
X10409130Y-14676995D01*
X10623416Y-14662709D02*
X10594844Y-14676995D01*
X10537701Y-14676995D01*
X10509130Y-14662709D01*
X10494844Y-14634138D01*
X10494844Y-14519852D01*
X10509130Y-14491281D01*
X10537701Y-14476995D01*
X10594844Y-14476995D01*
X10623416Y-14491281D01*
X10637701Y-14519852D01*
X10637701Y-14548424D01*
X10494844Y-14576995D01*
X10894844Y-14676995D02*
X10894844Y-14376995D01*
X10894844Y-14662709D02*
X10866273Y-14676995D01*
X10809130Y-14676995D01*
X10780558Y-14662709D01*
X10766273Y-14648424D01*
X10751987Y-14619852D01*
X10751987Y-14534138D01*
X10766273Y-14505567D01*
X10780558Y-14491281D01*
X10809130Y-14476995D01*
X10866273Y-14476995D01*
X10894844Y-14491281D01*
X11009130Y-14791281D02*
X11023416Y-14776995D01*
X11051987Y-14734138D01*
X11066273Y-14705567D01*
X11080558Y-14662709D01*
X11094844Y-14591281D01*
X11094844Y-14534138D01*
X11080558Y-14462709D01*
X11066273Y-14419852D01*
X11051987Y-14391281D01*
X11023416Y-14348424D01*
X11009130Y-14334138D01*
X1239199Y-15000921D02*
X1239199Y-14873641D01*
X1111918Y-14873641D01*
X1111918Y-15000921D01*
X1239199Y-15000921D01*
X1709130Y-15072995D02*
X1537701Y-15072995D01*
X1623415Y-15072995D02*
X1623415Y-14772995D01*
X1594844Y-14815852D01*
X1566273Y-14844424D01*
X1537701Y-14858709D01*
X1837701Y-15044424D02*
X1851987Y-15058709D01*
X1837701Y-15072995D01*
X1823415Y-15058709D01*
X1837701Y-15044424D01*
X1837701Y-15072995D01*
X2023415Y-14901567D02*
X1994844Y-14887281D01*
X1980558Y-14872995D01*
X1966273Y-14844424D01*
X1966273Y-14830138D01*
X1980558Y-14801567D01*
X1994844Y-14787281D01*
X2023415Y-14772995D01*
X2080558Y-14772995D01*
X2109130Y-14787281D01*
X2123416Y-14801567D01*
X2137701Y-14830138D01*
X2137701Y-14844424D01*
X2123416Y-14872995D01*
X2109130Y-14887281D01*
X2080558Y-14901567D01*
X2023415Y-14901567D01*
X1994844Y-14915852D01*
X1980558Y-14930138D01*
X1966273Y-14958709D01*
X1966273Y-15015852D01*
X1980558Y-15044424D01*
X1994844Y-15058709D01*
X2023415Y-15072995D01*
X2080558Y-15072995D01*
X2109130Y-15058709D01*
X2123416Y-15044424D01*
X2137701Y-15015852D01*
X2137701Y-14958709D01*
X2123416Y-14930138D01*
X2109130Y-14915852D01*
X2080558Y-14901567D01*
X2323416Y-14772995D02*
X2351987Y-14772995D01*
X2380558Y-14787281D01*
X2394844Y-14801567D01*
X2409130Y-14830138D01*
X2423416Y-14887281D01*
X2423416Y-14958709D01*
X2409130Y-15015852D01*
X2394844Y-15044424D01*
X2380558Y-15058709D01*
X2351987Y-15072995D01*
X2323416Y-15072995D01*
X2294844Y-15058709D01*
X2280558Y-15044424D01*
X2266273Y-15015852D01*
X2251987Y-14958709D01*
X2251987Y-14887281D01*
X2266273Y-14830138D01*
X2280558Y-14801567D01*
X2294844Y-14787281D01*
X2323416Y-14772995D01*
X2551987Y-15072995D02*
X2551987Y-14872995D01*
X2551987Y-14901567D02*
X2566273Y-14887281D01*
X2594844Y-14872995D01*
X2637701Y-14872995D01*
X2666273Y-14887281D01*
X2680558Y-14915852D01*
X2680558Y-15072995D01*
X2680558Y-14915852D02*
X2694844Y-14887281D01*
X2723416Y-14872995D01*
X2766273Y-14872995D01*
X2794844Y-14887281D01*
X2809130Y-14915852D01*
X2809130Y-15072995D01*
X2951987Y-15072995D02*
X2951987Y-14872995D01*
X2951987Y-14901567D02*
X2966273Y-14887281D01*
X2994844Y-14872995D01*
X3037701Y-14872995D01*
X3066273Y-14887281D01*
X3080558Y-14915852D01*
X3080558Y-15072995D01*
X3080558Y-14915852D02*
X3094844Y-14887281D01*
X3123415Y-14872995D01*
X3166273Y-14872995D01*
X3194844Y-14887281D01*
X3209130Y-14915852D01*
X3209130Y-15072995D01*
X3794844Y-14758709D02*
X3537701Y-15144424D01*
X4180558Y-14772995D02*
X4209130Y-14772995D01*
X4237701Y-14787281D01*
X4251987Y-14801567D01*
X4266273Y-14830138D01*
X4280558Y-14887281D01*
X4280558Y-14958709D01*
X4266273Y-15015852D01*
X4251987Y-15044424D01*
X4237701Y-15058709D01*
X4209130Y-15072995D01*
X4180558Y-15072995D01*
X4151987Y-15058709D01*
X4137701Y-15044424D01*
X4123415Y-15015852D01*
X4109130Y-14958709D01*
X4109130Y-14887281D01*
X4123415Y-14830138D01*
X4137701Y-14801567D01*
X4151987Y-14787281D01*
X4180558Y-14772995D01*
X4409130Y-15044424D02*
X4423416Y-15058709D01*
X4409130Y-15072995D01*
X4394844Y-15058709D01*
X4409130Y-15044424D01*
X4409130Y-15072995D01*
X4609130Y-14772995D02*
X4637701Y-14772995D01*
X4666273Y-14787281D01*
X4680558Y-14801567D01*
X4694844Y-14830138D01*
X4709130Y-14887281D01*
X4709130Y-14958709D01*
X4694844Y-15015852D01*
X4680558Y-15044424D01*
X4666273Y-15058709D01*
X4637701Y-15072995D01*
X4609130Y-15072995D01*
X4580558Y-15058709D01*
X4566273Y-15044424D01*
X4551987Y-15015852D01*
X4537701Y-14958709D01*
X4537701Y-14887281D01*
X4551987Y-14830138D01*
X4566273Y-14801567D01*
X4580558Y-14787281D01*
X4609130Y-14772995D01*
X4809130Y-14772995D02*
X5009130Y-14772995D01*
X4880558Y-15072995D01*
X5280558Y-15072995D02*
X5109130Y-15072995D01*
X5194844Y-15072995D02*
X5194844Y-14772995D01*
X5166273Y-14815852D01*
X5137701Y-14844424D01*
X5109130Y-14858709D01*
X5394844Y-14772995D02*
X5394844Y-14830138D01*
X5509130Y-14772995D02*
X5509130Y-14830138D01*
X5951987Y-15187281D02*
X5937701Y-15172995D01*
X5909130Y-15130138D01*
X5894844Y-15101567D01*
X5880558Y-15058709D01*
X5866273Y-14987281D01*
X5866273Y-14930138D01*
X5880558Y-14858709D01*
X5894844Y-14815852D01*
X5909130Y-14787281D01*
X5937701Y-14744424D01*
X5951987Y-14730138D01*
X6109130Y-14901567D02*
X6080558Y-14887281D01*
X6066273Y-14872995D01*
X6051987Y-14844424D01*
X6051987Y-14830138D01*
X6066273Y-14801567D01*
X6080558Y-14787281D01*
X6109130Y-14772995D01*
X6166273Y-14772995D01*
X6194844Y-14787281D01*
X6209130Y-14801567D01*
X6223415Y-14830138D01*
X6223415Y-14844424D01*
X6209130Y-14872995D01*
X6194844Y-14887281D01*
X6166273Y-14901567D01*
X6109130Y-14901567D01*
X6080558Y-14915852D01*
X6066273Y-14930138D01*
X6051987Y-14958709D01*
X6051987Y-15015852D01*
X6066273Y-15044424D01*
X6080558Y-15058709D01*
X6109130Y-15072995D01*
X6166273Y-15072995D01*
X6194844Y-15058709D01*
X6209130Y-15044424D01*
X6223415Y-15015852D01*
X6223415Y-14958709D01*
X6209130Y-14930138D01*
X6194844Y-14915852D01*
X6166273Y-14901567D01*
X6480558Y-14872995D02*
X6480558Y-15072995D01*
X6409130Y-14758709D02*
X6337701Y-14972995D01*
X6523415Y-14972995D01*
X6866273Y-15072995D02*
X6866273Y-14772995D01*
X6994844Y-15072995D02*
X6994844Y-14915852D01*
X6980558Y-14887281D01*
X6951987Y-14872995D01*
X6909130Y-14872995D01*
X6880558Y-14887281D01*
X6866273Y-14901567D01*
X7180558Y-15072995D02*
X7151987Y-15058709D01*
X7137701Y-15044424D01*
X7123415Y-15015852D01*
X7123415Y-14930138D01*
X7137701Y-14901567D01*
X7151987Y-14887281D01*
X7180558Y-14872995D01*
X7223415Y-14872995D01*
X7251987Y-14887281D01*
X7266273Y-14901567D01*
X7280558Y-14930138D01*
X7280558Y-15015852D01*
X7266273Y-15044424D01*
X7251987Y-15058709D01*
X7223415Y-15072995D01*
X7180558Y-15072995D01*
X7451987Y-15072995D02*
X7423415Y-15058709D01*
X7409130Y-15030138D01*
X7409130Y-14772995D01*
X7680558Y-15058709D02*
X7651987Y-15072995D01*
X7594844Y-15072995D01*
X7566273Y-15058709D01*
X7551987Y-15030138D01*
X7551987Y-14915852D01*
X7566273Y-14887281D01*
X7594844Y-14872995D01*
X7651987Y-14872995D01*
X7680558Y-14887281D01*
X7694844Y-14915852D01*
X7694844Y-14944424D01*
X7551987Y-14972995D01*
X7809130Y-15058709D02*
X7837701Y-15072995D01*
X7894844Y-15072995D01*
X7923415Y-15058709D01*
X7937701Y-15030138D01*
X7937701Y-15015852D01*
X7923415Y-14987281D01*
X7894844Y-14972995D01*
X7851987Y-14972995D01*
X7823415Y-14958709D01*
X7809130Y-14930138D01*
X7809130Y-14915852D01*
X7823415Y-14887281D01*
X7851987Y-14872995D01*
X7894844Y-14872995D01*
X7923415Y-14887281D01*
X8037701Y-15187281D02*
X8051987Y-15172995D01*
X8080558Y-15130138D01*
X8094844Y-15101567D01*
X8109130Y-15058709D01*
X8123415Y-14987281D01*
X8123415Y-14930138D01*
X8109130Y-14858709D01*
X8094844Y-14815852D01*
X8080558Y-14787281D01*
X8051987Y-14744424D01*
X8037701Y-14730138D01*
X8580558Y-15187281D02*
X8566273Y-15172995D01*
X8537701Y-15130138D01*
X8523416Y-15101567D01*
X8509130Y-15058709D01*
X8494844Y-14987281D01*
X8494844Y-14930138D01*
X8509130Y-14858709D01*
X8523416Y-14815852D01*
X8537701Y-14787281D01*
X8566273Y-14744424D01*
X8580558Y-14730138D01*
X8694844Y-14872995D02*
X8694844Y-15072995D01*
X8694844Y-14901567D02*
X8709130Y-14887281D01*
X8737701Y-14872995D01*
X8780558Y-14872995D01*
X8809130Y-14887281D01*
X8823416Y-14915852D01*
X8823416Y-15072995D01*
X9009130Y-15072995D02*
X8980558Y-15058709D01*
X8966273Y-15044424D01*
X8951987Y-15015852D01*
X8951987Y-14930138D01*
X8966273Y-14901567D01*
X8980558Y-14887281D01*
X9009130Y-14872995D01*
X9051987Y-14872995D01*
X9080558Y-14887281D01*
X9094844Y-14901567D01*
X9109130Y-14930138D01*
X9109130Y-15015852D01*
X9094844Y-15044424D01*
X9080558Y-15058709D01*
X9051987Y-15072995D01*
X9009130Y-15072995D01*
X9194844Y-14872995D02*
X9309130Y-14872995D01*
X9237701Y-14772995D02*
X9237701Y-15030138D01*
X9251987Y-15058709D01*
X9280558Y-15072995D01*
X9309130Y-15072995D01*
X9637701Y-14872995D02*
X9637701Y-15172995D01*
X9637701Y-14887281D02*
X9666273Y-14872995D01*
X9723416Y-14872995D01*
X9751987Y-14887281D01*
X9766273Y-14901567D01*
X9780558Y-14930138D01*
X9780558Y-15015852D01*
X9766273Y-15044424D01*
X9751987Y-15058709D01*
X9723416Y-15072995D01*
X9666273Y-15072995D01*
X9637701Y-15058709D01*
X9951987Y-15072995D02*
X9923416Y-15058709D01*
X9909130Y-15030138D01*
X9909130Y-14772995D01*
X10194844Y-15072995D02*
X10194844Y-14915852D01*
X10180558Y-14887281D01*
X10151987Y-14872995D01*
X10094844Y-14872995D01*
X10066273Y-14887281D01*
X10194844Y-15058709D02*
X10166273Y-15072995D01*
X10094844Y-15072995D01*
X10066273Y-15058709D01*
X10051987Y-15030138D01*
X10051987Y-15001567D01*
X10066273Y-14972995D01*
X10094844Y-14958709D01*
X10166273Y-14958709D01*
X10194844Y-14944424D01*
X10294844Y-14872995D02*
X10409130Y-14872995D01*
X10337701Y-14772995D02*
X10337701Y-15030138D01*
X10351987Y-15058709D01*
X10380558Y-15072995D01*
X10409130Y-15072995D01*
X10623416Y-15058709D02*
X10594844Y-15072995D01*
X10537701Y-15072995D01*
X10509130Y-15058709D01*
X10494844Y-15030138D01*
X10494844Y-14915852D01*
X10509130Y-14887281D01*
X10537701Y-14872995D01*
X10594844Y-14872995D01*
X10623416Y-14887281D01*
X10637701Y-14915852D01*
X10637701Y-14944424D01*
X10494844Y-14972995D01*
X10894844Y-15072995D02*
X10894844Y-14772995D01*
X10894844Y-15058709D02*
X10866273Y-15072995D01*
X10809130Y-15072995D01*
X10780558Y-15058709D01*
X10766273Y-15044424D01*
X10751987Y-15015852D01*
X10751987Y-14930138D01*
X10766273Y-14901567D01*
X10780558Y-14887281D01*
X10809130Y-14872995D01*
X10866273Y-14872995D01*
X10894844Y-14887281D01*
X11009130Y-15187281D02*
X11023416Y-15172995D01*
X11051987Y-15130138D01*
X11066273Y-15101567D01*
X11080558Y-15058709D01*
X11094844Y-14987281D01*
X11094844Y-14930138D01*
X11080558Y-14858709D01*
X11066273Y-14815852D01*
X11051987Y-14787281D01*
X11023416Y-14744424D01*
X11009130Y-14730138D01*
X1150558Y-15448281D02*
X1265558Y-15333281D01*
X1150558Y-15218281D01*
X1035558Y-15333281D01*
X1150558Y-15448281D01*
X1537701Y-15197567D02*
X1551987Y-15183281D01*
X1580558Y-15168995D01*
X1651987Y-15168995D01*
X1680558Y-15183281D01*
X1694844Y-15197567D01*
X1709130Y-15226138D01*
X1709130Y-15254709D01*
X1694844Y-15297567D01*
X1523415Y-15468995D01*
X1709130Y-15468995D01*
X1837701Y-15440424D02*
X1851987Y-15454709D01*
X1837701Y-15468995D01*
X1823415Y-15454709D01*
X1837701Y-15440424D01*
X1837701Y-15468995D01*
X1951987Y-15168995D02*
X2137701Y-15168995D01*
X2037701Y-15283281D01*
X2080558Y-15283281D01*
X2109130Y-15297567D01*
X2123416Y-15311852D01*
X2137701Y-15340424D01*
X2137701Y-15411852D01*
X2123416Y-15440424D01*
X2109130Y-15454709D01*
X2080558Y-15468995D01*
X1994844Y-15468995D01*
X1966273Y-15454709D01*
X1951987Y-15440424D01*
X2323416Y-15168995D02*
X2351987Y-15168995D01*
X2380558Y-15183281D01*
X2394844Y-15197567D01*
X2409130Y-15226138D01*
X2423416Y-15283281D01*
X2423416Y-15354709D01*
X2409130Y-15411852D01*
X2394844Y-15440424D01*
X2380558Y-15454709D01*
X2351987Y-15468995D01*
X2323416Y-15468995D01*
X2294844Y-15454709D01*
X2280558Y-15440424D01*
X2266273Y-15411852D01*
X2251987Y-15354709D01*
X2251987Y-15283281D01*
X2266273Y-15226138D01*
X2280558Y-15197567D01*
X2294844Y-15183281D01*
X2323416Y-15168995D01*
X2551987Y-15468995D02*
X2551987Y-15268995D01*
X2551987Y-15297567D02*
X2566273Y-15283281D01*
X2594844Y-15268995D01*
X2637701Y-15268995D01*
X2666273Y-15283281D01*
X2680558Y-15311852D01*
X2680558Y-15468995D01*
X2680558Y-15311852D02*
X2694844Y-15283281D01*
X2723416Y-15268995D01*
X2766273Y-15268995D01*
X2794844Y-15283281D01*
X2809130Y-15311852D01*
X2809130Y-15468995D01*
X2951987Y-15468995D02*
X2951987Y-15268995D01*
X2951987Y-15297567D02*
X2966273Y-15283281D01*
X2994844Y-15268995D01*
X3037701Y-15268995D01*
X3066273Y-15283281D01*
X3080558Y-15311852D01*
X3080558Y-15468995D01*
X3080558Y-15311852D02*
X3094844Y-15283281D01*
X3123415Y-15268995D01*
X3166273Y-15268995D01*
X3194844Y-15283281D01*
X3209130Y-15311852D01*
X3209130Y-15468995D01*
X3794844Y-15154709D02*
X3537701Y-15540424D01*
X4180558Y-15168995D02*
X4209130Y-15168995D01*
X4237701Y-15183281D01*
X4251987Y-15197567D01*
X4266273Y-15226138D01*
X4280558Y-15283281D01*
X4280558Y-15354709D01*
X4266273Y-15411852D01*
X4251987Y-15440424D01*
X4237701Y-15454709D01*
X4209130Y-15468995D01*
X4180558Y-15468995D01*
X4151987Y-15454709D01*
X4137701Y-15440424D01*
X4123415Y-15411852D01*
X4109130Y-15354709D01*
X4109130Y-15283281D01*
X4123415Y-15226138D01*
X4137701Y-15197567D01*
X4151987Y-15183281D01*
X4180558Y-15168995D01*
X4409130Y-15440424D02*
X4423416Y-15454709D01*
X4409130Y-15468995D01*
X4394844Y-15454709D01*
X4409130Y-15440424D01*
X4409130Y-15468995D01*
X4609130Y-15168995D02*
X4637701Y-15168995D01*
X4666273Y-15183281D01*
X4680558Y-15197567D01*
X4694844Y-15226138D01*
X4709130Y-15283281D01*
X4709130Y-15354709D01*
X4694844Y-15411852D01*
X4680558Y-15440424D01*
X4666273Y-15454709D01*
X4637701Y-15468995D01*
X4609130Y-15468995D01*
X4580558Y-15454709D01*
X4566273Y-15440424D01*
X4551987Y-15411852D01*
X4537701Y-15354709D01*
X4537701Y-15283281D01*
X4551987Y-15226138D01*
X4566273Y-15197567D01*
X4580558Y-15183281D01*
X4609130Y-15168995D01*
X4851987Y-15468995D02*
X4909130Y-15468995D01*
X4937701Y-15454709D01*
X4951987Y-15440424D01*
X4980558Y-15397567D01*
X4994844Y-15340424D01*
X4994844Y-15226138D01*
X4980558Y-15197567D01*
X4966273Y-15183281D01*
X4937701Y-15168995D01*
X4880558Y-15168995D01*
X4851987Y-15183281D01*
X4837701Y-15197567D01*
X4823416Y-15226138D01*
X4823416Y-15297567D01*
X4837701Y-15326138D01*
X4851987Y-15340424D01*
X4880558Y-15354709D01*
X4937701Y-15354709D01*
X4966273Y-15340424D01*
X4980558Y-15326138D01*
X4994844Y-15297567D01*
X5280558Y-15468995D02*
X5109130Y-15468995D01*
X5194844Y-15468995D02*
X5194844Y-15168995D01*
X5166273Y-15211852D01*
X5137701Y-15240424D01*
X5109130Y-15254709D01*
X5394844Y-15168995D02*
X5394844Y-15226138D01*
X5509130Y-15168995D02*
X5509130Y-15226138D01*
X5951987Y-15583281D02*
X5937701Y-15568995D01*
X5909130Y-15526138D01*
X5894844Y-15497567D01*
X5880558Y-15454709D01*
X5866273Y-15383281D01*
X5866273Y-15326138D01*
X5880558Y-15254709D01*
X5894844Y-15211852D01*
X5909130Y-15183281D01*
X5937701Y-15140424D01*
X5951987Y-15126138D01*
X6194844Y-15268995D02*
X6194844Y-15468995D01*
X6123415Y-15154709D02*
X6051987Y-15368995D01*
X6237701Y-15368995D01*
X6580558Y-15468995D02*
X6580558Y-15168995D01*
X6709130Y-15468995D02*
X6709130Y-15311852D01*
X6694844Y-15283281D01*
X6666273Y-15268995D01*
X6623415Y-15268995D01*
X6594844Y-15283281D01*
X6580558Y-15297567D01*
X6894844Y-15468995D02*
X6866273Y-15454709D01*
X6851987Y-15440424D01*
X6837701Y-15411852D01*
X6837701Y-15326138D01*
X6851987Y-15297567D01*
X6866273Y-15283281D01*
X6894844Y-15268995D01*
X6937701Y-15268995D01*
X6966273Y-15283281D01*
X6980558Y-15297567D01*
X6994844Y-15326138D01*
X6994844Y-15411852D01*
X6980558Y-15440424D01*
X6966273Y-15454709D01*
X6937701Y-15468995D01*
X6894844Y-15468995D01*
X7166273Y-15468995D02*
X7137701Y-15454709D01*
X7123415Y-15426138D01*
X7123415Y-15168995D01*
X7394844Y-15454709D02*
X7366273Y-15468995D01*
X7309130Y-15468995D01*
X7280558Y-15454709D01*
X7266273Y-15426138D01*
X7266273Y-15311852D01*
X7280558Y-15283281D01*
X7309130Y-15268995D01*
X7366273Y-15268995D01*
X7394844Y-15283281D01*
X7409130Y-15311852D01*
X7409130Y-15340424D01*
X7266273Y-15368995D01*
X7523415Y-15454709D02*
X7551987Y-15468995D01*
X7609130Y-15468995D01*
X7637701Y-15454709D01*
X7651987Y-15426138D01*
X7651987Y-15411852D01*
X7637701Y-15383281D01*
X7609130Y-15368995D01*
X7566273Y-15368995D01*
X7537701Y-15354709D01*
X7523415Y-15326138D01*
X7523415Y-15311852D01*
X7537701Y-15283281D01*
X7566273Y-15268995D01*
X7609130Y-15268995D01*
X7637701Y-15283281D01*
X7751987Y-15583281D02*
X7766273Y-15568995D01*
X7794844Y-15526138D01*
X7809130Y-15497567D01*
X7823415Y-15454709D01*
X7837701Y-15383281D01*
X7837701Y-15326138D01*
X7823415Y-15254709D01*
X7809130Y-15211852D01*
X7794844Y-15183281D01*
X7766273Y-15140424D01*
X7751987Y-15126138D01*
X8294844Y-15583281D02*
X8280558Y-15568995D01*
X8251987Y-15526138D01*
X8237701Y-15497567D01*
X8223415Y-15454709D01*
X8209130Y-15383281D01*
X8209130Y-15326138D01*
X8223415Y-15254709D01*
X8237701Y-15211852D01*
X8251987Y-15183281D01*
X8280558Y-15140424D01*
X8294844Y-15126138D01*
X8409130Y-15268995D02*
X8409130Y-15468995D01*
X8409130Y-15297567D02*
X8423416Y-15283281D01*
X8451987Y-15268995D01*
X8494844Y-15268995D01*
X8523416Y-15283281D01*
X8537701Y-15311852D01*
X8537701Y-15468995D01*
X8723416Y-15468995D02*
X8694844Y-15454709D01*
X8680558Y-15440424D01*
X8666273Y-15411852D01*
X8666273Y-15326138D01*
X8680558Y-15297567D01*
X8694844Y-15283281D01*
X8723416Y-15268995D01*
X8766273Y-15268995D01*
X8794844Y-15283281D01*
X8809130Y-15297567D01*
X8823416Y-15326138D01*
X8823416Y-15411852D01*
X8809130Y-15440424D01*
X8794844Y-15454709D01*
X8766273Y-15468995D01*
X8723416Y-15468995D01*
X8909130Y-15268995D02*
X9023416Y-15268995D01*
X8951987Y-15168995D02*
X8951987Y-15426138D01*
X8966273Y-15454709D01*
X8994844Y-15468995D01*
X9023416Y-15468995D01*
X9351987Y-15268995D02*
X9351987Y-15568995D01*
X9351987Y-15283281D02*
X9380558Y-15268995D01*
X9437701Y-15268995D01*
X9466273Y-15283281D01*
X9480558Y-15297567D01*
X9494844Y-15326138D01*
X9494844Y-15411852D01*
X9480558Y-15440424D01*
X9466273Y-15454709D01*
X9437701Y-15468995D01*
X9380558Y-15468995D01*
X9351987Y-15454709D01*
X9666273Y-15468995D02*
X9637701Y-15454709D01*
X9623416Y-15426138D01*
X9623416Y-15168995D01*
X9909130Y-15468995D02*
X9909130Y-15311852D01*
X9894844Y-15283281D01*
X9866273Y-15268995D01*
X9809130Y-15268995D01*
X9780558Y-15283281D01*
X9909130Y-15454709D02*
X9880558Y-15468995D01*
X9809130Y-15468995D01*
X9780558Y-15454709D01*
X9766273Y-15426138D01*
X9766273Y-15397567D01*
X9780558Y-15368995D01*
X9809130Y-15354709D01*
X9880558Y-15354709D01*
X9909130Y-15340424D01*
X10009130Y-15268995D02*
X10123416Y-15268995D01*
X10051987Y-15168995D02*
X10051987Y-15426138D01*
X10066273Y-15454709D01*
X10094844Y-15468995D01*
X10123416Y-15468995D01*
X10337701Y-15454709D02*
X10309130Y-15468995D01*
X10251987Y-15468995D01*
X10223416Y-15454709D01*
X10209130Y-15426138D01*
X10209130Y-15311852D01*
X10223416Y-15283281D01*
X10251987Y-15268995D01*
X10309130Y-15268995D01*
X10337701Y-15283281D01*
X10351987Y-15311852D01*
X10351987Y-15340424D01*
X10209130Y-15368995D01*
X10609130Y-15468995D02*
X10609130Y-15168995D01*
X10609130Y-15454709D02*
X10580558Y-15468995D01*
X10523416Y-15468995D01*
X10494844Y-15454709D01*
X10480558Y-15440424D01*
X10466273Y-15411852D01*
X10466273Y-15326138D01*
X10480558Y-15297567D01*
X10494844Y-15283281D01*
X10523416Y-15268995D01*
X10580558Y-15268995D01*
X10609130Y-15283281D01*
X10723416Y-15583281D02*
X10737701Y-15568995D01*
X10766273Y-15526138D01*
X10780558Y-15497567D01*
X10794844Y-15454709D01*
X10809130Y-15383281D01*
X10809130Y-15326138D01*
X10794844Y-15254709D01*
X10780558Y-15211852D01*
X10766273Y-15183281D01*
X10737701Y-15140424D01*
X10723416Y-15126138D01*
X835558Y-15514281D02*
X1265558Y-15944281D01*
X1265558Y-15514281D02*
X835558Y-15944281D01*
X1265558Y-15729281D02*
G75*
G03X1265558Y-15729281I-215000J0D01*
G01*
X1680558Y-15664995D02*
X1680558Y-15864995D01*
X1609130Y-15550709D02*
X1537701Y-15764995D01*
X1723415Y-15764995D01*
X1837701Y-15836424D02*
X1851987Y-15850709D01*
X1837701Y-15864995D01*
X1823415Y-15850709D01*
X1837701Y-15836424D01*
X1837701Y-15864995D01*
X1951987Y-15564995D02*
X2137701Y-15564995D01*
X2037701Y-15679281D01*
X2080558Y-15679281D01*
X2109130Y-15693567D01*
X2123416Y-15707852D01*
X2137701Y-15736424D01*
X2137701Y-15807852D01*
X2123416Y-15836424D01*
X2109130Y-15850709D01*
X2080558Y-15864995D01*
X1994844Y-15864995D01*
X1966273Y-15850709D01*
X1951987Y-15836424D01*
X2323416Y-15564995D02*
X2351987Y-15564995D01*
X2380558Y-15579281D01*
X2394844Y-15593567D01*
X2409130Y-15622138D01*
X2423416Y-15679281D01*
X2423416Y-15750709D01*
X2409130Y-15807852D01*
X2394844Y-15836424D01*
X2380558Y-15850709D01*
X2351987Y-15864995D01*
X2323416Y-15864995D01*
X2294844Y-15850709D01*
X2280558Y-15836424D01*
X2266273Y-15807852D01*
X2251987Y-15750709D01*
X2251987Y-15679281D01*
X2266273Y-15622138D01*
X2280558Y-15593567D01*
X2294844Y-15579281D01*
X2323416Y-15564995D01*
X2551987Y-15864995D02*
X2551987Y-15664995D01*
X2551987Y-15693567D02*
X2566273Y-15679281D01*
X2594844Y-15664995D01*
X2637701Y-15664995D01*
X2666273Y-15679281D01*
X2680558Y-15707852D01*
X2680558Y-15864995D01*
X2680558Y-15707852D02*
X2694844Y-15679281D01*
X2723416Y-15664995D01*
X2766273Y-15664995D01*
X2794844Y-15679281D01*
X2809130Y-15707852D01*
X2809130Y-15864995D01*
X2951987Y-15864995D02*
X2951987Y-15664995D01*
X2951987Y-15693567D02*
X2966273Y-15679281D01*
X2994844Y-15664995D01*
X3037701Y-15664995D01*
X3066273Y-15679281D01*
X3080558Y-15707852D01*
X3080558Y-15864995D01*
X3080558Y-15707852D02*
X3094844Y-15679281D01*
X3123415Y-15664995D01*
X3166273Y-15664995D01*
X3194844Y-15679281D01*
X3209130Y-15707852D01*
X3209130Y-15864995D01*
X3794844Y-15550709D02*
X3537701Y-15936424D01*
X4180558Y-15564995D02*
X4209130Y-15564995D01*
X4237701Y-15579281D01*
X4251987Y-15593567D01*
X4266273Y-15622138D01*
X4280558Y-15679281D01*
X4280558Y-15750709D01*
X4266273Y-15807852D01*
X4251987Y-15836424D01*
X4237701Y-15850709D01*
X4209130Y-15864995D01*
X4180558Y-15864995D01*
X4151987Y-15850709D01*
X4137701Y-15836424D01*
X4123415Y-15807852D01*
X4109130Y-15750709D01*
X4109130Y-15679281D01*
X4123415Y-15622138D01*
X4137701Y-15593567D01*
X4151987Y-15579281D01*
X4180558Y-15564995D01*
X4409130Y-15836424D02*
X4423416Y-15850709D01*
X4409130Y-15864995D01*
X4394844Y-15850709D01*
X4409130Y-15836424D01*
X4409130Y-15864995D01*
X4709130Y-15864995D02*
X4537701Y-15864995D01*
X4623416Y-15864995D02*
X4623416Y-15564995D01*
X4594844Y-15607852D01*
X4566273Y-15636424D01*
X4537701Y-15650709D01*
X4966273Y-15564995D02*
X4909130Y-15564995D01*
X4880558Y-15579281D01*
X4866273Y-15593567D01*
X4837701Y-15636424D01*
X4823416Y-15693567D01*
X4823416Y-15807852D01*
X4837701Y-15836424D01*
X4851987Y-15850709D01*
X4880558Y-15864995D01*
X4937701Y-15864995D01*
X4966273Y-15850709D01*
X4980558Y-15836424D01*
X4994844Y-15807852D01*
X4994844Y-15736424D01*
X4980558Y-15707852D01*
X4966273Y-15693567D01*
X4937701Y-15679281D01*
X4880558Y-15679281D01*
X4851987Y-15693567D01*
X4837701Y-15707852D01*
X4823416Y-15736424D01*
X5137701Y-15864995D02*
X5194844Y-15864995D01*
X5223416Y-15850709D01*
X5237701Y-15836424D01*
X5266273Y-15793567D01*
X5280558Y-15736424D01*
X5280558Y-15622138D01*
X5266273Y-15593567D01*
X5251987Y-15579281D01*
X5223416Y-15564995D01*
X5166273Y-15564995D01*
X5137701Y-15579281D01*
X5123416Y-15593567D01*
X5109130Y-15622138D01*
X5109130Y-15693567D01*
X5123416Y-15722138D01*
X5137701Y-15736424D01*
X5166273Y-15750709D01*
X5223416Y-15750709D01*
X5251987Y-15736424D01*
X5266273Y-15722138D01*
X5280558Y-15693567D01*
X5394844Y-15564995D02*
X5394844Y-15622138D01*
X5509130Y-15564995D02*
X5509130Y-15622138D01*
X5951987Y-15979281D02*
X5937701Y-15964995D01*
X5909130Y-15922138D01*
X5894844Y-15893567D01*
X5880558Y-15850709D01*
X5866273Y-15779281D01*
X5866273Y-15722138D01*
X5880558Y-15650709D01*
X5894844Y-15607852D01*
X5909130Y-15579281D01*
X5937701Y-15536424D01*
X5951987Y-15522138D01*
X6223415Y-15864995D02*
X6051987Y-15864995D01*
X6137701Y-15864995D02*
X6137701Y-15564995D01*
X6109130Y-15607852D01*
X6080558Y-15636424D01*
X6051987Y-15650709D01*
X6480558Y-15664995D02*
X6480558Y-15864995D01*
X6409130Y-15550709D02*
X6337701Y-15764995D01*
X6523415Y-15764995D01*
X6866273Y-15864995D02*
X6866273Y-15564995D01*
X6994844Y-15864995D02*
X6994844Y-15707852D01*
X6980558Y-15679281D01*
X6951987Y-15664995D01*
X6909130Y-15664995D01*
X6880558Y-15679281D01*
X6866273Y-15693567D01*
X7180558Y-15864995D02*
X7151987Y-15850709D01*
X7137701Y-15836424D01*
X7123415Y-15807852D01*
X7123415Y-15722138D01*
X7137701Y-15693567D01*
X7151987Y-15679281D01*
X7180558Y-15664995D01*
X7223415Y-15664995D01*
X7251987Y-15679281D01*
X7266273Y-15693567D01*
X7280558Y-15722138D01*
X7280558Y-15807852D01*
X7266273Y-15836424D01*
X7251987Y-15850709D01*
X7223415Y-15864995D01*
X7180558Y-15864995D01*
X7451987Y-15864995D02*
X7423415Y-15850709D01*
X7409130Y-15822138D01*
X7409130Y-15564995D01*
X7680558Y-15850709D02*
X7651987Y-15864995D01*
X7594844Y-15864995D01*
X7566273Y-15850709D01*
X7551987Y-15822138D01*
X7551987Y-15707852D01*
X7566273Y-15679281D01*
X7594844Y-15664995D01*
X7651987Y-15664995D01*
X7680558Y-15679281D01*
X7694844Y-15707852D01*
X7694844Y-15736424D01*
X7551987Y-15764995D01*
X7809130Y-15850709D02*
X7837701Y-15864995D01*
X7894844Y-15864995D01*
X7923415Y-15850709D01*
X7937701Y-15822138D01*
X7937701Y-15807852D01*
X7923415Y-15779281D01*
X7894844Y-15764995D01*
X7851987Y-15764995D01*
X7823415Y-15750709D01*
X7809130Y-15722138D01*
X7809130Y-15707852D01*
X7823415Y-15679281D01*
X7851987Y-15664995D01*
X7894844Y-15664995D01*
X7923415Y-15679281D01*
X8037701Y-15979281D02*
X8051987Y-15964995D01*
X8080558Y-15922138D01*
X8094844Y-15893567D01*
X8109130Y-15850709D01*
X8123415Y-15779281D01*
X8123415Y-15722138D01*
X8109130Y-15650709D01*
X8094844Y-15607852D01*
X8080558Y-15579281D01*
X8051987Y-15536424D01*
X8037701Y-15522138D01*
X8580558Y-15979281D02*
X8566273Y-15964995D01*
X8537701Y-15922138D01*
X8523416Y-15893567D01*
X8509130Y-15850709D01*
X8494844Y-15779281D01*
X8494844Y-15722138D01*
X8509130Y-15650709D01*
X8523416Y-15607852D01*
X8537701Y-15579281D01*
X8566273Y-15536424D01*
X8580558Y-15522138D01*
X8694844Y-15664995D02*
X8694844Y-15864995D01*
X8694844Y-15693567D02*
X8709130Y-15679281D01*
X8737701Y-15664995D01*
X8780558Y-15664995D01*
X8809130Y-15679281D01*
X8823416Y-15707852D01*
X8823416Y-15864995D01*
X9009130Y-15864995D02*
X8980558Y-15850709D01*
X8966273Y-15836424D01*
X8951987Y-15807852D01*
X8951987Y-15722138D01*
X8966273Y-15693567D01*
X8980558Y-15679281D01*
X9009130Y-15664995D01*
X9051987Y-15664995D01*
X9080558Y-15679281D01*
X9094844Y-15693567D01*
X9109130Y-15722138D01*
X9109130Y-15807852D01*
X9094844Y-15836424D01*
X9080558Y-15850709D01*
X9051987Y-15864995D01*
X9009130Y-15864995D01*
X9194844Y-15664995D02*
X9309130Y-15664995D01*
X9237701Y-15564995D02*
X9237701Y-15822138D01*
X9251987Y-15850709D01*
X9280558Y-15864995D01*
X9309130Y-15864995D01*
X9637701Y-15664995D02*
X9637701Y-15964995D01*
X9637701Y-15679281D02*
X9666273Y-15664995D01*
X9723416Y-15664995D01*
X9751987Y-15679281D01*
X9766273Y-15693567D01*
X9780558Y-15722138D01*
X9780558Y-15807852D01*
X9766273Y-15836424D01*
X9751987Y-15850709D01*
X9723416Y-15864995D01*
X9666273Y-15864995D01*
X9637701Y-15850709D01*
X9951987Y-15864995D02*
X9923416Y-15850709D01*
X9909130Y-15822138D01*
X9909130Y-15564995D01*
X10194844Y-15864995D02*
X10194844Y-15707852D01*
X10180558Y-15679281D01*
X10151987Y-15664995D01*
X10094844Y-15664995D01*
X10066273Y-15679281D01*
X10194844Y-15850709D02*
X10166273Y-15864995D01*
X10094844Y-15864995D01*
X10066273Y-15850709D01*
X10051987Y-15822138D01*
X10051987Y-15793567D01*
X10066273Y-15764995D01*
X10094844Y-15750709D01*
X10166273Y-15750709D01*
X10194844Y-15736424D01*
X10294844Y-15664995D02*
X10409130Y-15664995D01*
X10337701Y-15564995D02*
X10337701Y-15822138D01*
X10351987Y-15850709D01*
X10380558Y-15864995D01*
X10409130Y-15864995D01*
X10623416Y-15850709D02*
X10594844Y-15864995D01*
X10537701Y-15864995D01*
X10509130Y-15850709D01*
X10494844Y-15822138D01*
X10494844Y-15707852D01*
X10509130Y-15679281D01*
X10537701Y-15664995D01*
X10594844Y-15664995D01*
X10623416Y-15679281D01*
X10637701Y-15707852D01*
X10637701Y-15736424D01*
X10494844Y-15764995D01*
X10894844Y-15864995D02*
X10894844Y-15564995D01*
X10894844Y-15850709D02*
X10866273Y-15864995D01*
X10809130Y-15864995D01*
X10780558Y-15850709D01*
X10766273Y-15836424D01*
X10751987Y-15807852D01*
X10751987Y-15722138D01*
X10766273Y-15693567D01*
X10780558Y-15679281D01*
X10809130Y-15664995D01*
X10866273Y-15664995D01*
X10894844Y-15679281D01*
X11009130Y-15979281D02*
X11023416Y-15964995D01*
X11051987Y-15922138D01*
X11066273Y-15893567D01*
X11080558Y-15850709D01*
X11094844Y-15779281D01*
X11094844Y-15722138D01*
X11080558Y-15650709D01*
X11066273Y-15607852D01*
X11051987Y-15579281D01*
X11023416Y-15536424D01*
X11009130Y-15522138D01*
X775558Y-16044281D02*
X1265558Y-16534281D01*
X1265558Y-16044281D02*
X775558Y-16534281D01*
X1020558Y-16044281D02*
X1020558Y-16534281D01*
X775558Y-16289281D02*
X1265558Y-16289281D01*
X1680558Y-16224995D02*
X1680558Y-16424995D01*
X1609130Y-16110709D02*
X1537701Y-16324995D01*
X1723415Y-16324995D01*
X1837701Y-16396424D02*
X1851987Y-16410709D01*
X1837701Y-16424995D01*
X1823415Y-16410709D01*
X1837701Y-16396424D01*
X1837701Y-16424995D01*
X1994844Y-16424995D02*
X2051987Y-16424995D01*
X2080558Y-16410709D01*
X2094844Y-16396424D01*
X2123416Y-16353567D01*
X2137701Y-16296424D01*
X2137701Y-16182138D01*
X2123416Y-16153567D01*
X2109130Y-16139281D01*
X2080558Y-16124995D01*
X2023415Y-16124995D01*
X1994844Y-16139281D01*
X1980558Y-16153567D01*
X1966273Y-16182138D01*
X1966273Y-16253567D01*
X1980558Y-16282138D01*
X1994844Y-16296424D01*
X2023415Y-16310709D01*
X2080558Y-16310709D01*
X2109130Y-16296424D01*
X2123416Y-16282138D01*
X2137701Y-16253567D01*
X2323416Y-16124995D02*
X2351987Y-16124995D01*
X2380558Y-16139281D01*
X2394844Y-16153567D01*
X2409130Y-16182138D01*
X2423416Y-16239281D01*
X2423416Y-16310709D01*
X2409130Y-16367852D01*
X2394844Y-16396424D01*
X2380558Y-16410709D01*
X2351987Y-16424995D01*
X2323416Y-16424995D01*
X2294844Y-16410709D01*
X2280558Y-16396424D01*
X2266273Y-16367852D01*
X2251987Y-16310709D01*
X2251987Y-16239281D01*
X2266273Y-16182138D01*
X2280558Y-16153567D01*
X2294844Y-16139281D01*
X2323416Y-16124995D01*
X2551987Y-16424995D02*
X2551987Y-16224995D01*
X2551987Y-16253567D02*
X2566273Y-16239281D01*
X2594844Y-16224995D01*
X2637701Y-16224995D01*
X2666273Y-16239281D01*
X2680558Y-16267852D01*
X2680558Y-16424995D01*
X2680558Y-16267852D02*
X2694844Y-16239281D01*
X2723416Y-16224995D01*
X2766273Y-16224995D01*
X2794844Y-16239281D01*
X2809130Y-16267852D01*
X2809130Y-16424995D01*
X2951987Y-16424995D02*
X2951987Y-16224995D01*
X2951987Y-16253567D02*
X2966273Y-16239281D01*
X2994844Y-16224995D01*
X3037701Y-16224995D01*
X3066273Y-16239281D01*
X3080558Y-16267852D01*
X3080558Y-16424995D01*
X3080558Y-16267852D02*
X3094844Y-16239281D01*
X3123415Y-16224995D01*
X3166273Y-16224995D01*
X3194844Y-16239281D01*
X3209130Y-16267852D01*
X3209130Y-16424995D01*
X3794844Y-16110709D02*
X3537701Y-16496424D01*
X4180558Y-16124995D02*
X4209130Y-16124995D01*
X4237701Y-16139281D01*
X4251987Y-16153567D01*
X4266273Y-16182138D01*
X4280558Y-16239281D01*
X4280558Y-16310709D01*
X4266273Y-16367852D01*
X4251987Y-16396424D01*
X4237701Y-16410709D01*
X4209130Y-16424995D01*
X4180558Y-16424995D01*
X4151987Y-16410709D01*
X4137701Y-16396424D01*
X4123415Y-16367852D01*
X4109130Y-16310709D01*
X4109130Y-16239281D01*
X4123415Y-16182138D01*
X4137701Y-16153567D01*
X4151987Y-16139281D01*
X4180558Y-16124995D01*
X4409130Y-16396424D02*
X4423416Y-16410709D01*
X4409130Y-16424995D01*
X4394844Y-16410709D01*
X4409130Y-16396424D01*
X4409130Y-16424995D01*
X4709130Y-16424995D02*
X4537701Y-16424995D01*
X4623416Y-16424995D02*
X4623416Y-16124995D01*
X4594844Y-16167852D01*
X4566273Y-16196424D01*
X4537701Y-16210709D01*
X4851987Y-16424995D02*
X4909130Y-16424995D01*
X4937701Y-16410709D01*
X4951987Y-16396424D01*
X4980558Y-16353567D01*
X4994844Y-16296424D01*
X4994844Y-16182138D01*
X4980558Y-16153567D01*
X4966273Y-16139281D01*
X4937701Y-16124995D01*
X4880558Y-16124995D01*
X4851987Y-16139281D01*
X4837701Y-16153567D01*
X4823416Y-16182138D01*
X4823416Y-16253567D01*
X4837701Y-16282138D01*
X4851987Y-16296424D01*
X4880558Y-16310709D01*
X4937701Y-16310709D01*
X4966273Y-16296424D01*
X4980558Y-16282138D01*
X4994844Y-16253567D01*
X5094844Y-16124995D02*
X5280558Y-16124995D01*
X5180558Y-16239281D01*
X5223416Y-16239281D01*
X5251987Y-16253567D01*
X5266273Y-16267852D01*
X5280558Y-16296424D01*
X5280558Y-16367852D01*
X5266273Y-16396424D01*
X5251987Y-16410709D01*
X5223416Y-16424995D01*
X5137701Y-16424995D01*
X5109130Y-16410709D01*
X5094844Y-16396424D01*
X5394844Y-16124995D02*
X5394844Y-16182138D01*
X5509130Y-16124995D02*
X5509130Y-16182138D01*
X5951987Y-16539281D02*
X5937701Y-16524995D01*
X5909130Y-16482138D01*
X5894844Y-16453567D01*
X5880558Y-16410709D01*
X5866273Y-16339281D01*
X5866273Y-16282138D01*
X5880558Y-16210709D01*
X5894844Y-16167852D01*
X5909130Y-16139281D01*
X5937701Y-16096424D01*
X5951987Y-16082138D01*
X6194844Y-16224995D02*
X6194844Y-16424995D01*
X6123415Y-16110709D02*
X6051987Y-16324995D01*
X6237701Y-16324995D01*
X6337701Y-16153567D02*
X6351987Y-16139281D01*
X6380558Y-16124995D01*
X6451987Y-16124995D01*
X6480558Y-16139281D01*
X6494844Y-16153567D01*
X6509130Y-16182138D01*
X6509130Y-16210709D01*
X6494844Y-16253567D01*
X6323415Y-16424995D01*
X6509130Y-16424995D01*
X6866273Y-16424995D02*
X6866273Y-16124995D01*
X6994844Y-16424995D02*
X6994844Y-16267852D01*
X6980558Y-16239281D01*
X6951987Y-16224995D01*
X6909130Y-16224995D01*
X6880558Y-16239281D01*
X6866273Y-16253567D01*
X7180558Y-16424995D02*
X7151987Y-16410709D01*
X7137701Y-16396424D01*
X7123415Y-16367852D01*
X7123415Y-16282138D01*
X7137701Y-16253567D01*
X7151987Y-16239281D01*
X7180558Y-16224995D01*
X7223415Y-16224995D01*
X7251987Y-16239281D01*
X7266273Y-16253567D01*
X7280558Y-16282138D01*
X7280558Y-16367852D01*
X7266273Y-16396424D01*
X7251987Y-16410709D01*
X7223415Y-16424995D01*
X7180558Y-16424995D01*
X7451987Y-16424995D02*
X7423415Y-16410709D01*
X7409130Y-16382138D01*
X7409130Y-16124995D01*
X7680558Y-16410709D02*
X7651987Y-16424995D01*
X7594844Y-16424995D01*
X7566273Y-16410709D01*
X7551987Y-16382138D01*
X7551987Y-16267852D01*
X7566273Y-16239281D01*
X7594844Y-16224995D01*
X7651987Y-16224995D01*
X7680558Y-16239281D01*
X7694844Y-16267852D01*
X7694844Y-16296424D01*
X7551987Y-16324995D01*
X7809130Y-16410709D02*
X7837701Y-16424995D01*
X7894844Y-16424995D01*
X7923415Y-16410709D01*
X7937701Y-16382138D01*
X7937701Y-16367852D01*
X7923415Y-16339281D01*
X7894844Y-16324995D01*
X7851987Y-16324995D01*
X7823415Y-16310709D01*
X7809130Y-16282138D01*
X7809130Y-16267852D01*
X7823415Y-16239281D01*
X7851987Y-16224995D01*
X7894844Y-16224995D01*
X7923415Y-16239281D01*
X8037701Y-16539281D02*
X8051987Y-16524995D01*
X8080558Y-16482138D01*
X8094844Y-16453567D01*
X8109130Y-16410709D01*
X8123415Y-16339281D01*
X8123415Y-16282138D01*
X8109130Y-16210709D01*
X8094844Y-16167852D01*
X8080558Y-16139281D01*
X8051987Y-16096424D01*
X8037701Y-16082138D01*
X8580558Y-16539281D02*
X8566273Y-16524995D01*
X8537701Y-16482138D01*
X8523416Y-16453567D01*
X8509130Y-16410709D01*
X8494844Y-16339281D01*
X8494844Y-16282138D01*
X8509130Y-16210709D01*
X8523416Y-16167852D01*
X8537701Y-16139281D01*
X8566273Y-16096424D01*
X8580558Y-16082138D01*
X8694844Y-16224995D02*
X8694844Y-16424995D01*
X8694844Y-16253567D02*
X8709130Y-16239281D01*
X8737701Y-16224995D01*
X8780558Y-16224995D01*
X8809130Y-16239281D01*
X8823416Y-16267852D01*
X8823416Y-16424995D01*
X9009130Y-16424995D02*
X8980558Y-16410709D01*
X8966273Y-16396424D01*
X8951987Y-16367852D01*
X8951987Y-16282138D01*
X8966273Y-16253567D01*
X8980558Y-16239281D01*
X9009130Y-16224995D01*
X9051987Y-16224995D01*
X9080558Y-16239281D01*
X9094844Y-16253567D01*
X9109130Y-16282138D01*
X9109130Y-16367852D01*
X9094844Y-16396424D01*
X9080558Y-16410709D01*
X9051987Y-16424995D01*
X9009130Y-16424995D01*
X9194844Y-16224995D02*
X9309130Y-16224995D01*
X9237701Y-16124995D02*
X9237701Y-16382138D01*
X9251987Y-16410709D01*
X9280558Y-16424995D01*
X9309130Y-16424995D01*
X9637701Y-16224995D02*
X9637701Y-16524995D01*
X9637701Y-16239281D02*
X9666273Y-16224995D01*
X9723416Y-16224995D01*
X9751987Y-16239281D01*
X9766273Y-16253567D01*
X9780558Y-16282138D01*
X9780558Y-16367852D01*
X9766273Y-16396424D01*
X9751987Y-16410709D01*
X9723416Y-16424995D01*
X9666273Y-16424995D01*
X9637701Y-16410709D01*
X9951987Y-16424995D02*
X9923416Y-16410709D01*
X9909130Y-16382138D01*
X9909130Y-16124995D01*
X10194844Y-16424995D02*
X10194844Y-16267852D01*
X10180558Y-16239281D01*
X10151987Y-16224995D01*
X10094844Y-16224995D01*
X10066273Y-16239281D01*
X10194844Y-16410709D02*
X10166273Y-16424995D01*
X10094844Y-16424995D01*
X10066273Y-16410709D01*
X10051987Y-16382138D01*
X10051987Y-16353567D01*
X10066273Y-16324995D01*
X10094844Y-16310709D01*
X10166273Y-16310709D01*
X10194844Y-16296424D01*
X10294844Y-16224995D02*
X10409130Y-16224995D01*
X10337701Y-16124995D02*
X10337701Y-16382138D01*
X10351987Y-16410709D01*
X10380558Y-16424995D01*
X10409130Y-16424995D01*
X10623416Y-16410709D02*
X10594844Y-16424995D01*
X10537701Y-16424995D01*
X10509130Y-16410709D01*
X10494844Y-16382138D01*
X10494844Y-16267852D01*
X10509130Y-16239281D01*
X10537701Y-16224995D01*
X10594844Y-16224995D01*
X10623416Y-16239281D01*
X10637701Y-16267852D01*
X10637701Y-16296424D01*
X10494844Y-16324995D01*
X10894844Y-16424995D02*
X10894844Y-16124995D01*
X10894844Y-16410709D02*
X10866273Y-16424995D01*
X10809130Y-16424995D01*
X10780558Y-16410709D01*
X10766273Y-16396424D01*
X10751987Y-16367852D01*
X10751987Y-16282138D01*
X10766273Y-16253567D01*
X10780558Y-16239281D01*
X10809130Y-16224995D01*
X10866273Y-16224995D01*
X10894844Y-16239281D01*
X11009130Y-16539281D02*
X11023416Y-16524995D01*
X11051987Y-16482138D01*
X11066273Y-16453567D01*
X11080558Y-16410709D01*
X11094844Y-16339281D01*
X11094844Y-16282138D01*
X11080558Y-16210709D01*
X11066273Y-16167852D01*
X11051987Y-16139281D01*
X11023416Y-16096424D01*
X11009130Y-16082138D01*
M02*
