%FSLAX45Y45*%
G04 Gerber Fmt 4.5, Leading zero omitted, Abs format (unit mm)*
G04 Created by KiCad (PCBNEW 5.1.5+dfsg1-2build2) date 2021-07-11 13:38:19*
%MOMM*%
%LPD*%
G04 APERTURE LIST*
%TA.AperFunction,Profile*%
%ADD10C,0.200000*%
%TD*%
%ADD11C,0.200000*%
%ADD12C,0.300000*%
G04 APERTURE END LIST*
D10*
X5058377Y-3692948D02*
X1369750Y-3692948D01*
X1985742Y-9365270D02*
X1978884Y-9387368D01*
X1978884Y-9387368D02*
X1978884Y-9387368D01*
X1978884Y-9387368D02*
X1978630Y-9387876D01*
X1978630Y-9387876D02*
X1978630Y-9388384D01*
X1978630Y-9388384D02*
X1967708Y-9408704D01*
X1967708Y-9408704D02*
X1967708Y-9408704D01*
X1967708Y-9408704D02*
X1967454Y-9409212D01*
X6682451Y-9474744D02*
X6682451Y-9474744D01*
X6682451Y-9474744D02*
X6682451Y-9474998D01*
X6682451Y-9474998D02*
X6682959Y-9474998D01*
X6682959Y-9474998D02*
X6683213Y-9475506D01*
X6683213Y-9475506D02*
X6701247Y-9489984D01*
X6701247Y-9489984D02*
X6701247Y-9489984D01*
X6701247Y-9489984D02*
X6701501Y-9490492D01*
X6701501Y-9490492D02*
X6701755Y-9490746D01*
X6701755Y-9490746D02*
X6716741Y-9508526D01*
X6716741Y-9508526D02*
X6716741Y-9508526D01*
X6716741Y-9508526D02*
X6716995Y-9509034D01*
X6716995Y-9509034D02*
X6717249Y-9509288D01*
X6717249Y-9509288D02*
X6728171Y-9529862D01*
X6728171Y-9529862D02*
X6728171Y-9529862D01*
X6728171Y-9529862D02*
X6728171Y-9529862D01*
X6728171Y-9529862D02*
X6728171Y-9529862D01*
X6728171Y-9529862D02*
X6728425Y-9530116D01*
X6728425Y-9530116D02*
X6728679Y-9530624D01*
X6728679Y-9530624D02*
X6735537Y-9552722D01*
X6735537Y-9552722D02*
X6735537Y-9552976D01*
X6735537Y-9552976D02*
X6735537Y-9553230D01*
X6735537Y-9553230D02*
X6735537Y-9553738D01*
X6735537Y-9553738D02*
X6738077Y-9576852D01*
X6738077Y-9576852D02*
X6738077Y-9576852D01*
X6738077Y-9576852D02*
X6738077Y-9577106D01*
X6738077Y-9577106D02*
X6738077Y-9577360D01*
X6738077Y-9577360D02*
X6738077Y-9577868D01*
X6738077Y-9577868D02*
X6738077Y-9577868D01*
X6738077Y-9577868D02*
X6738077Y-12295665D01*
X6738077Y-12295665D02*
X6738077Y-12296173D01*
X6738077Y-12296173D02*
X6740363Y-12318525D01*
X6740363Y-12318525D02*
X6746967Y-12339607D01*
X6746967Y-12339607D02*
X6757635Y-12359165D01*
X6757635Y-12359165D02*
X6771605Y-12376183D01*
X6771605Y-12376183D02*
X6788877Y-12390407D01*
X6808435Y-12400821D02*
X6829771Y-12407171D01*
X6829771Y-12407171D02*
X6852123Y-12409457D01*
X6852123Y-12409457D02*
X23368711Y-12408441D01*
X23368711Y-12408441D02*
X23369473Y-12408441D01*
X23369473Y-12408441D02*
X23391571Y-12406155D01*
X23391571Y-12406155D02*
X23412907Y-12399551D01*
X23412907Y-12399551D02*
X23432465Y-12388883D01*
X23432465Y-12388883D02*
X23449483Y-12374913D01*
X23449483Y-12374913D02*
X23463707Y-12357641D01*
X23463707Y-12357641D02*
X23473867Y-12338083D01*
X23473867Y-12338083D02*
X23480471Y-12316747D01*
X23480471Y-12316747D02*
X23482503Y-12294395D01*
X23482503Y-12294395D02*
X23482503Y-9577106D01*
X23482503Y-9577106D02*
X23482503Y-9576852D01*
X23482503Y-9576852D02*
X23482503Y-9576852D01*
X23482503Y-9576852D02*
X23484789Y-9553738D01*
X23484789Y-9553738D02*
X23484789Y-9553738D01*
X23484789Y-9553738D02*
X23484789Y-9553738D01*
X23484789Y-9553738D02*
X23484789Y-9553484D01*
X23484789Y-9553484D02*
X23485043Y-9553230D01*
X23485043Y-9553230D02*
X23485043Y-9552722D01*
X23485043Y-9552722D02*
X23491901Y-9530624D01*
X23491901Y-9530624D02*
X23491901Y-9530624D01*
X23491901Y-9530624D02*
X23491901Y-9530116D01*
X23491901Y-9530116D02*
X23492155Y-9529608D01*
X23492155Y-9529608D02*
X23503077Y-9509288D01*
X23503077Y-9509288D02*
X23503077Y-9509288D01*
X23503077Y-9509288D02*
X23503077Y-9509288D01*
X23503077Y-9509288D02*
X23503077Y-9509034D01*
X23503077Y-9509034D02*
X23503331Y-9508780D01*
X23503331Y-9508780D02*
X23503585Y-9508526D01*
X23503585Y-9508526D02*
X23518062Y-9490492D01*
X23518062Y-9490492D02*
X23518316Y-9490492D01*
X23518316Y-9490492D02*
X23518570Y-9489984D01*
X23518570Y-9489984D02*
X23518824Y-9489730D01*
X23518824Y-9489730D02*
X23536858Y-9474998D01*
X23536858Y-9474998D02*
X23536858Y-9474998D01*
X23536858Y-9474998D02*
X23537112Y-9474744D01*
X23537112Y-9474744D02*
X23537620Y-9474490D01*
X23537620Y-9474490D02*
X23557940Y-9463314D01*
X23557940Y-9463314D02*
X23557940Y-9463314D01*
X23557940Y-9463314D02*
X23557940Y-9463314D01*
X23557940Y-9463314D02*
X23557940Y-9463314D01*
X23557940Y-9463314D02*
X23558448Y-9463314D01*
X23558448Y-9463314D02*
X23558956Y-9463060D01*
X23558956Y-9463060D02*
X23581054Y-9456202D01*
X23581054Y-9456202D02*
X23581054Y-9456202D01*
X23581054Y-9456202D02*
X23581054Y-9456202D01*
X23581054Y-9456202D02*
X23581562Y-9455948D01*
X23581562Y-9455948D02*
X23581816Y-9455948D01*
X23581816Y-9455948D02*
X23604930Y-9453408D01*
X23604930Y-9453408D02*
X23605184Y-9453408D01*
X23605184Y-9453408D02*
X23605184Y-9453408D01*
X23605184Y-9453408D02*
X23605438Y-9453408D01*
X23605438Y-9453408D02*
X23606200Y-9453408D01*
X23606200Y-9453408D02*
X23606200Y-9453408D01*
X23606200Y-9453408D02*
X23725072Y-9453408D01*
X23725072Y-9453408D02*
X23725580Y-9453408D01*
X23725580Y-9453408D02*
X23747932Y-9451122D01*
X23747932Y-9451122D02*
X23769268Y-9444518D01*
X23769268Y-9444518D02*
X23788572Y-9434104D01*
X23788572Y-9434104D02*
X23805844Y-9419880D01*
X23805844Y-9419880D02*
X23819814Y-9402608D01*
X23819814Y-9402608D02*
X23830228Y-9383050D01*
X23830228Y-9383050D02*
X23836578Y-9361714D01*
X23836578Y-9361714D02*
X23838864Y-9339616D01*
X23838864Y-9339616D02*
X23839626Y-9318788D01*
X20039536Y-3218476D02*
X20038774Y-2927392D01*
X20038774Y-2927392D02*
X20038774Y-2926630D01*
X20038774Y-2926630D02*
X20036488Y-2904278D01*
X20036488Y-2904278D02*
X20029884Y-2883197D01*
X20029884Y-2883197D02*
X20019470Y-2863639D01*
X20019470Y-2863639D02*
X20005246Y-2846621D01*
X19968416Y-2822237D02*
X19947080Y-2815633D01*
X19947080Y-2815633D02*
X19924982Y-2813601D01*
X19924982Y-2813601D02*
X10176980Y-2814363D01*
X10176980Y-2814363D02*
X10176218Y-2814363D01*
X10176218Y-2814363D02*
X10154120Y-2816649D01*
X10154120Y-2816649D02*
X10132784Y-2823253D01*
X10132784Y-2823253D02*
X10113226Y-2833921D01*
X10113226Y-2833921D02*
X10096208Y-2848145D01*
X10096208Y-2848145D02*
X10081984Y-2865163D01*
X10081984Y-2865163D02*
X10071570Y-2884721D01*
X10071570Y-2884721D02*
X10065220Y-2906056D01*
X10065220Y-2906056D02*
X10063188Y-2928408D01*
X10063188Y-2928408D02*
X10063696Y-3217968D01*
X24324512Y-9318534D02*
X24324004Y-9339616D01*
X24324004Y-9339616D02*
X24324004Y-9340378D01*
X24324004Y-9340378D02*
X24326290Y-9362730D01*
X24326290Y-9362730D02*
X24332894Y-9383812D01*
X24332894Y-9383812D02*
X24343308Y-9403370D01*
X24343308Y-9403370D02*
X24357532Y-9420388D01*
X24357532Y-9420388D02*
X24374804Y-9434612D01*
X24374804Y-9434612D02*
X24394362Y-9445026D01*
X24394362Y-9445026D02*
X24415444Y-9451376D01*
X24415444Y-9451376D02*
X24437796Y-9453408D01*
X24437796Y-9453408D02*
X27525163Y-9453408D01*
X27525163Y-9453408D02*
X27525671Y-9453408D01*
X27525671Y-9453408D02*
X27548023Y-9451122D01*
X27548023Y-9451122D02*
X27569104Y-9444518D01*
X27569104Y-9444518D02*
X27588662Y-9434104D01*
X27588662Y-9434104D02*
X27605680Y-9419880D01*
X27605680Y-9419880D02*
X27619904Y-9402608D01*
X27619904Y-9402608D02*
X27630064Y-9383050D01*
X27630064Y-9383050D02*
X27636668Y-9361714D01*
X27636668Y-9361714D02*
X27638700Y-9339616D01*
X27638700Y-9339616D02*
X27639462Y-9318534D01*
X2465547Y-9363492D02*
X2471897Y-9384828D01*
X2471897Y-9384828D02*
X2482565Y-9404132D01*
X2482565Y-9404132D02*
X2496789Y-9421404D01*
X2496789Y-9421404D02*
X2513807Y-9435374D01*
X2513807Y-9435374D02*
X2533619Y-9445788D01*
X2533619Y-9445788D02*
X2554701Y-9452138D01*
X2554701Y-9452138D02*
X2577053Y-9454424D01*
X2577053Y-9454424D02*
X5664420Y-9454424D01*
X5664420Y-9454424D02*
X5664928Y-9454424D01*
X5664928Y-9454424D02*
X5687280Y-9452138D01*
X5687280Y-9452138D02*
X5708362Y-9445534D01*
X5708362Y-9445534D02*
X5727920Y-9434866D01*
X5727920Y-9434866D02*
X5744938Y-9420896D01*
X5744938Y-9420896D02*
X5759162Y-9403624D01*
X5759162Y-9403624D02*
X5769576Y-9384066D01*
X5769576Y-9384066D02*
X5775926Y-9362730D01*
X5775926Y-9362730D02*
X5778212Y-9340378D01*
X5778212Y-9340378D02*
X5778720Y-9318534D01*
X23838610Y-3218476D02*
X23838864Y-2927392D01*
X23838864Y-2927392D02*
X23838864Y-2926630D01*
X23838864Y-2926630D02*
X23836578Y-2904278D01*
X23836578Y-2904278D02*
X23829974Y-2883197D01*
X23829974Y-2883197D02*
X23819306Y-2863639D01*
X23819306Y-2863639D02*
X23805082Y-2846621D01*
X23805082Y-2846621D02*
X23788064Y-2832651D01*
X23788064Y-2832651D02*
X23768506Y-2822237D01*
X23768506Y-2822237D02*
X23747170Y-2815633D01*
X23747170Y-2815633D02*
X23724818Y-2813601D01*
X23724818Y-2813601D02*
X20637705Y-2813601D01*
X20637705Y-2813601D02*
X20636943Y-2813601D01*
X20636943Y-2813601D02*
X20614591Y-2815887D01*
X20614591Y-2815887D02*
X20593509Y-2822491D01*
X20593509Y-2822491D02*
X20573952Y-2832905D01*
X20573952Y-2832905D02*
X20556934Y-2847129D01*
X20556934Y-2847129D02*
X20542964Y-2864401D01*
X20542964Y-2864401D02*
X20532550Y-2883959D01*
X20532550Y-2883959D02*
X20525946Y-2905294D01*
X20525946Y-2905294D02*
X20523914Y-2927392D01*
X20523914Y-2927392D02*
X20523660Y-3218730D01*
X9578556Y-3217968D02*
X9578048Y-2928154D01*
X9578048Y-2928154D02*
X9578048Y-2927646D01*
X9578048Y-2927646D02*
X9575762Y-2905294D01*
X9575762Y-2905294D02*
X9569158Y-2884213D01*
X9569158Y-2884213D02*
X9558744Y-2864655D01*
X9558744Y-2864655D02*
X9544520Y-2847383D01*
X9544520Y-2847383D02*
X9527248Y-2833413D01*
X9527248Y-2833413D02*
X9507690Y-2822999D01*
X9507690Y-2822999D02*
X9486354Y-2816649D01*
X9486354Y-2816649D02*
X9464002Y-2814363D01*
X9464002Y-2814363D02*
X6376889Y-2814363D01*
X6376889Y-2814363D02*
X6376381Y-2814363D01*
X6376381Y-2814363D02*
X6354029Y-2816649D01*
X6354029Y-2816649D02*
X6332693Y-2823253D01*
X6332693Y-2823253D02*
X6313135Y-2833921D01*
X6313135Y-2833921D02*
X6296118Y-2848145D01*
X6296118Y-2848145D02*
X6282148Y-2865163D01*
X6282148Y-2865163D02*
X6271734Y-2884721D01*
X6271734Y-2884721D02*
X6265384Y-2906056D01*
X6265384Y-2906056D02*
X6263098Y-2928408D01*
X6263098Y-2928408D02*
X6263606Y-3217968D01*
X28237124Y-9463568D02*
X28214010Y-9461282D01*
X28793383Y-12744991D02*
X28807353Y-12727719D01*
X19987974Y-2832651D02*
X19968416Y-2822237D01*
X20005246Y-2846621D02*
X19987974Y-2832651D01*
X6788877Y-12390407D02*
X6808435Y-12400821D01*
X28826403Y-9576598D02*
X28826403Y-12664473D01*
X1275559Y-9578376D02*
X1275559Y-12665489D01*
X1987520Y-9318026D02*
X1988028Y-9340886D01*
X1988028Y-9340886D02*
X1988028Y-9341140D01*
X1988028Y-9341140D02*
X1988028Y-9341140D01*
X1988028Y-9341140D02*
X1985742Y-9364254D01*
X1985742Y-9364254D02*
X1985742Y-9364254D01*
X1985742Y-9364254D02*
X1985742Y-9364254D01*
X1985742Y-9364254D02*
X1985742Y-9364254D01*
X1985742Y-9364254D02*
X1985742Y-9364762D01*
X1985742Y-9364762D02*
X1985742Y-9365270D01*
X2463515Y-9318534D02*
X2463007Y-9340632D01*
X2463007Y-9340632D02*
X2463007Y-9341140D01*
X2463007Y-9341140D02*
X2465547Y-9363492D01*
X11666434Y-11272046D02*
X11650432Y-11270014D01*
X11683706Y-11274840D02*
X11666434Y-11272046D01*
X11700216Y-11278650D02*
X11683706Y-11274840D01*
X11715964Y-11282968D02*
X11700216Y-11278650D01*
X14683443Y-9699026D02*
X14683443Y-9690644D01*
X14681665Y-9717568D02*
X14683443Y-9699026D01*
X14678363Y-9734332D02*
X14681665Y-9717568D01*
X14673537Y-9750080D02*
X14678363Y-9734332D01*
X14667695Y-9764304D02*
X14673537Y-9750080D01*
X14660837Y-9777766D02*
X14667695Y-9764304D01*
X10708601Y-3418120D02*
X10708601Y-3268006D01*
X12558481Y-3467904D02*
X10758385Y-3467904D01*
X14650169Y-3695996D02*
X14633405Y-3692948D01*
X14663377Y-3702854D02*
X14650169Y-3695996D01*
X14673283Y-3713014D02*
X14663377Y-3702854D01*
X14680395Y-3725968D02*
X14673283Y-3713014D01*
X14683443Y-3742986D02*
X14680395Y-3725968D01*
X14683443Y-3742986D02*
X14683443Y-9690644D01*
X1987520Y-9318026D02*
X1358616Y-9318026D01*
X1308579Y-3742986D02*
X1308579Y-9267988D01*
X8758391Y-2992924D02*
X7058371Y-2992924D01*
X8808429Y-3167930D02*
X8808429Y-3042962D01*
X9578556Y-3217968D02*
X8858467Y-3217968D01*
X11715964Y-11282968D02*
X13145475Y-12109229D01*
X12608519Y-3517942D02*
X12608519Y-3642910D01*
X12575245Y-3470952D02*
X12558481Y-3467904D01*
X12588453Y-3478064D02*
X12575245Y-3470952D01*
X12598359Y-3487970D02*
X12588453Y-3478064D01*
X12605471Y-3500924D02*
X12598359Y-3487970D01*
X12608519Y-3517942D02*
X12605471Y-3500924D01*
X5108415Y-3268006D02*
X5108415Y-3642910D01*
X5788626Y-3217968D02*
X5158453Y-3217968D01*
X7008587Y-3042962D02*
X7008333Y-3167930D01*
X14633405Y-3692948D02*
X12658557Y-3692948D01*
X6867363Y-9318788D02*
X6858473Y-9316000D01*
X6882095Y-9324122D02*
X6867363Y-9318788D01*
X6893779Y-9332758D02*
X6882095Y-9324122D01*
X1341598Y-9314978D02*
X1358616Y-9318026D01*
X1328645Y-9308120D02*
X1341598Y-9314978D01*
X1318485Y-9297960D02*
X1328645Y-9308120D01*
X1311373Y-9285006D02*
X1318485Y-9297960D01*
X1308579Y-9267988D02*
X1311373Y-9285006D01*
X1358616Y-9318026D02*
X1358616Y-9318026D01*
X1311373Y-3726222D02*
X1308579Y-3742986D01*
X1318485Y-3713268D02*
X1311373Y-3726222D01*
X1328391Y-3703108D02*
X1318485Y-3713268D01*
X1341344Y-3695996D02*
X1328391Y-3703108D01*
X1369750Y-3692948D02*
X1341344Y-3695996D01*
X1308579Y-3742986D02*
X1308579Y-3742986D01*
X5105621Y-3659928D02*
X5108415Y-3643164D01*
X5098509Y-3672882D02*
X5105621Y-3659928D01*
X5088603Y-3683042D02*
X5098509Y-3672882D01*
X5075649Y-3690154D02*
X5088603Y-3683042D01*
X5058377Y-3692948D02*
X5075649Y-3690154D01*
X5108415Y-3643164D02*
X5108415Y-3642910D01*
X5111463Y-3251242D02*
X5108415Y-3268006D01*
X5118321Y-3238288D02*
X5111463Y-3251242D01*
X5128481Y-3228128D02*
X5118321Y-3238288D01*
X5141435Y-3221016D02*
X5128481Y-3228128D01*
X5158453Y-3217968D02*
X5141435Y-3221016D01*
X7005539Y-3184948D02*
X7008587Y-3167930D01*
X6998681Y-3197902D02*
X7005539Y-3184948D01*
X6988521Y-3208062D02*
X6998681Y-3197902D01*
X6975567Y-3215174D02*
X6988521Y-3208062D01*
X6958549Y-3217968D02*
X6975567Y-3215174D01*
X7008587Y-3167930D02*
X7008587Y-3167930D01*
X7011381Y-3026198D02*
X7008587Y-3042962D01*
X7018493Y-3013244D02*
X7011381Y-3026198D01*
X7028399Y-3003084D02*
X7018493Y-3013244D01*
X7041353Y-2995972D02*
X7028399Y-3003084D01*
X7058371Y-2992924D02*
X7041353Y-2995972D01*
X7008587Y-3042962D02*
X7008587Y-3042962D01*
X8775409Y-2995972D02*
X8758391Y-2992924D01*
X8788363Y-3002830D02*
X8775409Y-2995972D01*
X8798523Y-3012990D02*
X8788363Y-3002830D01*
X8805635Y-3025944D02*
X8798523Y-3012990D01*
X8808429Y-3042962D02*
X8805635Y-3025944D01*
X8758391Y-2992924D02*
X8758391Y-2992924D01*
X8841703Y-3215174D02*
X8858467Y-3217968D01*
X8828495Y-3208062D02*
X8841703Y-3215174D01*
X8818589Y-3198156D02*
X8828495Y-3208062D01*
X8811477Y-3185202D02*
X8818589Y-3198156D01*
X8808429Y-3167930D02*
X8811477Y-3185202D01*
X8858467Y-3217968D02*
X8858467Y-3217968D01*
X10675327Y-3221016D02*
X10658563Y-3217968D01*
X10688281Y-3227874D02*
X10675327Y-3221016D01*
X10698441Y-3238034D02*
X10688281Y-3227874D01*
X10705553Y-3250988D02*
X10698441Y-3238034D01*
X10708601Y-3268006D02*
X10705553Y-3250988D01*
X10741621Y-3465110D02*
X10758385Y-3467904D01*
X10728667Y-3457998D02*
X10741621Y-3465110D01*
X10718507Y-3448092D02*
X10728667Y-3457998D01*
X10711395Y-3435138D02*
X10718507Y-3448092D01*
X10708601Y-3418120D02*
X10711395Y-3435138D01*
X13338261Y-12071129D02*
X14660837Y-9777766D01*
X13338007Y-12071637D02*
X13338261Y-12071129D01*
X13332419Y-12079257D02*
X13338007Y-12071637D01*
X13323021Y-12090179D02*
X13332419Y-12079257D01*
X13312607Y-12099831D02*
X13323021Y-12090179D01*
X13300415Y-12109229D02*
X13312607Y-12099831D01*
X13287969Y-12116595D02*
X13300415Y-12109229D01*
X13273491Y-12123199D02*
X13287969Y-12116595D01*
X13258251Y-12128279D02*
X13273491Y-12123199D01*
X13241487Y-12131581D02*
X13258251Y-12128279D01*
X13222691Y-12132851D02*
X13241487Y-12131581D01*
X13203895Y-12131581D02*
X13222691Y-12132851D01*
X13187131Y-12128025D02*
X13203895Y-12131581D01*
X13171891Y-12122945D02*
X13187131Y-12128025D01*
X13157921Y-12116595D02*
X13171891Y-12122945D01*
X13145475Y-12109229D02*
X13157921Y-12116595D01*
X7983438Y-10793003D02*
X11650432Y-11270014D01*
X7974548Y-10792241D02*
X7983438Y-10793003D01*
X7959562Y-10786907D02*
X7974548Y-10792241D01*
X7948132Y-10778271D02*
X7959562Y-10786907D01*
X6893779Y-9332758D02*
X7948132Y-10778271D01*
X12641539Y-3690154D02*
X12658557Y-3692948D01*
X12628585Y-3683042D02*
X12641539Y-3690154D01*
X12618425Y-3673136D02*
X12628585Y-3683042D01*
X12611567Y-3660182D02*
X12618425Y-3673136D01*
X12608519Y-3642910D02*
X12611567Y-3660182D01*
X12658557Y-3692948D02*
X12658557Y-3692948D01*
X18419272Y-11272808D02*
X18435274Y-11270776D01*
X18402000Y-11275602D02*
X18419272Y-11272808D01*
X18385490Y-11279412D02*
X18402000Y-11275602D01*
X18369742Y-11283730D02*
X18385490Y-11279412D01*
X15402517Y-9700550D02*
X15402263Y-9691152D01*
X15404295Y-9718838D02*
X15402517Y-9700550D01*
X15407597Y-9735348D02*
X15404295Y-9718838D01*
X15412168Y-9750842D02*
X15407597Y-9735348D01*
X15418264Y-9765320D02*
X15412168Y-9750842D01*
X15425122Y-9778528D02*
X15418264Y-9765320D01*
X19377359Y-3418374D02*
X19377359Y-3268514D01*
X17527225Y-3468412D02*
X19327321Y-3468412D01*
X15435536Y-3696504D02*
X15452300Y-3693710D01*
X15422582Y-3703616D02*
X15435536Y-3696504D01*
X15412422Y-3713776D02*
X15422582Y-3703616D01*
X15405311Y-3726730D02*
X15412422Y-3713776D01*
X15402263Y-3743748D02*
X15405311Y-3726730D01*
X15402263Y-3743494D02*
X15402263Y-9690898D01*
X24324512Y-9318534D02*
X27639462Y-9318534D01*
X28777381Y-3743748D02*
X28777381Y-9268496D01*
X25027329Y-3693456D02*
X28727343Y-3693710D01*
X21327315Y-2993432D02*
X23027335Y-2993432D01*
X21277277Y-3168438D02*
X21277277Y-3043470D01*
X19427397Y-3218476D02*
X20039536Y-3218476D01*
X18369742Y-11283730D02*
X16940485Y-12109737D01*
X17477187Y-3518704D02*
X17477187Y-3643672D01*
X17510461Y-3471714D02*
X17527225Y-3468666D01*
X17497507Y-3478572D02*
X17510461Y-3471714D01*
X17487347Y-3488732D02*
X17497507Y-3478572D01*
X17480235Y-3501686D02*
X17487347Y-3488732D01*
X17477187Y-3518704D02*
X17480235Y-3501686D01*
X24977291Y-3268514D02*
X24977291Y-3643418D01*
X23127411Y-3218476D02*
X23838610Y-3218476D01*
X23077373Y-3043470D02*
X23077373Y-3168438D01*
X15452300Y-3693456D02*
X17427403Y-3693710D01*
X23218089Y-9319550D02*
X23227233Y-9318788D01*
X23203357Y-9324884D02*
X23218089Y-9319550D01*
X23191927Y-9333266D02*
X23203357Y-9324884D01*
X28744107Y-9315740D02*
X28727343Y-9318788D01*
X28757061Y-9308882D02*
X28744107Y-9315740D01*
X28767221Y-9298722D02*
X28757061Y-9308882D01*
X28774333Y-9285768D02*
X28767221Y-9298722D01*
X28777381Y-9268750D02*
X28774333Y-9285768D01*
X28727343Y-9318788D02*
X28727343Y-9318788D01*
X28774333Y-3726984D02*
X28777381Y-3743748D01*
X28767475Y-3713776D02*
X28774333Y-3726984D01*
X28757315Y-3703870D02*
X28767475Y-3713776D01*
X28744361Y-3696758D02*
X28757315Y-3703870D01*
X28727343Y-3693710D02*
X28744361Y-3696758D01*
X28777381Y-3743748D02*
X28777381Y-3743748D01*
X24980085Y-3660436D02*
X24977291Y-3643672D01*
X24987197Y-3673644D02*
X24980085Y-3660436D01*
X24997103Y-3683550D02*
X24987197Y-3673644D01*
X25010311Y-3690662D02*
X24997103Y-3683550D01*
X25027329Y-3693710D02*
X25010311Y-3690662D01*
X24977291Y-3643672D02*
X24977291Y-3643672D01*
X24974497Y-3252004D02*
X24977291Y-3268768D01*
X24967385Y-3238796D02*
X24974497Y-3252004D01*
X24957225Y-3228890D02*
X24967385Y-3238796D01*
X24944271Y-3221778D02*
X24957225Y-3228890D01*
X24927253Y-3218730D02*
X24944271Y-3221778D01*
X23080167Y-3185456D02*
X23077373Y-3168692D01*
X23087279Y-3198664D02*
X23080167Y-3185456D01*
X23097185Y-3208570D02*
X23087279Y-3198664D01*
X23110393Y-3215682D02*
X23097185Y-3208570D01*
X23127411Y-3218730D02*
X23110393Y-3215682D01*
X23077373Y-3168692D02*
X23077373Y-3168692D01*
X23074325Y-3026706D02*
X23077373Y-3043724D01*
X23067213Y-3013752D02*
X23074325Y-3026706D01*
X23057307Y-3003846D02*
X23067213Y-3013752D01*
X23044353Y-2996734D02*
X23057307Y-3003846D01*
X23027335Y-2993686D02*
X23044353Y-2996734D01*
X23077373Y-3043724D02*
X23077373Y-3043724D01*
X21310297Y-2996734D02*
X21327315Y-2993686D01*
X21297343Y-3003592D02*
X21310297Y-2996734D01*
X21287437Y-3013752D02*
X21297343Y-3003592D01*
X21280325Y-3026706D02*
X21287437Y-3013752D01*
X21277277Y-3043724D02*
X21280325Y-3026706D01*
X21327315Y-2993686D02*
X21327315Y-2993686D01*
X21244257Y-3215936D02*
X21227239Y-3218730D01*
X21257211Y-3208824D02*
X21244257Y-3215936D01*
X21267371Y-3198918D02*
X21257211Y-3208824D01*
X21274229Y-3185710D02*
X21267371Y-3198918D01*
X21277277Y-3168692D02*
X21274229Y-3185710D01*
X21227239Y-3218730D02*
X21227239Y-3218730D01*
X19410633Y-3221524D02*
X19427397Y-3218730D01*
X19397425Y-3228636D02*
X19410633Y-3221524D01*
X19387265Y-3238796D02*
X19397425Y-3228636D01*
X19380407Y-3251750D02*
X19387265Y-3238796D01*
X19377359Y-3268768D02*
X19380407Y-3251750D01*
X19344085Y-3465872D02*
X19327321Y-3468666D01*
X19357039Y-3458760D02*
X19344085Y-3465872D01*
X19367199Y-3448854D02*
X19357039Y-3458760D01*
X19374311Y-3435900D02*
X19367199Y-3448854D01*
X19377359Y-3418628D02*
X19374311Y-3435900D01*
X16747445Y-12071891D02*
X15424868Y-9778528D01*
X16747953Y-12072399D02*
X16747445Y-12071891D01*
X16754049Y-12080781D02*
X16747953Y-12072399D01*
X16763701Y-12091703D02*
X16754049Y-12080781D01*
X16774115Y-12101609D02*
X16763701Y-12091703D01*
X16785799Y-12110245D02*
X16774115Y-12101609D01*
X16798499Y-12117611D02*
X16785799Y-12110245D01*
X16812215Y-12123961D02*
X16798499Y-12117611D01*
X16827709Y-12129041D02*
X16812215Y-12123961D01*
X1967454Y-9409212D02*
X1967200Y-9409466D01*
X1967200Y-9409466D02*
X1952468Y-9427500D01*
X1952468Y-9427500D02*
X1952468Y-9427500D01*
X1952468Y-9427500D02*
X1952468Y-9427500D01*
X1952468Y-9427500D02*
X1952468Y-9427500D01*
X1952468Y-9427500D02*
X1952214Y-9428008D01*
X1952214Y-9428008D02*
X1951706Y-9428262D01*
X1951706Y-9428262D02*
X1933926Y-9442994D01*
X1933926Y-9442994D02*
X1933926Y-9442994D01*
X1933926Y-9442994D02*
X1933418Y-9443248D01*
X1933418Y-9443248D02*
X1933164Y-9443502D01*
X1933164Y-9443502D02*
X1912844Y-9454424D01*
X1912844Y-9454424D02*
X1912844Y-9454424D01*
X1912844Y-9454424D02*
X1912844Y-9454424D01*
X1912844Y-9454424D02*
X1912590Y-9454678D01*
X1912590Y-9454678D02*
X1912336Y-9454678D01*
X1912336Y-9454678D02*
X1911828Y-9454932D01*
X1911828Y-9454932D02*
X1889730Y-9461790D01*
X1889730Y-9461790D02*
X1889730Y-9461790D01*
X1889730Y-9461790D02*
X1889222Y-9461790D01*
X1889222Y-9461790D02*
X1888714Y-9461790D01*
X1888714Y-9461790D02*
X1865600Y-9464330D01*
X1865600Y-9464330D02*
X1865600Y-9464330D01*
X1865600Y-9464330D02*
X1865346Y-9464330D01*
X1865346Y-9464330D02*
X1865092Y-9464330D01*
X1865092Y-9464330D02*
X1864584Y-9464330D01*
X1864584Y-9464330D02*
X1864584Y-9464330D01*
X1864584Y-9464330D02*
X1389350Y-9464330D01*
X1389350Y-9464330D02*
X1388842Y-9464330D01*
X1388842Y-9464330D02*
X1366490Y-9466616D01*
X1366490Y-9466616D02*
X1345408Y-9473220D01*
X1345408Y-9473220D02*
X1325851Y-9483888D01*
X1325851Y-9483888D02*
X1308579Y-9498112D01*
X1308579Y-9498112D02*
X1294609Y-9515130D01*
X1294609Y-9515130D02*
X1284195Y-9534688D01*
X1284195Y-9534688D02*
X1277845Y-9556024D01*
X1277845Y-9556024D02*
X1275559Y-9578376D01*
X1275559Y-12665489D02*
X1275559Y-12666251D01*
X1275559Y-12666251D02*
X1277845Y-12688603D01*
X1277845Y-12688603D02*
X1284449Y-12709685D01*
X1284449Y-12709685D02*
X1295117Y-12729243D01*
X1295117Y-12729243D02*
X1309341Y-12746261D01*
X1309341Y-12746261D02*
X1326359Y-12760485D01*
X1326359Y-12760485D02*
X1345916Y-12770899D01*
X1345916Y-12770899D02*
X1367252Y-12777249D01*
X1367252Y-12777249D02*
X1389604Y-12779281D01*
X1389604Y-12779281D02*
X28712611Y-12778519D01*
X28712611Y-12778519D02*
X28713119Y-12778519D01*
X28713119Y-12778519D02*
X28735471Y-12776233D01*
X28735471Y-12776233D02*
X28756553Y-12769629D01*
X28756553Y-12769629D02*
X28776111Y-12758961D01*
X28776111Y-12758961D02*
X28793383Y-12744991D01*
X28807353Y-12727719D02*
X28817767Y-12708161D01*
X28817767Y-12708161D02*
X28824117Y-12686825D01*
X28824117Y-12686825D02*
X28826403Y-12664473D01*
X28826403Y-9576598D02*
X28823863Y-9554500D01*
X28823863Y-9554500D02*
X28817259Y-9533164D01*
X28817259Y-9533164D02*
X28806845Y-9513606D01*
X28806845Y-9513606D02*
X28792621Y-9496588D01*
X28792621Y-9496588D02*
X28775603Y-9482618D01*
X28775603Y-9482618D02*
X28755791Y-9472204D01*
X28755791Y-9472204D02*
X28734709Y-9465600D01*
X28734709Y-9465600D02*
X28712357Y-9463568D01*
X28712357Y-9463568D02*
X28237378Y-9463568D01*
X28237378Y-9463568D02*
X28237124Y-9463568D01*
X28237124Y-9463568D02*
X28237124Y-9463568D01*
X28214010Y-9461282D02*
X28214010Y-9461282D01*
X28214010Y-9461282D02*
X28214010Y-9461282D01*
X28214010Y-9461282D02*
X28214010Y-9461282D01*
X28214010Y-9461282D02*
X28213502Y-9461028D01*
X28213502Y-9461028D02*
X28212994Y-9461028D01*
X28212994Y-9461028D02*
X28190896Y-9454424D01*
X28190896Y-9454424D02*
X28190896Y-9454424D01*
X28190896Y-9454424D02*
X28190388Y-9454170D01*
X28190388Y-9454170D02*
X28189880Y-9453916D01*
X28189880Y-9453916D02*
X28169560Y-9442994D01*
X28169560Y-9442994D02*
X28169560Y-9442994D01*
X28169560Y-9442994D02*
X28169560Y-9442994D01*
X28169560Y-9442994D02*
X28169052Y-9442740D01*
X28169052Y-9442740D02*
X28168798Y-9442486D01*
X28168798Y-9442486D02*
X28150764Y-9428008D01*
X28150764Y-9428008D02*
X28150764Y-9428008D01*
X28150764Y-9428008D02*
X28150764Y-9428008D01*
X28150764Y-9428008D02*
X28150764Y-9427754D01*
X28150764Y-9427754D02*
X28150256Y-9427500D01*
X28150256Y-9427500D02*
X28150002Y-9427246D01*
X28150002Y-9427246D02*
X28135270Y-9409212D01*
X28135270Y-9409212D02*
X28135270Y-9409212D01*
X28135270Y-9409212D02*
X28135016Y-9408958D01*
X28135016Y-9408958D02*
X28134762Y-9408450D01*
X28134762Y-9408450D02*
X28123586Y-9388130D01*
X28123586Y-9388130D02*
X28123586Y-9388130D01*
X28123586Y-9388130D02*
X28123586Y-9388130D01*
X28123586Y-9388130D02*
X28123586Y-9388130D01*
X28123586Y-9388130D02*
X28123586Y-9387622D01*
X28123586Y-9387622D02*
X28123332Y-9387114D01*
X28123332Y-9387114D02*
X28116474Y-9365016D01*
X28116474Y-9365016D02*
X28116474Y-9365016D01*
X28116474Y-9365016D02*
X28116474Y-9364508D01*
X28116474Y-9364508D02*
X28116220Y-9364254D01*
X28116220Y-9364254D02*
X28113934Y-9341140D01*
X28113934Y-9341140D02*
X28113934Y-9340886D01*
X28113934Y-9340886D02*
X28113934Y-9340886D01*
X28113934Y-9340886D02*
X28113934Y-9340632D01*
X28113934Y-9340632D02*
X28113934Y-9340124D01*
X28113934Y-9340124D02*
X28113680Y-9340124D01*
X28113680Y-9340124D02*
X28114696Y-9318788D01*
X24314606Y-3218730D02*
X24313844Y-2927138D01*
X24313844Y-2927138D02*
X24313844Y-2926884D01*
X24313844Y-2926884D02*
X24316130Y-2903770D01*
X24316130Y-2903770D02*
X24316130Y-2903770D01*
X24316130Y-2903770D02*
X24316130Y-2903770D01*
X24316130Y-2903770D02*
X24316130Y-2903770D01*
X24316130Y-2903770D02*
X24316130Y-2903262D01*
X24316130Y-2903262D02*
X24316384Y-2902754D01*
X24316384Y-2902754D02*
X24322988Y-2880657D01*
X24322988Y-2880657D02*
X24322988Y-2880403D01*
X24322988Y-2880403D02*
X24323242Y-2880149D01*
X24323242Y-2880149D02*
X24323496Y-2879641D01*
X24323496Y-2879641D02*
X24334164Y-2859321D01*
X24334164Y-2859321D02*
X24334164Y-2859321D01*
X24334164Y-2859321D02*
X24334164Y-2859321D01*
X24334164Y-2859321D02*
X24334164Y-2859067D01*
X24334164Y-2859067D02*
X24334672Y-2858813D01*
X24334672Y-2858813D02*
X24334672Y-2858305D01*
X24334672Y-2858305D02*
X24349404Y-2840525D01*
X24349404Y-2840525D02*
X24349404Y-2840271D01*
X24349404Y-2840271D02*
X24349658Y-2840017D01*
X24349658Y-2840017D02*
X24350166Y-2839763D01*
X24350166Y-2839763D02*
X24367946Y-2825031D01*
X24367946Y-2825031D02*
X24368200Y-2825031D01*
X24368200Y-2825031D02*
X24368454Y-2824777D01*
X24368454Y-2824777D02*
X24368708Y-2824523D01*
X24368708Y-2824523D02*
X24389282Y-2813347D01*
X24389282Y-2813347D02*
X24389282Y-2813347D01*
X24389282Y-2813347D02*
X24389282Y-2813347D01*
X24389282Y-2813347D02*
X24389282Y-2813347D01*
X24389282Y-2813347D02*
X24389790Y-2813093D01*
X24389790Y-2813093D02*
X24390044Y-2813093D01*
X24390044Y-2813093D02*
X24412142Y-2806235D01*
X24412142Y-2806235D02*
X24412142Y-2806235D01*
X24412142Y-2806235D02*
X24412396Y-2806235D01*
X24412396Y-2806235D02*
X24412904Y-2805981D01*
X24412904Y-2805981D02*
X24413158Y-2805981D01*
X24413158Y-2805981D02*
X24436272Y-2803441D01*
X24436272Y-2803441D02*
X24436272Y-2803441D01*
X24436272Y-2803441D02*
X24436526Y-2803441D01*
X24436526Y-2803441D02*
X24436780Y-2803441D01*
X24436780Y-2803441D02*
X24437288Y-2803441D01*
X24437288Y-2803441D02*
X24437288Y-2803441D01*
X24437288Y-2803441D02*
X28712611Y-2803441D01*
X28712611Y-2803441D02*
X28713119Y-2803441D01*
X28713119Y-2803441D02*
X28735471Y-2801155D01*
X28735471Y-2801155D02*
X28756553Y-2794551D01*
X28756553Y-2794551D02*
X28776111Y-2784137D01*
X28776111Y-2784137D02*
X28793383Y-2769913D01*
X28793383Y-2769913D02*
X28807353Y-2752641D01*
X28807353Y-2752641D02*
X28817767Y-2733083D01*
X28817767Y-2733083D02*
X28824117Y-2711747D01*
X28824117Y-2711747D02*
X28826403Y-2689649D01*
X28826403Y-2689649D02*
X28826403Y-2333541D01*
X28826403Y-2333541D02*
X28826403Y-2333033D01*
X28826403Y-2333033D02*
X28823863Y-2310681D01*
X28823863Y-2310681D02*
X28817259Y-2289345D01*
X28817259Y-2289345D02*
X28806845Y-2270041D01*
X28806845Y-2270041D02*
X28792621Y-2252769D01*
X28792621Y-2252769D02*
X28775603Y-2238799D01*
X28775603Y-2238799D02*
X28755791Y-2228385D01*
X28755791Y-2228385D02*
X28734709Y-2222035D01*
X28734709Y-2222035D02*
X28712357Y-2219749D01*
X28712357Y-2219749D02*
X1389350Y-2220765D01*
X1389350Y-2220765D02*
X1388842Y-2220765D01*
X1388842Y-2220765D02*
X1366490Y-2223051D01*
X1366490Y-2223051D02*
X1345408Y-2229655D01*
X1345408Y-2229655D02*
X1325851Y-2240069D01*
X1325851Y-2240069D02*
X1308579Y-2254293D01*
X1308579Y-2254293D02*
X1294609Y-2271565D01*
X1294609Y-2271565D02*
X1284195Y-2291123D01*
X1284195Y-2291123D02*
X1277845Y-2312205D01*
X1277845Y-2312205D02*
X1275559Y-2334557D01*
X1275559Y-2334557D02*
X1275559Y-2690665D01*
X1275559Y-2690665D02*
X1275559Y-2691173D01*
X1275559Y-2691173D02*
X1277845Y-2713525D01*
X1277845Y-2713525D02*
X1284449Y-2734861D01*
X1284449Y-2734861D02*
X1295117Y-2754165D01*
X1295117Y-2754165D02*
X1309341Y-2771437D01*
X1309341Y-2771437D02*
X1326359Y-2785407D01*
X1326359Y-2785407D02*
X1345916Y-2795821D01*
X1345916Y-2795821D02*
X1367252Y-2802171D01*
X1367252Y-2802171D02*
X1389604Y-2804457D01*
X1389604Y-2804457D02*
X5664674Y-2804457D01*
X5664674Y-2804457D02*
X5664928Y-2804457D01*
X5664928Y-2804457D02*
X5664928Y-2804457D01*
X5664928Y-2804457D02*
X5687788Y-2806743D01*
X5687788Y-2806743D02*
X5687788Y-2806743D01*
X5687788Y-2806743D02*
X5687788Y-2806743D01*
X5687788Y-2806743D02*
X5688042Y-2806743D01*
X5688042Y-2806743D02*
X5688296Y-2806743D01*
X5688296Y-2806743D02*
X5688804Y-2806997D01*
X5688804Y-2806997D02*
X5711156Y-2813601D01*
X5711156Y-2813601D02*
X5711156Y-2813601D01*
X5711156Y-2813601D02*
X5711410Y-2813855D01*
X5711410Y-2813855D02*
X5711918Y-2813855D01*
X5711918Y-2813855D02*
X5732492Y-2824777D01*
X5732492Y-2824777D02*
X5732492Y-2824777D01*
X5732492Y-2824777D02*
X5732492Y-2824777D01*
X5732492Y-2824777D02*
X5732492Y-2824777D01*
X5732492Y-2824777D02*
X5732746Y-2825031D01*
X5732746Y-2825031D02*
X5733254Y-2825285D01*
X5733254Y-2825285D02*
X5751288Y-2840017D01*
X5751288Y-2840017D02*
X5751288Y-2840017D01*
X5751288Y-2840017D02*
X5751542Y-2840271D01*
X5751542Y-2840271D02*
X5751796Y-2840779D01*
X5751796Y-2840779D02*
X5766528Y-2858559D01*
X5766528Y-2858559D02*
X5766782Y-2858559D01*
X5766782Y-2858559D02*
X5767036Y-2859067D01*
X5767036Y-2859067D02*
X5767290Y-2859321D01*
X5767290Y-2859321D02*
X5778212Y-2879895D01*
X5778212Y-2879895D02*
X5778212Y-2879895D01*
X5778212Y-2879895D02*
X5778212Y-2879895D01*
X5778212Y-2879895D02*
X5778212Y-2879895D01*
X5778212Y-2879895D02*
X5778466Y-2880149D01*
X5778466Y-2880149D02*
X5778720Y-2880657D01*
X5778720Y-2880657D02*
X5785324Y-2902754D01*
X5785324Y-2902754D02*
X5785578Y-2902754D01*
X5785578Y-2902754D02*
X5785578Y-2903262D01*
X5785578Y-2903262D02*
X5785578Y-2903770D01*
X5785578Y-2903770D02*
X5788118Y-2926884D01*
X5788118Y-2926884D02*
X5788118Y-2926884D01*
X5788118Y-2926884D02*
X5788118Y-2927138D01*
X5788118Y-2927138D02*
X5788118Y-2927392D01*
X5788118Y-2927392D02*
X5788118Y-2927900D01*
X5788118Y-2927900D02*
X5788118Y-2927900D01*
X5788118Y-2927900D02*
X5788626Y-3217968D01*
X6262590Y-9316000D02*
X6263098Y-9340632D01*
X6263098Y-9340632D02*
X6263098Y-9341140D01*
X6263098Y-9341140D02*
X6265384Y-9363492D01*
X6265384Y-9363492D02*
X6271988Y-9384828D01*
X6271988Y-9384828D02*
X6282656Y-9404132D01*
X6282656Y-9404132D02*
X6296626Y-9421404D01*
X6296626Y-9421404D02*
X6313897Y-9435374D01*
X6313897Y-9435374D02*
X6333455Y-9445788D01*
X6333455Y-9445788D02*
X6354791Y-9452138D01*
X6354791Y-9452138D02*
X6377143Y-9454424D01*
X6377143Y-9454424D02*
X6614633Y-9454424D01*
X6614633Y-9454424D02*
X6614887Y-9454424D01*
X6614887Y-9454424D02*
X6614887Y-9454424D01*
X6614887Y-9454424D02*
X6638001Y-9456710D01*
X6638001Y-9456710D02*
X6638001Y-9456710D01*
X6638001Y-9456710D02*
X6638001Y-9456710D01*
X6638001Y-9456710D02*
X6638001Y-9456710D01*
X6638001Y-9456710D02*
X6638509Y-9456710D01*
X6638509Y-9456710D02*
X6638763Y-9456964D01*
X6638763Y-9456964D02*
X6661115Y-9463568D01*
X6661115Y-9463568D02*
X6661115Y-9463568D01*
X6661115Y-9463568D02*
X6661623Y-9463822D01*
X6661623Y-9463822D02*
X6661877Y-9463822D01*
X6661877Y-9463822D02*
X6682451Y-9474744D01*
X6682451Y-9474744D02*
X6682451Y-9474744D01*
X23227233Y-9318788D02*
X23839626Y-9318788D01*
X10658563Y-3217968D02*
X10063696Y-3217968D01*
X28727343Y-9318788D02*
X28114696Y-9318788D01*
X17467281Y-3673898D02*
X17457121Y-3683804D01*
X17474393Y-3660944D02*
X17467281Y-3673898D01*
X16927785Y-12117357D02*
X16914069Y-12123707D01*
X16940485Y-12109737D02*
X16927785Y-12117357D01*
X22102268Y-10793765D02*
X18435274Y-11270776D01*
X22111412Y-10793003D02*
X22102268Y-10793765D01*
X22126144Y-10787669D02*
X22111412Y-10793003D01*
X22137574Y-10779033D02*
X22126144Y-10787669D01*
X23191927Y-9333266D02*
X22137574Y-10779033D01*
X17444167Y-3690916D02*
X17427403Y-3693710D01*
X17457121Y-3683804D02*
X17444167Y-3690916D01*
X2463515Y-9318534D02*
X5778720Y-9318534D01*
X16844473Y-12132343D02*
X16827709Y-12129041D01*
X16863269Y-12133613D02*
X16844473Y-12132343D01*
X16882065Y-12132089D02*
X16863269Y-12133613D01*
X16898829Y-12128787D02*
X16882065Y-12132089D01*
X16914069Y-12123707D02*
X16898829Y-12128787D01*
X17477187Y-3643672D02*
X17474393Y-3660944D01*
X17427403Y-3693710D02*
X17427403Y-3693710D01*
X24927253Y-3218730D02*
X24314606Y-3218730D01*
X21227239Y-3218730D02*
X20523660Y-3218730D01*
X6958549Y-3217968D02*
X6263606Y-3217968D01*
X6858473Y-9316000D02*
X6262590Y-9316000D01*
D11*
X7903750Y-4454500D02*
X7933750Y-4484500D01*
X7933750Y-4454500D02*
X7903750Y-4484500D01*
X7883750Y-4474500D02*
X7953750Y-4474500D01*
X7883750Y-4464500D02*
X7953750Y-4464500D01*
X7953750Y-4474500D02*
G75*
G03X7953750Y-4464500I0J5000D01*
G01*
X7883750Y-4464500D02*
G75*
G03X7883750Y-4474500I0J-5000D01*
G01*
X8403750Y-3309500D02*
X8433750Y-3339500D01*
X8433750Y-3309500D02*
X8403750Y-3339500D01*
X8383795Y-3329805D02*
X8453792Y-3329194D01*
X8383708Y-3319806D02*
X8453705Y-3319195D01*
X8453792Y-3329194D02*
G75*
G03X8453705Y-3319195I-44J5000D01*
G01*
X8383708Y-3319806D02*
G75*
G03X8383795Y-3329805I44J-5000D01*
G01*
X6003750Y-4692000D02*
X6033750Y-4722000D01*
X6033750Y-4692000D02*
X6003750Y-4722000D01*
X5983750Y-4712000D02*
X6053750Y-4712000D01*
X5983750Y-4702000D02*
X6053750Y-4702000D01*
X6053750Y-4712000D02*
G75*
G03X6053750Y-4702000I0J5000D01*
G01*
X5983750Y-4702000D02*
G75*
G03X5983750Y-4712000I0J-5000D01*
G01*
X6503750Y-3547000D02*
X6533750Y-3577000D01*
X6533750Y-3547000D02*
X6503750Y-3577000D01*
X6483795Y-3567305D02*
X6553792Y-3566694D01*
X6483708Y-3557306D02*
X6553705Y-3556695D01*
X6553792Y-3566694D02*
G75*
G03X6553705Y-3556695I-44J5000D01*
G01*
X6483708Y-3557306D02*
G75*
G03X6483795Y-3567305I44J-5000D01*
G01*
X6003750Y-6592000D02*
X6033750Y-6622000D01*
X6033750Y-6592000D02*
X6003750Y-6622000D01*
X5983750Y-6612000D02*
X6053750Y-6612000D01*
X5983750Y-6602000D02*
X6053750Y-6602000D01*
X6053750Y-6612000D02*
G75*
G03X6053750Y-6602000I0J5000D01*
G01*
X5983750Y-6602000D02*
G75*
G03X5983750Y-6612000I0J-5000D01*
G01*
X6503750Y-5447000D02*
X6533750Y-5477000D01*
X6533750Y-5447000D02*
X6503750Y-5477000D01*
X6483795Y-5467305D02*
X6553792Y-5466694D01*
X6483708Y-5457306D02*
X6553705Y-5456695D01*
X6553792Y-5466694D02*
G75*
G03X6553705Y-5456695I-44J5000D01*
G01*
X6483708Y-5457306D02*
G75*
G03X6483795Y-5467305I44J-5000D01*
G01*
X8853750Y-10454500D02*
X8883750Y-10484500D01*
X8883750Y-10454500D02*
X8853750Y-10484500D01*
X8833750Y-10474500D02*
X8903750Y-10474500D01*
X8833750Y-10464500D02*
X8903750Y-10464500D01*
X8903750Y-10474500D02*
G75*
G03X8903750Y-10464500I0J5000D01*
G01*
X8833750Y-10464500D02*
G75*
G03X8833750Y-10474500I0J-5000D01*
G01*
X9353750Y-9309500D02*
X9383750Y-9339500D01*
X9383750Y-9309500D02*
X9353750Y-9339500D01*
X9333795Y-9329805D02*
X9403792Y-9329194D01*
X9333708Y-9319806D02*
X9403705Y-9319195D01*
X9403792Y-9329194D02*
G75*
G03X9403705Y-9319195I-44J5000D01*
G01*
X9333708Y-9319806D02*
G75*
G03X9333795Y-9329805I44J-5000D01*
G01*
X7903750Y-8254500D02*
X7933750Y-8284500D01*
X7933750Y-8254500D02*
X7903750Y-8284500D01*
X7883750Y-8274500D02*
X7953750Y-8274500D01*
X7883750Y-8264500D02*
X7953750Y-8264500D01*
X7953750Y-8274500D02*
G75*
G03X7953750Y-8264500I0J5000D01*
G01*
X7883750Y-8264500D02*
G75*
G03X7883750Y-8274500I0J-5000D01*
G01*
X8403750Y-7109500D02*
X8433750Y-7139500D01*
X8433750Y-7109500D02*
X8403750Y-7139500D01*
X8383795Y-7129805D02*
X8453792Y-7129194D01*
X8383708Y-7119806D02*
X8453705Y-7119195D01*
X8453792Y-7129194D02*
G75*
G03X8453705Y-7119195I-44J5000D01*
G01*
X8383708Y-7119806D02*
G75*
G03X8383795Y-7129805I44J-5000D01*
G01*
X25953485Y-8967043D02*
X25983485Y-8997043D01*
X25983485Y-8967043D02*
X25953485Y-8997043D01*
X25933485Y-8987043D02*
X26003485Y-8987043D01*
X25933485Y-8977043D02*
X26003485Y-8977043D01*
X26003485Y-8987043D02*
G75*
G03X26003485Y-8977043I0J5000D01*
G01*
X25933485Y-8977043D02*
G75*
G03X25933485Y-8987043I0J-5000D01*
G01*
X26453485Y-7822043D02*
X26483485Y-7852043D01*
X26483485Y-7822043D02*
X26453485Y-7852043D01*
X26433530Y-7842348D02*
X26503527Y-7841738D01*
X26433442Y-7832349D02*
X26503440Y-7831738D01*
X26503527Y-7841738D02*
G75*
G03X26503440Y-7831738I-44J5000D01*
G01*
X26433442Y-7832349D02*
G75*
G03X26433530Y-7842348I44J-5000D01*
G01*
X18353485Y-4929543D02*
X18383485Y-4959543D01*
X18383485Y-4929543D02*
X18353485Y-4959543D01*
X18333485Y-4949543D02*
X18403485Y-4949543D01*
X18333485Y-4939543D02*
X18403485Y-4939543D01*
X18403485Y-4949543D02*
G75*
G03X18403485Y-4939543I0J5000D01*
G01*
X18333485Y-4939543D02*
G75*
G03X18333485Y-4949543I0J-5000D01*
G01*
X18853485Y-3784543D02*
X18883485Y-3814543D01*
X18883485Y-3784543D02*
X18853485Y-3814543D01*
X18833530Y-3804848D02*
X18903527Y-3804238D01*
X18833442Y-3794849D02*
X18903440Y-3794238D01*
X18903527Y-3804238D02*
G75*
G03X18903440Y-3794238I-44J5000D01*
G01*
X18833442Y-3794849D02*
G75*
G03X18833530Y-3804848I44J-5000D01*
G01*
X4103750Y-5167000D02*
X4133750Y-5197000D01*
X4133750Y-5167000D02*
X4103750Y-5197000D01*
X4083750Y-5187000D02*
X4153750Y-5187000D01*
X4083750Y-5177000D02*
X4153750Y-5177000D01*
X4153750Y-5187000D02*
G75*
G03X4153750Y-5177000I0J5000D01*
G01*
X4083750Y-5177000D02*
G75*
G03X4083750Y-5187000I0J-5000D01*
G01*
X4603750Y-4022000D02*
X4633750Y-4052000D01*
X4633750Y-4022000D02*
X4603750Y-4052000D01*
X4583795Y-4042305D02*
X4653792Y-4041694D01*
X4583708Y-4032306D02*
X4653705Y-4031695D01*
X4653792Y-4041694D02*
G75*
G03X4653705Y-4031695I-44J5000D01*
G01*
X4583708Y-4032306D02*
G75*
G03X4583795Y-4042305I44J-5000D01*
G01*
X16367530Y-10809543D02*
X16397530Y-10839543D01*
X16397530Y-10809543D02*
X16367530Y-10839543D01*
X16360700Y-10796732D02*
X16395700Y-10857354D01*
X16369360Y-10791732D02*
X16404360Y-10852354D01*
X16395700Y-10857354D02*
G75*
G03X16404360Y-10852354I4330J2500D01*
G01*
X16369360Y-10791732D02*
G75*
G03X16360700Y-10796732I-4330J-2500D01*
G01*
X17609129Y-10670056D02*
X17639129Y-10700056D01*
X17639129Y-10670056D02*
X17609129Y-10700056D01*
X17602057Y-10657437D02*
X17637585Y-10717751D01*
X17610673Y-10652361D02*
X17646201Y-10712675D01*
X17637585Y-10717751D02*
G75*
G03X17646201Y-10712675I4308J2538D01*
G01*
X17610673Y-10652361D02*
G75*
G03X17602057Y-10657437I-4308J-2538D01*
G01*
X22153485Y-4454543D02*
X22183485Y-4484543D01*
X22183485Y-4454543D02*
X22153485Y-4484543D01*
X22133485Y-4474543D02*
X22203485Y-4474543D01*
X22133485Y-4464543D02*
X22203485Y-4464543D01*
X22203485Y-4474543D02*
G75*
G03X22203485Y-4464543I0J5000D01*
G01*
X22133485Y-4464543D02*
G75*
G03X22133485Y-4474543I0J-5000D01*
G01*
X22653485Y-3309543D02*
X22683485Y-3339543D01*
X22683485Y-3309543D02*
X22653485Y-3339543D01*
X22633530Y-3329848D02*
X22703527Y-3329238D01*
X22633442Y-3319849D02*
X22703440Y-3319238D01*
X22703527Y-3329238D02*
G75*
G03X22703440Y-3319238I-44J5000D01*
G01*
X22633442Y-3319849D02*
G75*
G03X22633530Y-3329848I44J-5000D01*
G01*
X7903750Y-6354500D02*
X7933750Y-6384500D01*
X7933750Y-6354500D02*
X7903750Y-6384500D01*
X7883750Y-6374500D02*
X7953750Y-6374500D01*
X7883750Y-6364500D02*
X7953750Y-6364500D01*
X7953750Y-6374500D02*
G75*
G03X7953750Y-6364500I0J5000D01*
G01*
X7883750Y-6364500D02*
G75*
G03X7883750Y-6374500I0J-5000D01*
G01*
X8403750Y-5209500D02*
X8433750Y-5239500D01*
X8433750Y-5209500D02*
X8403750Y-5239500D01*
X8383795Y-5229805D02*
X8453792Y-5229194D01*
X8383708Y-5219806D02*
X8453705Y-5219195D01*
X8453792Y-5229194D02*
G75*
G03X8453705Y-5219195I-44J5000D01*
G01*
X8383708Y-5219806D02*
G75*
G03X8383795Y-5229805I44J-5000D01*
G01*
X2203750Y-5167000D02*
X2233750Y-5197000D01*
X2233750Y-5167000D02*
X2203750Y-5197000D01*
X2183750Y-5187000D02*
X2253750Y-5187000D01*
X2183750Y-5177000D02*
X2253750Y-5177000D01*
X2253750Y-5187000D02*
G75*
G03X2253750Y-5177000I0J5000D01*
G01*
X2183750Y-5177000D02*
G75*
G03X2183750Y-5187000I0J-5000D01*
G01*
X2703750Y-4022000D02*
X2733750Y-4052000D01*
X2733750Y-4022000D02*
X2703750Y-4052000D01*
X2683795Y-4042305D02*
X2753792Y-4041694D01*
X2683708Y-4032306D02*
X2753705Y-4031695D01*
X2753792Y-4041694D02*
G75*
G03X2753705Y-4031695I-44J5000D01*
G01*
X2683708Y-4032306D02*
G75*
G03X2683795Y-4042305I44J-5000D01*
G01*
X25953485Y-7067043D02*
X25983485Y-7097043D01*
X25983485Y-7067043D02*
X25953485Y-7097043D01*
X25933485Y-7087043D02*
X26003485Y-7087043D01*
X25933485Y-7077043D02*
X26003485Y-7077043D01*
X26003485Y-7087043D02*
G75*
G03X26003485Y-7077043I0J5000D01*
G01*
X25933485Y-7077043D02*
G75*
G03X25933485Y-7087043I0J-5000D01*
G01*
X26453485Y-5922043D02*
X26483485Y-5952043D01*
X26483485Y-5922043D02*
X26453485Y-5952043D01*
X26433530Y-5942348D02*
X26503527Y-5941738D01*
X26433442Y-5932349D02*
X26503440Y-5931738D01*
X26503527Y-5941738D02*
G75*
G03X26503440Y-5931738I-44J5000D01*
G01*
X26433442Y-5932349D02*
G75*
G03X26433530Y-5942348I44J-5000D01*
G01*
X11703750Y-8729500D02*
X11733750Y-8759500D01*
X11733750Y-8729500D02*
X11703750Y-8759500D01*
X11683750Y-8749500D02*
X11753750Y-8749500D01*
X11683750Y-8739500D02*
X11753750Y-8739500D01*
X11753750Y-8749500D02*
G75*
G03X11753750Y-8739500I0J5000D01*
G01*
X11683750Y-8739500D02*
G75*
G03X11683750Y-8749500I0J-5000D01*
G01*
X12203750Y-7584500D02*
X12233750Y-7614500D01*
X12233750Y-7584500D02*
X12203750Y-7614500D01*
X12183795Y-7604805D02*
X12253792Y-7604194D01*
X12183708Y-7594806D02*
X12253705Y-7594195D01*
X12253792Y-7604194D02*
G75*
G03X12253705Y-7594195I-44J5000D01*
G01*
X12183708Y-7594806D02*
G75*
G03X12183795Y-7604805I44J-5000D01*
G01*
X21203485Y-10454543D02*
X21233485Y-10484543D01*
X21233485Y-10454543D02*
X21203485Y-10484543D01*
X21183485Y-10474543D02*
X21253485Y-10474543D01*
X21183485Y-10464543D02*
X21253485Y-10464543D01*
X21253485Y-10474543D02*
G75*
G03X21253485Y-10464543I0J5000D01*
G01*
X21183485Y-10464543D02*
G75*
G03X21183485Y-10474543I0J-5000D01*
G01*
X21703485Y-9309543D02*
X21733485Y-9339543D01*
X21733485Y-9309543D02*
X21703485Y-9339543D01*
X21683530Y-9329848D02*
X21753527Y-9329238D01*
X21683442Y-9319849D02*
X21753440Y-9319238D01*
X21753527Y-9329238D02*
G75*
G03X21753440Y-9319238I-44J5000D01*
G01*
X21683442Y-9319849D02*
G75*
G03X21683530Y-9329848I44J-5000D01*
G01*
X18353485Y-6829543D02*
X18383485Y-6859543D01*
X18383485Y-6829543D02*
X18353485Y-6859543D01*
X18333485Y-6849543D02*
X18403485Y-6849543D01*
X18333485Y-6839543D02*
X18403485Y-6839543D01*
X18403485Y-6849543D02*
G75*
G03X18403485Y-6839543I0J5000D01*
G01*
X18333485Y-6839543D02*
G75*
G03X18333485Y-6849543I0J-5000D01*
G01*
X18853485Y-5684543D02*
X18883485Y-5714543D01*
X18883485Y-5684543D02*
X18853485Y-5714543D01*
X18833530Y-5704848D02*
X18903527Y-5704238D01*
X18833442Y-5694849D02*
X18903440Y-5694238D01*
X18903527Y-5704238D02*
G75*
G03X18903440Y-5694238I-44J5000D01*
G01*
X18833442Y-5694849D02*
G75*
G03X18833530Y-5704848I44J-5000D01*
G01*
X20253485Y-8492043D02*
X20283485Y-8522043D01*
X20283485Y-8492043D02*
X20253485Y-8522043D01*
X20233485Y-8512043D02*
X20303485Y-8512043D01*
X20233485Y-8502043D02*
X20303485Y-8502043D01*
X20303485Y-8512043D02*
G75*
G03X20303485Y-8502043I0J5000D01*
G01*
X20233485Y-8502043D02*
G75*
G03X20233485Y-8512043I0J-5000D01*
G01*
X20753485Y-7347043D02*
X20783485Y-7377043D01*
X20783485Y-7347043D02*
X20753485Y-7377043D01*
X20733530Y-7367348D02*
X20803527Y-7366738D01*
X20733442Y-7357349D02*
X20803440Y-7356738D01*
X20803527Y-7366738D02*
G75*
G03X20803440Y-7356738I-44J5000D01*
G01*
X20733442Y-7357349D02*
G75*
G03X20733530Y-7367348I44J-5000D01*
G01*
X2203750Y-8967000D02*
X2233750Y-8997000D01*
X2233750Y-8967000D02*
X2203750Y-8997000D01*
X2183750Y-8987000D02*
X2253750Y-8987000D01*
X2183750Y-8977000D02*
X2253750Y-8977000D01*
X2253750Y-8987000D02*
G75*
G03X2253750Y-8977000I0J5000D01*
G01*
X2183750Y-8977000D02*
G75*
G03X2183750Y-8987000I0J-5000D01*
G01*
X2703750Y-7822000D02*
X2733750Y-7852000D01*
X2733750Y-7822000D02*
X2703750Y-7852000D01*
X2683795Y-7842305D02*
X2753792Y-7841694D01*
X2683708Y-7832306D02*
X2753705Y-7831695D01*
X2753792Y-7841694D02*
G75*
G03X2753705Y-7831695I-44J5000D01*
G01*
X2683708Y-7832306D02*
G75*
G03X2683795Y-7842305I44J-5000D01*
G01*
X9803750Y-8492000D02*
X9833750Y-8522000D01*
X9833750Y-8492000D02*
X9803750Y-8522000D01*
X9783750Y-8512000D02*
X9853750Y-8512000D01*
X9783750Y-8502000D02*
X9853750Y-8502000D01*
X9853750Y-8512000D02*
G75*
G03X9853750Y-8502000I0J5000D01*
G01*
X9783750Y-8502000D02*
G75*
G03X9783750Y-8512000I0J-5000D01*
G01*
X10303750Y-7347000D02*
X10333750Y-7377000D01*
X10333750Y-7347000D02*
X10303750Y-7377000D01*
X10283795Y-7367305D02*
X10353792Y-7366694D01*
X10283708Y-7357306D02*
X10353705Y-7356695D01*
X10353792Y-7366694D02*
G75*
G03X10353705Y-7356695I-44J5000D01*
G01*
X10283708Y-7357306D02*
G75*
G03X10283795Y-7367305I44J-5000D01*
G01*
X9803750Y-4692000D02*
X9833750Y-4722000D01*
X9833750Y-4692000D02*
X9803750Y-4722000D01*
X9783750Y-4712000D02*
X9853750Y-4712000D01*
X9783750Y-4702000D02*
X9853750Y-4702000D01*
X9853750Y-4712000D02*
G75*
G03X9853750Y-4702000I0J5000D01*
G01*
X9783750Y-4702000D02*
G75*
G03X9783750Y-4712000I0J-5000D01*
G01*
X10303750Y-3547000D02*
X10333750Y-3577000D01*
X10333750Y-3547000D02*
X10303750Y-3577000D01*
X10283795Y-3567305D02*
X10353792Y-3566694D01*
X10283708Y-3557306D02*
X10353705Y-3556695D01*
X10353792Y-3566694D02*
G75*
G03X10353705Y-3556695I-44J5000D01*
G01*
X10283708Y-3557306D02*
G75*
G03X10283795Y-3567305I44J-5000D01*
G01*
X2203750Y-7067000D02*
X2233750Y-7097000D01*
X2233750Y-7067000D02*
X2203750Y-7097000D01*
X2183750Y-7087000D02*
X2253750Y-7087000D01*
X2183750Y-7077000D02*
X2253750Y-7077000D01*
X2253750Y-7087000D02*
G75*
G03X2253750Y-7077000I0J5000D01*
G01*
X2183750Y-7077000D02*
G75*
G03X2183750Y-7087000I0J-5000D01*
G01*
X2703750Y-5922000D02*
X2733750Y-5952000D01*
X2733750Y-5922000D02*
X2703750Y-5952000D01*
X2683795Y-5942305D02*
X2753792Y-5941694D01*
X2683708Y-5932306D02*
X2753705Y-5931695D01*
X2753792Y-5941694D02*
G75*
G03X2753705Y-5931695I-44J5000D01*
G01*
X2683708Y-5932306D02*
G75*
G03X2683795Y-5942305I44J-5000D01*
G01*
X10801047Y-10709396D02*
X10831047Y-10739396D01*
X10831047Y-10709396D02*
X10801047Y-10739396D01*
X10780945Y-10720167D02*
X10848560Y-10738285D01*
X10783534Y-10710508D02*
X10851148Y-10728625D01*
X10848560Y-10738285D02*
G75*
G03X10851148Y-10728625I1294J4830D01*
G01*
X10783534Y-10710508D02*
G75*
G03X10780945Y-10720167I-1294J-4830D01*
G01*
X11580357Y-9732821D02*
X11610357Y-9762821D01*
X11610357Y-9732821D02*
X11580357Y-9762821D01*
X11560220Y-9743898D02*
X11627991Y-9761425D01*
X11562724Y-9734217D02*
X11630495Y-9751743D01*
X11627991Y-9761425D02*
G75*
G03X11630495Y-9751743I1252J4841D01*
G01*
X11562724Y-9734217D02*
G75*
G03X11560220Y-9743898I-1252J-4841D01*
G01*
X27853485Y-8967043D02*
X27883485Y-8997043D01*
X27883485Y-8967043D02*
X27853485Y-8997043D01*
X27833485Y-8987043D02*
X27903485Y-8987043D01*
X27833485Y-8977043D02*
X27903485Y-8977043D01*
X27903485Y-8987043D02*
G75*
G03X27903485Y-8977043I0J5000D01*
G01*
X27833485Y-8977043D02*
G75*
G03X27833485Y-8987043I0J-5000D01*
G01*
X28353485Y-7822043D02*
X28383485Y-7852043D01*
X28383485Y-7822043D02*
X28353485Y-7852043D01*
X28333530Y-7842348D02*
X28403527Y-7841738D01*
X28333442Y-7832349D02*
X28403440Y-7831738D01*
X28403527Y-7841738D02*
G75*
G03X28403440Y-7831738I-44J5000D01*
G01*
X28333442Y-7832349D02*
G75*
G03X28333530Y-7842348I44J-5000D01*
G01*
X4103750Y-8967000D02*
X4133750Y-8997000D01*
X4133750Y-8967000D02*
X4103750Y-8997000D01*
X4083750Y-8987000D02*
X4153750Y-8987000D01*
X4083750Y-8977000D02*
X4153750Y-8977000D01*
X4153750Y-8987000D02*
G75*
G03X4153750Y-8977000I0J5000D01*
G01*
X4083750Y-8977000D02*
G75*
G03X4083750Y-8987000I0J-5000D01*
G01*
X4603750Y-7822000D02*
X4633750Y-7852000D01*
X4633750Y-7822000D02*
X4603750Y-7852000D01*
X4583795Y-7842305D02*
X4653792Y-7841694D01*
X4583708Y-7832306D02*
X4653705Y-7831695D01*
X4653792Y-7841694D02*
G75*
G03X4653705Y-7831695I-44J5000D01*
G01*
X4583708Y-7832306D02*
G75*
G03X4583795Y-7842305I44J-5000D01*
G01*
X12948106Y-9803987D02*
X12978106Y-9833987D01*
X12978106Y-9803987D02*
X12948106Y-9833987D01*
X12950223Y-9851912D02*
X12984692Y-9790987D01*
X12941519Y-9846988D02*
X12975989Y-9786063D01*
X12984692Y-9790987D02*
G75*
G03X12975989Y-9786063I-4352J2462D01*
G01*
X12941519Y-9846988D02*
G75*
G03X12950223Y-9851912I4352J-2462D01*
G01*
X13689705Y-10809500D02*
X13719705Y-10839500D01*
X13719705Y-10809500D02*
X13689705Y-10839500D01*
X13691535Y-10857311D02*
X13726535Y-10796689D01*
X13682875Y-10852311D02*
X13717875Y-10791689D01*
X13726535Y-10796689D02*
G75*
G03X13717875Y-10791689I-4330J2500D01*
G01*
X13682875Y-10852311D02*
G75*
G03X13691535Y-10857311I4330J-2500D01*
G01*
X22153485Y-8254543D02*
X22183485Y-8284543D01*
X22183485Y-8254543D02*
X22153485Y-8284543D01*
X22133485Y-8274543D02*
X22203485Y-8274543D01*
X22133485Y-8264543D02*
X22203485Y-8264543D01*
X22203485Y-8274543D02*
G75*
G03X22203485Y-8264543I0J5000D01*
G01*
X22133485Y-8264543D02*
G75*
G03X22133485Y-8274543I0J-5000D01*
G01*
X22653485Y-7109543D02*
X22683485Y-7139543D01*
X22683485Y-7109543D02*
X22653485Y-7139543D01*
X22633530Y-7129848D02*
X22703527Y-7129238D01*
X22633442Y-7119849D02*
X22703440Y-7119238D01*
X22703527Y-7129238D02*
G75*
G03X22703440Y-7119238I-44J5000D01*
G01*
X22633442Y-7119849D02*
G75*
G03X22633530Y-7129848I44J-5000D01*
G01*
X9803750Y-6592000D02*
X9833750Y-6622000D01*
X9833750Y-6592000D02*
X9803750Y-6622000D01*
X9783750Y-6612000D02*
X9853750Y-6612000D01*
X9783750Y-6602000D02*
X9853750Y-6602000D01*
X9853750Y-6612000D02*
G75*
G03X9853750Y-6602000I0J5000D01*
G01*
X9783750Y-6602000D02*
G75*
G03X9783750Y-6612000I0J-5000D01*
G01*
X10303750Y-5447000D02*
X10333750Y-5477000D01*
X10333750Y-5447000D02*
X10303750Y-5477000D01*
X10283795Y-5467305D02*
X10353792Y-5466694D01*
X10283708Y-5457306D02*
X10353705Y-5456695D01*
X10353792Y-5466694D02*
G75*
G03X10353705Y-5456695I-44J5000D01*
G01*
X10283708Y-5457306D02*
G75*
G03X10283795Y-5467305I44J-5000D01*
G01*
X18353485Y-8729543D02*
X18383485Y-8759543D01*
X18383485Y-8729543D02*
X18353485Y-8759543D01*
X18333485Y-8749543D02*
X18403485Y-8749543D01*
X18333485Y-8739543D02*
X18403485Y-8739543D01*
X18403485Y-8749543D02*
G75*
G03X18403485Y-8739543I0J5000D01*
G01*
X18333485Y-8739543D02*
G75*
G03X18333485Y-8749543I0J-5000D01*
G01*
X18853485Y-7584543D02*
X18883485Y-7614543D01*
X18883485Y-7584543D02*
X18853485Y-7614543D01*
X18833530Y-7604848D02*
X18903527Y-7604238D01*
X18833442Y-7594849D02*
X18903440Y-7594238D01*
X18903527Y-7604238D02*
G75*
G03X18903440Y-7594238I-44J5000D01*
G01*
X18833442Y-7594849D02*
G75*
G03X18833530Y-7604848I44J-5000D01*
G01*
X24053485Y-4692043D02*
X24083485Y-4722043D01*
X24083485Y-4692043D02*
X24053485Y-4722043D01*
X24033485Y-4712043D02*
X24103485Y-4712043D01*
X24033485Y-4702043D02*
X24103485Y-4702043D01*
X24103485Y-4712043D02*
G75*
G03X24103485Y-4702043I0J5000D01*
G01*
X24033485Y-4702043D02*
G75*
G03X24033485Y-4712043I0J-5000D01*
G01*
X24553485Y-3547043D02*
X24583485Y-3577043D01*
X24583485Y-3547043D02*
X24553485Y-3577043D01*
X24533530Y-3567348D02*
X24603527Y-3566738D01*
X24533442Y-3557349D02*
X24603440Y-3556738D01*
X24603527Y-3566738D02*
G75*
G03X24603440Y-3556738I-44J5000D01*
G01*
X24533442Y-3557349D02*
G75*
G03X24533530Y-3567348I44J-5000D01*
G01*
X4103750Y-7067000D02*
X4133750Y-7097000D01*
X4133750Y-7067000D02*
X4103750Y-7097000D01*
X4083750Y-7087000D02*
X4153750Y-7087000D01*
X4083750Y-7077000D02*
X4153750Y-7077000D01*
X4153750Y-7087000D02*
G75*
G03X4153750Y-7077000I0J5000D01*
G01*
X4083750Y-7077000D02*
G75*
G03X4083750Y-7087000I0J-5000D01*
G01*
X4603750Y-5922000D02*
X4633750Y-5952000D01*
X4633750Y-5922000D02*
X4603750Y-5952000D01*
X4583795Y-5942305D02*
X4653792Y-5941694D01*
X4583708Y-5932306D02*
X4653705Y-5931695D01*
X4653792Y-5941694D02*
G75*
G03X4653705Y-5931695I-44J5000D01*
G01*
X4583708Y-5932306D02*
G75*
G03X4583795Y-5942305I44J-5000D01*
G01*
X22153485Y-6354543D02*
X22183485Y-6384543D01*
X22183485Y-6354543D02*
X22153485Y-6384543D01*
X22133485Y-6374543D02*
X22203485Y-6374543D01*
X22133485Y-6364543D02*
X22203485Y-6364543D01*
X22203485Y-6374543D02*
G75*
G03X22203485Y-6364543I0J5000D01*
G01*
X22133485Y-6364543D02*
G75*
G03X22133485Y-6374543I0J-5000D01*
G01*
X22653485Y-5209543D02*
X22683485Y-5239543D01*
X22683485Y-5209543D02*
X22653485Y-5239543D01*
X22633530Y-5229848D02*
X22703527Y-5229238D01*
X22633442Y-5219849D02*
X22703440Y-5219238D01*
X22703527Y-5229238D02*
G75*
G03X22703440Y-5219238I-44J5000D01*
G01*
X22633442Y-5219849D02*
G75*
G03X22633530Y-5229848I44J-5000D01*
G01*
X19256188Y-10709439D02*
X19286188Y-10739439D01*
X19286188Y-10709439D02*
X19256188Y-10739439D01*
X19238675Y-10738328D02*
X19306289Y-10720210D01*
X19236086Y-10728668D02*
X19303701Y-10710551D01*
X19306289Y-10720210D02*
G75*
G03X19303701Y-10710551I-1294J4830D01*
G01*
X19236086Y-10728669D02*
G75*
G03X19238675Y-10738328I1294J-4830D01*
G01*
X19442803Y-9474045D02*
X19472803Y-9504045D01*
X19472803Y-9474045D02*
X19442803Y-9504045D01*
X19425412Y-9503216D02*
X19492866Y-9484510D01*
X19422740Y-9493580D02*
X19490194Y-9474873D01*
X19492866Y-9484510D02*
G75*
G03X19490194Y-9474873I-1336J4818D01*
G01*
X19422740Y-9493580D02*
G75*
G03X19425412Y-9503216I1336J-4818D01*
G01*
X27853485Y-7067043D02*
X27883485Y-7097043D01*
X27883485Y-7067043D02*
X27853485Y-7097043D01*
X27833485Y-7087043D02*
X27903485Y-7087043D01*
X27833485Y-7077043D02*
X27903485Y-7077043D01*
X27903485Y-7087043D02*
G75*
G03X27903485Y-7077043I0J5000D01*
G01*
X27833485Y-7077043D02*
G75*
G03X27833485Y-7087043I0J-5000D01*
G01*
X28353485Y-5922043D02*
X28383485Y-5952043D01*
X28383485Y-5922043D02*
X28353485Y-5952043D01*
X28333530Y-5942348D02*
X28403527Y-5941738D01*
X28333442Y-5932349D02*
X28403440Y-5931738D01*
X28403527Y-5941738D02*
G75*
G03X28403440Y-5931738I-44J5000D01*
G01*
X28333442Y-5932349D02*
G75*
G03X28333530Y-5942348I44J-5000D01*
G01*
X20253485Y-6592043D02*
X20283485Y-6622043D01*
X20283485Y-6592043D02*
X20253485Y-6622043D01*
X20233485Y-6612043D02*
X20303485Y-6612043D01*
X20233485Y-6602043D02*
X20303485Y-6602043D01*
X20303485Y-6612043D02*
G75*
G03X20303485Y-6602043I0J5000D01*
G01*
X20233485Y-6602043D02*
G75*
G03X20233485Y-6612043I0J-5000D01*
G01*
X20753485Y-5447043D02*
X20783485Y-5477043D01*
X20783485Y-5447043D02*
X20753485Y-5477043D01*
X20733530Y-5467348D02*
X20803527Y-5466738D01*
X20733442Y-5457349D02*
X20803440Y-5456738D01*
X20803527Y-5466738D02*
G75*
G03X20803440Y-5456738I-44J5000D01*
G01*
X20733442Y-5457349D02*
G75*
G03X20733530Y-5467348I44J-5000D01*
G01*
X27853485Y-5167043D02*
X27883485Y-5197043D01*
X27883485Y-5167043D02*
X27853485Y-5197043D01*
X27833485Y-5187043D02*
X27903485Y-5187043D01*
X27833485Y-5177043D02*
X27903485Y-5177043D01*
X27903485Y-5187043D02*
G75*
G03X27903485Y-5177043I0J5000D01*
G01*
X27833485Y-5177043D02*
G75*
G03X27833485Y-5187043I0J-5000D01*
G01*
X28353485Y-4022043D02*
X28383485Y-4052043D01*
X28383485Y-4022043D02*
X28353485Y-4052043D01*
X28333530Y-4042348D02*
X28403527Y-4041738D01*
X28333442Y-4032349D02*
X28403440Y-4031738D01*
X28403527Y-4041738D02*
G75*
G03X28403440Y-4031738I-44J5000D01*
G01*
X28333442Y-4032349D02*
G75*
G03X28333530Y-4042348I44J-5000D01*
G01*
X11703750Y-4929500D02*
X11733750Y-4959500D01*
X11733750Y-4929500D02*
X11703750Y-4959500D01*
X11683750Y-4949500D02*
X11753750Y-4949500D01*
X11683750Y-4939500D02*
X11753750Y-4939500D01*
X11753750Y-4949500D02*
G75*
G03X11753750Y-4939500I0J5000D01*
G01*
X11683750Y-4939500D02*
G75*
G03X11683750Y-4949500I0J-5000D01*
G01*
X12203750Y-3784500D02*
X12233750Y-3814500D01*
X12233750Y-3784500D02*
X12203750Y-3814500D01*
X12183795Y-3804805D02*
X12253792Y-3804194D01*
X12183708Y-3794806D02*
X12253705Y-3794195D01*
X12253792Y-3804194D02*
G75*
G03X12253705Y-3794195I-44J5000D01*
G01*
X12183708Y-3794806D02*
G75*
G03X12183795Y-3804805I44J-5000D01*
G01*
X6003750Y-8492000D02*
X6033750Y-8522000D01*
X6033750Y-8492000D02*
X6003750Y-8522000D01*
X5983750Y-8512000D02*
X6053750Y-8512000D01*
X5983750Y-8502000D02*
X6053750Y-8502000D01*
X6053750Y-8512000D02*
G75*
G03X6053750Y-8502000I0J5000D01*
G01*
X5983750Y-8502000D02*
G75*
G03X5983750Y-8512000I0J-5000D01*
G01*
X6503750Y-7347000D02*
X6533750Y-7377000D01*
X6533750Y-7347000D02*
X6503750Y-7377000D01*
X6483795Y-7367305D02*
X6553792Y-7366694D01*
X6483708Y-7357306D02*
X6553705Y-7356695D01*
X6553792Y-7366694D02*
G75*
G03X6553705Y-7356695I-44J5000D01*
G01*
X6483708Y-7357306D02*
G75*
G03X6483795Y-7367305I44J-5000D01*
G01*
X20253485Y-4692043D02*
X20283485Y-4722043D01*
X20283485Y-4692043D02*
X20253485Y-4722043D01*
X20233485Y-4712043D02*
X20303485Y-4712043D01*
X20233485Y-4702043D02*
X20303485Y-4702043D01*
X20303485Y-4712043D02*
G75*
G03X20303485Y-4702043I0J5000D01*
G01*
X20233485Y-4702043D02*
G75*
G03X20233485Y-4712043I0J-5000D01*
G01*
X20753485Y-3547043D02*
X20783485Y-3577043D01*
X20783485Y-3547043D02*
X20753485Y-3577043D01*
X20733530Y-3567348D02*
X20803527Y-3566738D01*
X20733442Y-3557349D02*
X20803440Y-3556738D01*
X20803527Y-3566738D02*
G75*
G03X20803440Y-3556738I-44J5000D01*
G01*
X20733442Y-3557349D02*
G75*
G03X20733530Y-3567348I44J-5000D01*
G01*
X24053485Y-8492043D02*
X24083485Y-8522043D01*
X24083485Y-8492043D02*
X24053485Y-8522043D01*
X24033485Y-8512043D02*
X24103485Y-8512043D01*
X24033485Y-8502043D02*
X24103485Y-8502043D01*
X24103485Y-8512043D02*
G75*
G03X24103485Y-8502043I0J5000D01*
G01*
X24033485Y-8502043D02*
G75*
G03X24033485Y-8512043I0J-5000D01*
G01*
X24553485Y-7347043D02*
X24583485Y-7377043D01*
X24583485Y-7347043D02*
X24553485Y-7377043D01*
X24533530Y-7367348D02*
X24603527Y-7366738D01*
X24533442Y-7357349D02*
X24603440Y-7356738D01*
X24603527Y-7366738D02*
G75*
G03X24603440Y-7356738I-44J5000D01*
G01*
X24533442Y-7357349D02*
G75*
G03X24533530Y-7367348I44J-5000D01*
G01*
X24053485Y-6592043D02*
X24083485Y-6622043D01*
X24083485Y-6592043D02*
X24053485Y-6622043D01*
X24033485Y-6612043D02*
X24103485Y-6612043D01*
X24033485Y-6602043D02*
X24103485Y-6602043D01*
X24103485Y-6612043D02*
G75*
G03X24103485Y-6602043I0J5000D01*
G01*
X24033485Y-6602043D02*
G75*
G03X24033485Y-6612043I0J-5000D01*
G01*
X24553485Y-5447043D02*
X24583485Y-5477043D01*
X24583485Y-5447043D02*
X24553485Y-5477043D01*
X24533530Y-5467348D02*
X24603527Y-5466738D01*
X24533442Y-5457349D02*
X24603440Y-5456738D01*
X24603527Y-5466738D02*
G75*
G03X24603440Y-5456738I-44J5000D01*
G01*
X24533442Y-5457349D02*
G75*
G03X24533530Y-5467348I44J-5000D01*
G01*
X25953485Y-5167043D02*
X25983485Y-5197043D01*
X25983485Y-5167043D02*
X25953485Y-5197043D01*
X25933485Y-5187043D02*
X26003485Y-5187043D01*
X25933485Y-5177043D02*
X26003485Y-5177043D01*
X26003485Y-5187043D02*
G75*
G03X26003485Y-5177043I0J5000D01*
G01*
X25933485Y-5177043D02*
G75*
G03X25933485Y-5187043I0J-5000D01*
G01*
X26453485Y-4022043D02*
X26483485Y-4052043D01*
X26483485Y-4022043D02*
X26453485Y-4052043D01*
X26433530Y-4042348D02*
X26503527Y-4041738D01*
X26433442Y-4032349D02*
X26503440Y-4031738D01*
X26503527Y-4041738D02*
G75*
G03X26503440Y-4031738I-44J5000D01*
G01*
X26433442Y-4032349D02*
G75*
G03X26433530Y-4042348I44J-5000D01*
G01*
X11703750Y-6829500D02*
X11733750Y-6859500D01*
X11733750Y-6829500D02*
X11703750Y-6859500D01*
X11683750Y-6849500D02*
X11753750Y-6849500D01*
X11683750Y-6839500D02*
X11753750Y-6839500D01*
X11753750Y-6849500D02*
G75*
G03X11753750Y-6839500I0J5000D01*
G01*
X11683750Y-6839500D02*
G75*
G03X11683750Y-6849500I0J-5000D01*
G01*
X12203750Y-5684500D02*
X12233750Y-5714500D01*
X12233750Y-5684500D02*
X12203750Y-5714500D01*
X12183795Y-5704805D02*
X12253792Y-5704194D01*
X12183708Y-5694806D02*
X12253705Y-5694195D01*
X12253792Y-5704194D02*
G75*
G03X12253705Y-5694195I-44J5000D01*
G01*
X12183708Y-5694806D02*
G75*
G03X12183795Y-5704805I44J-5000D01*
G01*
X3489750Y-6741000D02*
G75*
G03X3489750Y-6741000I-20000J0D01*
G01*
X3818450Y-6949400D02*
G75*
G03X3818450Y-6949400I-20000J0D01*
G01*
X5708450Y-7146101D02*
G75*
G03X5708450Y-7146101I-20000J0D01*
G01*
X7583750Y-7119000D02*
G75*
G03X7583750Y-7119000I-20000J0D01*
G01*
X9499750Y-7062000D02*
G75*
G03X9499750Y-7062000I-20000J0D01*
G01*
X11418450Y-7283506D02*
G75*
G03X11418450Y-7283506I-20000J0D01*
G01*
X17509485Y-7577043D02*
G75*
G03X17509485Y-7577043I-20000J0D01*
G01*
X17516485Y-6737043D02*
G75*
G03X17516485Y-6737043I-20000J0D01*
G01*
X17571485Y-6820043D02*
G75*
G03X17571485Y-6820043I-20000J0D01*
G01*
X17571485Y-7501043D02*
G75*
G03X17571485Y-7501043I-20000J0D01*
G01*
X18014485Y-7324042D02*
G75*
G03X18014485Y-7324042I-20000J0D01*
G01*
X19872380Y-7083441D02*
G75*
G03X19872380Y-7083441I-20000J0D01*
G01*
X21764485Y-7030145D02*
G75*
G03X21764485Y-7030145I-20000J0D01*
G01*
X23658272Y-6984744D02*
G75*
G03X23658272Y-6984744I-20000J0D01*
G01*
X26584485Y-6871744D02*
G75*
G03X26584485Y-6871744I-20000J0D01*
G01*
X7428750Y-8069500D02*
G75*
G03X7428750Y-8069500I-20000J0D01*
G01*
X7378750Y-8079500D02*
X7438750Y-8079500D01*
X7378750Y-8059500D02*
X7438750Y-8059500D01*
X7438750Y-8079500D02*
G75*
G03X7438750Y-8059500I0J10000D01*
G01*
X7378750Y-8059500D02*
G75*
G03X7378750Y-8079500I0J-10000D01*
G01*
X25478485Y-8782043D02*
G75*
G03X25478485Y-8782043I-20000J0D01*
G01*
X25428485Y-8792043D02*
X25488485Y-8792043D01*
X25428485Y-8772043D02*
X25488485Y-8772043D01*
X25488485Y-8792043D02*
G75*
G03X25488485Y-8772043I0J10000D01*
G01*
X25428485Y-8772043D02*
G75*
G03X25428485Y-8792043I0J-10000D01*
G01*
X17878485Y-4744543D02*
G75*
G03X17878485Y-4744543I-20000J0D01*
G01*
X17828485Y-4754543D02*
X17888485Y-4754543D01*
X17828485Y-4734543D02*
X17888485Y-4734543D01*
X17888485Y-4754543D02*
G75*
G03X17888485Y-4734543I0J10000D01*
G01*
X17828485Y-4734543D02*
G75*
G03X17828485Y-4754543I0J-10000D01*
G01*
X3628750Y-4982000D02*
G75*
G03X3628750Y-4982000I-20000J0D01*
G01*
X3578750Y-4992000D02*
X3638750Y-4992000D01*
X3578750Y-4972000D02*
X3638750Y-4972000D01*
X3638750Y-4992000D02*
G75*
G03X3638750Y-4972000I0J10000D01*
G01*
X3578750Y-4972000D02*
G75*
G03X3578750Y-4992000I0J-10000D01*
G01*
X16320735Y-10282870D02*
G75*
G03X16320735Y-10282870I-20000J0D01*
G01*
X16277074Y-10261889D02*
X16307074Y-10313851D01*
X16294395Y-10251889D02*
X16324395Y-10303851D01*
X16307074Y-10313851D02*
G75*
G03X16324395Y-10303851I8660J5000D01*
G01*
X16294395Y-10251889D02*
G75*
G03X16277074Y-10261889I-8660J-5000D01*
G01*
X21678485Y-4269543D02*
G75*
G03X21678485Y-4269543I-20000J0D01*
G01*
X21628485Y-4279543D02*
X21688485Y-4279543D01*
X21628485Y-4259543D02*
X21688485Y-4259543D01*
X21688485Y-4279543D02*
G75*
G03X21688485Y-4259543I0J10000D01*
G01*
X21628485Y-4259543D02*
G75*
G03X21628485Y-4279543I0J-10000D01*
G01*
X7428750Y-6169500D02*
G75*
G03X7428750Y-6169500I-20000J0D01*
G01*
X7378750Y-6179500D02*
X7438750Y-6179500D01*
X7378750Y-6159500D02*
X7438750Y-6159500D01*
X7438750Y-6179500D02*
G75*
G03X7438750Y-6159500I0J10000D01*
G01*
X7378750Y-6159500D02*
G75*
G03X7378750Y-6179500I0J-10000D01*
G01*
X1728750Y-4982000D02*
G75*
G03X1728750Y-4982000I-20000J0D01*
G01*
X1678750Y-4992000D02*
X1738750Y-4992000D01*
X1678750Y-4972000D02*
X1738750Y-4972000D01*
X1738750Y-4992000D02*
G75*
G03X1738750Y-4972000I0J10000D01*
G01*
X1678750Y-4972000D02*
G75*
G03X1678750Y-4992000I0J-10000D01*
G01*
X25478485Y-6882043D02*
G75*
G03X25478485Y-6882043I-20000J0D01*
G01*
X25428485Y-6892043D02*
X25488485Y-6892043D01*
X25428485Y-6872043D02*
X25488485Y-6872043D01*
X25488485Y-6892043D02*
G75*
G03X25488485Y-6872043I0J10000D01*
G01*
X25428485Y-6872043D02*
G75*
G03X25428485Y-6892043I0J-10000D01*
G01*
X11228750Y-8544500D02*
G75*
G03X11228750Y-8544500I-20000J0D01*
G01*
X11178750Y-8554500D02*
X11238750Y-8554500D01*
X11178750Y-8534500D02*
X11238750Y-8534500D01*
X11238750Y-8554500D02*
G75*
G03X11238750Y-8534500I0J10000D01*
G01*
X11178750Y-8534500D02*
G75*
G03X11178750Y-8554500I0J-10000D01*
G01*
X20728485Y-10269543D02*
G75*
G03X20728485Y-10269543I-20000J0D01*
G01*
X20678485Y-10279543D02*
X20738485Y-10279543D01*
X20678485Y-10259543D02*
X20738485Y-10259543D01*
X20738485Y-10279543D02*
G75*
G03X20738485Y-10259543I0J10000D01*
G01*
X20678485Y-10259543D02*
G75*
G03X20678485Y-10279543I0J-10000D01*
G01*
X17878485Y-6644543D02*
G75*
G03X17878485Y-6644543I-20000J0D01*
G01*
X17828485Y-6654543D02*
X17888485Y-6654543D01*
X17828485Y-6634543D02*
X17888485Y-6634543D01*
X17888485Y-6654543D02*
G75*
G03X17888485Y-6634543I0J10000D01*
G01*
X17828485Y-6634543D02*
G75*
G03X17828485Y-6654543I0J-10000D01*
G01*
X19778485Y-8307043D02*
G75*
G03X19778485Y-8307043I-20000J0D01*
G01*
X19728485Y-8317043D02*
X19788485Y-8317043D01*
X19728485Y-8297043D02*
X19788485Y-8297043D01*
X19788485Y-8317043D02*
G75*
G03X19788485Y-8297043I0J10000D01*
G01*
X19728485Y-8297043D02*
G75*
G03X19728485Y-8317043I0J-10000D01*
G01*
X1728750Y-8782000D02*
G75*
G03X1728750Y-8782000I-20000J0D01*
G01*
X1678750Y-8792000D02*
X1738750Y-8792000D01*
X1678750Y-8772000D02*
X1738750Y-8772000D01*
X1738750Y-8792000D02*
G75*
G03X1738750Y-8772000I0J10000D01*
G01*
X1678750Y-8772000D02*
G75*
G03X1678750Y-8792000I0J-10000D01*
G01*
X9328750Y-8307000D02*
G75*
G03X9328750Y-8307000I-20000J0D01*
G01*
X9278750Y-8317000D02*
X9338750Y-8317000D01*
X9278750Y-8297000D02*
X9338750Y-8297000D01*
X9338750Y-8317000D02*
G75*
G03X9338750Y-8297000I0J10000D01*
G01*
X9278750Y-8297000D02*
G75*
G03X9278750Y-8317000I0J-10000D01*
G01*
X9328750Y-4507000D02*
G75*
G03X9328750Y-4507000I-20000J0D01*
G01*
X9278750Y-4517000D02*
X9338750Y-4517000D01*
X9278750Y-4497000D02*
X9338750Y-4497000D01*
X9338750Y-4517000D02*
G75*
G03X9338750Y-4497000I0J10000D01*
G01*
X9278750Y-4497000D02*
G75*
G03X9278750Y-4517000I0J-10000D01*
G01*
X1728750Y-6882000D02*
G75*
G03X1728750Y-6882000I-20000J0D01*
G01*
X1678750Y-6892000D02*
X1738750Y-6892000D01*
X1678750Y-6872000D02*
X1738750Y-6872000D01*
X1738750Y-6892000D02*
G75*
G03X1738750Y-6872000I0J10000D01*
G01*
X1678750Y-6872000D02*
G75*
G03X1678750Y-6892000I0J-10000D01*
G01*
X10395188Y-10399213D02*
G75*
G03X10395188Y-10399213I-20000J0D01*
G01*
X10343622Y-10401108D02*
X10401578Y-10416637D01*
X10348799Y-10381790D02*
X10406754Y-10397319D01*
X10401578Y-10416637D02*
G75*
G03X10406754Y-10397319I2588J9659D01*
G01*
X10348799Y-10381790D02*
G75*
G03X10343622Y-10401108I-2588J-9659D01*
G01*
X27378485Y-8782043D02*
G75*
G03X27378485Y-8782043I-20000J0D01*
G01*
X27328485Y-8792043D02*
X27388485Y-8792043D01*
X27328485Y-8772043D02*
X27388485Y-8772043D01*
X27388485Y-8792043D02*
G75*
G03X27388485Y-8772043I0J10000D01*
G01*
X27328485Y-8772043D02*
G75*
G03X27328485Y-8792043I0J-10000D01*
G01*
X3628750Y-8782000D02*
G75*
G03X3628750Y-8782000I-20000J0D01*
G01*
X3578750Y-8792000D02*
X3638750Y-8792000D01*
X3578750Y-8772000D02*
X3638750Y-8772000D01*
X3638750Y-8792000D02*
G75*
G03X3638750Y-8772000I0J10000D01*
G01*
X3578750Y-8772000D02*
G75*
G03X3578750Y-8792000I0J-10000D01*
G01*
X13296500Y-11166173D02*
G75*
G03X13296500Y-11166173I-20000J0D01*
G01*
X13270160Y-11197154D02*
X13300160Y-11145192D01*
X13252840Y-11187154D02*
X13282840Y-11135192D01*
X13300160Y-11145192D02*
G75*
G03X13282840Y-11135192I-8660J5000D01*
G01*
X13252840Y-11187154D02*
G75*
G03X13270160Y-11197154I8660J-5000D01*
G01*
X21678485Y-8069543D02*
G75*
G03X21678485Y-8069543I-20000J0D01*
G01*
X21628485Y-8079543D02*
X21688485Y-8079543D01*
X21628485Y-8059543D02*
X21688485Y-8059543D01*
X21688485Y-8079543D02*
G75*
G03X21688485Y-8059543I0J10000D01*
G01*
X21628485Y-8059543D02*
G75*
G03X21628485Y-8079543I0J-10000D01*
G01*
X9328750Y-6407000D02*
G75*
G03X9328750Y-6407000I-20000J0D01*
G01*
X9278750Y-6417000D02*
X9338750Y-6417000D01*
X9278750Y-6397000D02*
X9338750Y-6397000D01*
X9338750Y-6417000D02*
G75*
G03X9338750Y-6397000I0J10000D01*
G01*
X9278750Y-6397000D02*
G75*
G03X9278750Y-6417000I0J-10000D01*
G01*
X17878485Y-8544543D02*
G75*
G03X17878485Y-8544543I-20000J0D01*
G01*
X17828485Y-8554543D02*
X17888485Y-8554543D01*
X17828485Y-8534543D02*
X17888485Y-8534543D01*
X17888485Y-8554543D02*
G75*
G03X17888485Y-8534543I0J10000D01*
G01*
X17828485Y-8534543D02*
G75*
G03X17828485Y-8554543I0J-10000D01*
G01*
X23578485Y-4507043D02*
G75*
G03X23578485Y-4507043I-20000J0D01*
G01*
X23528485Y-4517043D02*
X23588485Y-4517043D01*
X23528485Y-4497043D02*
X23588485Y-4497043D01*
X23588485Y-4517043D02*
G75*
G03X23588485Y-4497043I0J10000D01*
G01*
X23528485Y-4497043D02*
G75*
G03X23528485Y-4517043I0J-10000D01*
G01*
X3628750Y-6882000D02*
G75*
G03X3628750Y-6882000I-20000J0D01*
G01*
X3578750Y-6892000D02*
X3638750Y-6892000D01*
X3578750Y-6872000D02*
X3638750Y-6872000D01*
X3638750Y-6892000D02*
G75*
G03X3638750Y-6872000I0J10000D01*
G01*
X3578750Y-6872000D02*
G75*
G03X3578750Y-6892000I0J-10000D01*
G01*
X21678485Y-6169543D02*
G75*
G03X21678485Y-6169543I-20000J0D01*
G01*
X21628485Y-6179543D02*
X21688485Y-6179543D01*
X21628485Y-6159543D02*
X21688485Y-6159543D01*
X21688485Y-6179543D02*
G75*
G03X21688485Y-6159543I0J10000D01*
G01*
X21628485Y-6159543D02*
G75*
G03X21628485Y-6179543I0J-10000D01*
G01*
X18746802Y-10663252D02*
G75*
G03X18746802Y-10663252I-20000J0D01*
G01*
X18700412Y-10680676D02*
X18758368Y-10665147D01*
X18695236Y-10661357D02*
X18753192Y-10645828D01*
X18758368Y-10665147D02*
G75*
G03X18753192Y-10645828I-2588J9659D01*
G01*
X18695236Y-10661357D02*
G75*
G03X18700412Y-10680676I2588J-9659D01*
G01*
X27378485Y-6882043D02*
G75*
G03X27378485Y-6882043I-20000J0D01*
G01*
X27328485Y-6892043D02*
X27388485Y-6892043D01*
X27328485Y-6872043D02*
X27388485Y-6872043D01*
X27388485Y-6892043D02*
G75*
G03X27388485Y-6872043I0J10000D01*
G01*
X27328485Y-6872043D02*
G75*
G03X27328485Y-6892043I0J-10000D01*
G01*
X19778485Y-6407043D02*
G75*
G03X19778485Y-6407043I-20000J0D01*
G01*
X19728485Y-6417043D02*
X19788485Y-6417043D01*
X19728485Y-6397043D02*
X19788485Y-6397043D01*
X19788485Y-6417043D02*
G75*
G03X19788485Y-6397043I0J10000D01*
G01*
X19728485Y-6397043D02*
G75*
G03X19728485Y-6417043I0J-10000D01*
G01*
X27378485Y-4982043D02*
G75*
G03X27378485Y-4982043I-20000J0D01*
G01*
X27328485Y-4992043D02*
X27388485Y-4992043D01*
X27328485Y-4972043D02*
X27388485Y-4972043D01*
X27388485Y-4992043D02*
G75*
G03X27388485Y-4972043I0J10000D01*
G01*
X27328485Y-4972043D02*
G75*
G03X27328485Y-4992043I0J-10000D01*
G01*
X11228750Y-4744500D02*
G75*
G03X11228750Y-4744500I-20000J0D01*
G01*
X11178750Y-4754500D02*
X11238750Y-4754500D01*
X11178750Y-4734500D02*
X11238750Y-4734500D01*
X11238750Y-4754500D02*
G75*
G03X11238750Y-4734500I0J10000D01*
G01*
X11178750Y-4734500D02*
G75*
G03X11178750Y-4754500I0J-10000D01*
G01*
X5528750Y-8307000D02*
G75*
G03X5528750Y-8307000I-20000J0D01*
G01*
X5478750Y-8317000D02*
X5538750Y-8317000D01*
X5478750Y-8297000D02*
X5538750Y-8297000D01*
X5538750Y-8317000D02*
G75*
G03X5538750Y-8297000I0J10000D01*
G01*
X5478750Y-8297000D02*
G75*
G03X5478750Y-8317000I0J-10000D01*
G01*
X19778485Y-4507043D02*
G75*
G03X19778485Y-4507043I-20000J0D01*
G01*
X19728485Y-4517043D02*
X19788485Y-4517043D01*
X19728485Y-4497043D02*
X19788485Y-4497043D01*
X19788485Y-4517043D02*
G75*
G03X19788485Y-4497043I0J10000D01*
G01*
X19728485Y-4497043D02*
G75*
G03X19728485Y-4517043I0J-10000D01*
G01*
X23578485Y-8307043D02*
G75*
G03X23578485Y-8307043I-20000J0D01*
G01*
X23528485Y-8317043D02*
X23588485Y-8317043D01*
X23528485Y-8297043D02*
X23588485Y-8297043D01*
X23588485Y-8317043D02*
G75*
G03X23588485Y-8297043I0J10000D01*
G01*
X23528485Y-8297043D02*
G75*
G03X23528485Y-8317043I0J-10000D01*
G01*
X23578485Y-6407043D02*
G75*
G03X23578485Y-6407043I-20000J0D01*
G01*
X23528485Y-6417043D02*
X23588485Y-6417043D01*
X23528485Y-6397043D02*
X23588485Y-6397043D01*
X23588485Y-6417043D02*
G75*
G03X23588485Y-6397043I0J10000D01*
G01*
X23528485Y-6397043D02*
G75*
G03X23528485Y-6417043I0J-10000D01*
G01*
X25478485Y-4982043D02*
G75*
G03X25478485Y-4982043I-20000J0D01*
G01*
X25428485Y-4992043D02*
X25488485Y-4992043D01*
X25428485Y-4972043D02*
X25488485Y-4972043D01*
X25488485Y-4992043D02*
G75*
G03X25488485Y-4972043I0J10000D01*
G01*
X25428485Y-4972043D02*
G75*
G03X25428485Y-4992043I0J-10000D01*
G01*
X11228750Y-6644500D02*
G75*
G03X11228750Y-6644500I-20000J0D01*
G01*
X11178750Y-6654500D02*
X11238750Y-6654500D01*
X11178750Y-6634500D02*
X11238750Y-6634500D01*
X11238750Y-6654500D02*
G75*
G03X11238750Y-6634500I0J10000D01*
G01*
X11178750Y-6634500D02*
G75*
G03X11178750Y-6654500I0J-10000D01*
G01*
X7428750Y-4269500D02*
G75*
G03X7428750Y-4269500I-20000J0D01*
G01*
X7378750Y-4279500D02*
X7438750Y-4279500D01*
X7378750Y-4259500D02*
X7438750Y-4259500D01*
X7438750Y-4279500D02*
G75*
G03X7438750Y-4259500I0J10000D01*
G01*
X7378750Y-4259500D02*
G75*
G03X7378750Y-4279500I0J-10000D01*
G01*
X5528750Y-4507000D02*
G75*
G03X5528750Y-4507000I-20000J0D01*
G01*
X5478750Y-4517000D02*
X5538750Y-4517000D01*
X5478750Y-4497000D02*
X5538750Y-4497000D01*
X5538750Y-4517000D02*
G75*
G03X5538750Y-4497000I0J10000D01*
G01*
X5478750Y-4497000D02*
G75*
G03X5478750Y-4517000I0J-10000D01*
G01*
X5528750Y-6407000D02*
G75*
G03X5528750Y-6407000I-20000J0D01*
G01*
X5478750Y-6417000D02*
X5538750Y-6417000D01*
X5478750Y-6397000D02*
X5538750Y-6397000D01*
X5538750Y-6417000D02*
G75*
G03X5538750Y-6397000I0J10000D01*
G01*
X5478750Y-6397000D02*
G75*
G03X5478750Y-6417000I0J-10000D01*
G01*
X8378750Y-10269500D02*
G75*
G03X8378750Y-10269500I-20000J0D01*
G01*
X8328750Y-10279500D02*
X8388750Y-10279500D01*
X8328750Y-10259500D02*
X8388750Y-10259500D01*
X8388750Y-10279500D02*
G75*
G03X8388750Y-10259500I0J10000D01*
G01*
X8328750Y-10259500D02*
G75*
G03X8328750Y-10279500I0J-10000D01*
G01*
X20119485Y-9550903D02*
X20119485Y-9632183D01*
X20078845Y-9591543D02*
X20160125Y-9591543D01*
X20119485Y-10150903D02*
X20119485Y-10232183D01*
X20078845Y-10191543D02*
X20160125Y-10191543D01*
X6818750Y-3751360D02*
X6818750Y-3832640D01*
X6778110Y-3792000D02*
X6859390Y-3792000D01*
X6818750Y-4351360D02*
X6818750Y-4432640D01*
X6778110Y-4392000D02*
X6859390Y-4392000D01*
X13302850Y-7676160D02*
X13302850Y-7757440D01*
X13262210Y-7716800D02*
X13343490Y-7716800D01*
X13556850Y-7676160D02*
X13556850Y-7757440D01*
X13516210Y-7716800D02*
X13597490Y-7716800D01*
X13810850Y-7676160D02*
X13810850Y-7757440D01*
X13770210Y-7716800D02*
X13851490Y-7716800D01*
X14064850Y-7676160D02*
X14064850Y-7757440D01*
X14024210Y-7716800D02*
X14105490Y-7716800D01*
X15645425Y-4180203D02*
X15645425Y-4261483D01*
X15604785Y-4220843D02*
X15686065Y-4220843D01*
X15645425Y-4434203D02*
X15645425Y-4515483D01*
X15604785Y-4474843D02*
X15686065Y-4474843D01*
X15645425Y-4688203D02*
X15645425Y-4769483D01*
X15604785Y-4728843D02*
X15686065Y-4728843D01*
X15645425Y-4942203D02*
X15645425Y-5023483D01*
X15604785Y-4982843D02*
X15686065Y-4982843D01*
X15645425Y-5196203D02*
X15645425Y-5277483D01*
X15604785Y-5236843D02*
X15686065Y-5236843D01*
X15645425Y-5450203D02*
X15645425Y-5531483D01*
X15604785Y-5490843D02*
X15686065Y-5490843D01*
X15645425Y-5704203D02*
X15645425Y-5785483D01*
X15604785Y-5744843D02*
X15686065Y-5744843D01*
X15645425Y-5958203D02*
X15645425Y-6039483D01*
X15604785Y-5998843D02*
X15686065Y-5998843D01*
X15645425Y-6212203D02*
X15645425Y-6293483D01*
X15604785Y-6252843D02*
X15686065Y-6252843D01*
X15645425Y-6466203D02*
X15645425Y-6547483D01*
X15604785Y-6506843D02*
X15686065Y-6506843D01*
X15645425Y-6720203D02*
X15645425Y-6801483D01*
X15604785Y-6760843D02*
X15686065Y-6760843D01*
X15645425Y-6974203D02*
X15645425Y-7055483D01*
X15604785Y-7014843D02*
X15686065Y-7014843D01*
X17167425Y-4180203D02*
X17167425Y-4261483D01*
X17126785Y-4220843D02*
X17208065Y-4220843D01*
X17167425Y-4434203D02*
X17167425Y-4515483D01*
X17126785Y-4474843D02*
X17208065Y-4474843D01*
X17167425Y-4688203D02*
X17167425Y-4769483D01*
X17126785Y-4728843D02*
X17208065Y-4728843D01*
X17167425Y-4942203D02*
X17167425Y-5023483D01*
X17126785Y-4982843D02*
X17208065Y-4982843D01*
X17167425Y-5196203D02*
X17167425Y-5277483D01*
X17126785Y-5236843D02*
X17208065Y-5236843D01*
X17167425Y-5450203D02*
X17167425Y-5531483D01*
X17126785Y-5490843D02*
X17208065Y-5490843D01*
X17167425Y-5704203D02*
X17167425Y-5785483D01*
X17126785Y-5744843D02*
X17208065Y-5744843D01*
X17167425Y-5958203D02*
X17167425Y-6039483D01*
X17126785Y-5998843D02*
X17208065Y-5998843D01*
X17167425Y-6212203D02*
X17167425Y-6293483D01*
X17126785Y-6252843D02*
X17208065Y-6252843D01*
X17167425Y-6466203D02*
X17167425Y-6547483D01*
X17126785Y-6506843D02*
X17208065Y-6506843D01*
X17167425Y-6720203D02*
X17167425Y-6801483D01*
X17126785Y-6760843D02*
X17208065Y-6760843D01*
X17167425Y-6974203D02*
X17167425Y-7055483D01*
X17126785Y-7014843D02*
X17208065Y-7014843D01*
X19468485Y-5651403D02*
X19468485Y-5732683D01*
X19427845Y-5692043D02*
X19509125Y-5692043D01*
X19468485Y-6251403D02*
X19468485Y-6332683D01*
X19427845Y-6292043D02*
X19509125Y-6292043D01*
X23268485Y-7551403D02*
X23268485Y-7632683D01*
X23227845Y-7592043D02*
X23309125Y-7592043D01*
X23268485Y-8151403D02*
X23268485Y-8232683D01*
X23227845Y-8192043D02*
X23309125Y-8192043D01*
X19468485Y-3751403D02*
X19468485Y-3832683D01*
X19427845Y-3792043D02*
X19509125Y-3792043D01*
X19468485Y-4351403D02*
X19468485Y-4432683D01*
X19427845Y-4392043D02*
X19509125Y-4392043D01*
X20419485Y-9550903D02*
X20419485Y-9632183D01*
X20378845Y-9591543D02*
X20460125Y-9591543D01*
X20419485Y-10150903D02*
X20419485Y-10232183D01*
X20378845Y-10191543D02*
X20460125Y-10191543D01*
X26768485Y-6151403D02*
X26768485Y-6232683D01*
X26727845Y-6192043D02*
X26809125Y-6192043D01*
X26768485Y-6751403D02*
X26768485Y-6832683D01*
X26727845Y-6792043D02*
X26809125Y-6792043D01*
X26768485Y-8051403D02*
X26768485Y-8132683D01*
X26727845Y-8092043D02*
X26809125Y-8092043D01*
X26768485Y-8651403D02*
X26768485Y-8732683D01*
X26727845Y-8692043D02*
X26809125Y-8692043D01*
X8050750Y-9550360D02*
X8050750Y-9631640D01*
X8010110Y-9591000D02*
X8091390Y-9591000D01*
X8050750Y-10150360D02*
X8050750Y-10231640D01*
X8010110Y-10191000D02*
X8091390Y-10191000D01*
X3318750Y-6151360D02*
X3318750Y-6232640D01*
X3278110Y-6192000D02*
X3359390Y-6192000D01*
X3318750Y-6751360D02*
X3318750Y-6832640D01*
X3278110Y-6792000D02*
X3359390Y-6792000D01*
X9668750Y-9549860D02*
X9668750Y-9631140D01*
X9628110Y-9590500D02*
X9709390Y-9590500D01*
X9668750Y-10149860D02*
X9668750Y-10231140D01*
X9628110Y-10190500D02*
X9709390Y-10190500D01*
X3318750Y-8051360D02*
X3318750Y-8132640D01*
X3278110Y-8092000D02*
X3359390Y-8092000D01*
X3318750Y-8651360D02*
X3318750Y-8732640D01*
X3278110Y-8692000D02*
X3359390Y-8692000D01*
X27068485Y-6151403D02*
X27068485Y-6232683D01*
X27027845Y-6192043D02*
X27109125Y-6192043D01*
X27068485Y-6751403D02*
X27068485Y-6832683D01*
X27027845Y-6792043D02*
X27109125Y-6792043D01*
X7118750Y-7550860D02*
X7118750Y-7632140D01*
X7078110Y-7591500D02*
X7159390Y-7591500D01*
X7118750Y-8150860D02*
X7118750Y-8232140D01*
X7078110Y-8191500D02*
X7159390Y-8191500D01*
X10618750Y-7551360D02*
X10618750Y-7632640D01*
X10578110Y-7592000D02*
X10659390Y-7592000D01*
X10618750Y-8151360D02*
X10618750Y-8232640D01*
X10578110Y-8192000D02*
X10659390Y-8192000D01*
X27068485Y-4251403D02*
X27068485Y-4332683D01*
X27027845Y-4292043D02*
X27109125Y-4292043D01*
X27068485Y-4851403D02*
X27068485Y-4932683D01*
X27027845Y-4892043D02*
X27109125Y-4892043D01*
X26768485Y-4251403D02*
X26768485Y-4332683D01*
X26727845Y-4292043D02*
X26809125Y-4292043D01*
X26768485Y-4851403D02*
X26768485Y-4932683D01*
X26727845Y-4892043D02*
X26809125Y-4892043D01*
X22968485Y-3750903D02*
X22968485Y-3832183D01*
X22927845Y-3791543D02*
X23009125Y-3791543D01*
X22968485Y-4350903D02*
X22968485Y-4432183D01*
X22927845Y-4391543D02*
X23009125Y-4391543D01*
X22968485Y-7550903D02*
X22968485Y-7632183D01*
X22927845Y-7591543D02*
X23009125Y-7591543D01*
X22968485Y-8150903D02*
X22968485Y-8232183D01*
X22927845Y-8191543D02*
X23009125Y-8191543D01*
X10618750Y-3751360D02*
X10618750Y-3832640D01*
X10578110Y-3792000D02*
X10659390Y-3792000D01*
X10618750Y-4351360D02*
X10618750Y-4432640D01*
X10578110Y-4392000D02*
X10659390Y-4392000D01*
X19168485Y-3751403D02*
X19168485Y-3832683D01*
X19127845Y-3792043D02*
X19209125Y-3792043D01*
X19168485Y-4351403D02*
X19168485Y-4432683D01*
X19127845Y-4392043D02*
X19209125Y-4392043D01*
X10918750Y-5651360D02*
X10918750Y-5732640D01*
X10878110Y-5692000D02*
X10959390Y-5692000D01*
X10918750Y-6251360D02*
X10918750Y-6332640D01*
X10878110Y-6292000D02*
X10959390Y-6292000D01*
X12928390Y-4167560D02*
X12928390Y-4248840D01*
X12887750Y-4208200D02*
X12969030Y-4208200D01*
X12928390Y-4421560D02*
X12928390Y-4502840D01*
X12887750Y-4462200D02*
X12969030Y-4462200D01*
X12928390Y-4675560D02*
X12928390Y-4756840D01*
X12887750Y-4716200D02*
X12969030Y-4716200D01*
X12928390Y-4929560D02*
X12928390Y-5010840D01*
X12887750Y-4970200D02*
X12969030Y-4970200D01*
X12928390Y-5183560D02*
X12928390Y-5264840D01*
X12887750Y-5224200D02*
X12969030Y-5224200D01*
X12928390Y-5437560D02*
X12928390Y-5518840D01*
X12887750Y-5478200D02*
X12969030Y-5478200D01*
X12928390Y-5691560D02*
X12928390Y-5772840D01*
X12887750Y-5732200D02*
X12969030Y-5732200D01*
X12928390Y-5945560D02*
X12928390Y-6026840D01*
X12887750Y-5986200D02*
X12969030Y-5986200D01*
X12928390Y-6199560D02*
X12928390Y-6280840D01*
X12887750Y-6240200D02*
X12969030Y-6240200D01*
X12928390Y-6453560D02*
X12928390Y-6534840D01*
X12887750Y-6494200D02*
X12969030Y-6494200D01*
X12928390Y-6707560D02*
X12928390Y-6788840D01*
X12887750Y-6748200D02*
X12969030Y-6748200D01*
X12928390Y-6961560D02*
X12928390Y-7042840D01*
X12887750Y-7002200D02*
X12969030Y-7002200D01*
X14450390Y-4167560D02*
X14450390Y-4248840D01*
X14409750Y-4208200D02*
X14491030Y-4208200D01*
X14450390Y-4421560D02*
X14450390Y-4502840D01*
X14409750Y-4462200D02*
X14491030Y-4462200D01*
X14450390Y-4675560D02*
X14450390Y-4756840D01*
X14409750Y-4716200D02*
X14491030Y-4716200D01*
X14450390Y-4929560D02*
X14450390Y-5010840D01*
X14409750Y-4970200D02*
X14491030Y-4970200D01*
X14450390Y-5183560D02*
X14450390Y-5264840D01*
X14409750Y-5224200D02*
X14491030Y-5224200D01*
X14450390Y-5437560D02*
X14450390Y-5518840D01*
X14409750Y-5478200D02*
X14491030Y-5478200D01*
X14450390Y-5691560D02*
X14450390Y-5772840D01*
X14409750Y-5732200D02*
X14491030Y-5732200D01*
X14450390Y-5945560D02*
X14450390Y-6026840D01*
X14409750Y-5986200D02*
X14491030Y-5986200D01*
X14450390Y-6199560D02*
X14450390Y-6280840D01*
X14409750Y-6240200D02*
X14491030Y-6240200D01*
X14450390Y-6453560D02*
X14450390Y-6534840D01*
X14409750Y-6494200D02*
X14491030Y-6494200D01*
X14450390Y-6707560D02*
X14450390Y-6788840D01*
X14409750Y-6748200D02*
X14491030Y-6748200D01*
X14450390Y-6961560D02*
X14450390Y-7042840D01*
X14409750Y-7002200D02*
X14491030Y-7002200D01*
X10918750Y-3751360D02*
X10918750Y-3832640D01*
X10878110Y-3792000D02*
X10959390Y-3792000D01*
X10918750Y-4351360D02*
X10918750Y-4432640D01*
X10878110Y-4392000D02*
X10959390Y-4392000D01*
X16025750Y-7690360D02*
X16025750Y-7771640D01*
X15985110Y-7731000D02*
X16066390Y-7731000D01*
X16279750Y-7690360D02*
X16279750Y-7771640D01*
X16239110Y-7731000D02*
X16320390Y-7731000D01*
X16533750Y-7690360D02*
X16533750Y-7771640D01*
X16493110Y-7731000D02*
X16574390Y-7731000D01*
X16787750Y-7690360D02*
X16787750Y-7771640D01*
X16747110Y-7731000D02*
X16828390Y-7731000D01*
X10918750Y-7551360D02*
X10918750Y-7632640D01*
X10878110Y-7592000D02*
X10959390Y-7592000D01*
X10918750Y-8151360D02*
X10918750Y-8232640D01*
X10878110Y-8192000D02*
X10959390Y-8192000D01*
X6818750Y-5651360D02*
X6818750Y-5732640D01*
X6778110Y-5692000D02*
X6859390Y-5692000D01*
X6818750Y-6251360D02*
X6818750Y-6332640D01*
X6778110Y-6292000D02*
X6859390Y-6292000D01*
X3018750Y-8051047D02*
X3018750Y-8132327D01*
X2978110Y-8091687D02*
X3059390Y-8091687D01*
X3018750Y-8651048D02*
X3018750Y-8732328D01*
X2978110Y-8691688D02*
X3059390Y-8691688D01*
X7118750Y-5650860D02*
X7118750Y-5732140D01*
X7078110Y-5691500D02*
X7159390Y-5691500D01*
X7118750Y-6250860D02*
X7118750Y-6332140D01*
X7078110Y-6291500D02*
X7159390Y-6291500D01*
X19468485Y-7551403D02*
X19468485Y-7632683D01*
X19427845Y-7592043D02*
X19509125Y-7592043D01*
X19468485Y-8151403D02*
X19468485Y-8232683D01*
X19427845Y-8192043D02*
X19509125Y-8192043D01*
X22968485Y-5650903D02*
X22968485Y-5732183D01*
X22927845Y-5691543D02*
X23009125Y-5691543D01*
X22968485Y-6250903D02*
X22968485Y-6332183D01*
X22927845Y-6291543D02*
X23009125Y-6291543D01*
X10618750Y-5651360D02*
X10618750Y-5732640D01*
X10578110Y-5692000D02*
X10659390Y-5692000D01*
X10618750Y-6251360D02*
X10618750Y-6332640D01*
X10578110Y-6292000D02*
X10659390Y-6292000D01*
X3018750Y-4251048D02*
X3018750Y-4332328D01*
X2978110Y-4291688D02*
X3059390Y-4291688D01*
X3018750Y-4851048D02*
X3018750Y-4932328D01*
X2978110Y-4891688D02*
X3059390Y-4891688D01*
X23268485Y-5651403D02*
X23268485Y-5732683D01*
X23227845Y-5692043D02*
X23309125Y-5692043D01*
X23268485Y-6251403D02*
X23268485Y-6332683D01*
X23227845Y-6292043D02*
X23309125Y-6292043D01*
X22018485Y-9552403D02*
X22018485Y-9633683D01*
X21977845Y-9593043D02*
X22059125Y-9593043D01*
X22018485Y-10152403D02*
X22018485Y-10233683D01*
X21977845Y-10193043D02*
X22059125Y-10193043D01*
X19168485Y-7551403D02*
X19168485Y-7632683D01*
X19127845Y-7592043D02*
X19209125Y-7592043D01*
X19168485Y-8151403D02*
X19168485Y-8232683D01*
X19127845Y-8192043D02*
X19209125Y-8192043D01*
X6818750Y-7551360D02*
X6818750Y-7632640D01*
X6778110Y-7592000D02*
X6859390Y-7592000D01*
X6818750Y-8151360D02*
X6818750Y-8232640D01*
X6778110Y-8192000D02*
X6859390Y-8192000D01*
X7118750Y-3750860D02*
X7118750Y-3832140D01*
X7078110Y-3791500D02*
X7159390Y-3791500D01*
X7118750Y-4350860D02*
X7118750Y-4432140D01*
X7078110Y-4391500D02*
X7159390Y-4391500D01*
X23268485Y-3751403D02*
X23268485Y-3832683D01*
X23227845Y-3792043D02*
X23309125Y-3792043D01*
X23268485Y-4351403D02*
X23268485Y-4432683D01*
X23227845Y-4392043D02*
X23309125Y-4392043D01*
X3318750Y-4251360D02*
X3318750Y-4332640D01*
X3278110Y-4292000D02*
X3359390Y-4292000D01*
X3318750Y-4851360D02*
X3318750Y-4932640D01*
X3278110Y-4892000D02*
X3359390Y-4892000D01*
X9968750Y-9549860D02*
X9968750Y-9631140D01*
X9928110Y-9590500D02*
X10009390Y-9590500D01*
X9968750Y-10149860D02*
X9968750Y-10231140D01*
X9928110Y-10190500D02*
X10009390Y-10190500D01*
X27068485Y-8051403D02*
X27068485Y-8132683D01*
X27027845Y-8092043D02*
X27109125Y-8092043D01*
X27068485Y-8651403D02*
X27068485Y-8732683D01*
X27027845Y-8692043D02*
X27109125Y-8692043D01*
X19168485Y-5651403D02*
X19168485Y-5732683D01*
X19127845Y-5692043D02*
X19209125Y-5692043D01*
X19168485Y-6251403D02*
X19168485Y-6332683D01*
X19127845Y-6292043D02*
X19209125Y-6292043D01*
X3018750Y-6151047D02*
X3018750Y-6232327D01*
X2978110Y-6191687D02*
X3059390Y-6191687D01*
X3018750Y-6751047D02*
X3018750Y-6832327D01*
X2978110Y-6791687D02*
X3059390Y-6791687D01*
X15826140Y-8281899D02*
X15826140Y-8211187D01*
X15755429Y-8211187D01*
X15755429Y-8281899D01*
X15826140Y-8281899D01*
X15765785Y-8286543D02*
X15815785Y-8286543D01*
X15765785Y-8206543D02*
X15815785Y-8206543D01*
X15815785Y-8286543D02*
G75*
G03X15815785Y-8206543I0J40000D01*
G01*
X15765785Y-8206543D02*
G75*
G03X15765785Y-8286543I0J-40000D01*
G01*
X16126140Y-8281899D02*
X16126140Y-8211187D01*
X16055429Y-8211187D01*
X16055429Y-8281899D01*
X16126140Y-8281899D01*
X16065785Y-8286543D02*
X16115785Y-8286543D01*
X16065785Y-8206543D02*
X16115785Y-8206543D01*
X16115785Y-8286543D02*
G75*
G03X16115785Y-8206543I0J40000D01*
G01*
X16065785Y-8206543D02*
G75*
G03X16065785Y-8286543I0J-40000D01*
G01*
X16526140Y-8281899D02*
X16526140Y-8211187D01*
X16455429Y-8211187D01*
X16455429Y-8281899D01*
X16526140Y-8281899D01*
X16465785Y-8286543D02*
X16515785Y-8286543D01*
X16465785Y-8206543D02*
X16515785Y-8206543D01*
X16515785Y-8286543D02*
G75*
G03X16515785Y-8206543I0J40000D01*
G01*
X16465785Y-8206543D02*
G75*
G03X16465785Y-8286543I0J-40000D01*
G01*
X16676140Y-8701899D02*
X16676140Y-8631188D01*
X16605429Y-8631188D01*
X16605429Y-8701899D01*
X16676140Y-8701899D01*
X16615785Y-8706543D02*
X16665785Y-8706543D01*
X16615785Y-8626543D02*
X16665785Y-8626543D01*
X16665785Y-8706543D02*
G75*
G03X16665785Y-8626543I0J40000D01*
G01*
X16615785Y-8626543D02*
G75*
G03X16615785Y-8706543I0J-40000D01*
G01*
X13476806Y-8268556D02*
X13476806Y-8197844D01*
X13406094Y-8197844D01*
X13406094Y-8268556D01*
X13476806Y-8268556D01*
X13466450Y-8193200D02*
X13416450Y-8193200D01*
X13466450Y-8273200D02*
X13416450Y-8273200D01*
X13416450Y-8193200D02*
G75*
G03X13416450Y-8273200I0J-40000D01*
G01*
X13466450Y-8273200D02*
G75*
G03X13466450Y-8193200I0J40000D01*
G01*
X13626806Y-8688556D02*
X13626806Y-8617844D01*
X13556094Y-8617844D01*
X13556094Y-8688556D01*
X13626806Y-8688556D01*
X13616450Y-8613200D02*
X13566450Y-8613200D01*
X13616450Y-8693200D02*
X13566450Y-8693200D01*
X13566450Y-8613200D02*
G75*
G03X13566450Y-8693200I0J-40000D01*
G01*
X13616450Y-8693200D02*
G75*
G03X13616450Y-8613200I0J40000D01*
G01*
X14026806Y-8688556D02*
X14026806Y-8617844D01*
X13956094Y-8617844D01*
X13956094Y-8688556D01*
X14026806Y-8688556D01*
X14016450Y-8613200D02*
X13966450Y-8613200D01*
X14016450Y-8693200D02*
X13966450Y-8693200D01*
X13966450Y-8613200D02*
G75*
G03X13966450Y-8693200I0J-40000D01*
G01*
X14016450Y-8693200D02*
G75*
G03X14016450Y-8613200I0J40000D01*
G01*
X14326806Y-8688556D02*
X14326806Y-8617844D01*
X14256094Y-8617844D01*
X14256094Y-8688556D01*
X14326806Y-8688556D01*
X14316450Y-8613200D02*
X14266450Y-8613200D01*
X14316450Y-8693200D02*
X14266450Y-8693200D01*
X14266450Y-8613200D02*
G75*
G03X14266450Y-8693200I0J-40000D01*
G01*
X14316450Y-8693200D02*
G75*
G03X14316450Y-8613200I0J40000D01*
G01*
X15637485Y-7421743D02*
X15702485Y-7356743D01*
X15637485Y-7291743D01*
X15572485Y-7356743D01*
X15637485Y-7421743D01*
X15637485Y-8071743D02*
X15702485Y-8006743D01*
X15637485Y-7941743D01*
X15572485Y-8006743D01*
X15637485Y-8071743D01*
X14450450Y-7407100D02*
X14515450Y-7342100D01*
X14450450Y-7277100D01*
X14385450Y-7342100D01*
X14450450Y-7407100D01*
X14450450Y-8057100D02*
X14515450Y-7992100D01*
X14450450Y-7927100D01*
X14385450Y-7992100D01*
X14450450Y-8057100D01*
X5568750Y-3792000D02*
X5708750Y-3932000D01*
X5708750Y-3792000D02*
X5568750Y-3932000D01*
X5708750Y-3862000D02*
G75*
G03X5708750Y-3862000I-70000J0D01*
G01*
X5698750Y-3647000D02*
X5838750Y-3787000D01*
X5838750Y-3647000D02*
X5698750Y-3787000D01*
X5838750Y-3717000D02*
G75*
G03X5838750Y-3717000I-70000J0D01*
G01*
X6198750Y-3567000D02*
X6338750Y-3707000D01*
X6338750Y-3567000D02*
X6198750Y-3707000D01*
X6338750Y-3637000D02*
G75*
G03X6338750Y-3637000I-70000J0D01*
G01*
X6208750Y-3609500D02*
X6208750Y-3664500D01*
X6328750Y-3609500D02*
X6328750Y-3664500D01*
X6208750Y-3664500D02*
G75*
G03X6328750Y-3664500I60000J0D01*
G01*
X6328750Y-3609500D02*
G75*
G03X6208750Y-3609500I-60000J0D01*
G01*
X5568750Y-5692000D02*
X5708750Y-5832000D01*
X5708750Y-5692000D02*
X5568750Y-5832000D01*
X5708750Y-5762000D02*
G75*
G03X5708750Y-5762000I-70000J0D01*
G01*
X5698750Y-5547000D02*
X5838750Y-5687000D01*
X5838750Y-5547000D02*
X5698750Y-5687000D01*
X5838750Y-5617000D02*
G75*
G03X5838750Y-5617000I-70000J0D01*
G01*
X6198750Y-5467000D02*
X6338750Y-5607000D01*
X6338750Y-5467000D02*
X6198750Y-5607000D01*
X6338750Y-5537000D02*
G75*
G03X6338750Y-5537000I-70000J0D01*
G01*
X6208750Y-5509500D02*
X6208750Y-5564500D01*
X6328750Y-5509500D02*
X6328750Y-5564500D01*
X6208750Y-5564500D02*
G75*
G03X6328750Y-5564500I60000J0D01*
G01*
X6328750Y-5509500D02*
G75*
G03X6208750Y-5509500I-60000J0D01*
G01*
X8418750Y-9554500D02*
X8558750Y-9694500D01*
X8558750Y-9554500D02*
X8418750Y-9694500D01*
X8558750Y-9624500D02*
G75*
G03X8558750Y-9624500I-70000J0D01*
G01*
X8548750Y-9409500D02*
X8688750Y-9549500D01*
X8688750Y-9409500D02*
X8548750Y-9549500D01*
X8688750Y-9479500D02*
G75*
G03X8688750Y-9479500I-70000J0D01*
G01*
X9048750Y-9329500D02*
X9188750Y-9469500D01*
X9188750Y-9329500D02*
X9048750Y-9469500D01*
X9188750Y-9399500D02*
G75*
G03X9188750Y-9399500I-70000J0D01*
G01*
X9058750Y-9372000D02*
X9058750Y-9427000D01*
X9178750Y-9372000D02*
X9178750Y-9427000D01*
X9058750Y-9427000D02*
G75*
G03X9178750Y-9427000I60000J0D01*
G01*
X9178750Y-9372000D02*
G75*
G03X9058750Y-9372000I-60000J0D01*
G01*
X7468750Y-7354500D02*
X7608750Y-7494500D01*
X7608750Y-7354500D02*
X7468750Y-7494500D01*
X7608750Y-7424500D02*
G75*
G03X7608750Y-7424500I-70000J0D01*
G01*
X7598750Y-7209500D02*
X7738750Y-7349500D01*
X7738750Y-7209500D02*
X7598750Y-7349500D01*
X7738750Y-7279500D02*
G75*
G03X7738750Y-7279500I-70000J0D01*
G01*
X8098750Y-7129500D02*
X8238750Y-7269500D01*
X8238750Y-7129500D02*
X8098750Y-7269500D01*
X8238750Y-7199500D02*
G75*
G03X8238750Y-7199500I-70000J0D01*
G01*
X8108750Y-7172000D02*
X8108750Y-7227000D01*
X8228750Y-7172000D02*
X8228750Y-7227000D01*
X8108750Y-7227000D02*
G75*
G03X8228750Y-7227000I60000J0D01*
G01*
X8228750Y-7172000D02*
G75*
G03X8108750Y-7172000I-60000J0D01*
G01*
X25518485Y-8067043D02*
X25658485Y-8207043D01*
X25658485Y-8067043D02*
X25518485Y-8207043D01*
X25658485Y-8137043D02*
G75*
G03X25658485Y-8137043I-70000J0D01*
G01*
X25648485Y-7922043D02*
X25788485Y-8062043D01*
X25788485Y-7922043D02*
X25648485Y-8062043D01*
X25788485Y-7992043D02*
G75*
G03X25788485Y-7992043I-70000J0D01*
G01*
X26148485Y-7842043D02*
X26288485Y-7982043D01*
X26288485Y-7842043D02*
X26148485Y-7982043D01*
X26288485Y-7912043D02*
G75*
G03X26288485Y-7912043I-70000J0D01*
G01*
X26158485Y-7884543D02*
X26158485Y-7939543D01*
X26278485Y-7884543D02*
X26278485Y-7939543D01*
X26158485Y-7939543D02*
G75*
G03X26278485Y-7939543I60000J0D01*
G01*
X26278485Y-7884543D02*
G75*
G03X26158485Y-7884543I-60000J0D01*
G01*
X17918485Y-4029543D02*
X18058485Y-4169543D01*
X18058485Y-4029543D02*
X17918485Y-4169543D01*
X18058485Y-4099543D02*
G75*
G03X18058485Y-4099543I-70000J0D01*
G01*
X18048485Y-3884543D02*
X18188485Y-4024543D01*
X18188485Y-3884543D02*
X18048485Y-4024543D01*
X18188485Y-3954543D02*
G75*
G03X18188485Y-3954543I-70000J0D01*
G01*
X18548485Y-3804543D02*
X18688485Y-3944543D01*
X18688485Y-3804543D02*
X18548485Y-3944543D01*
X18688485Y-3874543D02*
G75*
G03X18688485Y-3874543I-70000J0D01*
G01*
X18558485Y-3847043D02*
X18558485Y-3902043D01*
X18678485Y-3847043D02*
X18678485Y-3902043D01*
X18558485Y-3902043D02*
G75*
G03X18678485Y-3902043I60000J0D01*
G01*
X18678485Y-3847043D02*
G75*
G03X18558485Y-3847043I-60000J0D01*
G01*
X3668750Y-4267000D02*
X3808750Y-4407000D01*
X3808750Y-4267000D02*
X3668750Y-4407000D01*
X3808750Y-4337000D02*
G75*
G03X3808750Y-4337000I-70000J0D01*
G01*
X3798750Y-4122000D02*
X3938750Y-4262000D01*
X3938750Y-4122000D02*
X3798750Y-4262000D01*
X3938750Y-4192000D02*
G75*
G03X3938750Y-4192000I-70000J0D01*
G01*
X4298750Y-4042000D02*
X4438750Y-4182000D01*
X4438750Y-4042000D02*
X4298750Y-4182000D01*
X4438750Y-4112000D02*
G75*
G03X4438750Y-4112000I-70000J0D01*
G01*
X4308750Y-4084500D02*
X4308750Y-4139500D01*
X4428750Y-4084500D02*
X4428750Y-4139500D01*
X4308750Y-4139500D02*
G75*
G03X4428750Y-4139500I60000J0D01*
G01*
X4428750Y-4084500D02*
G75*
G03X4308750Y-4084500I-60000J0D01*
G01*
X16854321Y-10002954D02*
X16994321Y-10142954D01*
X16994321Y-10002954D02*
X16854321Y-10142954D01*
X16994321Y-10072954D02*
G75*
G03X16994321Y-10072954I-70000J0D01*
G01*
X17044895Y-10043037D02*
X17184895Y-10183037D01*
X17184895Y-10043037D02*
X17044895Y-10183037D01*
X17184895Y-10113037D02*
G75*
G03X17184895Y-10113037I-70000J0D01*
G01*
X17364177Y-10436050D02*
X17504177Y-10576050D01*
X17504177Y-10436050D02*
X17364177Y-10576050D01*
X17504177Y-10506050D02*
G75*
G03X17504177Y-10506050I-70000J0D01*
G01*
X17427993Y-10440338D02*
X17380361Y-10467838D01*
X17487993Y-10544261D02*
X17440361Y-10571761D01*
X17380361Y-10467838D02*
G75*
G03X17440361Y-10571761I30000J-51962D01*
G01*
X17487993Y-10544261D02*
G75*
G03X17427993Y-10440338I-30000J51962D01*
G01*
X21718485Y-3554543D02*
X21858485Y-3694543D01*
X21858485Y-3554543D02*
X21718485Y-3694543D01*
X21858485Y-3624543D02*
G75*
G03X21858485Y-3624543I-70000J0D01*
G01*
X21848485Y-3409543D02*
X21988485Y-3549543D01*
X21988485Y-3409543D02*
X21848485Y-3549543D01*
X21988485Y-3479543D02*
G75*
G03X21988485Y-3479543I-70000J0D01*
G01*
X22348485Y-3329543D02*
X22488485Y-3469543D01*
X22488485Y-3329543D02*
X22348485Y-3469543D01*
X22488485Y-3399543D02*
G75*
G03X22488485Y-3399543I-70000J0D01*
G01*
X22358485Y-3372043D02*
X22358485Y-3427043D01*
X22478485Y-3372043D02*
X22478485Y-3427043D01*
X22358485Y-3427043D02*
G75*
G03X22478485Y-3427043I60000J0D01*
G01*
X22478485Y-3372043D02*
G75*
G03X22358485Y-3372043I-60000J0D01*
G01*
X7468750Y-5454500D02*
X7608750Y-5594500D01*
X7608750Y-5454500D02*
X7468750Y-5594500D01*
X7608750Y-5524500D02*
G75*
G03X7608750Y-5524500I-70000J0D01*
G01*
X7598750Y-5309500D02*
X7738750Y-5449500D01*
X7738750Y-5309500D02*
X7598750Y-5449500D01*
X7738750Y-5379500D02*
G75*
G03X7738750Y-5379500I-70000J0D01*
G01*
X8098750Y-5229500D02*
X8238750Y-5369500D01*
X8238750Y-5229500D02*
X8098750Y-5369500D01*
X8238750Y-5299500D02*
G75*
G03X8238750Y-5299500I-70000J0D01*
G01*
X8108750Y-5272000D02*
X8108750Y-5327000D01*
X8228750Y-5272000D02*
X8228750Y-5327000D01*
X8108750Y-5327000D02*
G75*
G03X8228750Y-5327000I60000J0D01*
G01*
X8228750Y-5272000D02*
G75*
G03X8108750Y-5272000I-60000J0D01*
G01*
X1768750Y-4267000D02*
X1908750Y-4407000D01*
X1908750Y-4267000D02*
X1768750Y-4407000D01*
X1908750Y-4337000D02*
G75*
G03X1908750Y-4337000I-70000J0D01*
G01*
X1898750Y-4122000D02*
X2038750Y-4262000D01*
X2038750Y-4122000D02*
X1898750Y-4262000D01*
X2038750Y-4192000D02*
G75*
G03X2038750Y-4192000I-70000J0D01*
G01*
X2398750Y-4042000D02*
X2538750Y-4182000D01*
X2538750Y-4042000D02*
X2398750Y-4182000D01*
X2538750Y-4112000D02*
G75*
G03X2538750Y-4112000I-70000J0D01*
G01*
X2408750Y-4084500D02*
X2408750Y-4139500D01*
X2528750Y-4084500D02*
X2528750Y-4139500D01*
X2408750Y-4139500D02*
G75*
G03X2528750Y-4139500I60000J0D01*
G01*
X2528750Y-4084500D02*
G75*
G03X2408750Y-4084500I-60000J0D01*
G01*
X25518485Y-6167043D02*
X25658485Y-6307043D01*
X25658485Y-6167043D02*
X25518485Y-6307043D01*
X25658485Y-6237043D02*
G75*
G03X25658485Y-6237043I-70000J0D01*
G01*
X25648485Y-6022043D02*
X25788485Y-6162043D01*
X25788485Y-6022043D02*
X25648485Y-6162043D01*
X25788485Y-6092043D02*
G75*
G03X25788485Y-6092043I-70000J0D01*
G01*
X26148485Y-5942043D02*
X26288485Y-6082043D01*
X26288485Y-5942043D02*
X26148485Y-6082043D01*
X26288485Y-6012043D02*
G75*
G03X26288485Y-6012043I-70000J0D01*
G01*
X26158485Y-5984543D02*
X26158485Y-6039543D01*
X26278485Y-5984543D02*
X26278485Y-6039543D01*
X26158485Y-6039543D02*
G75*
G03X26278485Y-6039543I60000J0D01*
G01*
X26278485Y-5984543D02*
G75*
G03X26158485Y-5984543I-60000J0D01*
G01*
X11268750Y-7829500D02*
X11408750Y-7969500D01*
X11408750Y-7829500D02*
X11268750Y-7969500D01*
X11408750Y-7899500D02*
G75*
G03X11408750Y-7899500I-70000J0D01*
G01*
X11398750Y-7684500D02*
X11538750Y-7824500D01*
X11538750Y-7684500D02*
X11398750Y-7824500D01*
X11538750Y-7754500D02*
G75*
G03X11538750Y-7754500I-70000J0D01*
G01*
X11898750Y-7604500D02*
X12038750Y-7744500D01*
X12038750Y-7604500D02*
X11898750Y-7744500D01*
X12038750Y-7674500D02*
G75*
G03X12038750Y-7674500I-70000J0D01*
G01*
X11908750Y-7647000D02*
X11908750Y-7702000D01*
X12028750Y-7647000D02*
X12028750Y-7702000D01*
X11908750Y-7702000D02*
G75*
G03X12028750Y-7702000I60000J0D01*
G01*
X12028750Y-7647000D02*
G75*
G03X11908750Y-7647000I-60000J0D01*
G01*
X20768485Y-9554543D02*
X20908485Y-9694543D01*
X20908485Y-9554543D02*
X20768485Y-9694543D01*
X20908485Y-9624543D02*
G75*
G03X20908485Y-9624543I-70000J0D01*
G01*
X20898485Y-9409543D02*
X21038485Y-9549543D01*
X21038485Y-9409543D02*
X20898485Y-9549543D01*
X21038485Y-9479543D02*
G75*
G03X21038485Y-9479543I-70000J0D01*
G01*
X21398485Y-9329543D02*
X21538485Y-9469543D01*
X21538485Y-9329543D02*
X21398485Y-9469543D01*
X21538485Y-9399543D02*
G75*
G03X21538485Y-9399543I-70000J0D01*
G01*
X21408485Y-9372043D02*
X21408485Y-9427043D01*
X21528485Y-9372043D02*
X21528485Y-9427043D01*
X21408485Y-9427043D02*
G75*
G03X21528485Y-9427043I60000J0D01*
G01*
X21528485Y-9372043D02*
G75*
G03X21408485Y-9372043I-60000J0D01*
G01*
X17918485Y-5929543D02*
X18058485Y-6069543D01*
X18058485Y-5929543D02*
X17918485Y-6069543D01*
X18058485Y-5999543D02*
G75*
G03X18058485Y-5999543I-70000J0D01*
G01*
X18048485Y-5784543D02*
X18188485Y-5924543D01*
X18188485Y-5784543D02*
X18048485Y-5924543D01*
X18188485Y-5854543D02*
G75*
G03X18188485Y-5854543I-70000J0D01*
G01*
X18548485Y-5704543D02*
X18688485Y-5844543D01*
X18688485Y-5704543D02*
X18548485Y-5844543D01*
X18688485Y-5774543D02*
G75*
G03X18688485Y-5774543I-70000J0D01*
G01*
X18558485Y-5747043D02*
X18558485Y-5802043D01*
X18678485Y-5747043D02*
X18678485Y-5802043D01*
X18558485Y-5802043D02*
G75*
G03X18678485Y-5802043I60000J0D01*
G01*
X18678485Y-5747043D02*
G75*
G03X18558485Y-5747043I-60000J0D01*
G01*
X19818485Y-7592043D02*
X19958485Y-7732043D01*
X19958485Y-7592043D02*
X19818485Y-7732043D01*
X19958485Y-7662043D02*
G75*
G03X19958485Y-7662043I-70000J0D01*
G01*
X19948485Y-7447043D02*
X20088485Y-7587043D01*
X20088485Y-7447043D02*
X19948485Y-7587043D01*
X20088485Y-7517043D02*
G75*
G03X20088485Y-7517043I-70000J0D01*
G01*
X20448485Y-7367043D02*
X20588485Y-7507043D01*
X20588485Y-7367043D02*
X20448485Y-7507043D01*
X20588485Y-7437043D02*
G75*
G03X20588485Y-7437043I-70000J0D01*
G01*
X20458485Y-7409543D02*
X20458485Y-7464543D01*
X20578485Y-7409543D02*
X20578485Y-7464543D01*
X20458485Y-7464543D02*
G75*
G03X20578485Y-7464543I60000J0D01*
G01*
X20578485Y-7409543D02*
G75*
G03X20458485Y-7409543I-60000J0D01*
G01*
X1768750Y-8067000D02*
X1908750Y-8207000D01*
X1908750Y-8067000D02*
X1768750Y-8207000D01*
X1908750Y-8137000D02*
G75*
G03X1908750Y-8137000I-70000J0D01*
G01*
X1898750Y-7922000D02*
X2038750Y-8062000D01*
X2038750Y-7922000D02*
X1898750Y-8062000D01*
X2038750Y-7992000D02*
G75*
G03X2038750Y-7992000I-70000J0D01*
G01*
X2398750Y-7842000D02*
X2538750Y-7982000D01*
X2538750Y-7842000D02*
X2398750Y-7982000D01*
X2538750Y-7912000D02*
G75*
G03X2538750Y-7912000I-70000J0D01*
G01*
X2408750Y-7884500D02*
X2408750Y-7939500D01*
X2528750Y-7884500D02*
X2528750Y-7939500D01*
X2408750Y-7939500D02*
G75*
G03X2528750Y-7939500I60000J0D01*
G01*
X2528750Y-7884500D02*
G75*
G03X2408750Y-7884500I-60000J0D01*
G01*
X9368750Y-7592000D02*
X9508750Y-7732000D01*
X9508750Y-7592000D02*
X9368750Y-7732000D01*
X9508750Y-7662000D02*
G75*
G03X9508750Y-7662000I-70000J0D01*
G01*
X9498750Y-7447000D02*
X9638750Y-7587000D01*
X9638750Y-7447000D02*
X9498750Y-7587000D01*
X9638750Y-7517000D02*
G75*
G03X9638750Y-7517000I-70000J0D01*
G01*
X9998750Y-7367000D02*
X10138750Y-7507000D01*
X10138750Y-7367000D02*
X9998750Y-7507000D01*
X10138750Y-7437000D02*
G75*
G03X10138750Y-7437000I-70000J0D01*
G01*
X10008750Y-7409500D02*
X10008750Y-7464500D01*
X10128750Y-7409500D02*
X10128750Y-7464500D01*
X10008750Y-7464500D02*
G75*
G03X10128750Y-7464500I60000J0D01*
G01*
X10128750Y-7409500D02*
G75*
G03X10008750Y-7409500I-60000J0D01*
G01*
X9368750Y-3792000D02*
X9508750Y-3932000D01*
X9508750Y-3792000D02*
X9368750Y-3932000D01*
X9508750Y-3862000D02*
G75*
G03X9508750Y-3862000I-70000J0D01*
G01*
X9498750Y-3647000D02*
X9638750Y-3787000D01*
X9638750Y-3647000D02*
X9498750Y-3787000D01*
X9638750Y-3717000D02*
G75*
G03X9638750Y-3717000I-70000J0D01*
G01*
X9998750Y-3567000D02*
X10138750Y-3707000D01*
X10138750Y-3567000D02*
X9998750Y-3707000D01*
X10138750Y-3637000D02*
G75*
G03X10138750Y-3637000I-70000J0D01*
G01*
X10008750Y-3609500D02*
X10008750Y-3664500D01*
X10128750Y-3609500D02*
X10128750Y-3664500D01*
X10008750Y-3664500D02*
G75*
G03X10128750Y-3664500I60000J0D01*
G01*
X10128750Y-3609500D02*
G75*
G03X10008750Y-3609500I-60000J0D01*
G01*
X1768750Y-6167000D02*
X1908750Y-6307000D01*
X1908750Y-6167000D02*
X1768750Y-6307000D01*
X1908750Y-6237000D02*
G75*
G03X1908750Y-6237000I-70000J0D01*
G01*
X1898750Y-6022000D02*
X2038750Y-6162000D01*
X2038750Y-6022000D02*
X1898750Y-6162000D01*
X2038750Y-6092000D02*
G75*
G03X2038750Y-6092000I-70000J0D01*
G01*
X2398750Y-5942000D02*
X2538750Y-6082000D01*
X2538750Y-5942000D02*
X2398750Y-6082000D01*
X2538750Y-6012000D02*
G75*
G03X2538750Y-6012000I-70000J0D01*
G01*
X2408750Y-5984500D02*
X2408750Y-6039500D01*
X2528750Y-5984500D02*
X2528750Y-6039500D01*
X2408750Y-6039500D02*
G75*
G03X2528750Y-6039500I60000J0D01*
G01*
X2528750Y-5984500D02*
G75*
G03X2408750Y-5984500I-60000J0D01*
G01*
X10597697Y-9739838D02*
X10737697Y-9879838D01*
X10737697Y-9739838D02*
X10597697Y-9879838D01*
X10737697Y-9809838D02*
G75*
G03X10737697Y-9809838I-70000J0D01*
G01*
X10760796Y-9633425D02*
X10900796Y-9773425D01*
X10900796Y-9633425D02*
X10760796Y-9773425D01*
X10900796Y-9703425D02*
G75*
G03X10900796Y-9703425I-70000J0D01*
G01*
X11264465Y-9685560D02*
X11404465Y-9825560D01*
X11404465Y-9685560D02*
X11264465Y-9825560D01*
X11404465Y-9755560D02*
G75*
G03X11404465Y-9755560I-70000J0D01*
G01*
X11283627Y-9713468D02*
X11269391Y-9766594D01*
X11399538Y-9744527D02*
X11385303Y-9797653D01*
X11269392Y-9766594D02*
G75*
G03X11385303Y-9797653I57956J-15529D01*
G01*
X11399538Y-9744527D02*
G75*
G03X11283627Y-9713468I-57956J15529D01*
G01*
X27418485Y-8067043D02*
X27558485Y-8207043D01*
X27558485Y-8067043D02*
X27418485Y-8207043D01*
X27558485Y-8137043D02*
G75*
G03X27558485Y-8137043I-70000J0D01*
G01*
X27548485Y-7922043D02*
X27688485Y-8062043D01*
X27688485Y-7922043D02*
X27548485Y-8062043D01*
X27688485Y-7992043D02*
G75*
G03X27688485Y-7992043I-70000J0D01*
G01*
X28048485Y-7842043D02*
X28188485Y-7982043D01*
X28188485Y-7842043D02*
X28048485Y-7982043D01*
X28188485Y-7912043D02*
G75*
G03X28188485Y-7912043I-70000J0D01*
G01*
X28058485Y-7884543D02*
X28058485Y-7939543D01*
X28178485Y-7884543D02*
X28178485Y-7939543D01*
X28058485Y-7939543D02*
G75*
G03X28178485Y-7939543I60000J0D01*
G01*
X28178485Y-7884543D02*
G75*
G03X28058485Y-7884543I-60000J0D01*
G01*
X3668750Y-8067000D02*
X3808750Y-8207000D01*
X3808750Y-8067000D02*
X3668750Y-8207000D01*
X3808750Y-8137000D02*
G75*
G03X3808750Y-8137000I-70000J0D01*
G01*
X3798750Y-7922000D02*
X3938750Y-8062000D01*
X3938750Y-7922000D02*
X3798750Y-8062000D01*
X3938750Y-7992000D02*
G75*
G03X3938750Y-7992000I-70000J0D01*
G01*
X4298750Y-7842000D02*
X4438750Y-7982000D01*
X4438750Y-7842000D02*
X4298750Y-7982000D01*
X4438750Y-7912000D02*
G75*
G03X4438750Y-7912000I-70000J0D01*
G01*
X4308750Y-7884500D02*
X4308750Y-7939500D01*
X4428750Y-7884500D02*
X4428750Y-7939500D01*
X4308750Y-7939500D02*
G75*
G03X4428750Y-7939500I60000J0D01*
G01*
X4428750Y-7884500D02*
G75*
G03X4308750Y-7884500I-60000J0D01*
G01*
X12652340Y-10476006D02*
X12792340Y-10616006D01*
X12792340Y-10476006D02*
X12652340Y-10616006D01*
X12792340Y-10546006D02*
G75*
G03X12792340Y-10546006I-70000J0D01*
G01*
X12712913Y-10661090D02*
X12852913Y-10801090D01*
X12852913Y-10661090D02*
X12712913Y-10801090D01*
X12852913Y-10731090D02*
G75*
G03X12852913Y-10731090I-70000J0D01*
G01*
X12833058Y-10002994D02*
X12973058Y-10142994D01*
X12973058Y-10002994D02*
X12833058Y-10142994D01*
X12973058Y-10072994D02*
G75*
G03X12973058Y-10072994I-70000J0D01*
G01*
X12849242Y-10111205D02*
X12896873Y-10138705D01*
X12909242Y-10007282D02*
X12956873Y-10034782D01*
X12896873Y-10138705D02*
G75*
G03X12956873Y-10034782I30000J51962D01*
G01*
X12909242Y-10007282D02*
G75*
G03X12849242Y-10111205I-30000J-51962D01*
G01*
X21718485Y-7354543D02*
X21858485Y-7494543D01*
X21858485Y-7354543D02*
X21718485Y-7494543D01*
X21858485Y-7424543D02*
G75*
G03X21858485Y-7424543I-70000J0D01*
G01*
X21848485Y-7209543D02*
X21988485Y-7349543D01*
X21988485Y-7209543D02*
X21848485Y-7349543D01*
X21988485Y-7279543D02*
G75*
G03X21988485Y-7279543I-70000J0D01*
G01*
X22348485Y-7129543D02*
X22488485Y-7269543D01*
X22488485Y-7129543D02*
X22348485Y-7269543D01*
X22488485Y-7199543D02*
G75*
G03X22488485Y-7199543I-70000J0D01*
G01*
X22358485Y-7172043D02*
X22358485Y-7227043D01*
X22478485Y-7172043D02*
X22478485Y-7227043D01*
X22358485Y-7227043D02*
G75*
G03X22478485Y-7227043I60000J0D01*
G01*
X22478485Y-7172043D02*
G75*
G03X22358485Y-7172043I-60000J0D01*
G01*
X9368750Y-5692000D02*
X9508750Y-5832000D01*
X9508750Y-5692000D02*
X9368750Y-5832000D01*
X9508750Y-5762000D02*
G75*
G03X9508750Y-5762000I-70000J0D01*
G01*
X9498750Y-5547000D02*
X9638750Y-5687000D01*
X9638750Y-5547000D02*
X9498750Y-5687000D01*
X9638750Y-5617000D02*
G75*
G03X9638750Y-5617000I-70000J0D01*
G01*
X9998750Y-5467000D02*
X10138750Y-5607000D01*
X10138750Y-5467000D02*
X9998750Y-5607000D01*
X10138750Y-5537000D02*
G75*
G03X10138750Y-5537000I-70000J0D01*
G01*
X10008750Y-5509500D02*
X10008750Y-5564500D01*
X10128750Y-5509500D02*
X10128750Y-5564500D01*
X10008750Y-5564500D02*
G75*
G03X10128750Y-5564500I60000J0D01*
G01*
X10128750Y-5509500D02*
G75*
G03X10008750Y-5509500I-60000J0D01*
G01*
X17918485Y-7829543D02*
X18058485Y-7969543D01*
X18058485Y-7829543D02*
X17918485Y-7969543D01*
X18058485Y-7899543D02*
G75*
G03X18058485Y-7899543I-70000J0D01*
G01*
X18048485Y-7684543D02*
X18188485Y-7824543D01*
X18188485Y-7684543D02*
X18048485Y-7824543D01*
X18188485Y-7754543D02*
G75*
G03X18188485Y-7754543I-70000J0D01*
G01*
X18548485Y-7604543D02*
X18688485Y-7744543D01*
X18688485Y-7604543D02*
X18548485Y-7744543D01*
X18688485Y-7674543D02*
G75*
G03X18688485Y-7674543I-70000J0D01*
G01*
X18558485Y-7647043D02*
X18558485Y-7702043D01*
X18678485Y-7647043D02*
X18678485Y-7702043D01*
X18558485Y-7702043D02*
G75*
G03X18678485Y-7702043I60000J0D01*
G01*
X18678485Y-7647043D02*
G75*
G03X18558485Y-7647043I-60000J0D01*
G01*
X23618485Y-3792043D02*
X23758485Y-3932043D01*
X23758485Y-3792043D02*
X23618485Y-3932043D01*
X23758485Y-3862043D02*
G75*
G03X23758485Y-3862043I-70000J0D01*
G01*
X23748485Y-3647043D02*
X23888485Y-3787043D01*
X23888485Y-3647043D02*
X23748485Y-3787043D01*
X23888485Y-3717043D02*
G75*
G03X23888485Y-3717043I-70000J0D01*
G01*
X24248485Y-3567043D02*
X24388485Y-3707043D01*
X24388485Y-3567043D02*
X24248485Y-3707043D01*
X24388485Y-3637043D02*
G75*
G03X24388485Y-3637043I-70000J0D01*
G01*
X24258485Y-3609543D02*
X24258485Y-3664543D01*
X24378485Y-3609543D02*
X24378485Y-3664543D01*
X24258485Y-3664543D02*
G75*
G03X24378485Y-3664543I60000J0D01*
G01*
X24378485Y-3609543D02*
G75*
G03X24258485Y-3609543I-60000J0D01*
G01*
X3668750Y-6167000D02*
X3808750Y-6307000D01*
X3808750Y-6167000D02*
X3668750Y-6307000D01*
X3808750Y-6237000D02*
G75*
G03X3808750Y-6237000I-70000J0D01*
G01*
X3798750Y-6022000D02*
X3938750Y-6162000D01*
X3938750Y-6022000D02*
X3798750Y-6162000D01*
X3938750Y-6092000D02*
G75*
G03X3938750Y-6092000I-70000J0D01*
G01*
X4298750Y-5942000D02*
X4438750Y-6082000D01*
X4438750Y-5942000D02*
X4298750Y-6082000D01*
X4438750Y-6012000D02*
G75*
G03X4438750Y-6012000I-70000J0D01*
G01*
X4308750Y-5984500D02*
X4308750Y-6039500D01*
X4428750Y-5984500D02*
X4428750Y-6039500D01*
X4308750Y-6039500D02*
G75*
G03X4428750Y-6039500I60000J0D01*
G01*
X4428750Y-5984500D02*
G75*
G03X4308750Y-5984500I-60000J0D01*
G01*
X21718485Y-5454543D02*
X21858485Y-5594543D01*
X21858485Y-5454543D02*
X21718485Y-5594543D01*
X21858485Y-5524543D02*
G75*
G03X21858485Y-5524543I-70000J0D01*
G01*
X21848485Y-5309543D02*
X21988485Y-5449543D01*
X21988485Y-5309543D02*
X21848485Y-5449543D01*
X21988485Y-5379543D02*
G75*
G03X21988485Y-5379543I-70000J0D01*
G01*
X22348485Y-5229543D02*
X22488485Y-5369543D01*
X22488485Y-5229543D02*
X22348485Y-5369543D01*
X22488485Y-5299543D02*
G75*
G03X22488485Y-5299543I-70000J0D01*
G01*
X22358485Y-5272043D02*
X22358485Y-5327043D01*
X22478485Y-5272043D02*
X22478485Y-5327043D01*
X22358485Y-5327043D02*
G75*
G03X22478485Y-5327043I60000J0D01*
G01*
X22478485Y-5272043D02*
G75*
G03X22358485Y-5272043I-60000J0D01*
G01*
X18615434Y-9936583D02*
X18755434Y-10076583D01*
X18755434Y-9936583D02*
X18615434Y-10076583D01*
X18755434Y-10006583D02*
G75*
G03X18755434Y-10006583I-70000J0D01*
G01*
X18703476Y-9762878D02*
X18843476Y-9902878D01*
X18843476Y-9762878D02*
X18703476Y-9902878D01*
X18843476Y-9832878D02*
G75*
G03X18843476Y-9832878I-70000J0D01*
G01*
X19165733Y-9556194D02*
X19305733Y-9696194D01*
X19305733Y-9556194D02*
X19165733Y-9696194D01*
X19305733Y-9626194D02*
G75*
G03X19305733Y-9626194I-70000J0D01*
G01*
X19170660Y-9615160D02*
X19184895Y-9668286D01*
X19286571Y-9584102D02*
X19300806Y-9637228D01*
X19184895Y-9668286D02*
G75*
G03X19300806Y-9637228I57956J15529D01*
G01*
X19286571Y-9584102D02*
G75*
G03X19170660Y-9615160I-57956J-15529D01*
G01*
X27418485Y-6167043D02*
X27558485Y-6307043D01*
X27558485Y-6167043D02*
X27418485Y-6307043D01*
X27558485Y-6237043D02*
G75*
G03X27558485Y-6237043I-70000J0D01*
G01*
X27548485Y-6022043D02*
X27688485Y-6162043D01*
X27688485Y-6022043D02*
X27548485Y-6162043D01*
X27688485Y-6092043D02*
G75*
G03X27688485Y-6092043I-70000J0D01*
G01*
X28048485Y-5942043D02*
X28188485Y-6082043D01*
X28188485Y-5942043D02*
X28048485Y-6082043D01*
X28188485Y-6012043D02*
G75*
G03X28188485Y-6012043I-70000J0D01*
G01*
X28058485Y-5984543D02*
X28058485Y-6039543D01*
X28178485Y-5984543D02*
X28178485Y-6039543D01*
X28058485Y-6039543D02*
G75*
G03X28178485Y-6039543I60000J0D01*
G01*
X28178485Y-5984543D02*
G75*
G03X28058485Y-5984543I-60000J0D01*
G01*
X19818485Y-5692043D02*
X19958485Y-5832043D01*
X19958485Y-5692043D02*
X19818485Y-5832043D01*
X19958485Y-5762043D02*
G75*
G03X19958485Y-5762043I-70000J0D01*
G01*
X19948485Y-5547043D02*
X20088485Y-5687043D01*
X20088485Y-5547043D02*
X19948485Y-5687043D01*
X20088485Y-5617043D02*
G75*
G03X20088485Y-5617043I-70000J0D01*
G01*
X20448485Y-5467043D02*
X20588485Y-5607043D01*
X20588485Y-5467043D02*
X20448485Y-5607043D01*
X20588485Y-5537043D02*
G75*
G03X20588485Y-5537043I-70000J0D01*
G01*
X20458485Y-5509543D02*
X20458485Y-5564543D01*
X20578485Y-5509543D02*
X20578485Y-5564543D01*
X20458485Y-5564543D02*
G75*
G03X20578485Y-5564543I60000J0D01*
G01*
X20578485Y-5509543D02*
G75*
G03X20458485Y-5509543I-60000J0D01*
G01*
X27418485Y-4267043D02*
X27558485Y-4407043D01*
X27558485Y-4267043D02*
X27418485Y-4407043D01*
X27558485Y-4337043D02*
G75*
G03X27558485Y-4337043I-70000J0D01*
G01*
X27548485Y-4122043D02*
X27688485Y-4262043D01*
X27688485Y-4122043D02*
X27548485Y-4262043D01*
X27688485Y-4192043D02*
G75*
G03X27688485Y-4192043I-70000J0D01*
G01*
X28048485Y-4042043D02*
X28188485Y-4182043D01*
X28188485Y-4042043D02*
X28048485Y-4182043D01*
X28188485Y-4112043D02*
G75*
G03X28188485Y-4112043I-70000J0D01*
G01*
X28058485Y-4084543D02*
X28058485Y-4139543D01*
X28178485Y-4084543D02*
X28178485Y-4139543D01*
X28058485Y-4139543D02*
G75*
G03X28178485Y-4139543I60000J0D01*
G01*
X28178485Y-4084543D02*
G75*
G03X28058485Y-4084543I-60000J0D01*
G01*
X11268750Y-4029500D02*
X11408750Y-4169500D01*
X11408750Y-4029500D02*
X11268750Y-4169500D01*
X11408750Y-4099500D02*
G75*
G03X11408750Y-4099500I-70000J0D01*
G01*
X11398750Y-3884500D02*
X11538750Y-4024500D01*
X11538750Y-3884500D02*
X11398750Y-4024500D01*
X11538750Y-3954500D02*
G75*
G03X11538750Y-3954500I-70000J0D01*
G01*
X11898750Y-3804500D02*
X12038750Y-3944500D01*
X12038750Y-3804500D02*
X11898750Y-3944500D01*
X12038750Y-3874500D02*
G75*
G03X12038750Y-3874500I-70000J0D01*
G01*
X11908750Y-3847000D02*
X11908750Y-3902000D01*
X12028750Y-3847000D02*
X12028750Y-3902000D01*
X11908750Y-3902000D02*
G75*
G03X12028750Y-3902000I60000J0D01*
G01*
X12028750Y-3847000D02*
G75*
G03X11908750Y-3847000I-60000J0D01*
G01*
X5568750Y-7592000D02*
X5708750Y-7732000D01*
X5708750Y-7592000D02*
X5568750Y-7732000D01*
X5708750Y-7662000D02*
G75*
G03X5708750Y-7662000I-70000J0D01*
G01*
X5698750Y-7447000D02*
X5838750Y-7587000D01*
X5838750Y-7447000D02*
X5698750Y-7587000D01*
X5838750Y-7517000D02*
G75*
G03X5838750Y-7517000I-70000J0D01*
G01*
X6198750Y-7367000D02*
X6338750Y-7507000D01*
X6338750Y-7367000D02*
X6198750Y-7507000D01*
X6338750Y-7437000D02*
G75*
G03X6338750Y-7437000I-70000J0D01*
G01*
X6208750Y-7409500D02*
X6208750Y-7464500D01*
X6328750Y-7409500D02*
X6328750Y-7464500D01*
X6208750Y-7464500D02*
G75*
G03X6328750Y-7464500I60000J0D01*
G01*
X6328750Y-7409500D02*
G75*
G03X6208750Y-7409500I-60000J0D01*
G01*
X19818485Y-3792043D02*
X19958485Y-3932043D01*
X19958485Y-3792043D02*
X19818485Y-3932043D01*
X19958485Y-3862043D02*
G75*
G03X19958485Y-3862043I-70000J0D01*
G01*
X19948485Y-3647043D02*
X20088485Y-3787043D01*
X20088485Y-3647043D02*
X19948485Y-3787043D01*
X20088485Y-3717043D02*
G75*
G03X20088485Y-3717043I-70000J0D01*
G01*
X20448485Y-3567043D02*
X20588485Y-3707043D01*
X20588485Y-3567043D02*
X20448485Y-3707043D01*
X20588485Y-3637043D02*
G75*
G03X20588485Y-3637043I-70000J0D01*
G01*
X20458485Y-3609543D02*
X20458485Y-3664543D01*
X20578485Y-3609543D02*
X20578485Y-3664543D01*
X20458485Y-3664543D02*
G75*
G03X20578485Y-3664543I60000J0D01*
G01*
X20578485Y-3609543D02*
G75*
G03X20458485Y-3609543I-60000J0D01*
G01*
X23618485Y-7592043D02*
X23758485Y-7732043D01*
X23758485Y-7592043D02*
X23618485Y-7732043D01*
X23758485Y-7662043D02*
G75*
G03X23758485Y-7662043I-70000J0D01*
G01*
X23748485Y-7447043D02*
X23888485Y-7587043D01*
X23888485Y-7447043D02*
X23748485Y-7587043D01*
X23888485Y-7517043D02*
G75*
G03X23888485Y-7517043I-70000J0D01*
G01*
X24248485Y-7367043D02*
X24388485Y-7507043D01*
X24388485Y-7367043D02*
X24248485Y-7507043D01*
X24388485Y-7437043D02*
G75*
G03X24388485Y-7437043I-70000J0D01*
G01*
X24258485Y-7409543D02*
X24258485Y-7464543D01*
X24378485Y-7409543D02*
X24378485Y-7464543D01*
X24258485Y-7464543D02*
G75*
G03X24378485Y-7464543I60000J0D01*
G01*
X24378485Y-7409543D02*
G75*
G03X24258485Y-7409543I-60000J0D01*
G01*
X23618485Y-5692043D02*
X23758485Y-5832043D01*
X23758485Y-5692043D02*
X23618485Y-5832043D01*
X23758485Y-5762043D02*
G75*
G03X23758485Y-5762043I-70000J0D01*
G01*
X23748485Y-5547043D02*
X23888485Y-5687043D01*
X23888485Y-5547043D02*
X23748485Y-5687043D01*
X23888485Y-5617043D02*
G75*
G03X23888485Y-5617043I-70000J0D01*
G01*
X24248485Y-5467043D02*
X24388485Y-5607043D01*
X24388485Y-5467043D02*
X24248485Y-5607043D01*
X24388485Y-5537043D02*
G75*
G03X24388485Y-5537043I-70000J0D01*
G01*
X24258485Y-5509543D02*
X24258485Y-5564543D01*
X24378485Y-5509543D02*
X24378485Y-5564543D01*
X24258485Y-5564543D02*
G75*
G03X24378485Y-5564543I60000J0D01*
G01*
X24378485Y-5509543D02*
G75*
G03X24258485Y-5509543I-60000J0D01*
G01*
X25518485Y-4267043D02*
X25658485Y-4407043D01*
X25658485Y-4267043D02*
X25518485Y-4407043D01*
X25658485Y-4337043D02*
G75*
G03X25658485Y-4337043I-70000J0D01*
G01*
X25648485Y-4122043D02*
X25788485Y-4262043D01*
X25788485Y-4122043D02*
X25648485Y-4262043D01*
X25788485Y-4192043D02*
G75*
G03X25788485Y-4192043I-70000J0D01*
G01*
X26148485Y-4042043D02*
X26288485Y-4182043D01*
X26288485Y-4042043D02*
X26148485Y-4182043D01*
X26288485Y-4112043D02*
G75*
G03X26288485Y-4112043I-70000J0D01*
G01*
X26158485Y-4084543D02*
X26158485Y-4139543D01*
X26278485Y-4084543D02*
X26278485Y-4139543D01*
X26158485Y-4139543D02*
G75*
G03X26278485Y-4139543I60000J0D01*
G01*
X26278485Y-4084543D02*
G75*
G03X26158485Y-4084543I-60000J0D01*
G01*
X11268750Y-5929500D02*
X11408750Y-6069500D01*
X11408750Y-5929500D02*
X11268750Y-6069500D01*
X11408750Y-5999500D02*
G75*
G03X11408750Y-5999500I-70000J0D01*
G01*
X11398750Y-5784500D02*
X11538750Y-5924500D01*
X11538750Y-5784500D02*
X11398750Y-5924500D01*
X11538750Y-5854500D02*
G75*
G03X11538750Y-5854500I-70000J0D01*
G01*
X11898750Y-5704500D02*
X12038750Y-5844500D01*
X12038750Y-5704500D02*
X11898750Y-5844500D01*
X12038750Y-5774500D02*
G75*
G03X12038750Y-5774500I-70000J0D01*
G01*
X11908750Y-5747000D02*
X11908750Y-5802000D01*
X12028750Y-5747000D02*
X12028750Y-5802000D01*
X11908750Y-5802000D02*
G75*
G03X12028750Y-5802000I60000J0D01*
G01*
X12028750Y-5747000D02*
G75*
G03X11908750Y-5747000I-60000J0D01*
G01*
X7468750Y-3554500D02*
X7608750Y-3694500D01*
X7608750Y-3554500D02*
X7468750Y-3694500D01*
X7608750Y-3624500D02*
G75*
G03X7608750Y-3624500I-70000J0D01*
G01*
X7598750Y-3409500D02*
X7738750Y-3549500D01*
X7738750Y-3409500D02*
X7598750Y-3549500D01*
X7738750Y-3479500D02*
G75*
G03X7738750Y-3479500I-70000J0D01*
G01*
X8098750Y-3329500D02*
X8238750Y-3469500D01*
X8238750Y-3329500D02*
X8098750Y-3469500D01*
X8238750Y-3399500D02*
G75*
G03X8238750Y-3399500I-70000J0D01*
G01*
X8108750Y-3372000D02*
X8108750Y-3427000D01*
X8228750Y-3372000D02*
X8228750Y-3427000D01*
X8108750Y-3427000D02*
G75*
G03X8228750Y-3427000I60000J0D01*
G01*
X8228750Y-3372000D02*
G75*
G03X8108750Y-3372000I-60000J0D01*
G01*
D12*
X1551987Y-13254995D02*
X1551987Y-12954995D01*
X1623415Y-12954995D01*
X1666273Y-12969281D01*
X1694844Y-12997852D01*
X1709130Y-13026424D01*
X1723415Y-13083567D01*
X1723415Y-13126424D01*
X1709130Y-13183567D01*
X1694844Y-13212138D01*
X1666273Y-13240709D01*
X1623415Y-13254995D01*
X1551987Y-13254995D01*
X1851987Y-13254995D02*
X1851987Y-13054995D01*
X1851987Y-13112138D02*
X1866273Y-13083567D01*
X1880558Y-13069281D01*
X1909130Y-13054995D01*
X1937701Y-13054995D01*
X2037701Y-13254995D02*
X2037701Y-13054995D01*
X2037701Y-12954995D02*
X2023415Y-12969281D01*
X2037701Y-12983567D01*
X2051987Y-12969281D01*
X2037701Y-12954995D01*
X2037701Y-12983567D01*
X2223416Y-13254995D02*
X2194844Y-13240709D01*
X2180558Y-13212138D01*
X2180558Y-12954995D01*
X2380558Y-13254995D02*
X2351987Y-13240709D01*
X2337701Y-13212138D01*
X2337701Y-12954995D01*
X2723416Y-13254995D02*
X2723416Y-12954995D01*
X2823415Y-13169281D01*
X2923415Y-12954995D01*
X2923415Y-13254995D01*
X3194844Y-13254995D02*
X3194844Y-13097852D01*
X3180558Y-13069281D01*
X3151987Y-13054995D01*
X3094844Y-13054995D01*
X3066273Y-13069281D01*
X3194844Y-13240709D02*
X3166273Y-13254995D01*
X3094844Y-13254995D01*
X3066273Y-13240709D01*
X3051987Y-13212138D01*
X3051987Y-13183567D01*
X3066273Y-13154995D01*
X3094844Y-13140709D01*
X3166273Y-13140709D01*
X3194844Y-13126424D01*
X3337701Y-13054995D02*
X3337701Y-13354995D01*
X3337701Y-13069281D02*
X3366273Y-13054995D01*
X3423415Y-13054995D01*
X3451987Y-13069281D01*
X3466273Y-13083567D01*
X3480558Y-13112138D01*
X3480558Y-13197852D01*
X3466273Y-13226424D01*
X3451987Y-13240709D01*
X3423415Y-13254995D01*
X3366273Y-13254995D01*
X3337701Y-13240709D01*
X3609130Y-13226424D02*
X3623415Y-13240709D01*
X3609130Y-13254995D01*
X3594844Y-13240709D01*
X3609130Y-13226424D01*
X3609130Y-13254995D01*
X3609130Y-13069281D02*
X3623415Y-13083567D01*
X3609130Y-13097852D01*
X3594844Y-13083567D01*
X3609130Y-13069281D01*
X3609130Y-13097852D01*
X1235558Y-13734281D02*
X1265558Y-13764281D01*
X1265558Y-13734281D02*
X1235558Y-13764281D01*
X1609130Y-13584995D02*
X1637701Y-13584995D01*
X1666273Y-13599281D01*
X1680558Y-13613567D01*
X1694844Y-13642138D01*
X1709130Y-13699281D01*
X1709130Y-13770709D01*
X1694844Y-13827852D01*
X1680558Y-13856424D01*
X1666273Y-13870709D01*
X1637701Y-13884995D01*
X1609130Y-13884995D01*
X1580558Y-13870709D01*
X1566273Y-13856424D01*
X1551987Y-13827852D01*
X1537701Y-13770709D01*
X1537701Y-13699281D01*
X1551987Y-13642138D01*
X1566273Y-13613567D01*
X1580558Y-13599281D01*
X1609130Y-13584995D01*
X1837701Y-13856424D02*
X1851987Y-13870709D01*
X1837701Y-13884995D01*
X1823415Y-13870709D01*
X1837701Y-13856424D01*
X1837701Y-13884995D01*
X1951987Y-13584995D02*
X2137701Y-13584995D01*
X2037701Y-13699281D01*
X2080558Y-13699281D01*
X2109130Y-13713567D01*
X2123416Y-13727852D01*
X2137701Y-13756424D01*
X2137701Y-13827852D01*
X2123416Y-13856424D01*
X2109130Y-13870709D01*
X2080558Y-13884995D01*
X1994844Y-13884995D01*
X1966273Y-13870709D01*
X1951987Y-13856424D01*
X2323416Y-13584995D02*
X2351987Y-13584995D01*
X2380558Y-13599281D01*
X2394844Y-13613567D01*
X2409130Y-13642138D01*
X2423416Y-13699281D01*
X2423416Y-13770709D01*
X2409130Y-13827852D01*
X2394844Y-13856424D01*
X2380558Y-13870709D01*
X2351987Y-13884995D01*
X2323416Y-13884995D01*
X2294844Y-13870709D01*
X2280558Y-13856424D01*
X2266273Y-13827852D01*
X2251987Y-13770709D01*
X2251987Y-13699281D01*
X2266273Y-13642138D01*
X2280558Y-13613567D01*
X2294844Y-13599281D01*
X2323416Y-13584995D01*
X2551987Y-13884995D02*
X2551987Y-13684995D01*
X2551987Y-13713567D02*
X2566273Y-13699281D01*
X2594844Y-13684995D01*
X2637701Y-13684995D01*
X2666273Y-13699281D01*
X2680558Y-13727852D01*
X2680558Y-13884995D01*
X2680558Y-13727852D02*
X2694844Y-13699281D01*
X2723416Y-13684995D01*
X2766273Y-13684995D01*
X2794844Y-13699281D01*
X2809130Y-13727852D01*
X2809130Y-13884995D01*
X2951987Y-13884995D02*
X2951987Y-13684995D01*
X2951987Y-13713567D02*
X2966273Y-13699281D01*
X2994844Y-13684995D01*
X3037701Y-13684995D01*
X3066273Y-13699281D01*
X3080558Y-13727852D01*
X3080558Y-13884995D01*
X3080558Y-13727852D02*
X3094844Y-13699281D01*
X3123415Y-13684995D01*
X3166273Y-13684995D01*
X3194844Y-13699281D01*
X3209130Y-13727852D01*
X3209130Y-13884995D01*
X3794844Y-13570709D02*
X3537701Y-13956424D01*
X4180558Y-13584995D02*
X4209130Y-13584995D01*
X4237701Y-13599281D01*
X4251987Y-13613567D01*
X4266273Y-13642138D01*
X4280558Y-13699281D01*
X4280558Y-13770709D01*
X4266273Y-13827852D01*
X4251987Y-13856424D01*
X4237701Y-13870709D01*
X4209130Y-13884995D01*
X4180558Y-13884995D01*
X4151987Y-13870709D01*
X4137701Y-13856424D01*
X4123415Y-13827852D01*
X4109130Y-13770709D01*
X4109130Y-13699281D01*
X4123415Y-13642138D01*
X4137701Y-13613567D01*
X4151987Y-13599281D01*
X4180558Y-13584995D01*
X4409130Y-13856424D02*
X4423416Y-13870709D01*
X4409130Y-13884995D01*
X4394844Y-13870709D01*
X4409130Y-13856424D01*
X4409130Y-13884995D01*
X4609130Y-13584995D02*
X4637701Y-13584995D01*
X4666273Y-13599281D01*
X4680558Y-13613567D01*
X4694844Y-13642138D01*
X4709130Y-13699281D01*
X4709130Y-13770709D01*
X4694844Y-13827852D01*
X4680558Y-13856424D01*
X4666273Y-13870709D01*
X4637701Y-13884995D01*
X4609130Y-13884995D01*
X4580558Y-13870709D01*
X4566273Y-13856424D01*
X4551987Y-13827852D01*
X4537701Y-13770709D01*
X4537701Y-13699281D01*
X4551987Y-13642138D01*
X4566273Y-13613567D01*
X4580558Y-13599281D01*
X4609130Y-13584995D01*
X4994844Y-13884995D02*
X4823416Y-13884995D01*
X4909130Y-13884995D02*
X4909130Y-13584995D01*
X4880558Y-13627852D01*
X4851987Y-13656424D01*
X4823416Y-13670709D01*
X5109130Y-13613567D02*
X5123416Y-13599281D01*
X5151987Y-13584995D01*
X5223416Y-13584995D01*
X5251987Y-13599281D01*
X5266273Y-13613567D01*
X5280558Y-13642138D01*
X5280558Y-13670709D01*
X5266273Y-13713567D01*
X5094844Y-13884995D01*
X5280558Y-13884995D01*
X5394844Y-13584995D02*
X5394844Y-13642138D01*
X5509130Y-13584995D02*
X5509130Y-13642138D01*
X5951987Y-13999281D02*
X5937701Y-13984995D01*
X5909130Y-13942138D01*
X5894844Y-13913567D01*
X5880558Y-13870709D01*
X5866273Y-13799281D01*
X5866273Y-13742138D01*
X5880558Y-13670709D01*
X5894844Y-13627852D01*
X5909130Y-13599281D01*
X5937701Y-13556424D01*
X5951987Y-13542138D01*
X6123415Y-13584995D02*
X6151987Y-13584995D01*
X6180558Y-13599281D01*
X6194844Y-13613567D01*
X6209130Y-13642138D01*
X6223415Y-13699281D01*
X6223415Y-13770709D01*
X6209130Y-13827852D01*
X6194844Y-13856424D01*
X6180558Y-13870709D01*
X6151987Y-13884995D01*
X6123415Y-13884995D01*
X6094844Y-13870709D01*
X6080558Y-13856424D01*
X6066273Y-13827852D01*
X6051987Y-13770709D01*
X6051987Y-13699281D01*
X6066273Y-13642138D01*
X6080558Y-13613567D01*
X6094844Y-13599281D01*
X6123415Y-13584995D01*
X6580558Y-13884995D02*
X6580558Y-13584995D01*
X6709130Y-13884995D02*
X6709130Y-13727852D01*
X6694844Y-13699281D01*
X6666273Y-13684995D01*
X6623415Y-13684995D01*
X6594844Y-13699281D01*
X6580558Y-13713567D01*
X6894844Y-13884995D02*
X6866273Y-13870709D01*
X6851987Y-13856424D01*
X6837701Y-13827852D01*
X6837701Y-13742138D01*
X6851987Y-13713567D01*
X6866273Y-13699281D01*
X6894844Y-13684995D01*
X6937701Y-13684995D01*
X6966273Y-13699281D01*
X6980558Y-13713567D01*
X6994844Y-13742138D01*
X6994844Y-13827852D01*
X6980558Y-13856424D01*
X6966273Y-13870709D01*
X6937701Y-13884995D01*
X6894844Y-13884995D01*
X7166273Y-13884995D02*
X7137701Y-13870709D01*
X7123415Y-13842138D01*
X7123415Y-13584995D01*
X7394844Y-13870709D02*
X7366273Y-13884995D01*
X7309130Y-13884995D01*
X7280558Y-13870709D01*
X7266273Y-13842138D01*
X7266273Y-13727852D01*
X7280558Y-13699281D01*
X7309130Y-13684995D01*
X7366273Y-13684995D01*
X7394844Y-13699281D01*
X7409130Y-13727852D01*
X7409130Y-13756424D01*
X7266273Y-13784995D01*
X7523415Y-13870709D02*
X7551987Y-13884995D01*
X7609130Y-13884995D01*
X7637701Y-13870709D01*
X7651987Y-13842138D01*
X7651987Y-13827852D01*
X7637701Y-13799281D01*
X7609130Y-13784995D01*
X7566273Y-13784995D01*
X7537701Y-13770709D01*
X7523415Y-13742138D01*
X7523415Y-13727852D01*
X7537701Y-13699281D01*
X7566273Y-13684995D01*
X7609130Y-13684995D01*
X7637701Y-13699281D01*
X8009130Y-13770709D02*
X8237701Y-13770709D01*
X8123415Y-13884995D02*
X8123415Y-13656424D01*
X8651987Y-13713567D02*
X8623416Y-13699281D01*
X8609130Y-13684995D01*
X8594844Y-13656424D01*
X8594844Y-13642138D01*
X8609130Y-13613567D01*
X8623416Y-13599281D01*
X8651987Y-13584995D01*
X8709130Y-13584995D01*
X8737701Y-13599281D01*
X8751987Y-13613567D01*
X8766273Y-13642138D01*
X8766273Y-13656424D01*
X8751987Y-13684995D01*
X8737701Y-13699281D01*
X8709130Y-13713567D01*
X8651987Y-13713567D01*
X8623416Y-13727852D01*
X8609130Y-13742138D01*
X8594844Y-13770709D01*
X8594844Y-13827852D01*
X8609130Y-13856424D01*
X8623416Y-13870709D01*
X8651987Y-13884995D01*
X8709130Y-13884995D01*
X8737701Y-13870709D01*
X8751987Y-13856424D01*
X8766273Y-13827852D01*
X8766273Y-13770709D01*
X8751987Y-13742138D01*
X8737701Y-13727852D01*
X8709130Y-13713567D01*
X9023416Y-13684995D02*
X9023416Y-13884995D01*
X8951987Y-13570709D02*
X8880558Y-13784995D01*
X9066273Y-13784995D01*
X9394844Y-13870709D02*
X9423416Y-13884995D01*
X9480558Y-13884995D01*
X9509130Y-13870709D01*
X9523416Y-13842138D01*
X9523416Y-13827852D01*
X9509130Y-13799281D01*
X9480558Y-13784995D01*
X9437701Y-13784995D01*
X9409130Y-13770709D01*
X9394844Y-13742138D01*
X9394844Y-13727852D01*
X9409130Y-13699281D01*
X9437701Y-13684995D01*
X9480558Y-13684995D01*
X9509130Y-13699281D01*
X9694844Y-13884995D02*
X9666273Y-13870709D01*
X9651987Y-13842138D01*
X9651987Y-13584995D01*
X9851987Y-13884995D02*
X9823416Y-13870709D01*
X9809130Y-13856424D01*
X9794844Y-13827852D01*
X9794844Y-13742138D01*
X9809130Y-13713567D01*
X9823416Y-13699281D01*
X9851987Y-13684995D01*
X9894844Y-13684995D01*
X9923416Y-13699281D01*
X9937701Y-13713567D01*
X9951987Y-13742138D01*
X9951987Y-13827852D01*
X9937701Y-13856424D01*
X9923416Y-13870709D01*
X9894844Y-13884995D01*
X9851987Y-13884995D01*
X10037701Y-13684995D02*
X10151987Y-13684995D01*
X10080558Y-13584995D02*
X10080558Y-13842138D01*
X10094844Y-13870709D01*
X10123416Y-13884995D01*
X10151987Y-13884995D01*
X10237701Y-13870709D02*
X10266273Y-13884995D01*
X10323416Y-13884995D01*
X10351987Y-13870709D01*
X10366273Y-13842138D01*
X10366273Y-13827852D01*
X10351987Y-13799281D01*
X10323416Y-13784995D01*
X10280558Y-13784995D01*
X10251987Y-13770709D01*
X10237701Y-13742138D01*
X10237701Y-13727852D01*
X10251987Y-13699281D01*
X10280558Y-13684995D01*
X10323416Y-13684995D01*
X10351987Y-13699281D01*
X10466273Y-13999281D02*
X10480558Y-13984995D01*
X10509130Y-13942138D01*
X10523416Y-13913567D01*
X10537701Y-13870709D01*
X10551987Y-13799281D01*
X10551987Y-13742138D01*
X10537701Y-13670709D01*
X10523416Y-13627852D01*
X10509130Y-13599281D01*
X10480558Y-13556424D01*
X10466273Y-13542138D01*
X1265558Y-14145281D02*
G75*
G03X1265558Y-14145281I-20000J0D01*
G01*
X1609130Y-13980995D02*
X1637701Y-13980995D01*
X1666273Y-13995281D01*
X1680558Y-14009567D01*
X1694844Y-14038138D01*
X1709130Y-14095281D01*
X1709130Y-14166709D01*
X1694844Y-14223852D01*
X1680558Y-14252424D01*
X1666273Y-14266709D01*
X1637701Y-14280995D01*
X1609130Y-14280995D01*
X1580558Y-14266709D01*
X1566273Y-14252424D01*
X1551987Y-14223852D01*
X1537701Y-14166709D01*
X1537701Y-14095281D01*
X1551987Y-14038138D01*
X1566273Y-14009567D01*
X1580558Y-13995281D01*
X1609130Y-13980995D01*
X1837701Y-14252424D02*
X1851987Y-14266709D01*
X1837701Y-14280995D01*
X1823415Y-14266709D01*
X1837701Y-14252424D01*
X1837701Y-14280995D01*
X2109130Y-14080995D02*
X2109130Y-14280995D01*
X2037701Y-13966709D02*
X1966273Y-14180995D01*
X2151987Y-14180995D01*
X2323416Y-13980995D02*
X2351987Y-13980995D01*
X2380558Y-13995281D01*
X2394844Y-14009567D01*
X2409130Y-14038138D01*
X2423416Y-14095281D01*
X2423416Y-14166709D01*
X2409130Y-14223852D01*
X2394844Y-14252424D01*
X2380558Y-14266709D01*
X2351987Y-14280995D01*
X2323416Y-14280995D01*
X2294844Y-14266709D01*
X2280558Y-14252424D01*
X2266273Y-14223852D01*
X2251987Y-14166709D01*
X2251987Y-14095281D01*
X2266273Y-14038138D01*
X2280558Y-14009567D01*
X2294844Y-13995281D01*
X2323416Y-13980995D01*
X2551987Y-14280995D02*
X2551987Y-14080995D01*
X2551987Y-14109567D02*
X2566273Y-14095281D01*
X2594844Y-14080995D01*
X2637701Y-14080995D01*
X2666273Y-14095281D01*
X2680558Y-14123852D01*
X2680558Y-14280995D01*
X2680558Y-14123852D02*
X2694844Y-14095281D01*
X2723416Y-14080995D01*
X2766273Y-14080995D01*
X2794844Y-14095281D01*
X2809130Y-14123852D01*
X2809130Y-14280995D01*
X2951987Y-14280995D02*
X2951987Y-14080995D01*
X2951987Y-14109567D02*
X2966273Y-14095281D01*
X2994844Y-14080995D01*
X3037701Y-14080995D01*
X3066273Y-14095281D01*
X3080558Y-14123852D01*
X3080558Y-14280995D01*
X3080558Y-14123852D02*
X3094844Y-14095281D01*
X3123415Y-14080995D01*
X3166273Y-14080995D01*
X3194844Y-14095281D01*
X3209130Y-14123852D01*
X3209130Y-14280995D01*
X3794844Y-13966709D02*
X3537701Y-14352424D01*
X4180558Y-13980995D02*
X4209130Y-13980995D01*
X4237701Y-13995281D01*
X4251987Y-14009567D01*
X4266273Y-14038138D01*
X4280558Y-14095281D01*
X4280558Y-14166709D01*
X4266273Y-14223852D01*
X4251987Y-14252424D01*
X4237701Y-14266709D01*
X4209130Y-14280995D01*
X4180558Y-14280995D01*
X4151987Y-14266709D01*
X4137701Y-14252424D01*
X4123415Y-14223852D01*
X4109130Y-14166709D01*
X4109130Y-14095281D01*
X4123415Y-14038138D01*
X4137701Y-14009567D01*
X4151987Y-13995281D01*
X4180558Y-13980995D01*
X4409130Y-14252424D02*
X4423416Y-14266709D01*
X4409130Y-14280995D01*
X4394844Y-14266709D01*
X4409130Y-14252424D01*
X4409130Y-14280995D01*
X4609130Y-13980995D02*
X4637701Y-13980995D01*
X4666273Y-13995281D01*
X4680558Y-14009567D01*
X4694844Y-14038138D01*
X4709130Y-14095281D01*
X4709130Y-14166709D01*
X4694844Y-14223852D01*
X4680558Y-14252424D01*
X4666273Y-14266709D01*
X4637701Y-14280995D01*
X4609130Y-14280995D01*
X4580558Y-14266709D01*
X4566273Y-14252424D01*
X4551987Y-14223852D01*
X4537701Y-14166709D01*
X4537701Y-14095281D01*
X4551987Y-14038138D01*
X4566273Y-14009567D01*
X4580558Y-13995281D01*
X4609130Y-13980995D01*
X4994844Y-14280995D02*
X4823416Y-14280995D01*
X4909130Y-14280995D02*
X4909130Y-13980995D01*
X4880558Y-14023852D01*
X4851987Y-14052424D01*
X4823416Y-14066709D01*
X5251987Y-13980995D02*
X5194844Y-13980995D01*
X5166273Y-13995281D01*
X5151987Y-14009567D01*
X5123416Y-14052424D01*
X5109130Y-14109567D01*
X5109130Y-14223852D01*
X5123416Y-14252424D01*
X5137701Y-14266709D01*
X5166273Y-14280995D01*
X5223416Y-14280995D01*
X5251987Y-14266709D01*
X5266273Y-14252424D01*
X5280558Y-14223852D01*
X5280558Y-14152424D01*
X5266273Y-14123852D01*
X5251987Y-14109567D01*
X5223416Y-14095281D01*
X5166273Y-14095281D01*
X5137701Y-14109567D01*
X5123416Y-14123852D01*
X5109130Y-14152424D01*
X5394844Y-13980995D02*
X5394844Y-14038138D01*
X5509130Y-13980995D02*
X5509130Y-14038138D01*
X5951987Y-14395281D02*
X5937701Y-14380995D01*
X5909130Y-14338138D01*
X5894844Y-14309567D01*
X5880558Y-14266709D01*
X5866273Y-14195281D01*
X5866273Y-14138138D01*
X5880558Y-14066709D01*
X5894844Y-14023852D01*
X5909130Y-13995281D01*
X5937701Y-13952424D01*
X5951987Y-13938138D01*
X6223415Y-14280995D02*
X6051987Y-14280995D01*
X6137701Y-14280995D02*
X6137701Y-13980995D01*
X6109130Y-14023852D01*
X6080558Y-14052424D01*
X6051987Y-14066709D01*
X6494844Y-13980995D02*
X6351987Y-13980995D01*
X6337701Y-14123852D01*
X6351987Y-14109567D01*
X6380558Y-14095281D01*
X6451987Y-14095281D01*
X6480558Y-14109567D01*
X6494844Y-14123852D01*
X6509130Y-14152424D01*
X6509130Y-14223852D01*
X6494844Y-14252424D01*
X6480558Y-14266709D01*
X6451987Y-14280995D01*
X6380558Y-14280995D01*
X6351987Y-14266709D01*
X6337701Y-14252424D01*
X6866273Y-14280995D02*
X6866273Y-13980995D01*
X6994844Y-14280995D02*
X6994844Y-14123852D01*
X6980558Y-14095281D01*
X6951987Y-14080995D01*
X6909130Y-14080995D01*
X6880558Y-14095281D01*
X6866273Y-14109567D01*
X7180558Y-14280995D02*
X7151987Y-14266709D01*
X7137701Y-14252424D01*
X7123415Y-14223852D01*
X7123415Y-14138138D01*
X7137701Y-14109567D01*
X7151987Y-14095281D01*
X7180558Y-14080995D01*
X7223415Y-14080995D01*
X7251987Y-14095281D01*
X7266273Y-14109567D01*
X7280558Y-14138138D01*
X7280558Y-14223852D01*
X7266273Y-14252424D01*
X7251987Y-14266709D01*
X7223415Y-14280995D01*
X7180558Y-14280995D01*
X7451987Y-14280995D02*
X7423415Y-14266709D01*
X7409130Y-14238138D01*
X7409130Y-13980995D01*
X7680558Y-14266709D02*
X7651987Y-14280995D01*
X7594844Y-14280995D01*
X7566273Y-14266709D01*
X7551987Y-14238138D01*
X7551987Y-14123852D01*
X7566273Y-14095281D01*
X7594844Y-14080995D01*
X7651987Y-14080995D01*
X7680558Y-14095281D01*
X7694844Y-14123852D01*
X7694844Y-14152424D01*
X7551987Y-14180995D01*
X7809130Y-14266709D02*
X7837701Y-14280995D01*
X7894844Y-14280995D01*
X7923415Y-14266709D01*
X7937701Y-14238138D01*
X7937701Y-14223852D01*
X7923415Y-14195281D01*
X7894844Y-14180995D01*
X7851987Y-14180995D01*
X7823415Y-14166709D01*
X7809130Y-14138138D01*
X7809130Y-14123852D01*
X7823415Y-14095281D01*
X7851987Y-14080995D01*
X7894844Y-14080995D01*
X7923415Y-14095281D01*
X8294844Y-14166709D02*
X8523416Y-14166709D01*
X8409130Y-14280995D02*
X8409130Y-14052424D01*
X9023416Y-14080995D02*
X9023416Y-14280995D01*
X8951987Y-13966709D02*
X8880558Y-14180995D01*
X9066273Y-14180995D01*
X9166273Y-14009567D02*
X9180558Y-13995281D01*
X9209130Y-13980995D01*
X9280558Y-13980995D01*
X9309130Y-13995281D01*
X9323416Y-14009567D01*
X9337701Y-14038138D01*
X9337701Y-14066709D01*
X9323416Y-14109567D01*
X9151987Y-14280995D01*
X9337701Y-14280995D01*
X9680558Y-14266709D02*
X9709130Y-14280995D01*
X9766273Y-14280995D01*
X9794844Y-14266709D01*
X9809130Y-14238138D01*
X9809130Y-14223852D01*
X9794844Y-14195281D01*
X9766273Y-14180995D01*
X9723416Y-14180995D01*
X9694844Y-14166709D01*
X9680558Y-14138138D01*
X9680558Y-14123852D01*
X9694844Y-14095281D01*
X9723416Y-14080995D01*
X9766273Y-14080995D01*
X9794844Y-14095281D01*
X9980558Y-14280995D02*
X9951987Y-14266709D01*
X9937701Y-14238138D01*
X9937701Y-13980995D01*
X10137701Y-14280995D02*
X10109130Y-14266709D01*
X10094844Y-14252424D01*
X10080558Y-14223852D01*
X10080558Y-14138138D01*
X10094844Y-14109567D01*
X10109130Y-14095281D01*
X10137701Y-14080995D01*
X10180558Y-14080995D01*
X10209130Y-14095281D01*
X10223416Y-14109567D01*
X10237701Y-14138138D01*
X10237701Y-14223852D01*
X10223416Y-14252424D01*
X10209130Y-14266709D01*
X10180558Y-14280995D01*
X10137701Y-14280995D01*
X10323416Y-14080995D02*
X10437701Y-14080995D01*
X10366273Y-13980995D02*
X10366273Y-14238138D01*
X10380558Y-14266709D01*
X10409130Y-14280995D01*
X10437701Y-14280995D01*
X10523416Y-14266709D02*
X10551987Y-14280995D01*
X10609130Y-14280995D01*
X10637701Y-14266709D01*
X10651987Y-14238138D01*
X10651987Y-14223852D01*
X10637701Y-14195281D01*
X10609130Y-14180995D01*
X10566273Y-14180995D01*
X10537701Y-14166709D01*
X10523416Y-14138138D01*
X10523416Y-14123852D01*
X10537701Y-14095281D01*
X10566273Y-14080995D01*
X10609130Y-14080995D01*
X10637701Y-14095281D01*
X10751987Y-14395281D02*
X10766273Y-14380995D01*
X10794844Y-14338138D01*
X10809130Y-14309567D01*
X10823416Y-14266709D01*
X10837701Y-14195281D01*
X10837701Y-14138138D01*
X10823416Y-14066709D01*
X10809130Y-14023852D01*
X10794844Y-13995281D01*
X10766273Y-13952424D01*
X10751987Y-13938138D01*
X1224918Y-14500641D02*
X1224918Y-14581921D01*
X1184278Y-14541281D02*
X1265558Y-14541281D01*
X1609130Y-14376995D02*
X1637701Y-14376995D01*
X1666273Y-14391281D01*
X1680558Y-14405567D01*
X1694844Y-14434138D01*
X1709130Y-14491281D01*
X1709130Y-14562709D01*
X1694844Y-14619852D01*
X1680558Y-14648424D01*
X1666273Y-14662709D01*
X1637701Y-14676995D01*
X1609130Y-14676995D01*
X1580558Y-14662709D01*
X1566273Y-14648424D01*
X1551987Y-14619852D01*
X1537701Y-14562709D01*
X1537701Y-14491281D01*
X1551987Y-14434138D01*
X1566273Y-14405567D01*
X1580558Y-14391281D01*
X1609130Y-14376995D01*
X1837701Y-14648424D02*
X1851987Y-14662709D01*
X1837701Y-14676995D01*
X1823415Y-14662709D01*
X1837701Y-14648424D01*
X1837701Y-14676995D01*
X2023415Y-14505567D02*
X1994844Y-14491281D01*
X1980558Y-14476995D01*
X1966273Y-14448424D01*
X1966273Y-14434138D01*
X1980558Y-14405567D01*
X1994844Y-14391281D01*
X2023415Y-14376995D01*
X2080558Y-14376995D01*
X2109130Y-14391281D01*
X2123416Y-14405567D01*
X2137701Y-14434138D01*
X2137701Y-14448424D01*
X2123416Y-14476995D01*
X2109130Y-14491281D01*
X2080558Y-14505567D01*
X2023415Y-14505567D01*
X1994844Y-14519852D01*
X1980558Y-14534138D01*
X1966273Y-14562709D01*
X1966273Y-14619852D01*
X1980558Y-14648424D01*
X1994844Y-14662709D01*
X2023415Y-14676995D01*
X2080558Y-14676995D01*
X2109130Y-14662709D01*
X2123416Y-14648424D01*
X2137701Y-14619852D01*
X2137701Y-14562709D01*
X2123416Y-14534138D01*
X2109130Y-14519852D01*
X2080558Y-14505567D01*
X2423416Y-14676995D02*
X2251987Y-14676995D01*
X2337701Y-14676995D02*
X2337701Y-14376995D01*
X2309130Y-14419852D01*
X2280558Y-14448424D01*
X2251987Y-14462709D01*
X2551987Y-14676995D02*
X2551987Y-14476995D01*
X2551987Y-14505567D02*
X2566273Y-14491281D01*
X2594844Y-14476995D01*
X2637701Y-14476995D01*
X2666273Y-14491281D01*
X2680558Y-14519852D01*
X2680558Y-14676995D01*
X2680558Y-14519852D02*
X2694844Y-14491281D01*
X2723416Y-14476995D01*
X2766273Y-14476995D01*
X2794844Y-14491281D01*
X2809130Y-14519852D01*
X2809130Y-14676995D01*
X2951987Y-14676995D02*
X2951987Y-14476995D01*
X2951987Y-14505567D02*
X2966273Y-14491281D01*
X2994844Y-14476995D01*
X3037701Y-14476995D01*
X3066273Y-14491281D01*
X3080558Y-14519852D01*
X3080558Y-14676995D01*
X3080558Y-14519852D02*
X3094844Y-14491281D01*
X3123415Y-14476995D01*
X3166273Y-14476995D01*
X3194844Y-14491281D01*
X3209130Y-14519852D01*
X3209130Y-14676995D01*
X3794844Y-14362709D02*
X3537701Y-14748424D01*
X4180558Y-14376995D02*
X4209130Y-14376995D01*
X4237701Y-14391281D01*
X4251987Y-14405567D01*
X4266273Y-14434138D01*
X4280558Y-14491281D01*
X4280558Y-14562709D01*
X4266273Y-14619852D01*
X4251987Y-14648424D01*
X4237701Y-14662709D01*
X4209130Y-14676995D01*
X4180558Y-14676995D01*
X4151987Y-14662709D01*
X4137701Y-14648424D01*
X4123415Y-14619852D01*
X4109130Y-14562709D01*
X4109130Y-14491281D01*
X4123415Y-14434138D01*
X4137701Y-14405567D01*
X4151987Y-14391281D01*
X4180558Y-14376995D01*
X4409130Y-14648424D02*
X4423416Y-14662709D01*
X4409130Y-14676995D01*
X4394844Y-14662709D01*
X4409130Y-14648424D01*
X4409130Y-14676995D01*
X4609130Y-14376995D02*
X4637701Y-14376995D01*
X4666273Y-14391281D01*
X4680558Y-14405567D01*
X4694844Y-14434138D01*
X4709130Y-14491281D01*
X4709130Y-14562709D01*
X4694844Y-14619852D01*
X4680558Y-14648424D01*
X4666273Y-14662709D01*
X4637701Y-14676995D01*
X4609130Y-14676995D01*
X4580558Y-14662709D01*
X4566273Y-14648424D01*
X4551987Y-14619852D01*
X4537701Y-14562709D01*
X4537701Y-14491281D01*
X4551987Y-14434138D01*
X4566273Y-14405567D01*
X4580558Y-14391281D01*
X4609130Y-14376995D01*
X4809130Y-14376995D02*
X4994844Y-14376995D01*
X4894844Y-14491281D01*
X4937701Y-14491281D01*
X4966273Y-14505567D01*
X4980558Y-14519852D01*
X4994844Y-14548424D01*
X4994844Y-14619852D01*
X4980558Y-14648424D01*
X4966273Y-14662709D01*
X4937701Y-14676995D01*
X4851987Y-14676995D01*
X4823416Y-14662709D01*
X4809130Y-14648424D01*
X5109130Y-14405567D02*
X5123416Y-14391281D01*
X5151987Y-14376995D01*
X5223416Y-14376995D01*
X5251987Y-14391281D01*
X5266273Y-14405567D01*
X5280558Y-14434138D01*
X5280558Y-14462709D01*
X5266273Y-14505567D01*
X5094844Y-14676995D01*
X5280558Y-14676995D01*
X5394844Y-14376995D02*
X5394844Y-14434138D01*
X5509130Y-14376995D02*
X5509130Y-14434138D01*
X5951987Y-14791281D02*
X5937701Y-14776995D01*
X5909130Y-14734138D01*
X5894844Y-14705567D01*
X5880558Y-14662709D01*
X5866273Y-14591281D01*
X5866273Y-14534138D01*
X5880558Y-14462709D01*
X5894844Y-14419852D01*
X5909130Y-14391281D01*
X5937701Y-14348424D01*
X5951987Y-14334138D01*
X6223415Y-14676995D02*
X6051987Y-14676995D01*
X6137701Y-14676995D02*
X6137701Y-14376995D01*
X6109130Y-14419852D01*
X6080558Y-14448424D01*
X6051987Y-14462709D01*
X6480558Y-14476995D02*
X6480558Y-14676995D01*
X6409130Y-14362709D02*
X6337701Y-14576995D01*
X6523415Y-14576995D01*
X6694844Y-14376995D02*
X6723415Y-14376995D01*
X6751987Y-14391281D01*
X6766273Y-14405567D01*
X6780558Y-14434138D01*
X6794844Y-14491281D01*
X6794844Y-14562709D01*
X6780558Y-14619852D01*
X6766273Y-14648424D01*
X6751987Y-14662709D01*
X6723415Y-14676995D01*
X6694844Y-14676995D01*
X6666273Y-14662709D01*
X6651987Y-14648424D01*
X6637701Y-14619852D01*
X6623415Y-14562709D01*
X6623415Y-14491281D01*
X6637701Y-14434138D01*
X6651987Y-14405567D01*
X6666273Y-14391281D01*
X6694844Y-14376995D01*
X7151987Y-14676995D02*
X7151987Y-14376995D01*
X7280558Y-14676995D02*
X7280558Y-14519852D01*
X7266273Y-14491281D01*
X7237701Y-14476995D01*
X7194844Y-14476995D01*
X7166273Y-14491281D01*
X7151987Y-14505567D01*
X7466273Y-14676995D02*
X7437701Y-14662709D01*
X7423415Y-14648424D01*
X7409130Y-14619852D01*
X7409130Y-14534138D01*
X7423415Y-14505567D01*
X7437701Y-14491281D01*
X7466273Y-14476995D01*
X7509130Y-14476995D01*
X7537701Y-14491281D01*
X7551987Y-14505567D01*
X7566273Y-14534138D01*
X7566273Y-14619852D01*
X7551987Y-14648424D01*
X7537701Y-14662709D01*
X7509130Y-14676995D01*
X7466273Y-14676995D01*
X7737701Y-14676995D02*
X7709130Y-14662709D01*
X7694844Y-14634138D01*
X7694844Y-14376995D01*
X7966273Y-14662709D02*
X7937701Y-14676995D01*
X7880558Y-14676995D01*
X7851987Y-14662709D01*
X7837701Y-14634138D01*
X7837701Y-14519852D01*
X7851987Y-14491281D01*
X7880558Y-14476995D01*
X7937701Y-14476995D01*
X7966273Y-14491281D01*
X7980558Y-14519852D01*
X7980558Y-14548424D01*
X7837701Y-14576995D01*
X8094844Y-14662709D02*
X8123415Y-14676995D01*
X8180558Y-14676995D01*
X8209130Y-14662709D01*
X8223415Y-14634138D01*
X8223415Y-14619852D01*
X8209130Y-14591281D01*
X8180558Y-14576995D01*
X8137701Y-14576995D01*
X8109130Y-14562709D01*
X8094844Y-14534138D01*
X8094844Y-14519852D01*
X8109130Y-14491281D01*
X8137701Y-14476995D01*
X8180558Y-14476995D01*
X8209130Y-14491281D01*
X8323415Y-14791281D02*
X8337701Y-14776995D01*
X8366273Y-14734138D01*
X8380558Y-14705567D01*
X8394844Y-14662709D01*
X8409130Y-14591281D01*
X8409130Y-14534138D01*
X8394844Y-14462709D01*
X8380558Y-14419852D01*
X8366273Y-14391281D01*
X8337701Y-14348424D01*
X8323415Y-14334138D01*
X1250914Y-14972637D02*
X1250914Y-14901925D01*
X1180203Y-14901925D01*
X1180203Y-14972637D01*
X1250914Y-14972637D01*
X1709130Y-15072995D02*
X1537701Y-15072995D01*
X1623415Y-15072995D02*
X1623415Y-14772995D01*
X1594844Y-14815852D01*
X1566273Y-14844424D01*
X1537701Y-14858709D01*
X1837701Y-15044424D02*
X1851987Y-15058709D01*
X1837701Y-15072995D01*
X1823415Y-15058709D01*
X1837701Y-15044424D01*
X1837701Y-15072995D01*
X2037701Y-14772995D02*
X2066273Y-14772995D01*
X2094844Y-14787281D01*
X2109130Y-14801567D01*
X2123416Y-14830138D01*
X2137701Y-14887281D01*
X2137701Y-14958709D01*
X2123416Y-15015852D01*
X2109130Y-15044424D01*
X2094844Y-15058709D01*
X2066273Y-15072995D01*
X2037701Y-15072995D01*
X2009130Y-15058709D01*
X1994844Y-15044424D01*
X1980558Y-15015852D01*
X1966273Y-14958709D01*
X1966273Y-14887281D01*
X1980558Y-14830138D01*
X1994844Y-14801567D01*
X2009130Y-14787281D01*
X2037701Y-14772995D01*
X2323416Y-14772995D02*
X2351987Y-14772995D01*
X2380558Y-14787281D01*
X2394844Y-14801567D01*
X2409130Y-14830138D01*
X2423416Y-14887281D01*
X2423416Y-14958709D01*
X2409130Y-15015852D01*
X2394844Y-15044424D01*
X2380558Y-15058709D01*
X2351987Y-15072995D01*
X2323416Y-15072995D01*
X2294844Y-15058709D01*
X2280558Y-15044424D01*
X2266273Y-15015852D01*
X2251987Y-14958709D01*
X2251987Y-14887281D01*
X2266273Y-14830138D01*
X2280558Y-14801567D01*
X2294844Y-14787281D01*
X2323416Y-14772995D01*
X2551987Y-15072995D02*
X2551987Y-14872995D01*
X2551987Y-14901567D02*
X2566273Y-14887281D01*
X2594844Y-14872995D01*
X2637701Y-14872995D01*
X2666273Y-14887281D01*
X2680558Y-14915852D01*
X2680558Y-15072995D01*
X2680558Y-14915852D02*
X2694844Y-14887281D01*
X2723416Y-14872995D01*
X2766273Y-14872995D01*
X2794844Y-14887281D01*
X2809130Y-14915852D01*
X2809130Y-15072995D01*
X2951987Y-15072995D02*
X2951987Y-14872995D01*
X2951987Y-14901567D02*
X2966273Y-14887281D01*
X2994844Y-14872995D01*
X3037701Y-14872995D01*
X3066273Y-14887281D01*
X3080558Y-14915852D01*
X3080558Y-15072995D01*
X3080558Y-14915852D02*
X3094844Y-14887281D01*
X3123415Y-14872995D01*
X3166273Y-14872995D01*
X3194844Y-14887281D01*
X3209130Y-14915852D01*
X3209130Y-15072995D01*
X3794844Y-14758709D02*
X3537701Y-15144424D01*
X4180558Y-14772995D02*
X4209130Y-14772995D01*
X4237701Y-14787281D01*
X4251987Y-14801567D01*
X4266273Y-14830138D01*
X4280558Y-14887281D01*
X4280558Y-14958709D01*
X4266273Y-15015852D01*
X4251987Y-15044424D01*
X4237701Y-15058709D01*
X4209130Y-15072995D01*
X4180558Y-15072995D01*
X4151987Y-15058709D01*
X4137701Y-15044424D01*
X4123415Y-15015852D01*
X4109130Y-14958709D01*
X4109130Y-14887281D01*
X4123415Y-14830138D01*
X4137701Y-14801567D01*
X4151987Y-14787281D01*
X4180558Y-14772995D01*
X4409130Y-15044424D02*
X4423416Y-15058709D01*
X4409130Y-15072995D01*
X4394844Y-15058709D01*
X4409130Y-15044424D01*
X4409130Y-15072995D01*
X4609130Y-14772995D02*
X4637701Y-14772995D01*
X4666273Y-14787281D01*
X4680558Y-14801567D01*
X4694844Y-14830138D01*
X4709130Y-14887281D01*
X4709130Y-14958709D01*
X4694844Y-15015852D01*
X4680558Y-15044424D01*
X4666273Y-15058709D01*
X4637701Y-15072995D01*
X4609130Y-15072995D01*
X4580558Y-15058709D01*
X4566273Y-15044424D01*
X4551987Y-15015852D01*
X4537701Y-14958709D01*
X4537701Y-14887281D01*
X4551987Y-14830138D01*
X4566273Y-14801567D01*
X4580558Y-14787281D01*
X4609130Y-14772995D01*
X4809130Y-14772995D02*
X4994844Y-14772995D01*
X4894844Y-14887281D01*
X4937701Y-14887281D01*
X4966273Y-14901567D01*
X4980558Y-14915852D01*
X4994844Y-14944424D01*
X4994844Y-15015852D01*
X4980558Y-15044424D01*
X4966273Y-15058709D01*
X4937701Y-15072995D01*
X4851987Y-15072995D01*
X4823416Y-15058709D01*
X4809130Y-15044424D01*
X5137701Y-15072995D02*
X5194844Y-15072995D01*
X5223416Y-15058709D01*
X5237701Y-15044424D01*
X5266273Y-15001567D01*
X5280558Y-14944424D01*
X5280558Y-14830138D01*
X5266273Y-14801567D01*
X5251987Y-14787281D01*
X5223416Y-14772995D01*
X5166273Y-14772995D01*
X5137701Y-14787281D01*
X5123416Y-14801567D01*
X5109130Y-14830138D01*
X5109130Y-14901567D01*
X5123416Y-14930138D01*
X5137701Y-14944424D01*
X5166273Y-14958709D01*
X5223416Y-14958709D01*
X5251987Y-14944424D01*
X5266273Y-14930138D01*
X5280558Y-14901567D01*
X5394844Y-14772995D02*
X5394844Y-14830138D01*
X5509130Y-14772995D02*
X5509130Y-14830138D01*
X5951987Y-15187281D02*
X5937701Y-15172995D01*
X5909130Y-15130138D01*
X5894844Y-15101567D01*
X5880558Y-15058709D01*
X5866273Y-14987281D01*
X5866273Y-14930138D01*
X5880558Y-14858709D01*
X5894844Y-14815852D01*
X5909130Y-14787281D01*
X5937701Y-14744424D01*
X5951987Y-14730138D01*
X6123415Y-14772995D02*
X6151987Y-14772995D01*
X6180558Y-14787281D01*
X6194844Y-14801567D01*
X6209130Y-14830138D01*
X6223415Y-14887281D01*
X6223415Y-14958709D01*
X6209130Y-15015852D01*
X6194844Y-15044424D01*
X6180558Y-15058709D01*
X6151987Y-15072995D01*
X6123415Y-15072995D01*
X6094844Y-15058709D01*
X6080558Y-15044424D01*
X6066273Y-15015852D01*
X6051987Y-14958709D01*
X6051987Y-14887281D01*
X6066273Y-14830138D01*
X6080558Y-14801567D01*
X6094844Y-14787281D01*
X6123415Y-14772995D01*
X6580558Y-15072995D02*
X6580558Y-14772995D01*
X6709130Y-15072995D02*
X6709130Y-14915852D01*
X6694844Y-14887281D01*
X6666273Y-14872995D01*
X6623415Y-14872995D01*
X6594844Y-14887281D01*
X6580558Y-14901567D01*
X6894844Y-15072995D02*
X6866273Y-15058709D01*
X6851987Y-15044424D01*
X6837701Y-15015852D01*
X6837701Y-14930138D01*
X6851987Y-14901567D01*
X6866273Y-14887281D01*
X6894844Y-14872995D01*
X6937701Y-14872995D01*
X6966273Y-14887281D01*
X6980558Y-14901567D01*
X6994844Y-14930138D01*
X6994844Y-15015852D01*
X6980558Y-15044424D01*
X6966273Y-15058709D01*
X6937701Y-15072995D01*
X6894844Y-15072995D01*
X7166273Y-15072995D02*
X7137701Y-15058709D01*
X7123415Y-15030138D01*
X7123415Y-14772995D01*
X7394844Y-15058709D02*
X7366273Y-15072995D01*
X7309130Y-15072995D01*
X7280558Y-15058709D01*
X7266273Y-15030138D01*
X7266273Y-14915852D01*
X7280558Y-14887281D01*
X7309130Y-14872995D01*
X7366273Y-14872995D01*
X7394844Y-14887281D01*
X7409130Y-14915852D01*
X7409130Y-14944424D01*
X7266273Y-14972995D01*
X7523415Y-15058709D02*
X7551987Y-15072995D01*
X7609130Y-15072995D01*
X7637701Y-15058709D01*
X7651987Y-15030138D01*
X7651987Y-15015852D01*
X7637701Y-14987281D01*
X7609130Y-14972995D01*
X7566273Y-14972995D01*
X7537701Y-14958709D01*
X7523415Y-14930138D01*
X7523415Y-14915852D01*
X7537701Y-14887281D01*
X7566273Y-14872995D01*
X7609130Y-14872995D01*
X7637701Y-14887281D01*
X8009130Y-14958709D02*
X8237701Y-14958709D01*
X8123415Y-15072995D02*
X8123415Y-14844424D01*
X8651987Y-14901567D02*
X8623416Y-14887281D01*
X8609130Y-14872995D01*
X8594844Y-14844424D01*
X8594844Y-14830138D01*
X8609130Y-14801567D01*
X8623416Y-14787281D01*
X8651987Y-14772995D01*
X8709130Y-14772995D01*
X8737701Y-14787281D01*
X8751987Y-14801567D01*
X8766273Y-14830138D01*
X8766273Y-14844424D01*
X8751987Y-14872995D01*
X8737701Y-14887281D01*
X8709130Y-14901567D01*
X8651987Y-14901567D01*
X8623416Y-14915852D01*
X8609130Y-14930138D01*
X8594844Y-14958709D01*
X8594844Y-15015852D01*
X8609130Y-15044424D01*
X8623416Y-15058709D01*
X8651987Y-15072995D01*
X8709130Y-15072995D01*
X8737701Y-15058709D01*
X8751987Y-15044424D01*
X8766273Y-15015852D01*
X8766273Y-14958709D01*
X8751987Y-14930138D01*
X8737701Y-14915852D01*
X8709130Y-14901567D01*
X9109130Y-15058709D02*
X9137701Y-15072995D01*
X9194844Y-15072995D01*
X9223416Y-15058709D01*
X9237701Y-15030138D01*
X9237701Y-15015852D01*
X9223416Y-14987281D01*
X9194844Y-14972995D01*
X9151987Y-14972995D01*
X9123416Y-14958709D01*
X9109130Y-14930138D01*
X9109130Y-14915852D01*
X9123416Y-14887281D01*
X9151987Y-14872995D01*
X9194844Y-14872995D01*
X9223416Y-14887281D01*
X9409130Y-15072995D02*
X9380558Y-15058709D01*
X9366273Y-15030138D01*
X9366273Y-14772995D01*
X9566273Y-15072995D02*
X9537701Y-15058709D01*
X9523416Y-15044424D01*
X9509130Y-15015852D01*
X9509130Y-14930138D01*
X9523416Y-14901567D01*
X9537701Y-14887281D01*
X9566273Y-14872995D01*
X9609130Y-14872995D01*
X9637701Y-14887281D01*
X9651987Y-14901567D01*
X9666273Y-14930138D01*
X9666273Y-15015852D01*
X9651987Y-15044424D01*
X9637701Y-15058709D01*
X9609130Y-15072995D01*
X9566273Y-15072995D01*
X9751987Y-14872995D02*
X9866273Y-14872995D01*
X9794844Y-14772995D02*
X9794844Y-15030138D01*
X9809130Y-15058709D01*
X9837701Y-15072995D01*
X9866273Y-15072995D01*
X9951987Y-15058709D02*
X9980558Y-15072995D01*
X10037701Y-15072995D01*
X10066273Y-15058709D01*
X10080558Y-15030138D01*
X10080558Y-15015852D01*
X10066273Y-14987281D01*
X10037701Y-14972995D01*
X9994844Y-14972995D01*
X9966273Y-14958709D01*
X9951987Y-14930138D01*
X9951987Y-14915852D01*
X9966273Y-14887281D01*
X9994844Y-14872995D01*
X10037701Y-14872995D01*
X10066273Y-14887281D01*
X10180558Y-15187281D02*
X10194844Y-15172995D01*
X10223416Y-15130138D01*
X10237701Y-15101567D01*
X10251987Y-15058709D01*
X10266273Y-14987281D01*
X10266273Y-14930138D01*
X10251987Y-14858709D01*
X10237701Y-14815852D01*
X10223416Y-14787281D01*
X10194844Y-14744424D01*
X10180558Y-14730138D01*
X1200558Y-15398281D02*
X1265558Y-15333281D01*
X1200558Y-15268281D01*
X1135558Y-15333281D01*
X1200558Y-15398281D01*
X1709130Y-15468995D02*
X1537701Y-15468995D01*
X1623415Y-15468995D02*
X1623415Y-15168995D01*
X1594844Y-15211852D01*
X1566273Y-15240424D01*
X1537701Y-15254709D01*
X1837701Y-15440424D02*
X1851987Y-15454709D01*
X1837701Y-15468995D01*
X1823415Y-15454709D01*
X1837701Y-15440424D01*
X1837701Y-15468995D01*
X1951987Y-15168995D02*
X2137701Y-15168995D01*
X2037701Y-15283281D01*
X2080558Y-15283281D01*
X2109130Y-15297567D01*
X2123416Y-15311852D01*
X2137701Y-15340424D01*
X2137701Y-15411852D01*
X2123416Y-15440424D01*
X2109130Y-15454709D01*
X2080558Y-15468995D01*
X1994844Y-15468995D01*
X1966273Y-15454709D01*
X1951987Y-15440424D01*
X2323416Y-15168995D02*
X2351987Y-15168995D01*
X2380558Y-15183281D01*
X2394844Y-15197567D01*
X2409130Y-15226138D01*
X2423416Y-15283281D01*
X2423416Y-15354709D01*
X2409130Y-15411852D01*
X2394844Y-15440424D01*
X2380558Y-15454709D01*
X2351987Y-15468995D01*
X2323416Y-15468995D01*
X2294844Y-15454709D01*
X2280558Y-15440424D01*
X2266273Y-15411852D01*
X2251987Y-15354709D01*
X2251987Y-15283281D01*
X2266273Y-15226138D01*
X2280558Y-15197567D01*
X2294844Y-15183281D01*
X2323416Y-15168995D01*
X2551987Y-15468995D02*
X2551987Y-15268995D01*
X2551987Y-15297567D02*
X2566273Y-15283281D01*
X2594844Y-15268995D01*
X2637701Y-15268995D01*
X2666273Y-15283281D01*
X2680558Y-15311852D01*
X2680558Y-15468995D01*
X2680558Y-15311852D02*
X2694844Y-15283281D01*
X2723416Y-15268995D01*
X2766273Y-15268995D01*
X2794844Y-15283281D01*
X2809130Y-15311852D01*
X2809130Y-15468995D01*
X2951987Y-15468995D02*
X2951987Y-15268995D01*
X2951987Y-15297567D02*
X2966273Y-15283281D01*
X2994844Y-15268995D01*
X3037701Y-15268995D01*
X3066273Y-15283281D01*
X3080558Y-15311852D01*
X3080558Y-15468995D01*
X3080558Y-15311852D02*
X3094844Y-15283281D01*
X3123415Y-15268995D01*
X3166273Y-15268995D01*
X3194844Y-15283281D01*
X3209130Y-15311852D01*
X3209130Y-15468995D01*
X3794844Y-15154709D02*
X3537701Y-15540424D01*
X4180558Y-15168995D02*
X4209130Y-15168995D01*
X4237701Y-15183281D01*
X4251987Y-15197567D01*
X4266273Y-15226138D01*
X4280558Y-15283281D01*
X4280558Y-15354709D01*
X4266273Y-15411852D01*
X4251987Y-15440424D01*
X4237701Y-15454709D01*
X4209130Y-15468995D01*
X4180558Y-15468995D01*
X4151987Y-15454709D01*
X4137701Y-15440424D01*
X4123415Y-15411852D01*
X4109130Y-15354709D01*
X4109130Y-15283281D01*
X4123415Y-15226138D01*
X4137701Y-15197567D01*
X4151987Y-15183281D01*
X4180558Y-15168995D01*
X4409130Y-15440424D02*
X4423416Y-15454709D01*
X4409130Y-15468995D01*
X4394844Y-15454709D01*
X4409130Y-15440424D01*
X4409130Y-15468995D01*
X4609130Y-15168995D02*
X4637701Y-15168995D01*
X4666273Y-15183281D01*
X4680558Y-15197567D01*
X4694844Y-15226138D01*
X4709130Y-15283281D01*
X4709130Y-15354709D01*
X4694844Y-15411852D01*
X4680558Y-15440424D01*
X4666273Y-15454709D01*
X4637701Y-15468995D01*
X4609130Y-15468995D01*
X4580558Y-15454709D01*
X4566273Y-15440424D01*
X4551987Y-15411852D01*
X4537701Y-15354709D01*
X4537701Y-15283281D01*
X4551987Y-15226138D01*
X4566273Y-15197567D01*
X4580558Y-15183281D01*
X4609130Y-15168995D01*
X4980558Y-15168995D02*
X4837701Y-15168995D01*
X4823416Y-15311852D01*
X4837701Y-15297567D01*
X4866273Y-15283281D01*
X4937701Y-15283281D01*
X4966273Y-15297567D01*
X4980558Y-15311852D01*
X4994844Y-15340424D01*
X4994844Y-15411852D01*
X4980558Y-15440424D01*
X4966273Y-15454709D01*
X4937701Y-15468995D01*
X4866273Y-15468995D01*
X4837701Y-15454709D01*
X4823416Y-15440424D01*
X5280558Y-15468995D02*
X5109130Y-15468995D01*
X5194844Y-15468995D02*
X5194844Y-15168995D01*
X5166273Y-15211852D01*
X5137701Y-15240424D01*
X5109130Y-15254709D01*
X5394844Y-15168995D02*
X5394844Y-15226138D01*
X5509130Y-15168995D02*
X5509130Y-15226138D01*
X5951987Y-15583281D02*
X5937701Y-15568995D01*
X5909130Y-15526138D01*
X5894844Y-15497567D01*
X5880558Y-15454709D01*
X5866273Y-15383281D01*
X5866273Y-15326138D01*
X5880558Y-15254709D01*
X5894844Y-15211852D01*
X5909130Y-15183281D01*
X5937701Y-15140424D01*
X5951987Y-15126138D01*
X6194844Y-15268995D02*
X6194844Y-15468995D01*
X6123415Y-15154709D02*
X6051987Y-15368995D01*
X6237701Y-15368995D01*
X6580558Y-15468995D02*
X6580558Y-15168995D01*
X6709130Y-15468995D02*
X6709130Y-15311852D01*
X6694844Y-15283281D01*
X6666273Y-15268995D01*
X6623415Y-15268995D01*
X6594844Y-15283281D01*
X6580558Y-15297567D01*
X6894844Y-15468995D02*
X6866273Y-15454709D01*
X6851987Y-15440424D01*
X6837701Y-15411852D01*
X6837701Y-15326138D01*
X6851987Y-15297567D01*
X6866273Y-15283281D01*
X6894844Y-15268995D01*
X6937701Y-15268995D01*
X6966273Y-15283281D01*
X6980558Y-15297567D01*
X6994844Y-15326138D01*
X6994844Y-15411852D01*
X6980558Y-15440424D01*
X6966273Y-15454709D01*
X6937701Y-15468995D01*
X6894844Y-15468995D01*
X7166273Y-15468995D02*
X7137701Y-15454709D01*
X7123415Y-15426138D01*
X7123415Y-15168995D01*
X7394844Y-15454709D02*
X7366273Y-15468995D01*
X7309130Y-15468995D01*
X7280558Y-15454709D01*
X7266273Y-15426138D01*
X7266273Y-15311852D01*
X7280558Y-15283281D01*
X7309130Y-15268995D01*
X7366273Y-15268995D01*
X7394844Y-15283281D01*
X7409130Y-15311852D01*
X7409130Y-15340424D01*
X7266273Y-15368995D01*
X7523415Y-15454709D02*
X7551987Y-15468995D01*
X7609130Y-15468995D01*
X7637701Y-15454709D01*
X7651987Y-15426138D01*
X7651987Y-15411852D01*
X7637701Y-15383281D01*
X7609130Y-15368995D01*
X7566273Y-15368995D01*
X7537701Y-15354709D01*
X7523415Y-15326138D01*
X7523415Y-15311852D01*
X7537701Y-15283281D01*
X7566273Y-15268995D01*
X7609130Y-15268995D01*
X7637701Y-15283281D01*
X7751987Y-15583281D02*
X7766273Y-15568995D01*
X7794844Y-15526138D01*
X7809130Y-15497567D01*
X7823415Y-15454709D01*
X7837701Y-15383281D01*
X7837701Y-15326138D01*
X7823415Y-15254709D01*
X7809130Y-15211852D01*
X7794844Y-15183281D01*
X7766273Y-15140424D01*
X7751987Y-15126138D01*
X1125558Y-15659281D02*
X1265558Y-15799281D01*
X1265558Y-15659281D02*
X1125558Y-15799281D01*
X1265558Y-15729281D02*
G75*
G03X1265558Y-15729281I-70000J0D01*
G01*
X1709130Y-15864995D02*
X1537701Y-15864995D01*
X1623415Y-15864995D02*
X1623415Y-15564995D01*
X1594844Y-15607852D01*
X1566273Y-15636424D01*
X1537701Y-15650709D01*
X1837701Y-15836424D02*
X1851987Y-15850709D01*
X1837701Y-15864995D01*
X1823415Y-15850709D01*
X1837701Y-15836424D01*
X1837701Y-15864995D01*
X2109130Y-15664995D02*
X2109130Y-15864995D01*
X2037701Y-15550709D02*
X1966273Y-15764995D01*
X2151987Y-15764995D01*
X2323416Y-15564995D02*
X2351987Y-15564995D01*
X2380558Y-15579281D01*
X2394844Y-15593567D01*
X2409130Y-15622138D01*
X2423416Y-15679281D01*
X2423416Y-15750709D01*
X2409130Y-15807852D01*
X2394844Y-15836424D01*
X2380558Y-15850709D01*
X2351987Y-15864995D01*
X2323416Y-15864995D01*
X2294844Y-15850709D01*
X2280558Y-15836424D01*
X2266273Y-15807852D01*
X2251987Y-15750709D01*
X2251987Y-15679281D01*
X2266273Y-15622138D01*
X2280558Y-15593567D01*
X2294844Y-15579281D01*
X2323416Y-15564995D01*
X2551987Y-15864995D02*
X2551987Y-15664995D01*
X2551987Y-15693567D02*
X2566273Y-15679281D01*
X2594844Y-15664995D01*
X2637701Y-15664995D01*
X2666273Y-15679281D01*
X2680558Y-15707852D01*
X2680558Y-15864995D01*
X2680558Y-15707852D02*
X2694844Y-15679281D01*
X2723416Y-15664995D01*
X2766273Y-15664995D01*
X2794844Y-15679281D01*
X2809130Y-15707852D01*
X2809130Y-15864995D01*
X2951987Y-15864995D02*
X2951987Y-15664995D01*
X2951987Y-15693567D02*
X2966273Y-15679281D01*
X2994844Y-15664995D01*
X3037701Y-15664995D01*
X3066273Y-15679281D01*
X3080558Y-15707852D01*
X3080558Y-15864995D01*
X3080558Y-15707852D02*
X3094844Y-15679281D01*
X3123415Y-15664995D01*
X3166273Y-15664995D01*
X3194844Y-15679281D01*
X3209130Y-15707852D01*
X3209130Y-15864995D01*
X3794844Y-15550709D02*
X3537701Y-15936424D01*
X4180558Y-15564995D02*
X4209130Y-15564995D01*
X4237701Y-15579281D01*
X4251987Y-15593567D01*
X4266273Y-15622138D01*
X4280558Y-15679281D01*
X4280558Y-15750709D01*
X4266273Y-15807852D01*
X4251987Y-15836424D01*
X4237701Y-15850709D01*
X4209130Y-15864995D01*
X4180558Y-15864995D01*
X4151987Y-15850709D01*
X4137701Y-15836424D01*
X4123415Y-15807852D01*
X4109130Y-15750709D01*
X4109130Y-15679281D01*
X4123415Y-15622138D01*
X4137701Y-15593567D01*
X4151987Y-15579281D01*
X4180558Y-15564995D01*
X4409130Y-15836424D02*
X4423416Y-15850709D01*
X4409130Y-15864995D01*
X4394844Y-15850709D01*
X4409130Y-15836424D01*
X4409130Y-15864995D01*
X4609130Y-15564995D02*
X4637701Y-15564995D01*
X4666273Y-15579281D01*
X4680558Y-15593567D01*
X4694844Y-15622138D01*
X4709130Y-15679281D01*
X4709130Y-15750709D01*
X4694844Y-15807852D01*
X4680558Y-15836424D01*
X4666273Y-15850709D01*
X4637701Y-15864995D01*
X4609130Y-15864995D01*
X4580558Y-15850709D01*
X4566273Y-15836424D01*
X4551987Y-15807852D01*
X4537701Y-15750709D01*
X4537701Y-15679281D01*
X4551987Y-15622138D01*
X4566273Y-15593567D01*
X4580558Y-15579281D01*
X4609130Y-15564995D01*
X4980558Y-15564995D02*
X4837701Y-15564995D01*
X4823416Y-15707852D01*
X4837701Y-15693567D01*
X4866273Y-15679281D01*
X4937701Y-15679281D01*
X4966273Y-15693567D01*
X4980558Y-15707852D01*
X4994844Y-15736424D01*
X4994844Y-15807852D01*
X4980558Y-15836424D01*
X4966273Y-15850709D01*
X4937701Y-15864995D01*
X4866273Y-15864995D01*
X4837701Y-15850709D01*
X4823416Y-15836424D01*
X5266273Y-15564995D02*
X5123416Y-15564995D01*
X5109130Y-15707852D01*
X5123416Y-15693567D01*
X5151987Y-15679281D01*
X5223416Y-15679281D01*
X5251987Y-15693567D01*
X5266273Y-15707852D01*
X5280558Y-15736424D01*
X5280558Y-15807852D01*
X5266273Y-15836424D01*
X5251987Y-15850709D01*
X5223416Y-15864995D01*
X5151987Y-15864995D01*
X5123416Y-15850709D01*
X5109130Y-15836424D01*
X5394844Y-15564995D02*
X5394844Y-15622138D01*
X5509130Y-15564995D02*
X5509130Y-15622138D01*
X5951987Y-15979281D02*
X5937701Y-15964995D01*
X5909130Y-15922138D01*
X5894844Y-15893567D01*
X5880558Y-15850709D01*
X5866273Y-15779281D01*
X5866273Y-15722138D01*
X5880558Y-15650709D01*
X5894844Y-15607852D01*
X5909130Y-15579281D01*
X5937701Y-15536424D01*
X5951987Y-15522138D01*
X6109130Y-15693567D02*
X6080558Y-15679281D01*
X6066273Y-15664995D01*
X6051987Y-15636424D01*
X6051987Y-15622138D01*
X6066273Y-15593567D01*
X6080558Y-15579281D01*
X6109130Y-15564995D01*
X6166273Y-15564995D01*
X6194844Y-15579281D01*
X6209130Y-15593567D01*
X6223415Y-15622138D01*
X6223415Y-15636424D01*
X6209130Y-15664995D01*
X6194844Y-15679281D01*
X6166273Y-15693567D01*
X6109130Y-15693567D01*
X6080558Y-15707852D01*
X6066273Y-15722138D01*
X6051987Y-15750709D01*
X6051987Y-15807852D01*
X6066273Y-15836424D01*
X6080558Y-15850709D01*
X6109130Y-15864995D01*
X6166273Y-15864995D01*
X6194844Y-15850709D01*
X6209130Y-15836424D01*
X6223415Y-15807852D01*
X6223415Y-15750709D01*
X6209130Y-15722138D01*
X6194844Y-15707852D01*
X6166273Y-15693567D01*
X6480558Y-15664995D02*
X6480558Y-15864995D01*
X6409130Y-15550709D02*
X6337701Y-15764995D01*
X6523415Y-15764995D01*
X6866273Y-15864995D02*
X6866273Y-15564995D01*
X6994844Y-15864995D02*
X6994844Y-15707852D01*
X6980558Y-15679281D01*
X6951987Y-15664995D01*
X6909130Y-15664995D01*
X6880558Y-15679281D01*
X6866273Y-15693567D01*
X7180558Y-15864995D02*
X7151987Y-15850709D01*
X7137701Y-15836424D01*
X7123415Y-15807852D01*
X7123415Y-15722138D01*
X7137701Y-15693567D01*
X7151987Y-15679281D01*
X7180558Y-15664995D01*
X7223415Y-15664995D01*
X7251987Y-15679281D01*
X7266273Y-15693567D01*
X7280558Y-15722138D01*
X7280558Y-15807852D01*
X7266273Y-15836424D01*
X7251987Y-15850709D01*
X7223415Y-15864995D01*
X7180558Y-15864995D01*
X7451987Y-15864995D02*
X7423415Y-15850709D01*
X7409130Y-15822138D01*
X7409130Y-15564995D01*
X7680558Y-15850709D02*
X7651987Y-15864995D01*
X7594844Y-15864995D01*
X7566273Y-15850709D01*
X7551987Y-15822138D01*
X7551987Y-15707852D01*
X7566273Y-15679281D01*
X7594844Y-15664995D01*
X7651987Y-15664995D01*
X7680558Y-15679281D01*
X7694844Y-15707852D01*
X7694844Y-15736424D01*
X7551987Y-15764995D01*
X7809130Y-15850709D02*
X7837701Y-15864995D01*
X7894844Y-15864995D01*
X7923415Y-15850709D01*
X7937701Y-15822138D01*
X7937701Y-15807852D01*
X7923415Y-15779281D01*
X7894844Y-15764995D01*
X7851987Y-15764995D01*
X7823415Y-15750709D01*
X7809130Y-15722138D01*
X7809130Y-15707852D01*
X7823415Y-15679281D01*
X7851987Y-15664995D01*
X7894844Y-15664995D01*
X7923415Y-15679281D01*
X8294844Y-15750709D02*
X8523416Y-15750709D01*
X8409130Y-15864995D02*
X8409130Y-15636424D01*
X9023416Y-15664995D02*
X9023416Y-15864995D01*
X8951987Y-15550709D02*
X8880558Y-15764995D01*
X9066273Y-15764995D01*
X9166273Y-15593567D02*
X9180558Y-15579281D01*
X9209130Y-15564995D01*
X9280558Y-15564995D01*
X9309130Y-15579281D01*
X9323416Y-15593567D01*
X9337701Y-15622138D01*
X9337701Y-15650709D01*
X9323416Y-15693567D01*
X9151987Y-15864995D01*
X9337701Y-15864995D01*
X9680558Y-15850709D02*
X9709130Y-15864995D01*
X9766273Y-15864995D01*
X9794844Y-15850709D01*
X9809130Y-15822138D01*
X9809130Y-15807852D01*
X9794844Y-15779281D01*
X9766273Y-15764995D01*
X9723416Y-15764995D01*
X9694844Y-15750709D01*
X9680558Y-15722138D01*
X9680558Y-15707852D01*
X9694844Y-15679281D01*
X9723416Y-15664995D01*
X9766273Y-15664995D01*
X9794844Y-15679281D01*
X9980558Y-15864995D02*
X9951987Y-15850709D01*
X9937701Y-15822138D01*
X9937701Y-15564995D01*
X10137701Y-15864995D02*
X10109130Y-15850709D01*
X10094844Y-15836424D01*
X10080558Y-15807852D01*
X10080558Y-15722138D01*
X10094844Y-15693567D01*
X10109130Y-15679281D01*
X10137701Y-15664995D01*
X10180558Y-15664995D01*
X10209130Y-15679281D01*
X10223416Y-15693567D01*
X10237701Y-15722138D01*
X10237701Y-15807852D01*
X10223416Y-15836424D01*
X10209130Y-15850709D01*
X10180558Y-15864995D01*
X10137701Y-15864995D01*
X10323416Y-15664995D02*
X10437701Y-15664995D01*
X10366273Y-15564995D02*
X10366273Y-15822138D01*
X10380558Y-15850709D01*
X10409130Y-15864995D01*
X10437701Y-15864995D01*
X10523416Y-15850709D02*
X10551987Y-15864995D01*
X10609130Y-15864995D01*
X10637701Y-15850709D01*
X10651987Y-15822138D01*
X10651987Y-15807852D01*
X10637701Y-15779281D01*
X10609130Y-15764995D01*
X10566273Y-15764995D01*
X10537701Y-15750709D01*
X10523416Y-15722138D01*
X10523416Y-15707852D01*
X10537701Y-15679281D01*
X10566273Y-15664995D01*
X10609130Y-15664995D01*
X10637701Y-15679281D01*
X10751987Y-15979281D02*
X10766273Y-15964995D01*
X10794844Y-15922138D01*
X10809130Y-15893567D01*
X10823416Y-15850709D01*
X10837701Y-15779281D01*
X10837701Y-15722138D01*
X10823416Y-15650709D01*
X10809130Y-15607852D01*
X10794844Y-15579281D01*
X10766273Y-15536424D01*
X10751987Y-15522138D01*
M02*
