M48
; DRILL file {KiCad 5.1.5+dfsg1-2build2} date нд, 11-лип-2021 13:57:15 +0300
; FORMAT={-:-/ absolute / metric / decimal}
; #@! TF.CreationDate,2021-07-11T13:57:15+03:00
; #@! TF.GenerationSoftware,Kicad,Pcbnew,5.1.5+dfsg1-2build2
; #@! TF.FileFunction,Plated,1,2,PTH
FMAT,2
METRIC
T1C0.300
T2C0.400
T3C0.813
T4C1.000
T5C1.300
T6C1.400
%
G90
G05
T2
X34.697Y-67.41
X37.984Y-69.494
X56.884Y-71.461
X75.638Y-71.19
X94.797Y-70.62
X113.984Y-72.835
X174.895Y-75.77
X174.965Y-67.37
X175.515Y-68.2
X175.515Y-75.01
X179.945Y-73.24
X198.524Y-70.834
X217.445Y-70.301
X236.383Y-69.847
X265.645Y-68.717
T3
X201.195Y-95.915
X201.195Y-101.915
X68.188Y-37.92
X68.188Y-43.92
X133.029Y-77.168
X135.569Y-77.168
X138.108Y-77.168
X140.648Y-77.168
X156.454Y-42.208
X156.454Y-44.748
X156.454Y-47.288
X156.454Y-49.828
X156.454Y-52.368
X156.454Y-54.908
X156.454Y-57.448
X156.454Y-59.988
X156.454Y-62.528
X156.454Y-65.068
X156.454Y-67.608
X156.454Y-70.148
X171.674Y-42.208
X171.674Y-44.748
X171.674Y-47.288
X171.674Y-49.828
X171.674Y-52.368
X171.674Y-54.908
X171.674Y-57.448
X171.674Y-59.988
X171.674Y-62.528
X171.674Y-65.068
X171.674Y-67.608
X171.674Y-70.148
X194.685Y-56.92
X194.685Y-62.92
X232.685Y-75.92
X232.685Y-81.92
X194.685Y-37.92
X194.685Y-43.92
X204.195Y-95.915
X204.195Y-101.915
X267.685Y-61.92
X267.685Y-67.92
X267.685Y-80.92
X267.685Y-86.92
X80.507Y-95.91
X80.507Y-101.91
X33.188Y-61.92
X33.188Y-67.92
X96.688Y-95.905
X96.688Y-101.905
X33.188Y-80.92
X33.188Y-86.92
X270.685Y-61.92
X270.685Y-67.92
X71.188Y-75.915
X71.188Y-81.915
X106.188Y-75.92
X106.188Y-81.92
X270.685Y-42.92
X270.685Y-48.92
X267.685Y-42.92
X267.685Y-48.92
X229.685Y-37.915
X229.685Y-43.915
X229.685Y-75.915
X229.685Y-81.915
X106.188Y-37.92
X106.188Y-43.92
X191.685Y-37.92
X191.685Y-43.92
X109.188Y-56.92
X109.188Y-62.92
X129.284Y-42.082
X129.284Y-44.622
X129.284Y-47.162
X129.284Y-49.702
X129.284Y-52.242
X129.284Y-54.782
X129.284Y-57.322
X129.284Y-59.862
X129.284Y-62.402
X129.284Y-64.942
X129.284Y-67.482
X129.284Y-70.022
X144.504Y-42.082
X144.504Y-44.622
X144.504Y-47.162
X144.504Y-49.702
X144.504Y-52.242
X144.504Y-54.782
X144.504Y-57.322
X144.504Y-59.862
X144.504Y-62.402
X144.504Y-64.942
X144.504Y-67.482
X144.504Y-70.022
X109.188Y-37.92
X109.188Y-43.92
X160.257Y-77.31
X162.797Y-77.31
X165.338Y-77.31
X167.877Y-77.31
X109.188Y-75.92
X109.188Y-81.92
X68.188Y-56.92
X68.188Y-62.92
X30.188Y-80.917
X30.188Y-86.917
X71.188Y-56.915
X71.188Y-62.915
X194.685Y-75.92
X194.685Y-81.92
X229.685Y-56.915
X229.685Y-62.915
X106.188Y-56.92
X106.188Y-62.92
X30.188Y-42.917
X30.188Y-48.917
X232.685Y-56.92
X232.685Y-62.92
X220.185Y-95.93
X220.185Y-101.93
X191.685Y-75.92
X191.685Y-81.92
X68.188Y-75.92
X68.188Y-81.92
X71.188Y-37.915
X71.188Y-43.915
X232.685Y-37.92
X232.685Y-43.92
X33.188Y-42.92
X33.188Y-48.92
X99.688Y-95.905
X99.688Y-101.905
X270.685Y-80.92
X270.685Y-86.92
X191.685Y-56.92
X191.685Y-62.92
X30.188Y-61.917
X30.188Y-67.917
T5
X156.375Y-73.567
X156.375Y-80.067
X144.505Y-73.421
X144.505Y-79.921
T6
X56.387Y-38.62
X57.688Y-37.17
X56.387Y-57.62
X57.688Y-56.17
X84.888Y-96.245
X86.188Y-94.795
X75.388Y-74.245
X76.688Y-72.795
X255.885Y-81.37
X257.185Y-79.92
X179.885Y-40.995
X181.185Y-39.545
X37.387Y-43.37
X38.688Y-41.92
X169.243Y-100.73
X171.149Y-101.13
X217.885Y-36.245
X219.185Y-34.795
X75.388Y-55.245
X76.688Y-53.795
X18.387Y-43.37
X19.688Y-41.92
X255.885Y-62.37
X257.185Y-60.92
X113.387Y-78.995
X114.688Y-77.545
X208.385Y-96.245
X209.685Y-94.795
X179.885Y-59.995
X181.185Y-58.545
X198.885Y-76.62
X200.185Y-75.17
X18.387Y-81.37
X19.688Y-79.92
X94.387Y-76.62
X95.688Y-75.17
X94.387Y-38.62
X95.688Y-37.17
X18.387Y-62.37
X19.688Y-60.92
X106.677Y-98.098
X108.308Y-97.034
X274.885Y-81.37
X276.185Y-79.92
X37.387Y-81.37
X38.688Y-79.92
X127.223Y-105.46
X127.829Y-107.311
X217.885Y-74.245
X219.185Y-72.795
X94.387Y-57.62
X95.688Y-56.17
X179.885Y-78.995
X181.185Y-77.545
X236.885Y-38.62
X238.185Y-37.17
X37.387Y-62.37
X38.688Y-60.92
X217.885Y-55.245
X219.185Y-53.795
X186.854Y-100.066
X187.735Y-98.329
X274.885Y-62.37
X276.185Y-60.92
X198.885Y-57.62
X200.185Y-56.17
X274.885Y-43.37
X276.185Y-41.92
X113.387Y-40.995
X114.688Y-39.545
X56.387Y-76.62
X57.688Y-75.17
X198.885Y-38.62
X200.185Y-37.17
X236.885Y-76.62
X238.185Y-75.17
X236.885Y-57.62
X238.185Y-56.17
X255.885Y-43.37
X257.185Y-41.92
X113.387Y-59.995
X114.688Y-58.545
X75.388Y-36.245
X76.688Y-34.795
T1
X78.837Y-44.695G85X79.537Y-44.695
G05
X83.838Y-33.248G85X84.537Y-33.242
G05
X59.837Y-47.07G85X60.537Y-47.07
G05
X64.838Y-35.623G85X65.537Y-35.617
G05
X59.837Y-66.07G85X60.537Y-66.07
G05
X64.838Y-54.623G85X65.537Y-54.617
G05
X88.337Y-104.695G85X89.037Y-104.695
G05
X93.338Y-93.248G85X94.037Y-93.242
G05
X78.837Y-82.695G85X79.537Y-82.695
G05
X83.838Y-71.248G85X84.537Y-71.242
G05
X259.335Y-89.82G85X260.035Y-89.82
G05
X264.335Y-78.373G85X265.035Y-78.367
G05
X183.335Y-49.445G85X184.035Y-49.445
G05
X188.335Y-37.998G85X189.035Y-37.992
G05
X40.837Y-51.82G85X41.538Y-51.82
G05
X45.838Y-40.373G85X46.537Y-40.367
G05
X163.65Y-107.942G85X164.0Y-108.549
G05
X176.064Y-106.549G85X176.419Y-107.152
G05
X221.335Y-44.695G85X222.035Y-44.695
G05
X226.335Y-33.248G85X227.035Y-33.242
G05
X78.837Y-63.695G85X79.537Y-63.695
G05
X83.838Y-52.248G85X84.537Y-52.242
G05
X21.837Y-51.82G85X22.537Y-51.82
G05
X26.838Y-40.373G85X27.537Y-40.367
G05
X259.335Y-70.82G85X260.035Y-70.82
G05
X264.335Y-59.373G85X265.035Y-59.367
G05
X116.837Y-87.445G85X117.537Y-87.445
G05
X121.838Y-75.998G85X122.537Y-75.992
G05
X211.835Y-104.695G85X212.535Y-104.695
G05
X216.835Y-93.248G85X217.535Y-93.242
G05
X183.335Y-68.445G85X184.035Y-68.445
G05
X188.335Y-56.998G85X189.035Y-56.992
G05
X202.335Y-85.07G85X203.035Y-85.07
G05
X207.335Y-73.623G85X208.035Y-73.617
G05
X21.837Y-89.82G85X22.537Y-89.82
G05
X26.838Y-78.373G85X27.537Y-78.367
G05
X97.837Y-85.07G85X98.537Y-85.07
G05
X102.838Y-73.623G85X103.537Y-73.617
G05
X97.837Y-47.07G85X98.537Y-47.07
G05
X102.838Y-35.623G85X103.537Y-35.617
G05
X21.837Y-70.82G85X22.537Y-70.82
G05
X26.838Y-59.373G85X27.537Y-59.367
G05
X107.822Y-107.153G85X108.499Y-107.335
G05
X115.615Y-97.391G85X116.292Y-97.566
G05
X278.335Y-89.82G85X279.035Y-89.82
G05
X283.335Y-78.373G85X284.035Y-78.367
G05
X40.837Y-89.82G85X41.538Y-89.82
G05
X45.838Y-78.373G85X46.537Y-78.367
G05
X129.459Y-98.494G85X129.803Y-97.885
G05
X136.872Y-108.548G85X137.222Y-107.942
G05
X221.335Y-82.695G85X222.035Y-82.695
G05
X226.335Y-71.248G85X227.035Y-71.242
G05
X97.837Y-66.07G85X98.537Y-66.07
G05
X102.838Y-54.623G85X103.537Y-54.617
G05
X183.335Y-87.445G85X184.035Y-87.445
G05
X188.335Y-75.998G85X189.035Y-75.992
G05
X240.335Y-47.07G85X241.035Y-47.07
G05
X245.335Y-35.623G85X246.035Y-35.617
G05
X40.837Y-70.82G85X41.538Y-70.82
G05
X45.838Y-59.373G85X46.537Y-59.367
G05
X221.335Y-63.695G85X222.035Y-63.695
G05
X226.335Y-52.248G85X227.035Y-52.242
G05
X192.374Y-107.335G85X193.05Y-107.154
G05
X194.241Y-94.984G85X194.915Y-94.797
G05
X278.335Y-70.82G85X279.035Y-70.82
G05
X283.335Y-59.373G85X284.035Y-59.367
G05
X202.335Y-66.07G85X203.035Y-66.07
G05
X207.335Y-54.623G85X208.035Y-54.617
G05
X278.335Y-51.82G85X279.035Y-51.82
G05
X283.335Y-40.373G85X284.035Y-40.367
G05
X116.837Y-49.445G85X117.537Y-49.445
G05
X121.838Y-37.998G85X122.537Y-37.992
G05
X59.837Y-85.07G85X60.537Y-85.07
G05
X64.838Y-73.623G85X65.537Y-73.617
G05
X202.335Y-47.07G85X203.035Y-47.07
G05
X207.335Y-35.623G85X208.035Y-35.617
G05
X240.335Y-85.07G85X241.035Y-85.07
G05
X245.335Y-73.623G85X246.035Y-73.617
G05
X240.335Y-66.07G85X241.035Y-66.07
G05
X245.335Y-54.623G85X246.035Y-54.617
G05
X259.335Y-51.82G85X260.035Y-51.82
G05
X264.335Y-40.373G85X265.035Y-40.367
G05
X116.837Y-68.445G85X117.537Y-68.445
G05
X121.838Y-56.998G85X122.537Y-56.992
G05
T2
X73.787Y-80.695G85X74.388Y-80.695
G05
X254.285Y-87.82G85X254.885Y-87.82
G05
X178.285Y-47.445G85X178.885Y-47.445
G05
X35.788Y-49.82G85X36.387Y-49.82
G05
X162.857Y-102.569G85X163.157Y-103.089
G05
X216.285Y-42.695G85X216.885Y-42.695
G05
X73.787Y-61.695G85X74.388Y-61.695
G05
X16.787Y-49.82G85X17.387Y-49.82
G05
X254.285Y-68.82G85X254.885Y-68.82
G05
X111.787Y-85.445G85X112.387Y-85.445
G05
X206.785Y-102.695G85X207.385Y-102.695
G05
X178.285Y-66.445G85X178.885Y-66.445
G05
X197.285Y-83.07G85X197.885Y-83.07
G05
X16.787Y-87.82G85X17.387Y-87.82
G05
X92.787Y-83.07G85X93.388Y-83.07
G05
X92.787Y-45.07G85X93.388Y-45.07
G05
X16.787Y-68.82G85X17.387Y-68.82
G05
X103.462Y-103.914G85X104.042Y-104.07
G05
X273.285Y-87.82G85X273.885Y-87.82
G05
X35.788Y-87.82G85X36.387Y-87.82
G05
X132.615Y-111.922G85X132.915Y-111.402
G05
X216.285Y-80.695G85X216.885Y-80.695
G05
X92.787Y-64.07G85X93.388Y-64.07
G05
X178.285Y-85.445G85X178.885Y-85.445
G05
X235.285Y-45.07G85X235.885Y-45.07
G05
X35.788Y-68.82G85X36.387Y-68.82
G05
X216.285Y-61.695G85X216.885Y-61.695
G05
X186.978Y-106.71G85X187.558Y-106.555
G05
X273.285Y-68.82G85X273.885Y-68.82
G05
X197.285Y-64.07G85X197.885Y-64.07
G05
X273.285Y-49.82G85X273.885Y-49.82
G05
X111.787Y-47.445G85X112.387Y-47.445
G05
X54.787Y-83.07G85X55.387Y-83.07
G05
X197.285Y-45.07G85X197.885Y-45.07
G05
X235.285Y-83.07G85X235.885Y-83.07
G05
X235.285Y-64.07G85X235.885Y-64.07
G05
X254.285Y-49.82G85X254.885Y-49.82
G05
X111.787Y-66.445G85X112.387Y-66.445
G05
X73.787Y-42.695G85X74.388Y-42.695
G05
X54.787Y-45.07G85X55.387Y-45.07
G05
X54.787Y-64.07G85X55.387Y-64.07
G05
X83.287Y-102.695G85X83.888Y-102.695
G05
T4
X157.658Y-82.465G85X158.158Y-82.465
G05
X160.658Y-82.465G85X161.158Y-82.465
G05
X164.658Y-82.465G85X165.158Y-82.465
G05
X166.158Y-86.665G85X166.658Y-86.665
G05
X134.665Y-82.332G85X134.165Y-82.332
G05
X136.165Y-86.532G85X135.665Y-86.532
G05
X140.165Y-86.532G85X139.665Y-86.532
G05
X143.165Y-86.532G85X142.665Y-86.532
G05
T6
X62.688Y-36.095G85X62.688Y-36.645
G05
X62.688Y-55.095G85X62.688Y-55.645
G05
X91.188Y-93.72G85X91.188Y-94.27
G05
X81.688Y-71.72G85X81.688Y-72.27
G05
X262.185Y-78.845G85X262.185Y-79.395
G05
X186.185Y-38.47G85X186.185Y-39.02
G05
X43.688Y-40.845G85X43.688Y-41.395
G05
X174.58Y-104.923G85X174.104Y-105.198
G05
X224.185Y-33.72G85X224.185Y-34.27
G05
X81.688Y-52.72G85X81.688Y-53.27
G05
X24.688Y-40.845G85X24.688Y-41.395
G05
X262.185Y-59.845G85X262.185Y-60.395
G05
X119.688Y-76.47G85X119.688Y-77.02
G05
X214.685Y-93.72G85X214.685Y-94.27
G05
X186.185Y-57.47G85X186.185Y-58.02
G05
X205.185Y-74.095G85X205.185Y-74.645
G05
X24.688Y-78.845G85X24.688Y-79.395
G05
X100.688Y-74.095G85X100.688Y-74.645
G05
X100.688Y-36.095G85X100.688Y-36.645
G05
X24.688Y-59.845G85X24.688Y-60.395
G05
X113.416Y-97.29G85X113.273Y-97.821
G05
X281.185Y-78.845G85X281.185Y-79.395
G05
X43.688Y-78.845G85X43.688Y-79.395
G05
X128.792Y-100.592G85X129.269Y-100.867
G05
X224.185Y-71.72G85X224.185Y-72.27
G05
X100.688Y-55.095G85X100.688Y-55.645
G05
X186.185Y-76.47G85X186.185Y-77.02
G05
X243.185Y-36.095G85X243.185Y-36.645
G05
X43.688Y-59.845G85X43.688Y-60.395
G05
X224.185Y-52.72G85X224.185Y-53.27
G05
X192.286Y-95.996G85X192.429Y-96.528
G05
X281.185Y-59.845G85X281.185Y-60.395
G05
X205.185Y-55.095G85X205.185Y-55.645
G05
X281.185Y-40.845G85X281.185Y-41.395
G05
X119.688Y-38.47G85X119.688Y-39.02
G05
X62.688Y-74.095G85X62.688Y-74.645
G05
X205.185Y-36.095G85X205.185Y-36.645
G05
X243.185Y-74.095G85X243.185Y-74.645
G05
X243.185Y-55.095G85X243.185Y-55.645
G05
X262.185Y-40.845G85X262.185Y-41.395
G05
X119.688Y-57.47G85X119.688Y-58.02
G05
X81.688Y-33.72G85X81.688Y-34.27
G05
T0
M30
