G04 #@! TF.GenerationSoftware,KiCad,Pcbnew,5.1.5+dfsg1-2build2*
G04 #@! TF.CreationDate,2021-07-11T13:37:49+03:00*
G04 #@! TF.ProjectId,corne-light,636f726e-652d-46c6-9967-68742e6b6963,2.0*
G04 #@! TF.SameCoordinates,Original*
G04 #@! TF.FileFunction,Soldermask,Bot*
G04 #@! TF.FilePolarity,Negative*
%FSLAX46Y46*%
G04 Gerber Fmt 4.6, Leading zero omitted, Abs format (unit mm)*
G04 Created by KiCad (PCBNEW 5.1.5+dfsg1-2build2) date 2021-07-11 13:37:49*
%MOMM*%
%LPD*%
G04 APERTURE LIST*
%ADD10C,4.700000*%
%ADD11R,1.700000X1.800000*%
%ADD12O,1.797000X2.178000*%
%ADD13O,2.900000X2.100000*%
%ADD14C,1.600000*%
%ADD15C,2.400000*%
%ADD16C,2.700000*%
%ADD17C,2.800000*%
%ADD18C,2.800000*%
%ADD19C,1.900000*%
%ADD20C,2.000000*%
%ADD21O,2.800000X3.350000*%
%ADD22O,2.600000X2.000000*%
%ADD23O,2.600000X1.900000*%
%ADD24C,1.924000*%
%ADD25C,0.700000*%
G04 APERTURE END LIST*
D10*
X250212500Y-55426932D03*
X250212500Y-74426932D03*
X50712500Y-55445000D03*
X50712500Y-74445000D03*
D11*
X30187500Y-82141875D03*
X30187500Y-85691875D03*
X33187500Y-82145000D03*
X33187500Y-85695000D03*
X270684847Y-82145432D03*
X270684847Y-85695432D03*
X109187500Y-58145000D03*
X109187500Y-61695000D03*
X191684847Y-58145432D03*
X191684847Y-61695432D03*
X194684847Y-58145432D03*
X194684847Y-61695432D03*
X229684847Y-58140432D03*
X229684847Y-61690432D03*
X232684847Y-58145432D03*
X232684847Y-61695432D03*
X267684847Y-63145432D03*
X267684847Y-66695432D03*
X270684847Y-63145432D03*
X270684847Y-66695432D03*
X191684847Y-39145432D03*
X191684847Y-42695432D03*
X194684847Y-39145432D03*
X194684847Y-42695432D03*
X229684847Y-39140432D03*
X229684847Y-42690432D03*
X232684847Y-39145432D03*
X232684847Y-42695432D03*
X267684847Y-44145432D03*
X267684847Y-47695432D03*
X270684847Y-44145432D03*
X270684847Y-47695432D03*
X201194847Y-97140432D03*
X201194847Y-100690432D03*
X204194847Y-97140432D03*
X204194847Y-100690432D03*
X220184847Y-97155432D03*
X220184847Y-100705432D03*
X191684847Y-77145432D03*
X191684847Y-80695432D03*
X194684847Y-77145432D03*
X194684847Y-80695432D03*
X229684847Y-77140432D03*
X229684847Y-80690432D03*
X232684847Y-77145432D03*
X232684847Y-80695432D03*
X267684847Y-82145432D03*
X267684847Y-85695432D03*
X30187500Y-44141875D03*
X30187500Y-47691875D03*
X33187500Y-44145000D03*
X33187500Y-47695000D03*
X68187500Y-39145000D03*
X68187500Y-42695000D03*
X71187500Y-39140000D03*
X71187500Y-42690000D03*
X106187500Y-39145000D03*
X106187500Y-42695000D03*
X109187500Y-39145000D03*
X109187500Y-42695000D03*
X30187500Y-63141875D03*
X30187500Y-66691875D03*
X33187500Y-63145000D03*
X33187500Y-66695000D03*
X68187500Y-58145000D03*
X68187500Y-61695000D03*
X71187500Y-58140000D03*
X71187500Y-61690000D03*
X106187500Y-58145000D03*
X106187500Y-61695000D03*
X68187500Y-77145000D03*
X68187500Y-80695000D03*
X71187500Y-77140000D03*
X71187500Y-80690000D03*
X106187500Y-77145000D03*
X106187500Y-80695000D03*
X109187500Y-77145000D03*
X109187500Y-80695000D03*
X80507500Y-97135000D03*
X80507500Y-100685000D03*
X96687500Y-97130000D03*
X96687500Y-100680000D03*
X99687500Y-97130000D03*
X99687500Y-100680000D03*
D12*
X167877500Y-77310000D03*
X165337500Y-77310000D03*
X162797500Y-77310000D03*
X160257500Y-77310000D03*
X140648500Y-77168000D03*
X138108500Y-77168000D03*
X135568500Y-77168000D03*
X133028500Y-77168000D03*
D13*
X166407847Y-86665432D03*
X164907847Y-82465432D03*
X160907847Y-82465432D03*
X157907847Y-82465432D03*
D14*
X163107847Y-84565432D03*
X156107847Y-84565432D03*
D13*
X134414500Y-82332000D03*
X135914500Y-86532000D03*
X139914500Y-86532000D03*
X142914500Y-86532000D03*
D14*
X137714500Y-84432000D03*
X144714500Y-84432000D03*
D15*
X156374847Y-73567432D03*
X156374847Y-80067432D03*
X144504500Y-73421000D03*
X144504500Y-79921000D03*
D16*
X170889847Y-84542432D03*
X156330847Y-93085432D03*
X144376500Y-92940000D03*
X129944500Y-84419000D03*
D10*
X269195847Y-74426932D03*
X269195847Y-55426932D03*
X226055847Y-91696932D03*
X179485847Y-99446932D03*
X193235847Y-51936932D03*
X121405500Y-99300000D03*
X74839500Y-91685500D03*
X31695500Y-55420500D03*
X107650500Y-51930500D03*
X31695500Y-74420500D03*
D17*
X171199508Y-101145359D02*
X169243212Y-100729535D01*
X174579926Y-104922996D02*
X174103612Y-105197996D01*
D18*
X171148949Y-101130368D03*
D19*
X174947065Y-104653405D02*
X176418927Y-107152129D01*
D20*
X162857348Y-102568894D02*
X163157348Y-103088510D01*
D19*
X163650297Y-107942323D02*
X164000297Y-108548541D01*
D17*
X127211101Y-105408783D02*
X127829135Y-107310897D01*
X128792421Y-100592436D02*
X129268735Y-100867436D01*
D18*
X127223398Y-105460064D03*
D19*
X128375379Y-100409280D02*
X129803407Y-97885248D01*
D20*
X132614999Y-111921538D02*
X132914999Y-111401922D01*
D19*
X136872050Y-108548109D02*
X137222050Y-107941891D01*
D17*
X114725762Y-77508710D02*
X113387500Y-78995000D01*
D21*
X119687500Y-76745000D03*
D18*
X114687500Y-77545000D03*
D19*
X119637597Y-76017252D02*
X122537487Y-75991946D01*
D22*
X112087500Y-85445000D03*
D23*
X117187500Y-87445000D03*
D17*
X200223109Y-56134142D02*
X198884847Y-57620432D01*
D21*
X205184847Y-55370432D03*
D18*
X200184847Y-56170432D03*
D19*
X205134944Y-54642684D02*
X208034834Y-54617378D01*
D22*
X197584847Y-64070432D03*
D23*
X202684847Y-66070432D03*
D17*
X95725762Y-56133710D02*
X94387500Y-57620000D01*
D21*
X100687500Y-55370000D03*
D18*
X95687500Y-56170000D03*
D19*
X100637597Y-54642252D02*
X103537487Y-54616946D01*
D22*
X93087500Y-64070000D03*
D23*
X98187500Y-66070000D03*
D17*
X181223109Y-58509142D02*
X179884847Y-59995432D01*
D21*
X186184847Y-57745432D03*
D18*
X181184847Y-58545432D03*
D19*
X186134944Y-57017684D02*
X189034834Y-56992378D01*
D22*
X178584847Y-66445432D03*
D23*
X183684847Y-68445432D03*
D17*
X187762320Y-98283820D02*
X186854340Y-100065834D01*
X192286155Y-95996310D02*
X192428505Y-96527570D01*
D18*
X187734756Y-98328776D03*
D19*
X192120773Y-95571906D02*
X194915301Y-94796914D01*
D20*
X186978242Y-106710166D02*
X187557798Y-106554874D01*
D19*
X192373805Y-107334981D02*
X193049953Y-107153807D01*
D17*
X38725762Y-60883710D02*
X37387500Y-62370000D01*
D21*
X43687500Y-60120000D03*
D18*
X38687500Y-60920000D03*
D19*
X43637597Y-59392252D02*
X46537487Y-59366946D01*
D22*
X36087500Y-68820000D03*
D23*
X41187500Y-70820000D03*
D17*
X19725762Y-60883710D02*
X18387500Y-62370000D01*
D21*
X24687500Y-60120000D03*
D18*
X19687500Y-60920000D03*
D19*
X24637597Y-59392252D02*
X27537487Y-59366946D01*
D22*
X17087500Y-68820000D03*
D23*
X22187500Y-70820000D03*
D17*
X19725762Y-41883710D02*
X18387500Y-43370000D01*
D21*
X24687500Y-41120000D03*
D18*
X19687500Y-41920000D03*
D19*
X24637597Y-40392252D02*
X27537487Y-40366946D01*
D22*
X17087500Y-49820000D03*
D23*
X22187500Y-51820000D03*
D17*
X38725762Y-41883710D02*
X37387500Y-43370000D01*
D21*
X43687500Y-41120000D03*
D18*
X38687500Y-41920000D03*
D19*
X43637597Y-40392252D02*
X46537487Y-40366946D01*
D22*
X36087500Y-49820000D03*
D23*
X41187500Y-51820000D03*
D17*
X219223109Y-72759142D02*
X217884847Y-74245432D01*
D21*
X224184847Y-71995432D03*
D18*
X219184847Y-72795432D03*
D19*
X224134944Y-71267684D02*
X227034834Y-71242378D01*
D22*
X216584847Y-80695432D03*
D23*
X221684847Y-82695432D03*
D17*
X57725762Y-56133710D02*
X56387500Y-57620000D01*
D21*
X62687500Y-55370000D03*
D18*
X57687500Y-56170000D03*
D19*
X62637597Y-54642252D02*
X65537487Y-54616946D01*
D22*
X55087500Y-64070000D03*
D23*
X60187500Y-66070000D03*
D17*
X200223109Y-37134142D02*
X198884847Y-38620432D01*
D21*
X205184847Y-36370432D03*
D18*
X200184847Y-37170432D03*
D19*
X205134944Y-35642684D02*
X208034834Y-35617378D01*
D22*
X197584847Y-45070432D03*
D23*
X202684847Y-47070432D03*
D17*
X57725762Y-37133710D02*
X56387500Y-38620000D01*
D21*
X62687500Y-36370000D03*
D18*
X57687500Y-37170000D03*
D19*
X62637597Y-35642252D02*
X65537487Y-35616946D01*
D22*
X55087500Y-45070000D03*
D23*
X60187500Y-47070000D03*
D17*
X38725762Y-79883710D02*
X37387500Y-81370000D01*
D21*
X43687500Y-79120000D03*
D18*
X38687500Y-79920000D03*
D19*
X43637597Y-78392252D02*
X46537487Y-78366946D01*
D22*
X36087500Y-87820000D03*
D23*
X41187500Y-89820000D03*
D17*
X181223109Y-39509142D02*
X179884847Y-40995432D01*
D21*
X186184847Y-38745432D03*
D18*
X181184847Y-39545432D03*
D19*
X186134944Y-38017684D02*
X189034834Y-37992378D01*
D22*
X178584847Y-47445432D03*
D23*
X183684847Y-49445432D03*
D17*
X114725762Y-58508710D02*
X113387500Y-59995000D01*
D21*
X119687500Y-57745000D03*
D18*
X114687500Y-58545000D03*
D19*
X119637597Y-57017252D02*
X122537487Y-56991946D01*
D22*
X112087500Y-66445000D03*
D23*
X117187500Y-68445000D03*
D17*
X108354312Y-97009099D02*
X106676970Y-98098377D01*
X113415821Y-97289974D02*
X113273471Y-97821234D01*
D18*
X108307962Y-97034249D03*
D19*
X113484799Y-96839738D02*
X116292427Y-97565840D01*
D20*
X103462106Y-103914488D02*
X104041662Y-104069780D01*
D19*
X107822394Y-107153375D02*
X108498542Y-107334549D01*
D17*
X76725762Y-53758710D02*
X75387500Y-55245000D01*
D21*
X81687500Y-52995000D03*
D18*
X76687500Y-53795000D03*
D19*
X81637597Y-52267252D02*
X84537487Y-52241946D01*
D22*
X74087500Y-61695000D03*
D23*
X79187500Y-63695000D03*
D17*
X57725762Y-75133710D02*
X56387500Y-76620000D01*
D21*
X62687500Y-74370000D03*
D18*
X57687500Y-75170000D03*
D19*
X62637597Y-73642252D02*
X65537487Y-73616946D01*
D22*
X55087500Y-83070000D03*
D23*
X60187500Y-85070000D03*
D17*
X76725762Y-72758710D02*
X75387500Y-74245000D01*
D21*
X81687500Y-71995000D03*
D18*
X76687500Y-72795000D03*
D19*
X81637597Y-71267252D02*
X84537487Y-71241946D01*
D22*
X74087500Y-80695000D03*
D23*
X79187500Y-82695000D03*
D17*
X95725762Y-75133710D02*
X94387500Y-76620000D01*
D21*
X100687500Y-74370000D03*
D18*
X95687500Y-75170000D03*
D19*
X100637597Y-73642252D02*
X103537487Y-73616946D01*
D22*
X93087500Y-83070000D03*
D23*
X98187500Y-85070000D03*
D17*
X86225762Y-94758710D02*
X84887500Y-96245000D01*
D21*
X91187500Y-93995000D03*
D18*
X86187500Y-94795000D03*
D19*
X91137597Y-93267252D02*
X94037487Y-93241946D01*
D22*
X83587500Y-102695000D03*
D23*
X88687500Y-104695000D03*
D17*
X19725762Y-79883710D02*
X18387500Y-81370000D01*
D21*
X24687500Y-79120000D03*
D18*
X19687500Y-79920000D03*
D19*
X24637597Y-78392252D02*
X27537487Y-78366946D01*
D22*
X17087500Y-87820000D03*
D23*
X22187500Y-89820000D03*
D17*
X181223109Y-77509142D02*
X179884847Y-78995432D01*
D21*
X186184847Y-76745432D03*
D18*
X181184847Y-77545432D03*
D19*
X186134944Y-76017684D02*
X189034834Y-75992378D01*
D22*
X178584847Y-85445432D03*
D23*
X183684847Y-87445432D03*
D17*
X276223109Y-60884142D02*
X274884847Y-62370432D01*
D21*
X281184847Y-60120432D03*
D18*
X276184847Y-60920432D03*
D19*
X281134944Y-59392684D02*
X284034834Y-59367378D01*
D22*
X273584847Y-68820432D03*
D23*
X278684847Y-70820432D03*
D17*
X257223109Y-41884142D02*
X255884847Y-43370432D01*
D21*
X262184847Y-41120432D03*
D18*
X257184847Y-41920432D03*
D19*
X262134944Y-40392684D02*
X265034834Y-40367378D01*
D22*
X254584847Y-49820432D03*
D23*
X259684847Y-51820432D03*
D17*
X209723109Y-94759142D02*
X208384847Y-96245432D01*
D21*
X214684847Y-93995432D03*
D18*
X209684847Y-94795432D03*
D19*
X214634944Y-93267684D02*
X217534834Y-93242378D01*
D22*
X207084847Y-102695432D03*
D23*
X212184847Y-104695432D03*
D17*
X200223109Y-75134142D02*
X198884847Y-76620432D01*
D21*
X205184847Y-74370432D03*
D18*
X200184847Y-75170432D03*
D19*
X205134944Y-73642684D02*
X208034834Y-73617378D01*
D22*
X197584847Y-83070432D03*
D23*
X202684847Y-85070432D03*
D17*
X238223109Y-75134142D02*
X236884847Y-76620432D01*
D21*
X243184847Y-74370432D03*
D18*
X238184847Y-75170432D03*
D19*
X243134944Y-73642684D02*
X246034834Y-73617378D01*
D22*
X235584847Y-83070432D03*
D23*
X240684847Y-85070432D03*
D17*
X257223109Y-79884142D02*
X255884847Y-81370432D01*
D21*
X262184847Y-79120432D03*
D18*
X257184847Y-79920432D03*
D19*
X262134944Y-78392684D02*
X265034834Y-78367378D01*
D22*
X254584847Y-87820432D03*
D23*
X259684847Y-89820432D03*
D17*
X276223109Y-79884142D02*
X274884847Y-81370432D01*
D21*
X281184847Y-79120432D03*
D18*
X276184847Y-79920432D03*
D19*
X281134944Y-78392684D02*
X284034834Y-78367378D01*
D22*
X273584847Y-87820432D03*
D23*
X278684847Y-89820432D03*
D17*
X219223109Y-53759142D02*
X217884847Y-55245432D01*
D21*
X224184847Y-52995432D03*
D18*
X219184847Y-53795432D03*
D19*
X224134944Y-52267684D02*
X227034834Y-52242378D01*
D22*
X216584847Y-61695432D03*
D23*
X221684847Y-63695432D03*
D17*
X238223109Y-56134142D02*
X236884847Y-57620432D01*
D21*
X243184847Y-55370432D03*
D18*
X238184847Y-56170432D03*
D19*
X243134944Y-54642684D02*
X246034834Y-54617378D01*
D22*
X235584847Y-64070432D03*
D23*
X240684847Y-66070432D03*
D17*
X257223109Y-60884142D02*
X255884847Y-62370432D01*
D21*
X262184847Y-60120432D03*
D18*
X257184847Y-60920432D03*
D19*
X262134944Y-59392684D02*
X265034834Y-59367378D01*
D22*
X254584847Y-68820432D03*
D23*
X259684847Y-70820432D03*
D17*
X219223109Y-34759142D02*
X217884847Y-36245432D01*
D21*
X224184847Y-33995432D03*
D18*
X219184847Y-34795432D03*
D19*
X224134944Y-33267684D02*
X227034834Y-33242378D01*
D22*
X216584847Y-42695432D03*
D23*
X221684847Y-44695432D03*
D17*
X238223109Y-37134142D02*
X236884847Y-38620432D01*
D21*
X243184847Y-36370432D03*
D18*
X238184847Y-37170432D03*
D19*
X243134944Y-35642684D02*
X246034834Y-35617378D01*
D22*
X235584847Y-45070432D03*
D23*
X240684847Y-47070432D03*
D17*
X276223109Y-41884142D02*
X274884847Y-43370432D01*
D21*
X281184847Y-41120432D03*
D18*
X276184847Y-41920432D03*
D19*
X281134944Y-40392684D02*
X284034834Y-40367378D01*
D22*
X273584847Y-49820432D03*
D23*
X278684847Y-51820432D03*
D17*
X76725762Y-34758710D02*
X75387500Y-36245000D01*
D21*
X81687500Y-33995000D03*
D18*
X76687500Y-34795000D03*
D19*
X81637597Y-33267252D02*
X84537487Y-33241946D01*
D22*
X74087500Y-42695000D03*
D23*
X79187500Y-44695000D03*
D17*
X95725762Y-37133710D02*
X94387500Y-38620000D01*
D21*
X100687500Y-36370000D03*
D18*
X95687500Y-37170000D03*
D19*
X100637597Y-35642252D02*
X103537487Y-35616946D01*
D22*
X93087500Y-45070000D03*
D23*
X98187500Y-47070000D03*
D17*
X114725762Y-39508710D02*
X113387500Y-40995000D01*
D21*
X119687500Y-38745000D03*
D18*
X114687500Y-39545000D03*
D19*
X119637597Y-38017252D02*
X122537487Y-37991946D01*
D22*
X112087500Y-47445000D03*
D23*
X117187500Y-49445000D03*
D24*
X156454247Y-42208432D03*
X156454247Y-44748432D03*
X156454247Y-47288432D03*
X156454247Y-49828432D03*
X156454247Y-52368432D03*
X156454247Y-54908432D03*
X156454247Y-57448432D03*
X156454247Y-59988432D03*
X156454247Y-62528432D03*
X156454247Y-65068432D03*
X156454247Y-67608432D03*
X156454247Y-70148432D03*
X171674247Y-70148432D03*
X171674247Y-67608432D03*
X171674247Y-65068432D03*
X171674247Y-62528432D03*
X171674247Y-59988432D03*
X171674247Y-57448432D03*
X171674247Y-54908432D03*
X171674247Y-52368432D03*
X171674247Y-49828432D03*
X171674247Y-47288432D03*
X171674247Y-44748432D03*
X171674247Y-42208432D03*
X129283900Y-42082000D03*
X129283900Y-44622000D03*
X129283900Y-47162000D03*
X129283900Y-49702000D03*
X129283900Y-52242000D03*
X129283900Y-54782000D03*
X129283900Y-57322000D03*
X129283900Y-59862000D03*
X129283900Y-62402000D03*
X129283900Y-64942000D03*
X129283900Y-67482000D03*
X129283900Y-70022000D03*
X144503900Y-70022000D03*
X144503900Y-67482000D03*
X144503900Y-64942000D03*
X144503900Y-62402000D03*
X144503900Y-59862000D03*
X144503900Y-57322000D03*
X144503900Y-54782000D03*
X144503900Y-52242000D03*
X144503900Y-49702000D03*
X144503900Y-47162000D03*
X144503900Y-44622000D03*
X144503900Y-42082000D03*
D25*
X239640000Y-93390000D03*
X238452500Y-93390000D03*
X240233750Y-93390000D03*
X239046250Y-93390000D03*
X243202500Y-93390000D03*
X242608750Y-93390000D03*
X242015000Y-93390000D03*
X241421250Y-93390000D03*
X240827500Y-93390000D03*
X277640000Y-93390000D03*
X276452500Y-93390000D03*
X278233750Y-93390000D03*
X277046250Y-93390000D03*
X281202500Y-93390000D03*
X280608750Y-93390000D03*
X280015000Y-93390000D03*
X279421250Y-93390000D03*
X278827500Y-93390000D03*
X239610000Y-31970000D03*
X238422500Y-31970000D03*
X240203750Y-31970000D03*
X239016250Y-31970000D03*
X243172500Y-31970000D03*
X242578750Y-31970000D03*
X241985000Y-31970000D03*
X241391250Y-31970000D03*
X240797500Y-31970000D03*
X201590000Y-31980000D03*
X200402500Y-31980000D03*
X202183750Y-31980000D03*
X200996250Y-31980000D03*
X205152500Y-31980000D03*
X204558750Y-31980000D03*
X203965000Y-31980000D03*
X203371250Y-31980000D03*
X202777500Y-31980000D03*
X97070000Y-31970000D03*
X95882500Y-31970000D03*
X97663750Y-31970000D03*
X96476250Y-31970000D03*
X100632500Y-31970000D03*
X100038750Y-31970000D03*
X99445000Y-31970000D03*
X98851250Y-31970000D03*
X98257500Y-31970000D03*
X59100000Y-31970000D03*
X57912500Y-31970000D03*
X59693750Y-31970000D03*
X58506250Y-31970000D03*
X62662500Y-31970000D03*
X62068750Y-31970000D03*
X61475000Y-31970000D03*
X60881250Y-31970000D03*
X60287500Y-31970000D03*
X58997000Y-93380000D03*
X57809500Y-93380000D03*
X59590750Y-93380000D03*
X58403250Y-93380000D03*
X62559500Y-93380000D03*
X61965750Y-93380000D03*
X61372000Y-93380000D03*
X60778250Y-93380000D03*
X60184500Y-93380000D03*
X21008750Y-93380000D03*
X19821250Y-93380000D03*
X21602500Y-93380000D03*
X20415000Y-93380000D03*
X24571250Y-93380000D03*
X23977500Y-93380000D03*
X23383750Y-93380000D03*
X22790000Y-93380000D03*
X22196250Y-93380000D03*
M02*
