M48
; DRILL file {KiCad 5.1.5+dfsg1-2build2} date нд, 11-лип-2021 13:57:15 +0300
; FORMAT={-:-/ absolute / metric / decimal}
; #@! TF.CreationDate,2021-07-11T13:57:15+03:00
; #@! TF.GenerationSoftware,Kicad,Pcbnew,5.1.5+dfsg1-2build2
; #@! TF.FileFunction,NonPlated,1,2,NPTH
FMAT,2
METRIC
T1C0.300
T2C1.200
T3C1.700
T4C1.800
T5C2.300
T6C4.300
T7C4.900
%
G90
G05
T1
X200.403Y-31.98
X200.996Y-31.98
X201.59Y-31.98
X202.184Y-31.98
X202.778Y-31.98
X203.371Y-31.98
X203.965Y-31.98
X204.559Y-31.98
X205.153Y-31.98
X276.452Y-93.39
X277.046Y-93.39
X277.64Y-93.39
X278.234Y-93.39
X278.827Y-93.39
X279.421Y-93.39
X280.015Y-93.39
X280.609Y-93.39
X281.202Y-93.39
X95.882Y-31.97
X96.476Y-31.97
X97.07Y-31.97
X97.664Y-31.97
X98.257Y-31.97
X98.851Y-31.97
X99.445Y-31.97
X100.039Y-31.97
X100.632Y-31.97
X238.452Y-93.39
X239.046Y-93.39
X239.64Y-93.39
X240.234Y-93.39
X240.827Y-93.39
X241.421Y-93.39
X242.015Y-93.39
X242.609Y-93.39
X243.202Y-93.39
X238.422Y-31.97
X239.016Y-31.97
X239.61Y-31.97
X240.204Y-31.97
X240.797Y-31.97
X241.391Y-31.97
X241.985Y-31.97
X242.579Y-31.97
X243.172Y-31.97
X57.912Y-31.97
X58.506Y-31.97
X59.1Y-31.97
X59.694Y-31.97
X60.287Y-31.97
X60.881Y-31.97
X61.475Y-31.97
X62.069Y-31.97
X62.662Y-31.97
X57.809Y-93.38
X58.403Y-93.38
X58.997Y-93.38
X59.591Y-93.38
X60.184Y-93.38
X60.778Y-93.38
X61.372Y-93.38
X61.966Y-93.38
X62.559Y-93.38
X19.821Y-93.38
X20.415Y-93.38
X21.009Y-93.38
X21.602Y-93.38
X22.196Y-93.38
X22.79Y-93.38
X23.384Y-93.38
X23.977Y-93.38
X24.571Y-93.38
T2
X156.108Y-84.565
X163.108Y-84.565
X137.714Y-84.432
X144.714Y-84.432
T3
X74.108Y-76.795
X84.267Y-76.795
X254.605Y-83.92
X264.765Y-83.92
X178.605Y-43.545
X188.765Y-43.545
X36.108Y-45.92
X46.267Y-45.92
X166.395Y-100.896
X171.475Y-109.695
X216.605Y-38.795
X226.765Y-38.795
X74.108Y-57.795
X84.267Y-57.795
X17.107Y-45.92
X27.267Y-45.92
X254.605Y-64.92
X264.765Y-64.92
X112.108Y-81.545
X122.267Y-81.545
X207.105Y-98.795
X217.265Y-98.795
X178.605Y-62.545
X188.765Y-62.545
X197.605Y-79.17
X207.765Y-79.17
X17.107Y-83.92
X27.267Y-83.92
X93.108Y-79.17
X103.267Y-79.17
X93.108Y-41.17
X103.267Y-41.17
X17.107Y-64.92
X27.267Y-64.92
X104.781Y-100.23
X114.594Y-102.86
X273.605Y-83.92
X283.765Y-83.92
X36.108Y-83.92
X46.267Y-83.92
X129.398Y-109.694
X134.477Y-100.896
X216.605Y-76.795
X226.765Y-76.795
X93.108Y-60.17
X103.267Y-60.17
X178.605Y-81.545
X188.765Y-81.545
X235.605Y-41.17
X245.765Y-41.17
X36.108Y-64.92
X46.267Y-64.92
X216.605Y-57.795
X226.765Y-57.795
X186.278Y-102.86
X196.092Y-100.231
X273.605Y-64.92
X283.765Y-64.92
X197.605Y-60.17
X207.765Y-60.17
X273.605Y-45.92
X283.765Y-45.92
X112.108Y-43.545
X122.267Y-43.545
X55.107Y-79.17
X65.267Y-79.17
X197.605Y-41.17
X207.765Y-41.17
X235.605Y-79.17
X245.765Y-79.17
X235.605Y-60.17
X245.765Y-60.17
X254.605Y-45.92
X264.765Y-45.92
X112.108Y-62.545
X122.267Y-62.545
X74.108Y-38.795
X84.267Y-38.795
X55.107Y-41.17
X65.267Y-41.17
X55.107Y-60.17
X65.267Y-60.17
X83.608Y-98.795
X93.767Y-98.795
T4
X254.185Y-83.92
X265.185Y-83.92
X178.185Y-43.545
X189.185Y-43.545
X35.688Y-45.92
X46.688Y-45.92
X166.185Y-100.532
X171.685Y-110.059
X216.185Y-38.795
X227.185Y-38.795
X73.688Y-57.795
X84.688Y-57.795
X16.688Y-45.92
X27.688Y-45.92
X254.185Y-64.92
X265.185Y-64.92
X111.688Y-81.545
X122.688Y-81.545
X206.685Y-98.795
X217.685Y-98.795
X178.185Y-62.545
X189.185Y-62.545
X197.185Y-79.17
X208.185Y-79.17
X16.688Y-83.92
X27.688Y-83.92
X92.688Y-79.17
X103.688Y-79.17
X92.688Y-41.17
X103.688Y-41.17
X16.688Y-64.92
X27.688Y-64.92
X104.375Y-100.121
X115.0Y-102.969
X273.185Y-83.92
X284.185Y-83.92
X35.688Y-83.92
X46.688Y-83.92
X129.188Y-110.058
X134.688Y-100.532
X216.185Y-76.795
X227.185Y-76.795
X92.688Y-60.17
X103.688Y-60.17
X178.185Y-81.545
X189.185Y-81.545
X235.185Y-41.17
X246.185Y-41.17
X35.688Y-64.92
X46.688Y-64.92
X216.185Y-57.795
X227.185Y-57.795
X185.872Y-102.969
X196.497Y-100.122
X273.185Y-64.92
X284.185Y-64.92
X197.185Y-60.17
X208.185Y-60.17
X273.185Y-45.92
X284.185Y-45.92
X111.688Y-43.545
X122.688Y-43.545
X54.688Y-79.17
X65.688Y-79.17
X197.185Y-41.17
X208.185Y-41.17
X235.185Y-79.17
X246.185Y-79.17
X235.185Y-60.17
X246.185Y-60.17
X254.185Y-45.92
X265.185Y-45.92
X111.688Y-62.545
X122.688Y-62.545
X73.688Y-38.795
X84.688Y-38.795
X54.688Y-41.17
X65.688Y-41.17
X54.688Y-60.17
X65.688Y-60.17
X83.188Y-98.795
X94.188Y-98.795
X73.688Y-76.795
X84.688Y-76.795
T5
X129.945Y-84.419
X156.331Y-93.085
X144.376Y-92.94
X170.89Y-84.542
T6
X121.405Y-99.3
X50.712Y-55.445
X193.236Y-51.937
X31.695Y-74.42
X250.212Y-55.427
X50.712Y-74.445
X250.212Y-74.427
X74.84Y-91.685
X179.486Y-99.447
X269.196Y-55.427
X107.65Y-51.93
X269.196Y-74.427
X31.695Y-55.42
X226.056Y-91.697
T7
X79.188Y-38.795
X60.188Y-41.17
X60.188Y-60.17
X88.688Y-98.795
X79.188Y-76.795
X259.685Y-83.92
X183.685Y-43.545
X41.188Y-45.92
X168.935Y-105.295
X221.685Y-38.795
X79.188Y-57.795
X22.188Y-45.92
X259.685Y-64.92
X117.188Y-81.545
X212.185Y-98.795
X183.685Y-62.545
X202.685Y-79.17
X22.188Y-83.92
X98.188Y-79.17
X98.188Y-41.17
X22.188Y-64.92
X109.688Y-101.545
X278.685Y-83.92
X41.188Y-83.92
X131.938Y-105.295
X221.685Y-76.795
X98.188Y-60.17
X183.685Y-81.545
X240.685Y-41.17
X41.188Y-64.92
X221.685Y-57.795
X191.185Y-101.545
X278.685Y-64.92
X202.685Y-60.17
X278.685Y-45.92
X117.188Y-43.545
X60.188Y-79.17
X202.685Y-41.17
X240.685Y-79.17
X240.685Y-60.17
X259.685Y-45.92
X117.188Y-62.545
T0
M30
