G04 #@! TF.GenerationSoftware,KiCad,Pcbnew,5.1.5+dfsg1-2build2*
G04 #@! TF.CreationDate,2021-07-11T13:57:06+03:00*
G04 #@! TF.ProjectId,corne-light,636f726e-652d-46c6-9967-68742e6b6963,2.0*
G04 #@! TF.SameCoordinates,Original*
G04 #@! TF.FileFunction,Soldermask,Top*
G04 #@! TF.FilePolarity,Negative*
%FSLAX46Y46*%
G04 Gerber Fmt 4.6, Leading zero omitted, Abs format (unit mm)*
G04 Created by KiCad (PCBNEW 5.1.5+dfsg1-2build2) date 2021-07-11 13:57:06*
%MOMM*%
%LPD*%
G04 APERTURE LIST*
%ADD10C,4.700000*%
%ADD11O,1.700000X2.178000*%
%ADD12R,1.700000X2.178000*%
%ADD13C,1.600000*%
%ADD14C,2.700000*%
%ADD15C,0.700000*%
G04 APERTURE END LIST*
D10*
X250212500Y-55426932D03*
X250212500Y-74426932D03*
X50712500Y-55445000D03*
X50712500Y-74445000D03*
D11*
X30187500Y-80916875D03*
D12*
X30187500Y-86916875D03*
D11*
X33187500Y-80920000D03*
D12*
X33187500Y-86920000D03*
D11*
X270684847Y-80920432D03*
D12*
X270684847Y-86920432D03*
D11*
X109187500Y-56920000D03*
D12*
X109187500Y-62920000D03*
D11*
X191684847Y-56920432D03*
D12*
X191684847Y-62920432D03*
D11*
X194684847Y-56920432D03*
D12*
X194684847Y-62920432D03*
D11*
X229684847Y-56915432D03*
D12*
X229684847Y-62915432D03*
D11*
X232684847Y-56920432D03*
D12*
X232684847Y-62920432D03*
D11*
X267684847Y-61920432D03*
D12*
X267684847Y-67920432D03*
D11*
X270684847Y-61920432D03*
D12*
X270684847Y-67920432D03*
D11*
X191684847Y-37920432D03*
D12*
X191684847Y-43920432D03*
D11*
X194684847Y-37920432D03*
D12*
X194684847Y-43920432D03*
D11*
X229684847Y-37915432D03*
D12*
X229684847Y-43915432D03*
D11*
X232684847Y-37920432D03*
D12*
X232684847Y-43920432D03*
D11*
X267684847Y-42920432D03*
D12*
X267684847Y-48920432D03*
D11*
X270684847Y-42920432D03*
D12*
X270684847Y-48920432D03*
D11*
X201194847Y-95915432D03*
D12*
X201194847Y-101915432D03*
D11*
X204194847Y-95915432D03*
D12*
X204194847Y-101915432D03*
D11*
X220184847Y-95930432D03*
D12*
X220184847Y-101930432D03*
D11*
X191684847Y-75920432D03*
D12*
X191684847Y-81920432D03*
D11*
X194684847Y-75920432D03*
D12*
X194684847Y-81920432D03*
D11*
X229684847Y-75915432D03*
D12*
X229684847Y-81915432D03*
D11*
X232684847Y-75920432D03*
D12*
X232684847Y-81920432D03*
D11*
X267684847Y-80920432D03*
D12*
X267684847Y-86920432D03*
D11*
X30187500Y-42916875D03*
D12*
X30187500Y-48916875D03*
D11*
X33187500Y-42920000D03*
D12*
X33187500Y-48920000D03*
D11*
X68187500Y-37920000D03*
D12*
X68187500Y-43920000D03*
D11*
X71187500Y-37915000D03*
D12*
X71187500Y-43915000D03*
D11*
X106187500Y-37920000D03*
D12*
X106187500Y-43920000D03*
D11*
X109187500Y-37920000D03*
D12*
X109187500Y-43920000D03*
D11*
X30187500Y-61916875D03*
D12*
X30187500Y-67916875D03*
D11*
X33187500Y-61920000D03*
D12*
X33187500Y-67920000D03*
D11*
X68187500Y-56920000D03*
D12*
X68187500Y-62920000D03*
D11*
X71187500Y-56915000D03*
D12*
X71187500Y-62915000D03*
D11*
X106187500Y-56920000D03*
D12*
X106187500Y-62920000D03*
D11*
X68187500Y-75920000D03*
D12*
X68187500Y-81920000D03*
D11*
X71187500Y-75915000D03*
D12*
X71187500Y-81915000D03*
D11*
X106187500Y-75920000D03*
D12*
X106187500Y-81920000D03*
D11*
X109187500Y-75920000D03*
D12*
X109187500Y-81920000D03*
D11*
X80507500Y-95910000D03*
D12*
X80507500Y-101910000D03*
D11*
X96687500Y-95905000D03*
D12*
X96687500Y-101905000D03*
D11*
X99687500Y-95905000D03*
D12*
X99687500Y-101905000D03*
D13*
X163107847Y-84565432D03*
X156107847Y-84565432D03*
X137714500Y-84432000D03*
X144714500Y-84432000D03*
D14*
X170889847Y-84542432D03*
X156330847Y-93085432D03*
X144376500Y-92940000D03*
X129944500Y-84419000D03*
D10*
X269195847Y-74426932D03*
X269195847Y-55426932D03*
X226055847Y-91696932D03*
X179485847Y-99446932D03*
X193235847Y-51936932D03*
X121405500Y-99300000D03*
X74839500Y-91685500D03*
X31695500Y-55420500D03*
X107650500Y-51930500D03*
X31695500Y-74420500D03*
D15*
X239640000Y-93390000D03*
X238452500Y-93390000D03*
X240233750Y-93390000D03*
X239046250Y-93390000D03*
X243202500Y-93390000D03*
X242608750Y-93390000D03*
X242015000Y-93390000D03*
X241421250Y-93390000D03*
X240827500Y-93390000D03*
X277640000Y-93390000D03*
X276452500Y-93390000D03*
X278233750Y-93390000D03*
X277046250Y-93390000D03*
X281202500Y-93390000D03*
X280608750Y-93390000D03*
X280015000Y-93390000D03*
X279421250Y-93390000D03*
X278827500Y-93390000D03*
X239610000Y-31970000D03*
X238422500Y-31970000D03*
X240203750Y-31970000D03*
X239016250Y-31970000D03*
X243172500Y-31970000D03*
X242578750Y-31970000D03*
X241985000Y-31970000D03*
X241391250Y-31970000D03*
X240797500Y-31970000D03*
X201590000Y-31980000D03*
X200402500Y-31980000D03*
X202183750Y-31980000D03*
X200996250Y-31980000D03*
X205152500Y-31980000D03*
X204558750Y-31980000D03*
X203965000Y-31980000D03*
X203371250Y-31980000D03*
X202777500Y-31980000D03*
X97070000Y-31970000D03*
X95882500Y-31970000D03*
X97663750Y-31970000D03*
X96476250Y-31970000D03*
X100632500Y-31970000D03*
X100038750Y-31970000D03*
X99445000Y-31970000D03*
X98851250Y-31970000D03*
X98257500Y-31970000D03*
X59100000Y-31970000D03*
X57912500Y-31970000D03*
X59693750Y-31970000D03*
X58506250Y-31970000D03*
X62662500Y-31970000D03*
X62068750Y-31970000D03*
X61475000Y-31970000D03*
X60881250Y-31970000D03*
X60287500Y-31970000D03*
X58997000Y-93380000D03*
X57809500Y-93380000D03*
X59590750Y-93380000D03*
X58403250Y-93380000D03*
X62559500Y-93380000D03*
X61965750Y-93380000D03*
X61372000Y-93380000D03*
X60778250Y-93380000D03*
X60184500Y-93380000D03*
X21008750Y-93380000D03*
X19821250Y-93380000D03*
X21602500Y-93380000D03*
X20415000Y-93380000D03*
X24571250Y-93380000D03*
X23977500Y-93380000D03*
X23383750Y-93380000D03*
X22790000Y-93380000D03*
X22196250Y-93380000D03*
M02*
